<svg width="1920" height="1080" viewBox="0 0 1920 1080" fill="none" xmlns="http://www.w3.org/2000/svg">
<g clip-path="url(#clip0_215_58725)">
<path d="M0 -110V450L71.53 426.271L90.863 402.542L74.863 371.989L66.782 356.56L56.066 336.102L147.356 273.957C236.461 263.942 335.148 247.507 351.443 224.65C490.65 171.763 601.434 233.184 601.434 233.184C601.434 233.184 621.598 235.505 650.942 238.742L672.77 260.728L738.046 278.856L771.364 313.05C777.164 307.626 808.096 278.856 808.096 278.856L825.364 256.193L874.095 257.193C874.095 257.193 896.683 230.459 925.007 197.464C933.382 187.708 942.252 177.41 951.195 167.087C988.189 124.387 989.166 106.244 1031.94 94.856C1074.71 83.468 1091.7 122.956 1126.55 131.137C1182.04 135.761 1263.81 94.856 1276.66 94.856C1288.04 91.299 1272 58.211 1311.74 66.375C1348.49 73.922 1381.38 81.186 1381.38 81.186C1381.38 81.186 1400.18 70.641 1426.59 55.751C1453.29 40.704 1487.76 21.219 1518.48 3.68999L1595.29 15.857L1607.09 26.257L1620.93 38.45L1640.7 77.994L1660.37 31.077L1679.34 24.868L1687.49 22.201L1710.99 8.253C1710.99 8.253 1733.36 14.846 1746.17 19.7C1750.14 21.206 1753.2 22.547 1754.38 23.47C1774.03 38.87 1785.08 67.433 1785.08 67.433L1809.86 121.003C1809.86 121.003 1832.06 51.308 1828.44 44.968L1888.19 14.183L1904.33 5.86401L1933.23 17.008V-109.992L0 -110Z" fill="#2F122E"/>
<path d="M1008 74.9541L856.841 234.11L804.055 238.91L993.603 74.9551L1008 74.9541Z" fill="#260F27"/>
<path d="M976.145 74.9541L853.779 164.93H830.585L976.145 74.9541Z" fill="#260F27"/>
<path d="M670.629 14.571L451.489 54.5601L240 37.7639L111.582 68.156H462.682L670.629 14.571Z" fill="#260F27"/>
<path d="M576.224 48.363L305.1 127.541C305.1 127.541 433.065 116.341 438.663 115.541C444.261 114.741 576.224 48.363 576.224 48.363Z" fill="#260F27"/>
<path d="M1467.12 6.1521L1371.24 66.552L1427.99 7.78906L1467.12 6.1521Z" fill="#260F27"/>
<path d="M1075.58 79.8369C1001.49 60.2629 1131.14 122.352 1191.97 107.198C1191.97 107.408 1221.01 81.3101 1221.01 81.3101C1221.01 81.3101 1149.66 99.4109 1075.58 79.8369Z" fill="#260F27"/>
</g>
<defs>
<clipPath id="clip0_215_58725">
<rect width="1920" height="1080" fill="white"/>
</clipPath>
</defs>
</svg>
