<svg width="1920" height="960" viewBox="0 0 1920 960" fill="none" xmlns="http://www.w3.org/2000/svg">
<g clip-path="url(#clip0_213_55543)">
<mask id="mask0_213_55543" style="mask-type:luminance" maskUnits="userSpaceOnUse" x="0" y="0" width="1920" height="960">
<path d="M1920 0H0V960H1920V0Z" fill="white"/>
</mask>
<g mask="url(#mask0_213_55543)">
<path fill-rule="evenodd" clip-rule="evenodd" d="M1952.56 -17.998C1588.86 -53.793 2.27205 -17.998 2.27205 -17.998L-31.4189 468.217V879.111H29.7661L60.4061 561.266L77.029 550.923L85.8811 560.064L122.765 524.042L129.175 489.653C240.675 329.824 552.14 214.521 552.14 214.521L565.617 281.008H570.053L576.439 307.933L582.356 303.919L588.014 239.452L593.344 231.716L608.483 194.781C811.313 144.058 906.759 145.177 906.759 145.177H919.559L942.286 188.162L957.054 191.02L988.046 185.304L1022.35 163.527C1138.45 165.819 1256.73 208.215 1256.73 208.215H1262.37L1281.34 326.851L1288.05 328.552L1300.64 431.151L1310.31 432.852L1317.9 415.655L1324.54 397.62L1335.36 260.928L1372.88 253.193L1407.7 267.824L1410.05 272.837L1464.64 389.658L1465.95 392.448L1471.82 405.014L1514.86 457.982L1580.88 638.34L1616.93 685.822L1741.18 879.105L2005.32 870.046L2052.33 379.654L1952.56 -17.998ZM1482.85 393.475L1469.73 378.027L1448.36 287.315L1456.63 246.052L1483.98 235.732L1558.71 281.576C1560.97 288.177 1563.06 294.559 1565 300.721C1592.17 387.328 1589.54 433.285 1589.54 433.285L1572.89 445.692L1482.85 393.475Z" fill="#1F0E20"/>
<path opacity="0.53" d="M1597.14 640.093L1583.76 642.107L1580.87 638.346L1616.49 629.704L1636.49 596.064L1620.36 494.736L1551.52 451.931L1542.58 450.385L1525.72 465.333L1514.85 457.983L1471.81 405.017L1481.58 413.365V397.625L1468.6 380.428L1467.05 381.925L1465.95 392.45L1464.63 389.659L1467.05 379.339L1436.78 278.782L1424.34 271.682L1410.04 272.842L1407.69 267.828L1424.33 269.538L1436.78 270.82L1418.1 258.367L1357.71 226.133L1307.77 241.604L1338.03 252.763L1372.88 253.195L1335.36 260.93L1326 379.1L1324.53 397.625L1310.3 432.854L1300.63 431.154L1316.67 395.041V375.259L1315.42 369.945L1302.89 316.396L1298.87 318.098L1288.05 328.555L1281.33 326.855L1292.2 319.391V229.561L1262.36 208.216L1361.53 215.938L1377.29 217.165L1378.95 204.639L1364.38 197.393L1355.15 192.81L1327.35 178.994L1326.43 178.759L1238.03 156.288L1099.61 130.048L1243.51 139.3L1361.74 146.902L1582.53 185.736L1612.05 214.024L1466.11 172.897L1357.71 172.398L1371.05 194.241L1375.03 200.775L1483.51 230.286H1510.15L1483.98 235.729L1456.62 246.051L1448.36 287.313L1469.72 378.026L1482.85 393.474L1572.89 445.692L1589.53 433.285L1611.18 455.151L1627.64 389.414L1623.62 365.278L1565 300.72L1564.01 299.631L1558.7 281.574L1639.7 365.648L1656.99 383.584L1661 391.819L1666.71 389.414L1674.78 340.711L1652.99 244.169L1666.71 259.663L1711.71 373.126L1749.75 396.314L1763.48 391.822L1752.64 343.46L1735.34 306.939L1801.99 352.488L1788.23 405.361L1780.44 455.152L1784.87 509.546L1777.55 537.514L1782.03 597.083L1774.4 602.459L1778.72 416.815L1699.25 383.579L1688.68 385.734L1673.21 425.153L1700.76 489.037L1746.6 595.371V623.477L1739 623L1735.34 592.808L1659.05 408.794L1648.83 405.758L1627.2 451.931L1626.89 495.302L1642.76 595.384L1680.81 649.457L1597.14 640.093ZM-31.4199 468.217L4.05786 415.718L57.439 333.963L59.6731 333.421L186.883 145.177L678.883 115.211L479.206 167.705L467.051 193.037L642.263 180.573L681.647 177.495L595.976 197.331L571.964 203.783L574.912 227.852L593.345 231.717L588.016 239.452L578.442 230.427L571.964 231.932L569.1 275.341L577.33 304.137L582.358 303.918L576.442 307.933L570.055 281.009H565.618L552.141 214.522L515.094 229.363L569.094 190.886L358.461 217.103L181.482 299.624L184.902 307.79H278.679L277.44 308.757L322.414 309.546L349.889 310.029L334.45 318.775L318.996 317.808L284.736 315.669L267.111 316.815L106.537 365.857L51.3611 461.802L102.387 478.269L129.173 489.654L122.763 524.042L112.974 516.923L88.282 529.991L85.8821 560.064L77.03 550.923L60.407 561.267L67.321 541.351L96.5879 499.219L88.2881 488.61L24.377 450.387L13.4141 469.724L4.05591 560.018L11.656 618.828L2.26807 619.629L-31.4199 468.217ZM982.738 176.129L919.553 145.176L1017.3 149.767L1043.19 164.355L1022.34 163.527L988.042 185.304L982.738 176.129Z" fill="#2D112C"/>
</g>
</g>
<defs>
<clipPath id="clip0_213_55543">
<rect width="1920" height="960" fill="white"/>
</clipPath>
</defs>
</svg>
