<svg width="1920" height="960" viewBox="0 0 1920 960" fill="none" xmlns="http://www.w3.org/2000/svg">
<g clip-path="url(#clip0_213_55603)">
<path fill-rule="evenodd" clip-rule="evenodd" d="M-3.54004 949.9H1931.14V704.6L1922.14 706.835L1835.39 831.869L1828.55 836.359L1774.93 822.447L1758.06 814.685H1746.79L1730.7 832.965L1715.35 800.065L1700.36 730.236L1693.46 721.678L1685.01 718.171L1649.18 728.771L1578.62 791.654L1563.99 793.847L1541.7 770.447L1525.61 769.716L1439.45 820.534L1432.14 817.122L1393.14 791.287L1381.93 794.699L1357.55 853.682L1148.67 898.773H859.647L836.736 890.242L818.212 885.855L794.326 893.655L773.994 876.106L767.515 860.02L707.069 822.973L696.833 821.998L673.922 829.798L653.936 819.074L643.212 816.637L534.512 808.472L529.15 814.2L541.824 864.409L486.741 856.122L479.917 859.534L470.655 898.775L456.762 891.463L438.482 898.775L432.633 904.624H369.014L290.045 870.989H281.271L249.098 830.042L236.414 829.311L241.787 885.611L216.926 876.837L191.334 885.611L163.549 914.128L93.3489 816.148L31.197 756.19L23.885 754.727L7.79883 811.027L18.7668 870.985L1.59399 867.462L-3.54004 949.9Z" fill="url(#paint0_linear_213_55603)"/>
<path d="M139 856H-24V971H139V856Z" fill="url(#paint1_linear_213_55603)"/>
<path fill-rule="evenodd" clip-rule="evenodd" d="M38.884 898.777L45.0989 904.871L72.884 928.025L54.0349 916.332L47.657 912.798L27.9148 910.445L37.4211 917.757L63.012 932.777L105.787 943.745L95.9163 938.962L81.2922 930.584L113.83 943.746L143.799 949.9H58.5652L64.8401 943.015L54.0349 935.703L14.0222 910.446L7.80688 906.821L15.8499 906.09L38.884 898.777Z" fill="#4C1F41" fill-opacity="0.5"/>
<path fill-rule="evenodd" clip-rule="evenodd" d="M1649.18 728.774L1617.85 756.691L1609.69 768.625L1597.77 784.346L1585.2 795.862L1601.1 785.443L1602.2 780.66L1615.54 768.077L1629.07 769.357V785.257L1611.89 787.268L1604.94 787.451L1620.48 788.365L1638.76 785.806L1639.12 798.606L1636.02 809.391L1615.91 828.768L1610.97 835.238L1608.6 853.69L1605.31 851.253L1605.71 863.841L1585.19 909.383L1556.04 949.899H1609.69L1621.76 925.831L1651.74 856.002L1674.04 825.657L1659.41 853.686L1657.58 871.113L1667.46 847.593L1693.57 831.872H1710.23L1699.63 853.686L1649.54 903.164L1632.42 938.964L1720.32 834.037L1730.71 832.971L1715.35 800.071L1700.36 730.242L1693.46 721.684L1685.01 718.177L1649.18 728.774Z" fill="#3C1833"/>
<path fill-rule="evenodd" clip-rule="evenodd" d="M1321.33 949.9L1357.55 906.417L1397 859.049V865.279L1389.48 883.506L1413.37 847.593L1426.01 841.104L1439.44 820.539L1432.13 817.127L1393.13 791.291L1381.92 794.703L1357.55 853.686L1316.25 901.137L1326.69 891.546L1362.74 865.279H1357.54L1345.47 870.595L1369.54 842.885L1388.5 829.313L1368.91 859.048L1364.73 865.278L1372.05 859.048L1379.72 855.818L1369.54 868.618L1339.51 922.909L1321.33 949.9Z" fill="#3C1833"/>
<path fill-rule="evenodd" clip-rule="evenodd" d="M1525.6 769.722L1499.4 788.611L1494.04 794.948L1482.83 803.235L1499.65 797.31L1495.99 796.228L1505.5 791.292L1532.37 786.478L1530.77 797.31L1521.22 805.368L1513.72 822.452L1509.69 831.873L1534.38 801.529L1547.72 795.314L1563.99 793.852L1541.69 770.452L1525.6 769.722Z" fill="#3C1833"/>
<path fill-rule="evenodd" clip-rule="evenodd" d="M97.3547 898.78L78.7258 881.48L61.6638 851.105L64.5891 842.483L69.9509 849.429L100.251 871.121L84.571 856.131L58.553 822.009L51.6667 801.292L54.8347 795.473L60.4412 797.88L72.8718 796.409L31.1931 756.202L23.8811 754.739L7.79517 811.039L18.7629 870.997V860.273L14.863 826.76L13.6448 812.005L21.4451 809.334L30.219 832.489L36.3118 854.912L26.3191 863.443H22.176L27.5378 866.855L38.0178 867.342L56.2981 880.747L62.9978 887.084L97.3547 898.78Z" fill="#3C1833"/>
<path fill-rule="evenodd" clip-rule="evenodd" d="M1357.55 853.687L1309.61 908.77L1278.09 923.882L1258.35 924.282L1203.89 925.371L1166.59 925.834L1170.56 919.512L1250.31 913.373L1281.51 899.873L1291.19 893.72L1295.65 890.886L1256.16 899.874L1152 913.84L1195.71 903.162L1240.07 898.962L1217.41 903.162L1218.16 904.962L1253.05 899.41L1278.09 892.921L1287.51 885.521L1246.56 896.946L1242.63 897.769L1303.14 876.107L1328 866.602L1316.25 866.053L1289.84 868.299L1357.55 853.687Z" fill="#3C1833"/>
<path fill-rule="evenodd" clip-rule="evenodd" d="M643.213 816.64L653.938 819.077L727.404 853.687L677.336 835.163H669.049L643.213 839.063L652.475 849.421L657.837 845.887L678.311 856.123L647.967 852.315L586.503 830.288H559.309L563.269 836.381L554.495 853.686L588.203 878.303L591.203 901.584L608.603 903.084L660.762 912.8L693.662 913.89L698.293 922.908H677.332L647.963 914.658L572.463 903.083L554.486 901.292V895.162L517 860.679L541.813 864.412L529.139 814.203L534.501 808.475L643.213 816.64Z" fill="#3C1833"/>
<g style="mix-blend-mode:multiply" opacity="0.6">
<path fill-rule="evenodd" clip-rule="evenodd" d="M1391.8 865.873L1417.76 831.873L1414.83 819.443L1393.71 794.704H1381.93L1393.14 791.291L1432.14 817.127L1439.45 820.539L1421.78 847.593L1419.26 850.393L1421.05 856.363L1424.71 862.944L1481.74 866.235L1486.5 859.045L1534.39 801.524L1544.26 780.654L1541.7 770.448L1564 793.848L1578.62 791.655L1537.68 826.021L1540.97 834.034L1554.13 837.355L1632.42 834.034H1647.72L1655.03 813.956L1679.53 770.856L1685.02 727.308V762.04L1688.62 755.093L1692.22 726.211L1685.03 718.169L1693.48 721.676L1700.38 730.234L1715.37 800.063L1730.72 832.963L1629.07 949.899H1569.82L1615.9 876.073L1625.73 859.048L1544.25 878.539L1530.76 873.185L1517.2 859.049L1461.26 949.899H1452.12L1474.42 901.336L1476.99 875.013H1466.38L1421.04 866.239L1417.96 851.839L1329.76 949.899H1321.33L1358.16 901.699L1391.8 865.873Z" fill="#180919"/>
</g>
<g style="mix-blend-mode:multiply" opacity="0.6">
<path fill-rule="evenodd" clip-rule="evenodd" d="M479.912 859.536L486.736 856.123L515.009 894.145L534.32 897.07L565.22 894.145L541.82 864.41L529.146 814.201L554.494 853.686L591.206 880.497L612.99 886.347L724.619 894.147L751.795 890.856L767.516 877.085L760.691 868.555L675.701 829.196L696.833 822.002L693.665 830.289L742.165 853.689L767.514 860.026L773.993 876.112L794.324 893.66L818.21 885.86L813.091 894.147L838.439 898.534L859.639 898.778L819.18 903.409L529.626 901.094L491.848 915.594L816.499 913.644L1148.67 898.776L821.617 915.593L858.908 925.83L1278.09 912.669L1302.95 903.163L1357.55 853.685L1309.61 908.768L1278.09 923.879L860.007 928.023L808.823 922.904H480.887L470.65 898.775L479.912 859.536Z" fill="#371746"/>
</g>
<g style="mix-blend-mode:multiply" opacity="0.6">
<path fill-rule="evenodd" clip-rule="evenodd" d="M438.478 898.777L445.79 904.871L475.282 922.907L456.882 919.982L435.799 912.913L369.016 904.626H432.629L438.478 898.777Z" fill="#371746"/>
</g>
<g style="mix-blend-mode:multiply" opacity="0.6">
<path fill-rule="evenodd" clip-rule="evenodd" d="M290.046 870.991L286.755 877.206L302.11 913.4L369.01 904.626L349.999 908.404L315.389 912.547L307.711 917.056L320.994 949.899H305.884L281.267 870.991H290.046Z" fill="#371746"/>
</g>
<path fill-rule="evenodd" clip-rule="evenodd" d="M194.624 914.497V949.897H149.107L146.87 928.753L123.14 919.138L133.204 914.129L155.326 918.516L163.549 914.129L191.333 885.611L178.533 907.911L194.624 914.497Z" fill="#190B1A"/>
<path fill-rule="evenodd" clip-rule="evenodd" d="M277.615 866.361L269.752 858.561L260.914 849.155L257.385 845.399L260.914 852.315L270.114 866.36L273.964 875.696V868.066L277.615 875.696L282.739 888.052L276.396 880.496L273.963 878.79L279.563 892.195L295.713 931.495L267.864 870.995L257.384 857.834L253.728 856.128L251.778 862.222L251.047 881.964L244.71 865.39L240.079 867.583L236.413 829.317L249.097 830.048L277.615 866.361Z" fill="#3C1833"/>
<path fill-rule="evenodd" clip-rule="evenodd" d="M63.0088 887.078L72.8799 898.778H38.8799L18.7729 870.993L7.80518 811.035L18.7729 795.466L63.0088 887.078Z" fill="#2C112B"/>
<path fill-rule="evenodd" clip-rule="evenodd" d="M251.049 881.959L257.142 890.859L285.415 949.903H268.229L265 912.125L252.752 891.834L241.784 885.619L236.411 829.319L242.036 834.041L251.049 881.959Z" fill="#190B1A"/>
<path fill-rule="evenodd" clip-rule="evenodd" d="M302.11 913.399L315.393 912.546L307.716 917.055L321 949.898H305.89L282.741 875.698L286.757 877.208L302.111 913.402L302.11 913.399Z" fill="#190B1A"/>
<path fill-rule="evenodd" clip-rule="evenodd" d="M445.79 904.87L435.797 912.913L456.88 919.982L475.28 922.907L445.79 904.87Z" fill="#230C24"/>
<path fill-rule="evenodd" clip-rule="evenodd" d="M486.738 856.124L515.01 894.146L534.321 897.071L529.635 901.092L491.856 915.592L647.967 914.655L641.02 922.905H480.888L470.652 898.775L479.914 859.534L486.738 856.124Z" fill="#190B1A"/>
<path fill-rule="evenodd" clip-rule="evenodd" d="M554.495 853.682L591.207 880.493L612.991 886.343L615.796 901.778L569.359 901.406L565.219 894.142L541.819 864.407L529.145 814.198L554.495 853.682Z" fill="#190B1A"/>
<path fill-rule="evenodd" clip-rule="evenodd" d="M760.692 868.555L767.517 860.024L742.168 853.687L693.668 830.287L697.11 839.413L760.692 868.555Z" fill="#190B1A"/>
<path fill-rule="evenodd" clip-rule="evenodd" d="M1700.36 730.236L1692.2 726.215L1688.6 755.097L1685 762.044L1679.51 770.86L1655.01 813.96L1647.7 834.037L1581.3 836.205L1544.24 878.541L1625.72 859.05L1569.82 949.895H1629.07L1730.71 832.965L1715.35 800.065L1700.36 730.236Z" fill="#190B1A"/>
<path fill-rule="evenodd" clip-rule="evenodd" d="M1563.99 793.85L1537.67 826.023L1517.2 859.049L1461.26 949.9H1452.12L1474.42 901.336L1476.99 875.013L1481.73 866.239L1534.38 801.528L1544.25 780.658L1563.99 793.85Z" fill="#190B1A"/>
<path fill-rule="evenodd" clip-rule="evenodd" d="M1417.75 831.873L1426.01 841.104L1417.96 851.837L1329.76 949.9H1321.33L1358.16 901.7L1417.75 831.873Z" fill="#190B1A"/>
<path fill-rule="evenodd" clip-rule="evenodd" d="M1302.95 903.164L1309.61 908.77L1278.09 923.881L859.037 928.025L858.915 925.831L1278.09 912.67L1302.95 903.164Z" fill="#190B1A"/>
<path fill-rule="evenodd" clip-rule="evenodd" d="M794.327 893.658L778.48 903.082L688.18 902.36L724.618 894.146L751.794 890.856L767.515 877.085L794.327 893.658Z" fill="#190B1A"/>
<path fill-rule="evenodd" clip-rule="evenodd" d="M821.625 915.59L848.909 911.59L847.858 909.75L816.506 913.637L715.238 914.245L718.525 922.899H808.825L821.625 915.59Z" fill="#190B1A"/>
<g style="mix-blend-mode:soft-light">
<path fill-rule="evenodd" clip-rule="evenodd" d="M1430.19 847.594L1455.04 819.808L1478.83 797.308L1439.44 820.538L1421.77 847.592L1430.19 847.594Z" fill="#9F6E79"/>
</g>
<path fill-rule="evenodd" clip-rule="evenodd" d="M1347.39 855.88L1302.95 903.164L1278.09 912.67L858.916 925.831L821.624 915.594L1148.67 898.777L1347.39 855.88Z" fill="#30122E"/>
<path fill-rule="evenodd" clip-rule="evenodd" d="M100.259 871.113L112.852 877.084V870.99L118.702 877.084L135.032 901.213L117.646 883.664L100.259 871.113Z" fill="#3C1833"/>
<path fill-rule="evenodd" clip-rule="evenodd" d="M271.522 898.776L268.11 889.976L260.91 878.308L266.21 893.663L271.522 898.776Z" fill="#3C1833"/>
<path fill-rule="evenodd" clip-rule="evenodd" d="M1480.82 805.184L1474.79 807.926L1462.9 822.451L1480.82 805.184Z" fill="#3C1833"/>
<path fill-rule="evenodd" clip-rule="evenodd" d="M1482.83 844.425L1473.3 853.687L1468.21 859.049L1480.82 853.687L1482.83 844.425Z" fill="#3C1833"/>
<path fill-rule="evenodd" clip-rule="evenodd" d="M688.182 857.991L718.526 868.554L730.591 875.697L714.226 870.991L693.665 866.844L688.182 857.991Z" fill="#3C1833"/>
<path fill-rule="evenodd" clip-rule="evenodd" d="M1758.06 814.69L1774.93 822.452L1802.73 829.663L1773.47 831.873L1775.36 828.766L1761.71 823.992L1767.22 831.873H1769.33L1765.64 834.036L1767.22 838.057L1759.5 906.025L1754.43 865.279L1758.36 863.679L1762.2 858.195L1759.82 847.595L1752.51 868.069L1732.17 902.111L1711.3 919.253L1730.7 883.508L1728.48 894.148L1730.7 899.51L1746.11 874.649L1745.01 866.972L1732.16 880.631L1745.74 860.026L1746.66 847.596L1697.52 885.436L1693.7 888.909L1707.95 859.153L1746.79 814.693L1758.06 814.69Z" fill="#3C1833"/>
<path d="M1780.35 944.338L1813.93 842.091L1837.04 835.791L1852.8 812.682L1886.41 786.422L1938.58 783.622L1940.33 921.922L1837.05 954.833L1780.35 944.338Z" fill="#2F122E"/>
<path fill-rule="evenodd" clip-rule="evenodd" d="M1922.15 706.839L1835.38 831.873L1828.55 836.363L1797.53 913.371L1824.16 871.121L1831.48 852.895L1825.08 861.67L1820.88 871.724L1816.85 878.541L1826.54 847.594L1840.07 838.058L1832.94 849.788L1841.53 842.476L1850.12 843.024L1863.65 817.066L1855.61 827.252L1843.54 834.036L1841.72 831.325L1873.34 801.525L1879.37 802.987L1887.42 818.987L1875.35 871.116L1854.15 943.376L1868.9 909.376L1876.82 905.72L1885.11 883.153L1881.57 865.275L1895.83 820.687H1908.13L1920.8 805.185L1931.72 809.938L1931.14 704.604L1922.15 706.839Z" fill="#3C1833"/>
<path fill-rule="evenodd" clip-rule="evenodd" d="M1758.06 814.69L1767.21 838.058L1758.33 916.333L1732.17 951.625L1782.82 949.9L1828.55 836.363L1774.93 822.451L1758.06 814.69Z" fill="#190B1A"/>
<g style="mix-blend-mode:multiply">
<path fill-rule="evenodd" clip-rule="evenodd" d="M1914.35 922.907L1931.15 925.832V949.9H1885.1L1914.35 922.907Z" fill="#371746"/>
</g>
<path fill-rule="evenodd" clip-rule="evenodd" d="M1460.82 873.939L1420.18 949.9H1401.53L1420.07 930.219L1434.8 907.187L1435.17 900.606L1392.03 949.901H1373.67L1421.77 872.056L1426.43 867.283L1460.82 873.939Z" fill="#190B1A"/>
<g style="mix-blend-mode:soft-light">
<path fill-rule="evenodd" clip-rule="evenodd" d="M419.93 942.247L363.739 905.675L347.204 908.74L373.104 938.963L372.373 942.248L336.788 909.987L332.951 910.446L366.284 949.007L419.93 942.247Z" fill="#97767C"/>
</g>
<g style="mix-blend-mode:soft-light">
<path fill-rule="evenodd" clip-rule="evenodd" d="M232.241 917.496L203.419 881.472L191.334 885.616L186.684 893.716L202.861 913.884L198.718 912.794L183.783 898.773L182.059 901.773L194.625 914.489L232.241 917.496Z" fill="#97767C"/>
</g>
<g style="mix-blend-mode:screen" opacity="0.35">
<path fill-rule="evenodd" clip-rule="evenodd" d="M696.834 822.002L693.666 830.289L742.166 853.689L767.515 860.026L707.069 822.979L696.834 822.002Z" fill="#3C1833"/>
</g>
<path fill-rule="evenodd" clip-rule="evenodd" d="M1347.39 855.88L1302.95 903.164L1278.09 912.67L1079.55 918.249L1347.39 855.88Z" fill="#3C1833"/>
<g style="mix-blend-mode:screen" opacity="0.35">
<path fill-rule="evenodd" clip-rule="evenodd" d="M1692.19 726.214L1649.18 728.774L1685 718.174L1692.19 726.214Z" fill="#441623"/>
</g>
<g style="mix-blend-mode:screen" opacity="0.35">
<path fill-rule="evenodd" clip-rule="evenodd" d="M1541.69 770.452L1544.25 780.658L1457.58 809.844L1525.61 769.721L1541.69 770.452Z" fill="#4E1F3C"/>
</g>
<g style="mix-blend-mode:screen" opacity="0.35">
<path fill-rule="evenodd" clip-rule="evenodd" d="M281.272 870.991L242.04 834.035L236.415 829.313L249.099 830.044L281.272 870.991Z" fill="#4E1F3C"/>
</g>
<g style="mix-blend-mode:screen" opacity="0.35">
<path fill-rule="evenodd" clip-rule="evenodd" d="M456.758 891.465L438.478 898.777L445.791 904.871L470.652 898.777L456.758 891.465Z" fill="#4E1F3C"/>
</g>
<path fill-rule="evenodd" clip-rule="evenodd" d="M1937.14 905.675L1797.53 938.962H1707.57L1657.7 922.906L1643.37 908.59L1621.76 925.83L1544.25 936.402L1433.67 931.494L1382.01 936.402L1200.15 938.961L868.515 943.009L873.694 928.035H868.515L853.347 943.009H785.022L806.062 922.889H803.998L774.536 943.009L621.559 941.709L617.707 932.901L607.678 932.386L575.566 944.402L427.64 947.717L394.284 925.134L318.363 943.379L171.851 936.402L148.418 943.379L-3.54004 949.899L-36.4861 1043.25H1960.38L1937.14 905.675Z" fill="#2F122E"/>
<path d="M1281.14 933.694L1284.97 959.441L1289.6 951.705L1297.84 928.341L1281.14 933.694Z" fill="#1F0E20"/>
<path d="M1308.03 932.674C1308.03 932.674 1307.91 953.96 1308.03 953.574C1308.16 953.188 1314.79 929.612 1314.79 929.612L1308.03 932.674Z" fill="#1F0E20"/>
<path d="M1339.52 925.832L1318.15 954.118L1332.4 946.827L1343.83 934.566L1339.52 925.832Z" fill="#190B1A"/>
</g>
<defs>
<linearGradient id="paint0_linear_213_55603" x1="972.5" y1="803.5" x2="972.5" y2="913.5" gradientUnits="userSpaceOnUse">
<stop stop-color="#1F0E20"/>
<stop offset="1" stop-color="#2F122E"/>
</linearGradient>
<linearGradient id="paint1_linear_213_55603" x1="15.772" y1="907.98" x2="127.589" y2="908.442" gradientUnits="userSpaceOnUse">
<stop stop-color="#2F122E"/>
<stop offset="1" stop-color="#2F122E" stop-opacity="0.012"/>
</linearGradient>
<clipPath id="clip0_213_55603">
<rect width="1920" height="960" fill="white"/>
</clipPath>
</defs>
</svg>
