<svg width="1920" height="960" viewBox="0 0 1920 960" fill="none" xmlns="http://www.w3.org/2000/svg">
<g clip-path="url(#clip0_213_55685)">
<path d="M1987 -160H-62V57.7778H1987V-160Z" fill="#2F122E"/>
<path fill-rule="evenodd" clip-rule="evenodd" d="M-121.446 36.5704V927.738L43.6779 960L87.362 652.766L78.218 471.84L265.796 190.401L349.632 150.914L392.554 153.913L403.069 207.424L389.017 391.539L394.876 404.702L343.32 611.975L284.447 945.648H492.708L467.578 494.518L462.054 488.178L459.739 399.296L462.88 394.733L534.431 129.593L565.266 102.132C830.82 68.2436 1357.35 25.4192 1675.01 162.128L1730.81 215.639L1793.82 391.539L1791.58 404.702V548.954L1778.84 600.086L1809.74 704.386L1723.98 945.648L2199.78 546.874V33.2861L-121.446 36.5704ZM1954.25 471.84L1915.39 443.809L1837.28 498.501L1822.8 495.312L1809.74 404.708L1821.91 385.236V355.552L1815.75 339.074L1809.74 347.226L1791.58 327.165L1784.75 267.371L1970.53 445.526L1954.25 471.84Z" fill="#2F122E"/>
<path opacity="0.53" fill-rule="evenodd" clip-rule="evenodd" d="M1915.39 443.623L1927.76 453.538L1921.57 465.038L1850.35 517.823H1834.58L1837.28 498.315L1822.79 495.126L1809.75 404.522L1821.91 385.05V355.366L1815.76 338.888L1816.42 347.357L1812.9 352.121L1809.75 347.04L1811.36 359.656L1802.78 389.303L1793.83 391.352L1793.37 394.059L1796.74 391.925L1801.24 390.671L1804.76 397.17L1820.45 495.801L1813.42 535.284L1792 548.444L1791 551.111L1798.65 547.335L1832.47 541.839C1832.47 541.839 1866.19 556.005 1867.07 556.005C1867.95 556.005 1845.08 581.159 1845.08 581.159L1788.5 593.333L1783 585.333L1779.5 600L2042.58 565.429L2199.79 546.684L2048.56 505.085L1970.53 445.34L1996.05 448.304L2031.59 459.215L2051.49 417.928L1946.95 319.181L1818.57 263.192L1798.65 280.511L1784.75 267.187L1791.58 326.98L1784.04 324.133L1770.54 253.555L1730.81 215.454L1675.01 161.943L1677.75 164.573L1773.61 246.778L1858.86 273.232L1996.05 337.777L2044.51 360.799L2168.11 372.657L2175.52 356.356L2134.44 270.06L1929 162.001L1681.95 130.008L1667.07 155.623L1605.12 135.733L1664.46 130.011L1700.92 122.712L1875.58 146.429L1974.77 145.516L1999.31 187.479L2136.46 254.981L2199.79 258.63V181.705L2063.77 36.3826L2119.98 32.4678L2114.2 75.2778L2176.62 155.314L2199.78 166.722V504.507L1982.38 476.332L1959.43 465.038L1954.25 471.657L1915.39 443.623Z" fill="#270B2C"/>
<path opacity="0.53" fill-rule="evenodd" clip-rule="evenodd" d="M557 109.333L437.268 162.701L424.101 182.405L403.161 358.983L406.782 392.05L443.318 397.983L462.881 395.246L459.74 399.809L442.378 405.222L371.164 536.496L379.401 544.212L420.943 535.079L462.054 488.69L463.239 490.05L442.379 515.391L411.394 565.916L398.134 620.479L471 653.333L342.5 628.445L343.321 612.487L394.877 405.214L389.018 392.051L403.07 207.941L392.554 154.426L349.632 151.425L265.796 190.914V183.008L242.396 186.657L125.738 271.188L120.427 280.314L169.194 292.911L181.5 277.778L208.5 263.556L201.5 275.111L181.5 285.333L173.278 296.277L167.634 333.829L153 353.333L143 362.222L136.259 369.778L125.738 362.222L106.369 397.983L35.249 465.837L46.391 477.723L82 465.778L78 471.111L75.272 472.147L48.504 527.983L50.07 556.452L78.746 620.307L75.272 638.248L58.546 676.898L42.405 621.553L48.505 580.721L46.392 502.895L39.386 483.732L26.707 474.843L-30.309 535.079L-45.732 581.696L-51.246 580.186L-24.419 504.114L122.915 351.111L159.712 303.802L139.774 294.794L-44.731 407.048L-121.446 470.498V461.534L-4.18704 365.075L136.259 252.468L159.715 226.415L122.915 201.252L-121.446 271.188V261.457L66.183 214.754L156.783 175.926L289.205 92.4004L265.796 69.5689L206.496 37.0817L534.141 35.5448L365.2 56.5095L355.868 79.9466L493.68 113.377L565 101.333L557 109.333Z" fill="#2F122E"/>
<path opacity="0.43" fill-rule="evenodd" clip-rule="evenodd" d="M438.268 161.728L431.64 136.121L373.731 123.806L290.206 91.4224L157.784 174.949L107.369 197.342L123.918 200.279L160.718 225.442L137.259 251.493L97.2529 283.569L121.426 279.335L126.738 270.209L243.401 182.029H266.801V189.935L349.61 150.935L392.61 153.857L403.022 207.627L429.432 174.945L438.268 161.728Z" fill="#200021"/>
<path opacity="0.53" fill-rule="evenodd" clip-rule="evenodd" d="M379.401 682.584L350.117 719.744L320 873.767L442.378 887.544L420.943 741.67L442.379 653.761L445.399 646.161L420.943 673.45L379.401 682.584Z" fill="#1F0E20"/>
<path opacity="0.53" fill-rule="evenodd" clip-rule="evenodd" d="M46.391 604.229L39.385 608.639V610.239L46.391 629.401L47.047 653.564L48.504 654.487L75.272 598.646L78.746 593.798L46.391 604.229Z" fill="#270A28"/>
<path opacity="0.43" fill-rule="evenodd" clip-rule="evenodd" d="M389.016 391.492L394.86 404.731L424.101 217.235L437.268 197.531L403.139 207.568L400.323 242.735L389.016 391.492Z" fill="#200021"/>
<path opacity="0.43" fill-rule="evenodd" clip-rule="evenodd" d="M442.378 509.679L371.164 640.952L361.656 642.051L394.877 509.673L389.018 496.51H406.783L442.378 509.679Z" fill="#200021"/>
<path opacity="0.43" fill-rule="evenodd" clip-rule="evenodd" d="M92.017 259.99L87 255.722L66.182 264.641L-49.667 293.482L-44.733 299.125L70.483 266.148L92.017 259.99Z" fill="#200021"/>
<path opacity="0.43" fill-rule="evenodd" clip-rule="evenodd" d="M1770.54 254.279L1741.2 226.141V219.711L1773.6 247.504L1850.34 271.317L1859.74 281.877L1823.67 267.91L1813.15 268.627L1798.65 281.234L1784.76 267.911L1791.58 327.704L1784.04 324.857L1770.54 254.279Z" fill="#200021"/>
<path opacity="0.53" fill-rule="evenodd" clip-rule="evenodd" d="M1921.58 591.779L1954.25 598.399L1959.43 591.779L1985.52 603.078L2017.41 607.979L2048.56 631.831L2199.79 673.434L2145.37 681.108L2067.58 654.767L1989.92 631.836L1927.76 639.297L1861.81 648.827L1843.07 666.933L1832.47 668.593L1813.42 662.035L1822.79 621.876L1837.28 625.064L1835.54 637.644L1850.35 644.573L1921.58 591.779Z" fill="#1C071E"/>
<path d="M189.021 861.514L96.121 788.171H72.867L2.37398 754.856L-42.695 759.508L-57.718 916.787C-57.718 916.787 109.848 967.923 118.515 967.923C127.182 967.923 607.345 928.412 607.345 928.412L635.08 881.925L505.673 869.719C505.673 869.719 446.28 898.885 189.021 861.514Z" fill="url(#paint0_linear_213_55685)"/>
<path d="M1938.63 726.963H1826.53C1826.53 726.963 1786.66 747.882 1783.19 750.981C1779.72 754.08 1736.96 781.198 1734.65 783.522C1732.34 785.846 1644.51 816.063 1644.51 816.063C1644.51 816.063 1597.08 941.026 1600 949.05C1602.91 957.073 1929.95 997.363 1941.51 997.363C1953.07 997.363 2036.27 872.622 2038.58 861.776C2040.9 850.93 1938.63 726.963 1938.63 726.963Z" fill="#220925"/>
<path d="M1885.47 609.196L1912.05 537.141L1897.6 418.598L1988.9 499.176C1988.9 499.176 2005.07 642.511 1999.3 642.511C1993.52 642.511 1928.8 589.83 1928.8 589.83H1905.69L1885.47 609.196Z" fill="#2F122E"/>
</g>
<defs>
<linearGradient id="paint0_linear_213_55685" x1="493.5" y1="890" x2="14.6353" y2="920.992" gradientUnits="userSpaceOnUse">
<stop offset="0.00562743" stop-color="#3C1833"/>
<stop offset="1" stop-color="#30122E"/>
</linearGradient>
<clipPath id="clip0_213_55685">
<rect width="1920" height="960" fill="white"/>
</clipPath>
</defs>
</svg>
