<svg width="1920" height="960" viewBox="0 0 1920 960" fill="none" xmlns="http://www.w3.org/2000/svg">
<g style="mix-blend-mode:multiply" opacity="0.8">
<path fill-rule="evenodd" clip-rule="evenodd" d="M664.052 841.248C664.052 841.248 632.774 859.767 606.262 837.987C606.262 837.987 644.258 822.353 664.052 841.248Z" fill="#773D66"/>
</g>
<path fill-rule="evenodd" clip-rule="evenodd" d="M656.166 842.463C656.166 842.463 628.177 855.234 612.238 837.188L613.058 816.979C613.058 816.979 636.898 824.868 657.494 819.551L656.162 842.463H656.166Z" fill="url(#paint0_linear_313_65661)"/>
<path fill-rule="evenodd" clip-rule="evenodd" d="M657.498 819.551C657.498 819.551 639.406 802.809 613.062 816.979C613.062 816.979 634.383 835.426 657.498 819.551Z" fill="url(#paint1_linear_313_65661)"/>
<path fill-rule="evenodd" clip-rule="evenodd" d="M588.948 21.264C588.948 21.264 560.569 5.77932 542.508 23.502L541.855 44.745C541.855 44.745 567.435 38.262 588.625 45.3809L588.948 21.264Z" fill="url(#paint2_linear_313_65661)"/>
<path fill-rule="evenodd" clip-rule="evenodd" d="M588.625 45.381C588.625 45.381 568.405 61.5725 541.855 44.7451C541.855 44.7451 565.584 27.0082 588.625 45.381Z" fill="url(#paint3_linear_313_65661)"/>
<path fill-rule="evenodd" clip-rule="evenodd" d="M652.23 819.32C652.23 819.32 635.417 831.064 617.918 816.979L619.403 604.41H653.228L652.226 819.32H652.23Z" fill="url(#paint4_linear_313_65661)"/>
<path fill-rule="evenodd" clip-rule="evenodd" d="M652.23 819.32C652.23 819.32 635.417 831.064 617.918 816.979L619.403 604.41H653.228L652.226 819.32H652.23Z" fill="url(#paint5_linear_313_65661)"/>
<path fill-rule="evenodd" clip-rule="evenodd" d="M623.164 554.421H587.016C581.375 569.202 587.016 588.062 587.016 588.062H610.017C620.01 590.072 617.918 604.413 617.918 604.413V613.276C617.96 613.291 617.985 613.305 618.028 613.305C618.894 613.482 624.429 614.641 630.898 615.22C633.072 615.411 635.36 615.536 637.601 615.536C646.699 615.536 657.491 613.28 657.491 613.28L656.983 597.106C655.882 560.588 623.161 554.421 623.161 554.421H623.164Z" fill="url(#paint6_linear_313_65661)"/>
<path style="mix-blend-mode:multiply" opacity="0.6" fill-rule="evenodd" clip-rule="evenodd" d="M653.228 614.055V614.712C653.228 614.712 636.319 620.641 619.3 617.515V613.561C619.3 613.561 633.889 617.831 653.228 614.055Z" fill="url(#paint7_linear_313_65661)"/>
<path style="mix-blend-mode:multiply" opacity="0.6" fill-rule="evenodd" clip-rule="evenodd" d="M587.019 588.062H610.021C620.014 590.072 617.921 604.413 617.921 604.413V613.276C617.964 613.291 617.989 613.305 618.031 613.305C624.5 615.191 630.873 615.383 630.873 615.383C630.873 615.383 630.887 615.33 630.901 615.22C631.342 612.893 636.159 586.435 627.324 587.042C618.06 587.675 587.019 588.062 587.019 588.062Z" fill="url(#paint8_linear_313_65661)"/>
<g style="mix-blend-mode:soft-light">
<path fill-rule="evenodd" clip-rule="evenodd" d="M652.073 597.831C652.073 597.831 644.003 590.069 643.747 577.288C643.747 577.288 650.919 580.946 652.073 597.831Z" fill="white"/>
</g>
<g style="mix-blend-mode:soft-light">
<path fill-rule="evenodd" clip-rule="evenodd" d="M636.265 571.203C636.265 571.203 631.058 571.203 629.317 567.203C629.317 567.203 633.299 567.725 636.265 571.203Z" fill="white"/>
</g>
<path fill-rule="evenodd" clip-rule="evenodd" d="M586.44 556.084L411.433 555.871C411.433 555.871 404.857 578.325 411.823 589.362L586.675 586.776C586.675 586.776 583.243 574.378 586.444 556.087L586.44 556.084Z" fill="url(#paint9_linear_313_65661)"/>
<path fill-rule="evenodd" clip-rule="evenodd" d="M586.44 556.084L411.433 555.871C411.433 555.871 404.857 578.325 411.823 589.362L586.675 586.776C586.675 586.776 583.243 574.378 586.444 556.087L586.44 556.084Z" fill="url(#paint10_linear_313_65661)"/>
<path fill-rule="evenodd" clip-rule="evenodd" d="M538.864 529.626L537.819 555.963C537.819 555.963 559.208 565.767 573.812 556.055V529.626H538.864Z" fill="url(#paint11_linear_313_65661)"/>
<path fill-rule="evenodd" clip-rule="evenodd" d="M542.647 529.626L546.963 42.944C546.963 42.944 566.682 32.5108 584.515 44.8019L570.06 529.626H542.647Z" fill="url(#paint12_linear_313_65661)"/>
<path fill-rule="evenodd" clip-rule="evenodd" d="M542.647 529.626L546.963 42.944C546.963 42.944 566.682 32.5108 584.515 44.8019L570.06 529.626H542.647Z" fill="url(#paint13_linear_313_65661)"/>
<g style="mix-blend-mode:multiply" opacity="0.3">
<path d="M657.139 592.09L656.833 591.475C642.095 598.8 618.44 599.795 618.202 599.805L618.23 600.494C618.468 600.484 642.269 599.482 657.139 592.093V592.09Z" fill="#60157A"/>
<path d="M623.509 554.471L622.827 554.375C619.345 578.708 609.878 587.728 609.786 587.816L610.255 588.321C610.351 588.232 619.995 579.042 623.512 554.471H623.509Z" fill="#60157A"/>
<path d="M628.464 614.935V599.28C628.443 599.091 626.376 585.053 615.502 582.037L585.595 580.385L585.556 581.074L615.392 582.712C625.761 585.596 627.765 599.191 627.782 599.326V614.935H628.468H628.464Z" fill="#60157A"/>
<path d="M626.187 614.647L625.498 614.64L622.83 820.125L617.612 819.973L616.376 841.255L617.065 841.297L618.258 820.679L623.509 820.836L623.512 820.484L626.187 614.647Z" fill="#60157A"/>
<path d="M550.127 530.046L549.425 530.046L551.914 208.205L546.592 208.358L545.872 175.009L546.575 174.954L547.269 207.262L552.623 207.103L552.618 207.654L550.127 530.046Z" fill="#60157A"/>
<path d="M409 577H586V578H409V577Z" fill="#60157A"/>
</g>
<path fill-rule="evenodd" clip-rule="evenodd" d="M260.018 24.5851C260.018 24.5851 277.159 12.8523 295 26.9238L293.486 539H259L260.021 24.5851H260.018Z" fill="url(#paint14_linear_313_65661)"/>
<path fill-rule="evenodd" clip-rule="evenodd" d="M289.51 589.17H325.659C331.3 574.389 325.659 555.529 325.659 555.529H302.658C292.665 553.519 294.757 539.178 294.757 539.178V530.315C294.715 530.301 294.69 530.286 294.647 530.286C293.78 530.109 288.246 528.951 281.777 528.372C279.603 528.18 277.315 528.056 275.074 528.056C265.976 528.056 255.184 530.311 255.184 530.311L255.692 546.485C256.793 583.003 289.514 589.17 289.514 589.17H289.51Z" fill="url(#paint15_linear_313_65661)"/>
<path style="mix-blend-mode:multiply" opacity="0.6" fill-rule="evenodd" clip-rule="evenodd" d="M259.447 529.537V528.88C259.447 528.88 276.356 522.951 293.375 526.077V530.031C293.375 530.031 278.786 525.761 259.447 529.537Z" fill="url(#paint16_linear_313_65661)"/>
<path style="mix-blend-mode:multiply" opacity="0.6" fill-rule="evenodd" clip-rule="evenodd" d="M325.655 555.53H302.654C292.661 553.519 294.754 539.178 294.754 539.178V530.315C294.711 530.301 294.686 530.287 294.643 530.287C288.175 528.4 281.802 528.208 281.802 528.208C281.802 528.208 281.788 528.262 281.773 528.372C281.333 530.699 276.516 557.156 285.351 556.549C294.615 555.917 325.655 555.53 325.655 555.53Z" fill="url(#paint17_linear_313_65661)"/>
<g style="mix-blend-mode:soft-light" opacity="0.25">
<path fill-rule="evenodd" clip-rule="evenodd" d="M260.601 545.76C260.601 545.76 268.672 553.522 268.928 566.304C268.928 566.304 261.756 562.645 260.601 545.76Z" fill="white"/>
</g>
<g style="mix-blend-mode:soft-light" opacity="0.25">
<path fill-rule="evenodd" clip-rule="evenodd" d="M276.409 572.389C276.409 572.389 281.617 572.389 283.358 576.389C283.358 576.389 279.376 575.866 276.409 572.389Z" fill="white"/>
</g>
<path fill-rule="evenodd" clip-rule="evenodd" d="M326.172 587.784L454.933 588C454.933 588 459.77 565.205 454.645 554L326 556.625C326 556.625 328.525 569.211 326.17 587.78L326.172 587.784Z" fill="url(#paint18_linear_313_65661)"/>
<path fill-rule="evenodd" clip-rule="evenodd" d="M326.162 587.784L447.059 588C447.059 588 451.601 565.205 446.789 554L326 556.625C326 556.625 328.371 569.211 326.16 587.78L326.162 587.784Z" fill="url(#paint19_linear_313_65661)"/>
<g style="mix-blend-mode:multiply" opacity="0.3">
<path d="M255.536 551.502L255.841 552.116C270.58 544.791 294.235 543.797 294.473 543.786L294.444 543.097C294.206 543.107 270.406 544.109 255.536 551.498V551.502Z" fill="#60157A"/>
<path d="M289.166 589.121L289.848 589.217C293.329 564.883 302.796 555.864 302.889 555.775L302.42 555.27C302.324 555.359 292.679 564.549 289.162 589.121H289.166Z" fill="#60157A"/>
<path d="M284.21 528.656V544.311C284.231 544.5 286.299 558.539 297.173 561.555L327.08 563.206L327.119 562.517L297.283 560.88C286.913 557.995 284.91 544.4 284.892 544.265V528.656H284.207H284.21Z" fill="#60157A"/>
<path d="M286.487 528.944L287.176 528.951L289.844 323.466L295.063 323.619L296.299 302.337L295.61 302.294L294.416 322.912L289.166 322.755L289.162 323.107L286.487 528.944Z" fill="#60157A"/>
<path d="M426 578H327V577H426V578Z" fill="#60157A"/>
</g>
<g clip-path="url(#clip0_313_65661)">
<path d="M585.29 564.82L561.58 544.94L585.73 532.21L583.9 528.83L559.1 540.5L546.65 515.31L545.5 515.79L552.04 541.52L524.86 542.35L529.55 546.8L552.44 548.13L549.12 577.9L552.02 578.68L557.95 552L583.68 567.09L585.29 564.82Z" fill="#6E1B1F"/>
<path d="M593.39 557.84L593.1 558.74C592.99 559.05 592.89 559.35 592.78 559.66C592.56 560.27 592.32 560.86 592.07 561.46C591.56 562.65 591 563.81 590.38 564.93C589.13 567.18 587.64 569.28 585.96 571.2C582.59 575.03 578.46 578.06 573.92 580.12C569.41 582.17 564.52 583.25 559.62 583.32C557.19 583.36 554.76 583.14 552.37 582.69C549.99 582.24 547.69 581.56 545.42 580.63C541.01 578.86 536.89 576.17 533.47 572.77C530.08 569.43 527.31 565.44 525.38 561.06C523.45 556.73 522.3 552.06 522.05 547.33C521.93 544.99 522.02 542.63 522.32 540.31C522.47 539.15 522.68 538 522.94 536.87C523.07 536.3 523.21 535.74 523.36 535.18C523.44 534.9 523.52 534.62 523.6 534.34L523.73 533.92L523.87 533.49L523.99 533.11L524.14 532.68C524.24 532.4 524.33 532.13 524.44 531.86C524.64 531.32 524.86 530.78 525.09 530.25C525.54 529.19 526.05 528.14 526.6 527.13C527.7 525.1 528.99 523.17 530.44 521.39C533.35 517.82 536.93 514.81 540.94 512.6C544.96 510.37 549.44 508.91 554.05 508.39C558.7 507.86 563.49 508.27 568.05 509.57C572.66 510.91 577.07 513.19 580.9 516.27C584.78 519.4 588.03 523.36 590.45 527.8C592.87 532.31 594.42 537.32 594.93 542.45C595.46 547.63 594.93 552.9 593.4 557.81V557.83L593.39 557.84ZM586.34 555.35C587.49 551.33 587.83 547.1 587.34 542.97C586.86 538.87 585.56 534.89 583.58 531.32C581.65 527.78 579.03 524.65 575.97 522.16C572.96 519.67 569.48 517.81 565.8 516.68C562.16 515.54 558.34 515.12 554.59 515.46C550.87 515.79 547.2 516.85 543.86 518.58C540.54 520.29 537.51 522.65 535.02 525.52C533.78 526.95 532.66 528.51 531.7 530.17C531.22 531 530.78 531.85 530.37 532.73C530.17 533.17 529.98 533.61 529.79 534.06L529.53 534.73L529.41 535.06L529.28 535.44L529.05 536.11L528.83 536.81C528.69 537.28 528.56 537.75 528.44 538.22C528.2 539.17 528.01 540.13 527.85 541.09C527.55 543.03 527.42 545.01 527.48 546.99C527.6 550.97 528.46 554.97 530.05 558.68C531.66 562.42 533.96 565.88 536.85 568.74C539.78 571.64 543.24 573.94 547.08 575.49C548.97 576.24 550.99 576.82 553 577.17C555.04 577.53 557.11 577.64 559.17 577.56C561.24 577.47 563.29 577.13 565.29 576.6C567.29 576.06 569.23 575.29 571.07 574.34C574.77 572.42 578.03 569.71 580.64 566.45C581.95 564.83 583.08 563.06 584.04 561.2C584.52 560.27 584.95 559.32 585.33 558.35C585.52 557.86 585.7 557.37 585.87 556.88L586.11 556.13L586.34 555.35Z" fill="#6E1B1F"/>
<path d="M587.72 564.63L564.01 544.75L588.16 532.03L586.33 528.64L561.53 540.32L549.09 515.12L546.47 516.22L555.22 541.31L527.29 542.16L527.16 546.64L555.17 548.29L549.97 577.28L554.45 578.49L560.72 550.31L585.6 567.62L587.72 564.63Z" fill="#A62023"/>
<path d="M563.24 546.28C562.57 548.39 560.37 549.51 558.32 548.79C556.28 548.07 555.19 545.79 555.86 543.7C556.53 541.62 558.71 540.5 560.74 541.2C562.78 541.9 563.91 544.18 563.25 546.28H563.24Z" fill="#2C2520"/>
<path d="M595.46 557.67L595.17 558.57C595.06 558.88 594.96 559.18 594.85 559.48C594.63 560.09 594.39 560.69 594.14 561.28C593.63 562.47 593.07 563.63 592.45 564.75C591.2 567 589.71 569.1 588.03 571.02C584.66 574.85 580.53 577.88 575.99 579.94C571.48 581.99 566.59 583.07 561.69 583.14C559.26 583.18 556.83 582.96 554.44 582.51C552.06 582.06 549.76 581.38 547.49 580.45C543.09 578.68 538.96 575.99 535.54 572.59C532.15 569.25 529.38 565.26 527.45 560.88C525.53 556.57 524.39 551.89 524.14 547.17C524.01 544.83 524.11 542.47 524.41 540.15C524.56 538.99 524.77 537.84 525.03 536.71C525.16 536.14 525.3 535.58 525.45 535.02C525.53 534.74 525.61 534.46 525.69 534.18L525.82 533.76L525.96 533.33L526.08 532.95L526.23 532.52C526.33 532.24 526.42 531.97 526.53 531.7C526.73 531.16 526.95 530.62 527.18 530.09C527.63 529.03 528.14 527.98 528.69 526.97C529.79 524.94 531.08 523.01 532.53 521.23C535.44 517.66 539.02 514.65 543.03 512.44C547.04 510.21 551.51 508.75 556.12 508.23C560.77 507.7 565.56 508.1 570.12 509.41C574.73 510.75 579.14 513.03 582.97 516.11C586.85 519.24 590.1 523.2 592.52 527.64C594.94 532.15 596.49 537.16 597 542.29C597.53 547.47 597 552.74 595.47 557.65V557.67H595.46ZM588.41 555.18C589.56 551.16 589.9 546.93 589.41 542.8C588.93 538.7 587.63 534.72 585.64 531.15C583.71 527.61 581.09 524.48 578.03 521.99C575.02 519.5 571.54 517.64 567.86 516.51C564.22 515.37 560.4 514.95 556.64 515.29C552.92 515.62 549.25 516.68 545.91 518.41C542.58 520.12 539.56 522.48 537.07 525.35C535.83 526.78 534.72 528.34 533.76 530C533.28 530.83 532.84 531.68 532.43 532.56C532.23 533 532.04 533.44 531.85 533.89L531.59 534.56L531.47 534.89L531.34 535.27L531.11 535.94L530.89 536.64C530.75 537.11 530.62 537.58 530.5 538.05C530.26 539 530.07 539.96 529.91 540.92C529.61 542.86 529.48 544.84 529.54 546.82C529.66 550.8 530.52 554.8 532.11 558.51C533.72 562.25 536.03 565.71 538.91 568.57C541.84 571.47 545.3 573.77 549.14 575.32C551.03 576.07 553.05 576.65 555.06 577C557.1 577.36 559.17 577.47 561.23 577.39C563.3 577.3 565.35 576.96 567.35 576.43C569.35 575.89 571.29 575.12 573.13 574.17C576.83 572.25 580.1 569.54 582.7 566.28C584.01 564.66 585.14 562.89 586.1 561.03C586.58 560.1 587.01 559.15 587.39 558.18C587.58 557.69 587.76 557.2 587.93 556.71L588.17 555.96L588.4 555.18V555.2L588.41 555.18Z" fill="#A62023"/>
<path d="M594.13 561.28C594.38 560.69 594.62 560.09 594.84 559.48C594.95 559.18 595.06 558.88 595.16 558.57L595.45 557.67V557.65C596.98 552.73 597.52 547.46 596.99 542.29C596.48 537.16 594.93 532.15 592.51 527.64C590.09 523.2 586.84 519.25 582.96 516.11C579.13 513.03 574.72 510.75 570.11 509.41C565.56 508.1 560.77 507.69 556.12 508.23C551.51 508.76 547.04 510.22 543.01 512.44C541.56 513.24 540.18 514.14 538.86 515.13C540.83 514.05 542.85 513.12 544.91 512.37C546.97 511.62 549.07 511.04 551.19 510.65C555.42 509.86 559.7 509.83 563.83 510.51C564.86 510.68 565.89 510.89 566.9 511.15C567.91 511.41 568.91 511.69 569.88 512.03C571.84 512.73 573.74 513.56 575.55 514.56C577.35 515.56 579.1 516.7 580.69 517.98C582.31 519.26 583.8 520.68 585.17 522.22C586.55 523.75 587.8 525.41 588.91 527.15C589.19 527.58 589.47 528.03 589.72 528.46L589.92 528.81L590.1 529.14L590.47 529.82C590.95 530.74 591.39 531.68 591.81 532.63C592.64 534.54 593.29 536.52 593.82 538.54C594.08 539.55 594.29 540.58 594.47 541.61C594.65 542.65 594.79 543.68 594.89 544.73C595.28 548.91 595 553.23 594.05 557.41C593.81 558.48 593.53 559.52 593.21 560.56C592.89 561.6 592.52 562.63 592.12 563.65C591.31 565.69 590.33 567.68 589.19 569.63C590.4 568.1 591.5 566.47 592.45 564.76C593.07 563.63 593.64 562.48 594.14 561.29L594.13 561.28Z" fill="#DD3547"/>
<path d="M530.22 535.58C530.01 536.05 529.81 536.53 529.63 537.01C529.54 537.25 529.45 537.49 529.36 537.74L529.12 538.45V538.47C527.84 542.38 527.39 546.57 527.83 550.69C528.26 554.77 529.55 558.75 531.57 562.34C533.59 565.87 536.3 569.01 539.54 571.51C542.74 573.96 546.41 575.77 550.26 576.84C554.06 577.88 558.06 578.21 561.94 577.78C565.78 577.36 569.52 576.2 572.88 574.43C574.09 573.8 575.24 573.08 576.35 572.29C574.7 573.15 573.02 573.89 571.3 574.49C569.58 575.08 567.83 575.55 566.06 575.86C562.53 576.49 558.96 576.52 555.51 575.97C554.65 575.84 553.79 575.67 552.95 575.46C552.1 575.26 551.28 575.03 550.46 574.76C548.83 574.21 547.24 573.55 545.73 572.75C544.22 571.96 542.77 571.05 541.44 570.03C540.09 569.02 538.84 567.89 537.7 566.66C536.54 565.44 535.51 564.13 534.58 562.74C534.35 562.4 534.12 562.04 533.91 561.7L533.74 561.43L533.59 561.17L533.28 560.63C532.88 559.9 532.51 559.15 532.16 558.4C531.47 556.88 530.92 555.31 530.48 553.7C530.26 552.9 530.09 552.08 529.94 551.26C529.79 550.43 529.67 549.61 529.59 548.78C529.26 545.45 529.5 542.02 530.29 538.7C530.49 537.85 530.73 537.02 530.99 536.2C531.25 535.37 531.57 534.55 531.9 533.74C532.58 532.12 533.4 530.53 534.35 528.99C533.34 530.2 532.43 531.5 531.63 532.86C531.11 533.75 530.64 534.68 530.22 535.62V535.58Z" fill="#DD3547"/>
</g>
<defs>
<linearGradient id="paint0_linear_313_65661" x1="612.238" y1="831.913" x2="657.494" y2="831.913" gradientUnits="userSpaceOnUse">
<stop offset="0.02" stop-color="#434280"/>
<stop offset="1" stop-color="#5778C7"/>
</linearGradient>
<linearGradient id="paint1_linear_313_65661" x1="613.058" y1="818.641" x2="657.494" y2="818.641" gradientUnits="userSpaceOnUse">
<stop stop-color="#352E7A"/>
<stop offset="0.98" stop-color="#573163"/>
</linearGradient>
<linearGradient id="paint2_linear_313_65661" x1="542.137" y1="29.0196" x2="589.571" y2="32.4114" gradientUnits="userSpaceOnUse">
<stop offset="0.02" stop-color="#434280"/>
<stop offset="1" stop-color="#5778C7"/>
</linearGradient>
<linearGradient id="paint3_linear_313_65661" x1="542" y1="42.9955" x2="588.576" y2="46.326" gradientUnits="userSpaceOnUse">
<stop stop-color="#352E7A"/>
<stop offset="0.98" stop-color="#573163"/>
</linearGradient>
<linearGradient id="paint4_linear_313_65661" x1="617.918" y1="714.16" x2="653.228" y2="714.16" gradientUnits="userSpaceOnUse">
<stop offset="0.02" stop-color="#825780"/>
<stop offset="1" stop-color="#908CC7"/>
</linearGradient>
<linearGradient id="paint5_linear_313_65661" x1="636" y1="824" x2="636" y2="613" gradientUnits="userSpaceOnUse">
<stop stop-color="#2F122E"/>
<stop offset="1" stop-color="#908CC7"/>
</linearGradient>
<linearGradient id="paint6_linear_313_65661" x1="584.511" y1="584.978" x2="1054.04" y2="584.978" gradientUnits="userSpaceOnUse">
<stop offset="0.02" stop-color="#434280"/>
<stop offset="1" stop-color="#5778C7"/>
</linearGradient>
<linearGradient id="paint7_linear_313_65661" x1="619.3" y1="615.994" x2="653.228" y2="615.994" gradientUnits="userSpaceOnUse">
<stop stop-color="#977CBA"/>
<stop offset="0.46" stop-color="#9785C2"/>
<stop offset="1" stop-color="#9897D1"/>
</linearGradient>
<linearGradient id="paint8_linear_313_65661" x1="587.016" y1="601.209" x2="632.607" y2="601.209" gradientUnits="userSpaceOnUse">
<stop stop-color="#977CBA"/>
<stop offset="0.14" stop-color="#9E85BE"/>
<stop offset="0.38" stop-color="#B29ECC"/>
<stop offset="0.67" stop-color="#D3C8E2"/>
<stop offset="1" stop-color="white"/>
</linearGradient>
<linearGradient id="paint9_linear_313_65661" x1="586.671" y1="572.616" x2="498.619" y2="572.616" gradientUnits="userSpaceOnUse">
<stop stop-color="#716CA1"/>
<stop offset="0.98" stop-color="#825780"/>
</linearGradient>
<linearGradient id="paint10_linear_313_65661" x1="586.671" y1="572.616" x2="375.5" y2="573" gradientUnits="userSpaceOnUse">
<stop stop-color="#716CA1"/>
<stop offset="0.98" stop-color="#2F122E"/>
</linearGradient>
<linearGradient id="paint11_linear_313_65661" x1="573.815" y1="544.986" x2="537.819" y2="544.986" gradientUnits="userSpaceOnUse">
<stop offset="0.02" stop-color="#434280"/>
<stop offset="1" stop-color="#325AB9"/>
</linearGradient>
<linearGradient id="paint12_linear_313_65661" x1="584.511" y1="284.216" x2="542.643" y2="284.216" gradientUnits="userSpaceOnUse">
<stop stop-color="#716CA1"/>
<stop offset="0.98" stop-color="#825780"/>
</linearGradient>
<linearGradient id="paint13_linear_313_65661" x1="564" y1="530" x2="564" y2="252" gradientUnits="userSpaceOnUse">
<stop stop-color="#6E679B"/>
<stop offset="0.98" stop-color="#1F0E20"/>
</linearGradient>
<linearGradient id="paint14_linear_313_65661" x1="276.896" y1="386" x2="277.125" y2="533" gradientUnits="userSpaceOnUse">
<stop stop-color="#1F0E20"/>
<stop offset="1" stop-color="#4C3A61"/>
</linearGradient>
<linearGradient id="paint15_linear_313_65661" x1="328.163" y1="558.613" x2="137.5" y2="559" gradientUnits="userSpaceOnUse">
<stop offset="0.02" stop-color="#222247"/>
<stop offset="1" stop-color="#344B81"/>
</linearGradient>
<linearGradient id="paint16_linear_313_65661" x1="293.375" y1="527.597" x2="259.447" y2="527.597" gradientUnits="userSpaceOnUse">
<stop stop-color="#977CBA"/>
<stop offset="0.46" stop-color="#9785C2"/>
<stop offset="1" stop-color="#9897D1"/>
</linearGradient>
<linearGradient id="paint17_linear_313_65661" x1="325.659" y1="542.382" x2="280.068" y2="542.382" gradientUnits="userSpaceOnUse">
<stop stop-color="#977CBA"/>
<stop offset="0.14" stop-color="#9E85BE"/>
<stop offset="0.38" stop-color="#B29ECC"/>
<stop offset="0.67" stop-color="#D3C8E2"/>
<stop offset="1" stop-color="white"/>
</linearGradient>
<linearGradient id="paint18_linear_313_65661" x1="326.003" y1="571" x2="390.786" y2="571" gradientUnits="userSpaceOnUse">
<stop stop-color="#716CA1"/>
<stop offset="0.98" stop-color="#825780"/>
</linearGradient>
<linearGradient id="paint19_linear_313_65661" x1="326.002" y1="571" x2="646.656" y2="570.82" gradientUnits="userSpaceOnUse">
<stop stop-color="#4D3B62"/>
<stop offset="0.98" stop-color="#2F122E"/>
</linearGradient>
<clipPath id="clip0_313_65661">
<rect width="75.2" height="75.3" fill="white" transform="translate(522 508)"/>
</clipPath>
</defs>
</svg>
