<svg width="321" height="320" viewBox="0 0 321 320" fill="none" xmlns="http://www.w3.org/2000/svg">
<path d="M156.328 319.953L155.607 310.268C153.407 310.198 151.194 310.091 148.969 309.924L147.269 319.479C143.624 319.184 139.972 318.765 136.313 318.222V318.183L136.813 308.509C135.721 308.337 134.62 308.171 133.534 307.972C132.891 307.855 132.249 307.733 131.608 307.606C131.208 307.529 130.815 307.451 130.417 307.368L130.271 307.338L127.379 316.624C123.756 315.867 120.183 314.995 116.661 314.007L118.375 304.446C117.355 304.163 116.349 303.857 115.344 303.546C114.955 303.425 114.568 303.303 114.18 303.18C113.459 302.953 112.742 302.721 112.032 302.48L107.99 311.322C104.502 310.122 101.061 308.801 97.6902 307.382L97.709 307.324L100.59 298.123C98.7234 297.323 96.8767 296.486 95.05 295.611L94.5381 295.366L89.438 303.616C86.127 301.982 82.8811 300.246 79.7251 298.402L79.7451 298.36L83.7451 289.598C81.8265 288.47 79.9414 287.303 78.0901 286.098L72.01 293.617L71.9722 293.595C68.9055 291.572 65.9192 289.451 63.0132 287.231L67.6841 279.682L68.103 279.003C66.356 277.643 64.625 276.256 62.937 274.827L55.9761 281.518C53.1807 279.118 50.4751 276.628 47.8591 274.048L53.928 266.534L53.6641 266.27C52.3187 264.924 50.9997 263.553 49.707 262.155C49.58 262.017 49.4531 261.88 49.3271 261.74L41.5972 267.506C39.1192 264.781 36.7411 261.97 34.4631 259.074L41.4192 252.398L41.271 252.208C39.9637 250.521 38.6908 248.81 37.4521 247.072L29.052 251.818C26.934 248.803 24.9273 245.72 23.032 242.569L30.7561 236.814C29.6228 234.911 28.537 232.984 27.499 231.031L18.5662 234.697C16.8482 231.445 15.2393 228.138 13.74 224.776L13.7351 224.76L22.147 220.014C21.3543 218.204 20.5982 216.38 19.8782 214.54C19.7908 214.32 19.7048 214.099 19.6201 213.877L10.2991 216.387C8.99307 212.958 7.80721 209.475 6.74121 205.938L6.76807 205.927L6.75708 205.922L15.6912 202.278C15.0732 200.15 14.4911 198.017 13.9661 195.861L4.38208 197.183C3.52141 193.614 2.7851 190.014 2.1731 186.383L11.531 183.867C11.503 183.694 11.476 183.521 11.448 183.348C11.133 181.337 10.8552 179.308 10.6172 177.278L0.925049 177.391C0.525049 173.752 0.252821 170.085 0.108154 166.391L9.71899 165.069C9.70499 164.647 9.69406 164.228 9.68506 163.807C9.65706 162.54 9.64338 161.268 9.64404 159.992C9.64404 159.469 9.64584 158.945 9.64917 158.42L0 157.313C0.065 153.663 0.258195 149.988 0.575195 146.306L10.2942 146.193C10.3795 145.233 10.4793 144.273 10.594 143.313C10.7347 142.076 10.8901 140.838 11.0601 139.599L1.61499 137.293C1.87799 135.476 2.15798 133.66 2.47998 131.844C2.80198 130.028 3.17404 128.222 3.56104 126.431L13.2212 127.538C13.3319 127.026 13.4465 126.514 13.5652 126.003C13.9439 124.355 14.3505 122.716 14.7852 121.088L5.70605 117.617C6.68939 114.053 7.78244 110.543 8.98511 107.087L18.4192 109.398C18.4812 109.223 18.5442 109.048 18.6072 108.872C18.9505 107.924 19.3018 106.98 19.6611 106.041C19.6921 105.962 19.7212 105.883 19.7522 105.802C19.8092 105.653 19.868 105.502 19.927 105.353C20.187 104.687 20.4519 104.02 20.7212 103.353C20.7442 103.296 20.768 103.24 20.79 103.183L12.228 98.6152C13.646 95.2024 15.1725 91.856 16.8071 88.5759L25.865 92.043C26.0263 91.7237 26.1902 91.4043 26.3562 91.085C27.0862 89.6736 27.8368 88.2759 28.6082 86.8919C28.7392 86.6559 28.8711 86.4198 29.0081 86.1848L21.1021 80.5797L21.1172 80.5478C22.9445 77.361 24.8752 74.2472 26.9092 71.2065L26.9421 71.2246L35.4421 75.7767C36.3181 74.4866 37.2117 73.2129 38.123 71.9555C38.51 71.4195 38.9001 70.8855 39.2971 70.3555L32.1641 63.8144C34.3841 60.875 36.701 58.0195 39.115 55.2481L46.9951 60.8322C47.1621 60.6412 47.3301 60.4513 47.4951 60.2613C48.7971 58.7946 50.1305 57.3562 51.4951 55.9461L45.248 48.572C47.8174 45.9386 50.4731 43.3946 53.2151 40.9398L60.3271 47.465C61.7938 46.169 63.2838 44.9022 64.7971 43.6649C64.9401 43.5469 65.085 43.4299 65.229 43.3139L65.4011 43.1749L60.1382 35.1017C63.0142 32.801 65.9671 30.6046 68.9971 28.5126L75.2332 35.8708C76.7138 34.8581 78.2138 33.8714 79.7332 32.9107C80.0845 32.6887 80.4361 32.4679 80.7881 32.2486L76.5801 23.5795C79.7194 21.6554 82.9247 19.8408 86.196 18.1354L91.447 26.2236C93.2424 25.3009 95.0614 24.4142 96.9041 23.5635L96.9932 23.5225L97.4302 23.3225L94.3301 14.1742C97.6774 12.6595 101.08 11.2629 104.537 9.9842H104.542L108.757 18.6693C110.548 18.0146 112.357 17.3974 114.184 16.8174C114.473 16.724 114.762 16.632 115.052 16.5414L113.122 7.06117C116.632 5.98114 120.183 5.02112 123.775 4.1811L123.788 4.21906V4.21308L126.435 12.0752L126.863 13.3443L126.913 13.3333C128.675 12.9333 130.449 12.5666 132.236 12.2333C132.617 12.1606 132.999 12.0902 133.382 12.0222L132.662 2.35904C136.269 1.73102 139.918 1.225 143.584 0.848995L145.513 10.3492C145.952 10.3065 146.39 10.2662 146.829 10.2282C148.591 10.0732 150.359 9.9442 152.141 9.8542L152.635 0.168926C156.291 0.00225597 159.968 -0.0410832 163.665 0.0389186L164.38 9.72919C164.837 9.74253 165.292 9.75881 165.745 9.77814C167.502 9.84615 169.261 9.9412 171.023 10.0782L172.723 0.522938C176.367 0.812944 180.023 1.23203 183.689 1.78005V1.81996L183.189 11.4942C184.289 11.6613 185.376 11.8382 186.473 12.0372L186.504 12.0422C187.464 12.2092 188.421 12.3962 189.38 12.5912L189.725 12.6603L192.618 3.37798C196.246 4.136 199.821 5.00841 203.342 5.9951L203.334 6.04015L201.625 15.5523C203.77 16.1653 205.871 16.8264 207.973 17.5364L212.005 8.69011L212.027 8.69511C215.514 9.89114 218.941 11.2015 222.309 12.6262L222.292 12.6813L219.417 21.8874L219.686 22.0034C221.414 22.7507 223.125 23.5289 224.818 24.3375L225.2 24.5205L225.459 24.6446L230.566 16.4004C233.877 18.0231 237.119 19.7564 240.29 21.6004L240.268 21.6494L236.263 30.4157L236.511 30.5627C238.34 31.6453 240.142 32.7626 241.918 33.9147L247.992 26.3906C251.068 28.4219 254.068 30.552 256.992 32.7807L251.892 41.0038C253.337 42.1225 254.759 43.2636 256.159 44.427C256.461 44.6783 256.761 44.9312 257.059 45.1859L264.031 38.4939C266.812 40.8899 269.509 43.3749 272.12 45.949L272.141 45.971L266.079 53.4711C266.952 54.3411 267.839 55.2552 268.71 56.1712L268.75 56.2121L268.879 56.3472C269.484 56.9818 270.084 57.6213 270.679 58.2653L278.403 52.5031C280.882 55.2365 283.26 58.0475 285.537 60.9362L278.592 67.6105C279.941 69.3572 281.26 71.1346 282.548 72.9426L290.948 68.1914C293.06 71.2068 295.069 74.2919 296.974 77.4466L289.238 83.1977L289.259 83.2337C289.442 83.5431 289.625 83.8551 289.808 84.1698L289.851 84.2428C290.764 85.8038 291.645 87.3869 292.501 88.9799L301.434 85.3208C303.151 88.5662 304.758 91.8697 306.254 95.2311L306.259 95.2471L297.852 99.9931C298.734 102.024 299.583 104.072 300.373 106.136L309.705 103.636C311 107.07 312.18 110.551 313.247 114.078L304.298 117.744C304.731 119.221 305.141 120.705 305.528 122.196C305.702 122.849 305.868 123.502 306.028 124.156L315.623 122.834C316.477 126.396 317.21 129.999 317.823 133.642L317.784 133.653L308.468 136.153C308.823 138.334 309.126 140.529 309.377 142.737L319.077 142.624C319.477 146.262 319.755 149.933 319.894 153.624L310.283 154.952C310.337 156.541 310.365 158.132 310.367 159.724C310.367 160.348 310.363 160.972 310.354 161.596L320.003 162.703V162.729C319.937 166.376 319.743 170.037 319.422 173.714L309.714 173.827C309.504 176.019 309.251 178.217 308.94 180.416L318.385 182.722L318.38 182.77C318.123 184.57 317.847 186.37 317.521 188.17C317.194 189.986 316.837 191.79 316.452 193.582L306.798 192.47C306.313 194.646 305.79 196.8 305.228 198.93L314.302 202.396C313.319 205.965 312.225 209.475 311.022 212.925L310.973 212.913L301.583 210.613C301.541 210.733 301.498 210.853 301.454 210.973C301.136 211.873 300.807 212.759 300.471 213.638C300.174 214.42 299.869 215.198 299.557 215.972C299.444 216.257 299.329 216.541 299.211 216.825L307.774 221.399C306.366 224.812 304.828 228.154 303.194 231.428L303.15 231.412V231.417L294.136 227.966C293.136 229.949 292.092 231.904 291.002 233.829L298.909 239.429C297.066 242.622 295.129 245.746 293.099 248.802L284.562 244.234C283.315 246.078 282.031 247.878 280.714 249.652L287.836 256.193L287.799 256.247C285.592 259.173 283.293 262.012 280.899 264.764L273.019 259.174C271.726 260.652 270.399 262.093 269.054 263.509C268.879 263.695 268.702 263.88 268.525 264.064L274.766 271.427C272.191 274.066 269.534 276.615 266.794 279.074L259.683 272.544C258.022 274 256.339 275.444 254.62 276.833L259.877 284.905C257.018 287.187 254.077 289.384 251.069 291.46V291.467L251.021 291.494L244.791 284.131C243.3 285.147 241.795 286.136 240.277 287.1C239.928 287.322 239.578 287.541 239.227 287.759L243.436 296.428L243.301 296.514H243.295C240.206 298.406 237.049 300.194 233.824 301.878L228.561 293.777L228.361 293.877L228.269 293.924L228.169 293.973L228.02 294.05L227.995 294.063C227.136 294.502 226.271 294.932 225.401 295.352L225.319 295.392L225.025 295.534C224.215 295.925 223.4 296.312 222.59 296.682L225.675 305.83C222.331 307.33 218.924 308.742 215.462 310.03L211.254 301.34C209.179 302.092 207.081 302.802 204.96 303.469L206.884 312.95L206.825 312.972C203.341 314.049 199.804 314.994 196.24 315.828L196.23 315.8L193.15 306.669C192.366 306.849 191.579 307.018 190.788 307.178C189.407 307.465 188.021 307.736 186.629 307.991L187.354 317.643L187.328 317.648C183.728 318.28 180.085 318.783 176.428 319.164L176.416 319.106L174.503 309.652C173.626 309.741 172.746 309.815 171.861 309.882C170.789 309.966 169.715 310.04 168.638 310.104C168.385 310.119 168.13 310.133 167.875 310.146L167.38 319.831C164.953 319.942 162.516 319.998 160.071 320C158.818 319.999 157.571 319.984 156.328 319.953ZM148.067 281.164C147.958 281.776 147.903 282.397 147.904 283.019C147.912 284.529 148.247 286.02 148.887 287.387C149.527 288.755 150.457 289.968 151.611 290.941C181.239 292.799 210.623 284.569 234.977 267.593C259.331 250.617 277.219 225.895 285.727 197.453C285.103 195.749 284.043 194.237 282.654 193.07C281.264 191.902 279.593 191.118 277.806 190.797L225.281 181.406C224.099 181.994 223.18 183.002 222.702 184.232C222.53 184.728 222.443 185.249 222.446 185.774C222.454 189.352 226.321 193.545 232.122 196.24C231.849 196.808 231.57 197.37 231.285 197.928C229.974 200.505 228.519 203.007 226.927 205.42L226.656 205.83C223.032 203.362 219.267 202.036 216.264 202.036C215.38 201.974 214.493 202.111 213.668 202.436C212.843 202.761 212.101 203.266 211.497 203.915C210.743 204.88 210.354 206.079 210.397 207.302C210.397 210.54 212.541 214.722 216.227 218.409C213.6 220.982 210.798 223.369 207.84 225.553L207.829 225.561C203.529 219.611 197.759 216.518 194.246 218.579C192.404 219.662 191.499 221.971 191.5 224.879C191.599 227.99 192.363 231.044 193.74 233.835L193.411 233.983C190.474 235.297 187.459 236.431 184.384 237.378C184.055 237.48 183.725 237.58 183.395 237.678H183.389C181.389 230.599 177.041 225.719 173.023 226.461C169.464 227.113 167.217 232.018 167.223 238.249C167.223 239.014 167.258 239.799 167.329 240.599L166.975 240.623C165.347 240.739 163.694 240.807 162.025 240.823H161.851C161.618 240.823 161.385 240.823 161.151 240.823C159.521 240.823 157.897 240.764 156.294 240.663C156.342 240.005 156.366 239.357 156.365 238.72C156.368 237.722 156.309 236.724 156.19 235.733L148.067 281.164ZM29.0271 151.621C27.1755 181.248 35.4112 210.629 52.3923 234.977C69.3735 259.325 94.0992 277.205 122.541 285.703C124.245 285.079 125.756 284.02 126.924 282.63C128.091 281.241 128.874 279.569 129.194 277.783L136.517 236.831C134.225 236.067 131.983 235.206 129.791 234.247L129.796 234.225H129.801C131.095 231.469 131.806 228.475 131.89 225.431C131.89 222.425 130.943 220.05 129.037 218.976C125.508 216.958 119.795 220.138 115.588 226.153C112.719 224.093 109.99 221.844 107.419 219.423C107.313 219.323 107.206 219.223 107.1 219.123C110.7 215.408 112.776 211.239 112.773 208.009C112.819 206.745 112.407 205.507 111.614 204.522C108.967 201.422 102.514 202.456 96.5081 206.668L96.5032 206.661C94.6046 203.889 92.8843 200.998 91.353 198.007C91.26 197.827 91.1691 197.646 91.0781 197.465C91.0261 197.365 90.9781 197.259 90.9231 197.155C96.6401 194.387 100.433 190.167 100.449 186.608C100.455 186.051 100.359 185.498 100.166 184.975C98.746 181.155 92.328 179.918 85.238 181.839V181.829C84.39 178.496 83.7585 175.112 83.3472 171.698C83.3185 171.46 83.2908 171.222 83.2642 170.984C90.5512 170.239 96.094 166.81 96.104 162.753V162.704C96.09 160.829 94.895 159.104 92.897 157.733L38.8181 148.065C38.2102 147.956 37.5937 147.901 36.9761 147.9C35.4597 147.904 33.9624 148.238 32.5891 148.881C31.2158 149.524 29.9998 150.46 29.0261 151.622L29.0271 151.621ZM185.827 174.93C183.258 179.904 179.242 183.983 174.309 186.63C170.516 190.937 168.626 195.231 168.638 199.509C168.649 203.855 170.62 208.189 174.551 212.51C182.84 210.276 190.446 206.021 196.686 200.126C202.927 194.231 207.608 186.88 210.31 178.732L186.367 174.451C186.189 174.607 186.01 174.768 185.83 174.932L185.827 174.93ZM111.017 175.64C113.053 183.355 116.84 190.497 122.085 196.51C127.329 202.524 133.89 207.247 141.256 210.314L145.766 185.098C142.095 182.591 139.08 179.238 136.975 175.323C132.68 171.541 128.397 169.65 124.127 169.65C119.743 169.65 115.374 171.648 111.02 175.642L111.017 175.64ZM167.341 173.388C167.964 173.048 168.557 172.656 169.114 172.216C168.557 172.65 167.965 173.036 167.344 173.371L167.341 173.388ZM281.177 171.921C282.977 172.242 284.829 172.083 286.548 171.459C288.266 170.835 289.789 169.769 290.964 168.369C292.814 138.742 284.577 109.362 267.596 85.0142C250.615 60.6667 225.89 42.7867 197.449 34.2867C195.746 34.9109 194.236 35.9705 193.07 37.3599C191.903 38.7494 191.121 40.4202 190.802 42.2059L182.831 86.7758C186.236 87.744 189.572 88.9432 192.814 90.365C191.509 93.126 190.791 96.1275 190.705 99.1801C190.705 102.18 191.648 104.557 193.551 105.628C197.091 107.645 202.799 104.472 207.006 98.4571C208.48 99.5111 209.913 100.615 211.306 101.767C212.669 102.894 213.992 104.066 215.277 105.283L215.508 105.504C211.903 109.204 209.824 113.383 209.829 116.613C209.783 117.874 210.195 119.109 210.989 120.09C213.631 123.19 220.089 122.155 226.089 117.937C228.173 120.978 230.041 124.162 231.679 127.465C225.062 130.677 221.017 135.82 222.437 139.639C223.422 142.271 226.761 143.676 231.057 143.676C233.18 143.657 235.291 143.362 237.338 142.799L237.343 142.792H237.364C238.274 146.353 238.932 149.973 239.333 153.626C239.333 153.634 239.333 153.641 239.333 153.649C232.056 154.393 226.508 157.818 226.497 161.875V161.924C226.497 161.999 226.497 162.074 226.504 162.148L281.177 171.921ZM173.927 137.772C178.893 140.344 182.967 144.354 185.617 149.278C189.919 153.066 194.204 154.96 198.471 154.96C201.631 154.902 204.709 153.95 207.351 152.215C208.726 151.353 210.024 150.372 211.229 149.284C209.058 141.054 204.896 133.485 199.111 127.242C193.326 120.999 186.095 116.274 178.054 113.483L173.746 137.57L173.927 137.772ZM138.719 146.45C141.199 142.922 144.47 140.024 148.271 137.987C152.071 133.67 153.965 129.369 153.953 125.087C153.941 120.804 152.024 116.537 148.201 112.286C140.547 114.266 133.446 117.968 127.44 123.11C121.434 128.251 116.681 134.696 113.544 141.954L138.719 146.45ZM34.2671 122.544C34.8912 124.247 35.9503 125.757 37.3391 126.924C38.7279 128.091 40.3979 128.874 42.1831 129.195L100.097 139.548C100.628 136.048 97.112 131.78 91.541 128.899C91.193 128.719 90.8412 128.544 90.4722 128.375V128.369C92.0674 125.052 93.8918 121.851 95.9321 118.789C95.9316 118.786 95.9316 118.784 95.9321 118.781C99.5631 121.245 103.332 122.574 106.342 122.574C107.224 122.636 108.109 122.5 108.932 122.176C109.754 121.853 110.494 121.349 111.097 120.702C113.684 117.55 111.549 111.39 106.352 106.209L106.575 105.992C109.14 103.499 111.871 101.182 114.75 99.0601L114.761 99.0521C114.934 99.2907 115.109 99.5241 115.287 99.7522C118.6 104.045 122.647 106.674 125.864 106.674C126.732 106.688 127.588 106.466 128.34 106.031C130.184 104.95 131.093 102.642 131.093 99.7312C130.997 96.6251 130.238 93.5755 128.866 90.787H128.856V90.771C130.923 89.833 133.035 88.9838 135.194 88.2238C136.357 87.8131 137.532 87.4299 138.718 87.0739C138.879 87.0249 139.039 86.9738 139.2 86.9308C141.2 94.01 145.564 98.8891 149.582 98.1581C153.491 97.4391 155.799 91.603 155.313 84.5218C155.301 84.3518 155.289 84.1807 155.273 84.0097C157.054 83.8757 158.845 83.7948 160.658 83.7838H160.75H161.278C162.145 83.7838 163.008 83.7981 163.868 83.8268L171.915 38.8258C172.025 38.2129 172.08 37.5915 172.079 36.9688C172.072 35.4576 171.736 33.9661 171.095 32.5977C170.453 31.2294 169.522 30.0169 168.365 29.0446C165.552 28.8639 162.75 28.7739 159.958 28.7745C131.713 28.8217 104.234 37.9679 81.5947 54.8576C58.9552 71.7473 42.3596 95.4819 34.2671 122.544Z" fill="#180919"/>
</svg>
