<svg width="192" height="193" viewBox="0 0 192 193" fill="none" xmlns="http://www.w3.org/2000/svg">
<path d="M95.9829 191.992C93.6549 191.992 91.337 191.892 89.053 191.727C89.753 183.102 87.0458 175.944 82.4438 174.642C82.2658 174.591 82.1179 174.509 81.9539 174.472L81.9229 174.467C78.0979 173.808 74.0529 177.259 71.3059 182.877L71.2798 182.93C71.2098 183.074 71.1398 183.22 71.0718 183.367L71.0298 183.459L71.022 183.477L71.0159 183.49L70.9468 183.641V183.647L70.876 183.806V183.815C70.8353 183.907 70.7946 184 70.7539 184.093C70.7032 184.211 70.6533 184.329 70.604 184.447C70.571 184.525 70.5389 184.605 70.5039 184.684L70.4678 184.773C70.3888 184.973 70.3109 185.173 70.2349 185.373L70.1738 185.534L70.0969 185.742L70.0559 185.854L70.0479 185.875C69.9979 186.012 69.9479 186.149 69.9019 186.287L69.8459 186.452C69.7999 186.588 69.754 186.725 69.71 186.862V186.875C69.645 187.075 69.5808 187.28 69.5188 187.485L69.491 187.578L69.4709 187.644L69.4458 187.728L69.3989 187.888C69.3619 188.015 69.3258 188.143 69.2898 188.27C64.9443 187.019 60.6908 185.467 56.5598 183.627V183.616H56.5669C56.6816 183.366 56.7929 183.115 56.9009 182.865C60.3009 174.965 60.0009 167.365 55.7839 164.957L55.7068 164.935C53.4498 163.678 50.4719 164.103 47.4009 165.829C44.1356 167.805 41.3305 170.456 39.1738 173.604C35.5295 170.945 32.0697 168.041 28.8179 164.913C33.3029 160.382 35.9019 155.278 35.8999 151.319C35.9535 149.795 35.4589 148.302 34.5059 147.11L34.4739 147.072C34.4329 147.033 34.3828 147.012 34.3398 146.978C31.3658 143.703 24.7569 144.383 18.1309 148.193C17.3935 148.617 16.6575 149.08 15.9229 149.581L15.6548 149.181C13.2618 145.616 11.1124 141.894 9.22095 138.039L9.14697 137.889L9.46191 137.739C12.2115 136.449 14.737 134.727 16.9429 132.639L16.9548 132.627L16.9758 132.607C20.1488 129.493 21.639 126.047 20.647 123.182L20.636 123.104C19.448 119.85 15.269 118.097 9.896 118.097C7.76227 118.111 5.63618 118.355 3.55493 118.825C3.14426 118.916 2.73156 119.016 2.31689 119.125L2.27686 118.964C1.27742 114.923 0.546506 110.82 0.0888672 106.682C0.0575339 106.4 0.028 106.118 0 105.835C1.71507 105.68 3.41487 105.386 5.08301 104.958L5.15894 104.938L5.20093 104.927L5.23486 104.918C11.4499 103.265 15.744 99.8715 15.835 95.9655L15.8569 95.8434C15.8569 90.8694 9.00395 86.7224 0.0229492 85.8734C0.0409492 85.6974 0.059834 85.5214 0.079834 85.3464C0.452243 81.9738 1.00779 78.6238 1.7439 75.3114C1.9479 74.3934 2.16533 73.4804 2.396 72.5724C11.122 74.8554 19.0178 73.2774 20.7368 68.5914L20.7468 68.5804C20.9735 67.96 21.0878 67.304 21.084 66.6434C21.077 62.2874 16.361 57.1494 9.29199 53.8114C9.53599 53.3114 9.78599 52.8147 10.042 52.3214C11.846 48.8104 13.8658 45.4146 16.0898 42.1534L16.0999 42.1384C23.0739 46.9384 30.4928 48.2385 34.0408 45.2045C34.2789 45.0287 34.5051 44.8373 34.7178 44.6315C35.6692 43.4432 36.1623 41.9526 36.1069 40.4314C36.1069 36.4794 33.5138 31.3774 29.0288 26.8694L29.0408 26.8584C31.5964 24.4045 34.2863 22.0944 37.0979 19.9385C37.5879 19.5618 38.0818 19.1894 38.5798 18.8214C38.8618 18.6121 39.1456 18.4051 39.4309 18.2004C44.6649 25.5354 51.731 29.3624 56.064 26.8694L56.1089 26.8374C59.3599 24.9234 60.2559 19.8965 58.8699 14.0375L58.8579 13.9884L58.8508 13.9595C58.3709 11.9926 57.7011 10.0768 56.8508 8.23938H56.844V8.22839C58.0527 7.69506 59.2759 7.18472 60.5139 6.69739C63.4699 5.53405 66.4973 4.51139 69.5959 3.62939C71.9359 12.0994 77.0248 17.9665 81.8708 17.4595C81.9258 17.4552 81.981 17.4552 82.0359 17.4595C82.1023 17.4676 82.1694 17.4676 82.2358 17.4595C87.1598 16.5885 90.087 9.16646 89.377 0.220459H89.4368C91.6128 0.068459 93.7888 0.00439453 95.9968 0.00439453C98.3378 0.00439453 100.655 0.09246 102.939 0.24646C102.866 1.15446 102.83 2.04641 102.831 2.92041C102.831 10.6394 105.648 16.7454 110.091 17.5204C110.138 17.5245 110.186 17.5245 110.233 17.5204C110.293 17.5117 110.353 17.5117 110.413 17.5204C115.258 18.0724 120.359 12.1935 122.699 3.72046C126.875 4.91677 130.965 6.39445 134.942 8.14343L135.442 8.3634C133.787 11.7704 132.876 15.4903 132.769 19.2764C132.776 22.8764 133.909 25.7214 136.196 27.0354L136.284 27.0684C139.642 28.9174 144.573 27.0684 149.035 22.7814C150.424 21.4361 151.687 19.9656 152.806 18.3884C153.125 18.6191 153.442 18.8524 153.758 19.0884C157.064 21.5454 160.209 24.2116 163.174 27.0704H163.164L163.186 27.0914C163.077 27.2008 162.97 27.3101 162.864 27.4194C161.429 28.894 160.145 30.5087 159.032 32.2394C156.084 36.8924 155.253 41.4884 157.174 44.3634C157.297 44.5404 157.363 44.7275 157.485 44.8815C157.585 45.0001 157.689 45.1141 157.798 45.2234C158.534 45.8843 159.394 46.3926 160.328 46.7188C161.262 47.0449 162.251 47.1825 163.239 47.1234C166.939 47.1234 171.597 45.4664 176.069 42.3984L176.077 42.4094V42.3984C176.978 43.7318 177.844 45.0871 178.677 46.4645C179.785 48.2891 180.831 50.1531 181.814 52.0564C182.163 52.7324 182.505 53.4141 182.838 54.1014C175.761 57.4394 171.038 62.5854 171.025 66.9504C171.021 67.6123 171.134 68.2696 171.361 68.8915C171.406 68.9795 171.483 69.0574 171.527 69.1564C173.233 73.0954 179.427 74.7165 186.751 73.5065L186.824 73.4944L186.864 73.4874C187.787 73.3314 188.729 73.1305 189.679 72.8875C190.764 77.25 191.538 81.6841 191.996 86.1564C191.996 86.1684 191.996 86.1794 191.996 86.1914C183.003 87.0194 176.139 91.1915 176.139 96.1735C176.139 96.2835 176.184 96.3824 176.184 96.4824C176.421 100.446 180.984 103.853 187.463 105.405C188.944 105.756 190.448 106.003 191.963 106.143C191.566 109.872 190.954 113.574 190.13 117.232C189.981 117.912 189.823 118.588 189.656 119.261L189.614 119.434C187.13 118.77 184.573 118.423 182.002 118.401C177.884 118.401 174.466 119.43 172.557 121.375C171.98 121.953 171.535 122.649 171.252 123.415L171.218 123.581C169.943 127.423 173.118 132.299 178.818 136.017L178.858 136.043L178.883 136.059C180.107 136.849 181.383 137.555 182.702 138.173C180.906 141.834 178.872 145.373 176.612 148.766L176.454 149.004C176.265 149.289 176.075 149.572 175.882 149.852C168.475 144.735 160.514 143.521 157.282 147.371L157.272 147.392C155.489 149.511 155.496 152.804 156.949 156.411L156.968 156.459L156.975 156.476C158.388 159.717 160.413 162.654 162.938 165.128C162.405 165.642 161.865 166.147 161.318 166.644C159.242 168.544 157.083 170.356 154.84 172.08C154.087 172.66 153.323 173.229 152.548 173.786C147.314 166.463 140.262 162.635 135.926 165.117L135.877 165.145C135.716 165.245 135.6 165.402 135.449 165.503C132.483 167.685 131.764 172.726 133.249 178.513C133.719 180.303 134.345 182.048 135.121 183.728L135.134 183.735V183.757L134.942 183.842C130.864 185.637 126.667 187.148 122.382 188.367H122.369C119.997 179.676 114.697 173.676 109.762 174.547L109.678 174.562C109.415 174.639 109.158 174.733 108.908 174.845C104.517 176.367 101.945 183.36 102.62 191.764C100.493 191.913 98.3458 192.001 96.1868 192.006L95.9829 191.992ZM80.116 157.58C80.378 157.291 80.6325 157.001 80.8799 156.711C89.6899 146.414 89.4718 136.126 80.2258 125.848C74.1515 122.662 69.1783 117.719 65.9548 111.664C55.3322 102.198 44.6989 102.242 34.0549 111.796C36.8872 122.851 42.6618 132.931 50.7649 140.966C58.88 149.039 69.0189 154.777 80.1169 157.579L80.116 157.58ZM111.785 157.492C122.465 154.733 132.245 149.245 140.165 141.566C148.084 133.888 153.872 124.282 156.961 113.692C157.174 112.959 157.373 112.218 157.561 111.469C147.049 102.249 136.53 102.315 126.003 111.669C122.791 117.725 117.824 122.669 111.754 125.853C107.013 131.125 104.646 136.398 104.654 141.671C104.661 146.945 107.038 152.218 111.785 157.492ZM95.9849 111.411C98.016 111.418 100.029 111.024 101.907 110.253C103.786 109.481 105.495 108.347 106.936 106.915C108.376 105.484 109.521 103.782 110.304 101.908C111.087 100.034 111.493 98.0236 111.499 95.9924C111.495 93.9596 111.091 91.9474 110.309 90.0709C109.527 88.1944 108.383 86.4904 106.942 85.0564C105.502 83.6223 103.792 82.4862 101.912 81.7133C100.032 80.9403 98.0177 80.5455 95.9849 80.5514C91.8806 80.5434 87.9411 82.1654 85.0322 85.0608C82.1233 87.9562 80.483 91.8882 80.4719 95.9924C80.4878 100.093 82.13 104.019 85.0381 106.91C87.9462 109.801 91.8825 111.42 95.9829 111.411H95.9849ZM65.958 80.3114C69.1783 74.2541 74.1523 69.3101 80.229 66.1265C88.8457 56.5265 89.6121 46.9314 82.5288 37.3414C82.3588 37.1114 82.1842 36.8814 82.0049 36.6514C81.8462 36.4514 81.6841 36.248 81.5188 36.0414C81.1595 35.5994 80.7829 35.1575 80.3889 34.7155C69.3003 37.4528 59.1536 43.1262 51.0151 51.1396C42.8766 59.153 37.0468 69.2105 34.1379 80.2554C44.7446 89.7287 55.3502 89.7468 65.9548 80.3094L65.958 80.3114ZM126.003 80.3114C136.515 89.6447 147.012 89.7294 157.495 80.5654C154.643 69.5129 148.87 59.4313 140.781 51.3778C132.693 43.3243 122.586 37.5956 111.521 34.7925C106.938 39.9738 104.648 45.1554 104.651 50.3374C104.651 55.6001 107.018 60.8631 111.751 66.1265C116.715 68.7316 120.959 72.5225 124.105 77.1625C124.793 78.1765 125.426 79.227 126 80.3094L126.003 80.3114Z" fill="#180919"/>
</svg>
