<svg width="1920" height="1080" viewBox="0 0 1920 1080" fill="none" xmlns="http://www.w3.org/2000/svg">
<path d="M1920 0V306.724L1874.19 267.864L1799.61 246.664C1726.81 243.247 1646.18 237.64 1632.86 229.841C1519.12 211.797 1428.62 232.753 1428.62 232.753C1428.62 232.753 1412.14 233.545 1388.17 234.653L1370.33 242.153L1317 248.338L1289.78 260.004C1285.04 258.153 1259.77 248.338 1259.77 248.338L1245.66 240.606L1205.85 240.947C1205.85 240.947 1187.39 231.826 1164.25 220.569C1157.41 217.24 1150.16 213.727 1142.86 210.205C1112.63 195.635 1081.48 180.953 1074.57 178.931C1074.57 178.931 945.713 170.16 926.758 170.16C916.909 170.16 880.75 173.06 848.277 175.844C818.255 178.419 791.383 180.897 791.383 180.897C791.383 180.897 776.023 177.297 754.441 172.219C732.629 167.085 704.46 160.438 679.368 154.457L616.615 158.608L606.976 162.155L595.669 166.315L579.514 179.807L563.441 163.8L547.944 161.682L541.283 160.772L522.077 156.009C522.077 156.009 503.801 158.258 493.337 159.914C491.078 160.22 488.838 160.649 486.627 161.2C477.207 164.195 468.618 169.331 461.541 176.2L441.295 194.477C441.295 194.477 423.158 170.699 426.11 168.535L377.299 158.035L364.109 155.197L340.494 158.997V147.402L0 102.482V0H1920Z" fill="#04040C"/>
</svg>
