<svg width="1920" height="1080" viewBox="0 0 1920 1080" fill="none" xmlns="http://www.w3.org/2000/svg">
<g clip-path="url(#clip0_215_59155)">
<path d="M1992 -119.985V335.985L1955.97 323.95L1946.23 311.915L1954.29 296.415L1958.36 288.589L1963.76 278.213L1917.78 246.694C1872.89 241.615 1823.18 233.279 1814.98 221.686C1744.86 194.862 1689.05 226.015 1689.05 226.015C1689.05 226.015 1678.9 227.192 1664.11 228.834L1653.11 239.985L1620.23 249.179L1603.45 266.524C1600.53 263.773 1584.95 249.181 1584.95 249.181L1576.25 237.686L1551.7 238.194C1551.7 238.194 1540.33 224.635 1526.06 207.9C1521.84 202.952 1517.37 197.729 1512.87 192.493C1494.23 170.834 1475.03 149.008 1470.77 146.002C1470.77 146.002 1391.32 132.964 1379.64 132.964C1373.56 132.964 1351.27 137.273 1331.25 141.413C1312.74 145.241 1296.18 148.925 1296.18 148.925C1296.18 148.925 1286.71 143.577 1273.4 136.025C1259.95 128.393 1242.59 118.511 1227.11 109.625L1188.43 115.792L1182.48 121.065L1175.51 127.249L1167.5 121.065L1155.64 123.506L1146.09 120.357L1141.98 119.004L1130.15 111.929C1130.15 111.929 1118.88 115.273 1112.43 117.735C1110.98 118.216 1109.59 118.858 1108.29 119.647C1098.39 127.458 1069.16 133.767 1040.89 114.937L1032.76 110.718L1025 105.5L1018.2 99.14L416 -21L1018.19 -119.985H1992Z" fill="#180919"/>
<path d="M1451.55 346.113L1436.65 345.068C1434.01 344.878 1431.53 343.72 1429.69 341.816C1427.85 339.912 1426.78 337.395 1426.69 334.75L1416.08 330.95C1414.53 333.01 1412.29 334.442 1409.76 334.985C1407.24 335.527 1404.61 335.143 1402.35 333.904L1389.26 326.704C1387.16 325.542 1385.51 323.709 1384.57 321.497C1383.63 319.285 1383.47 316.822 1384.09 314.504L1375.42 308.526C1373.4 310.114 1370.88 310.925 1368.31 310.811C1365.74 310.697 1363.3 309.666 1361.43 307.906L1350.57 297.644C1348.78 295.949 1347.63 293.69 1347.31 291.246C1346.99 288.802 1347.52 286.322 1348.81 284.223L1342.32 277.14C1340.19 278.113 1337.8 278.362 1335.52 277.849C1333.23 277.336 1331.18 276.09 1329.67 274.3L1320.04 262.87C1318.39 260.903 1317.5 258.409 1317.53 255.841C1317.57 253.273 1318.52 250.802 1320.22 248.877L1314.69 240.1C1312.41 240.778 1309.98 240.681 1307.76 239.825C1305.55 238.969 1303.68 237.402 1302.45 235.37L1294.74 222.57C1293.48 220.475 1292.98 218.014 1293.31 215.593C1293.64 213.172 1294.78 210.936 1296.56 209.255L1293.05 202.555C1290.68 203.009 1288.23 202.655 1286.1 201.55C1283.96 200.445 1282.25 198.653 1281.26 196.463L1275.09 182.85C1274.04 180.521 1273.86 177.893 1274.57 175.44C1275.29 172.987 1276.86 170.87 1278.99 169.469L1275.95 160.687C1273.45 160.895 1270.95 160.218 1268.89 158.775C1266.84 157.331 1265.36 155.212 1264.7 152.787L1260.83 138.354C1260.24 136.125 1260.38 133.763 1261.23 131.62C1262.08 129.476 1263.6 127.665 1265.57 126.454L1263.34 118.311C1260.88 118.245 1258.52 117.337 1256.65 115.739C1254.78 114.14 1253.51 111.948 1253.07 109.529L1250.37 94.829C1249.96 92.5575 1250.29 90.2135 1251.31 88.1448C1252.34 86.0761 1254 84.393 1256.06 83.345L1254.69 73.235C1252.25 72.9758 1249.97 71.8868 1248.23 70.1498C1246.49 68.4127 1245.4 66.1327 1245.14 63.69L1243.59 48.834C1243.35 46.5491 1243.86 44.2488 1245.03 42.2711C1246.19 40.2933 1247.97 38.7423 1250.08 37.846L1249.05 26.864C1246.57 26.5314 1244.28 25.3417 1242.59 23.5009C1240.89 21.6601 1239.89 19.284 1239.76 16.784L1239.01 1.86C1238.98 1.23891 1239.01 0.61653 1239.09 0L1245.35 0C1245.19 0.501624 1245.12 1.02717 1245.15 1.553L1245.9 16.475C1245.94 17.2888 1246.19 18.0766 1246.64 18.7573C1247.09 19.438 1247.71 19.9868 1248.44 20.347L1248.11 16.747C1248.06 16.2739 1248.13 15.7974 1248.3 15.3552C1248.48 14.9131 1248.75 14.5175 1249.11 14.2L1249.11 14.194C1249.26 14.0626 1249.41 13.9454 1249.58 13.844C1249.6 13.832 1249.62 13.817 1249.64 13.805C1249.79 13.7187 1249.95 13.6457 1250.12 13.587C1250.16 13.573 1250.19 13.551 1250.24 13.538C1250.44 13.4714 1250.66 13.4268 1250.88 13.405C1251.28 13.3673 1251.68 13.409 1252.07 13.528C1252.46 13.6469 1252.81 13.8406 1253.12 14.098C1253.44 14.3554 1253.69 14.6716 1253.88 15.0283C1254.07 15.385 1254.18 15.7754 1254.22 16.177L1254.44 18.512C1254.88 17.7554 1255.09 16.8891 1255.04 16.017L1254.29 1.093C1254.27 0.721668 1254.2 0.354605 1254.09 0L1260.34 0C1260.38 0.26 1260.41 0.52 1260.42 0.786L1261.17 15.71C1261.19 16.1219 1261.19 16.5346 1261.16 16.946C1261.15 17.07 1261.13 17.191 1261.12 17.314C1261.09 17.601 1261.06 17.884 1261 18.164C1260.98 18.294 1260.95 18.423 1260.93 18.553C1260.86 18.834 1260.79 19.111 1260.71 19.384C1260.67 19.49 1260.64 19.596 1260.61 19.7C1260.49 20.0498 1260.35 20.3933 1260.19 20.729C1260.19 20.748 1260.18 20.766 1260.17 20.785C1259.99 21.1633 1259.79 21.5306 1259.57 21.885L1259.56 21.897C1259.35 22.2315 1259.12 22.554 1258.88 22.863C1258.84 22.909 1258.8 22.954 1258.77 23C1258.55 23.272 1258.31 23.533 1258.07 23.783L1257.94 23.906C1257.67 24.1755 1257.38 24.4302 1257.08 24.669C1257.07 24.675 1257.06 24.683 1257.05 24.69C1256.46 25.1603 1255.81 25.5659 1255.13 25.9L1256.19 37.18C1257.36 37.3981 1258.48 37.8104 1259.52 38.4H1259.53C1259.81 38.562 1260.09 38.735 1260.36 38.922C1260.37 38.934 1260.39 38.949 1260.41 38.961C1260.66 39.139 1260.91 39.325 1261.14 39.523C1261.18 39.552 1261.21 39.584 1261.24 39.613C1261.46 39.8 1261.67 39.991 1261.87 40.195C1261.92 40.246 1261.97 40.302 1262.02 40.354C1262.2 40.543 1262.38 40.733 1262.54 40.935C1262.6 41.012 1262.66 41.094 1262.72 41.173C1262.87 41.36 1263.01 41.545 1263.14 41.74C1263.21 41.846 1263.28 41.959 1263.34 42.068C1263.45 42.246 1263.57 42.421 1263.67 42.606C1263.74 42.747 1263.81 42.894 1263.88 43.038C1263.96 43.201 1264.04 43.361 1264.11 43.53C1264.19 43.699 1264.25 43.894 1264.31 44.076C1264.37 44.22 1264.43 44.36 1264.47 44.507C1264.54 44.732 1264.6 44.965 1264.65 45.197C1264.68 45.31 1264.71 45.419 1264.74 45.533C1264.81 45.8837 1264.87 46.2403 1264.91 46.603L1266.46 61.463C1266.5 61.8727 1266.52 62.2843 1266.51 62.696C1266.51 62.822 1266.5 62.944 1266.49 63.069C1266.48 63.356 1266.46 63.64 1266.42 63.922C1266.41 64.054 1266.39 64.184 1266.37 64.315C1266.32 64.599 1266.26 64.879 1266.19 65.157C1266.16 65.264 1266.14 65.373 1266.11 65.478C1266.01 65.8361 1265.89 66.1887 1265.75 66.534C1265.75 66.55 1265.74 66.568 1265.74 66.583C1265.43 67.3431 1265.03 68.0654 1264.56 68.736L1264.46 68.862C1264.25 69.1528 1264.03 69.4328 1263.79 69.701C1263.75 69.739 1263.72 69.779 1263.69 69.816C1263.42 70.1081 1263.14 70.3851 1262.84 70.646L1262.84 70.654C1262.19 71.2153 1261.48 71.6974 1260.73 72.09L1262.11 82.25C1263.6 82.4205 1265.04 82.9026 1266.33 83.665L1266.36 83.686C1266.64 83.847 1266.9 84.019 1267.16 84.204C1267.19 84.225 1267.22 84.248 1267.25 84.27C1267.49 84.444 1267.72 84.624 1267.94 84.817C1267.99 84.858 1268.03 84.904 1268.08 84.945C1268.28 85.125 1268.48 85.308 1268.66 85.503C1268.73 85.569 1268.78 85.64 1268.85 85.703C1269.01 85.884 1269.17 86.063 1269.32 86.256C1269.4 86.35 1269.47 86.456 1269.54 86.548C1269.67 86.723 1269.8 86.895 1269.92 87.077C1270 87.205 1270.07 87.341 1270.15 87.472C1270.25 87.635 1270.35 87.795 1270.43 87.963C1270.52 88.131 1270.59 88.302 1270.67 88.473C1270.74 88.619 1270.81 88.759 1270.87 88.909C1270.96 89.123 1271.03 89.347 1271.1 89.568C1271.14 89.683 1271.18 89.794 1271.22 89.911C1271.31 90.2537 1271.4 90.6043 1271.46 90.963L1274.16 105.663C1274.22 105.988 1274.26 106.312 1274.29 106.635C1274.29 106.702 1274.3 106.768 1274.3 106.835C1274.33 107.143 1274.34 107.451 1274.33 107.755C1274.33 107.822 1274.33 107.89 1274.32 107.955C1274.31 108.223 1274.3 108.49 1274.27 108.755C1274.26 108.812 1274.26 108.87 1274.25 108.927C1274.21 109.208 1274.16 109.486 1274.11 109.76C1274.09 109.86 1274.06 109.96 1274.04 110.06C1273.98 110.316 1273.91 110.571 1273.83 110.821C1273.79 110.933 1273.75 111.04 1273.72 111.15C1273.66 111.312 1273.6 111.472 1273.53 111.63C1273.46 111.788 1273.41 111.923 1273.34 112.067C1273.26 112.252 1273.17 112.433 1273.07 112.612C1273 112.754 1272.92 112.892 1272.84 113.03C1272.78 113.13 1272.72 113.224 1272.66 113.32C1272.51 113.556 1272.35 113.785 1272.18 114.008C1272.12 114.082 1272.07 114.155 1272.01 114.228C1271.25 115.2 1270.32 116.032 1269.27 116.687L1271.5 124.87C1273 124.917 1274.48 125.282 1275.84 125.94L1275.87 125.954C1276.15 126.095 1276.43 126.245 1276.71 126.41C1276.74 126.427 1276.77 126.447 1276.79 126.466C1277.05 126.62 1277.29 126.783 1277.53 126.96C1277.58 126.995 1277.63 127.034 1277.67 127.07C1277.89 127.235 1278.1 127.404 1278.31 127.585C1278.37 127.643 1278.44 127.706 1278.5 127.766C1278.68 127.935 1278.86 128.104 1279.03 128.286C1279.11 128.37 1279.18 128.46 1279.25 128.548C1279.4 128.715 1279.55 128.881 1279.68 129.059C1279.77 129.173 1279.85 129.295 1279.93 129.413C1280.05 129.574 1280.17 129.731 1280.27 129.9C1280.36 130.048 1280.44 130.2 1280.53 130.359C1280.62 130.518 1280.7 130.659 1280.78 130.808C1280.88 131.001 1280.96 131.208 1281.04 131.408C1281.09 131.534 1281.16 131.654 1281.2 131.782C1281.33 132.119 1281.44 132.462 1281.54 132.81L1285.41 147.243C1285.49 147.561 1285.56 147.879 1285.61 148.198C1285.62 148.266 1285.64 148.334 1285.65 148.398C1285.69 148.698 1285.73 149.004 1285.75 149.306C1285.75 149.377 1285.75 149.447 1285.76 149.518C1285.77 149.781 1285.77 150.043 1285.76 150.303C1285.76 150.365 1285.76 150.427 1285.76 150.488C1285.75 150.769 1285.72 151.047 1285.69 151.324C1285.67 151.424 1285.66 151.533 1285.64 151.636C1285.6 151.895 1285.56 152.154 1285.5 152.408C1285.47 152.523 1285.44 152.633 1285.41 152.746C1285.36 152.911 1285.32 153.076 1285.26 153.24C1285.22 153.39 1285.16 153.54 1285.11 153.688C1285.04 153.879 1284.97 154.07 1284.89 154.257C1284.82 154.405 1284.75 154.549 1284.69 154.692C1284.63 154.792 1284.58 154.898 1284.53 155.001C1284.4 155.245 1284.26 155.484 1284.11 155.718C1284.06 155.797 1284.01 155.877 1283.96 155.955C1283.33 156.901 1282.56 157.742 1281.67 158.447L1284.88 167.719C1285.9 167.723 1286.91 167.87 1287.88 168.158L1287.93 168.171C1288.23 168.262 1288.53 168.363 1288.82 168.48C1288.86 168.494 1288.89 168.512 1288.93 168.526C1289.2 168.637 1289.46 168.755 1289.73 168.887C1289.78 168.917 1289.84 168.952 1289.9 168.982C1290.13 169.107 1290.37 169.236 1290.6 169.382C1290.68 169.431 1290.75 169.488 1290.83 169.541C1291.03 169.675 1291.23 169.808 1291.42 169.956C1291.52 170.03 1291.61 170.113 1291.7 170.191C1291.87 170.328 1292.04 170.463 1292.19 170.611C1292.3 170.711 1292.41 170.829 1292.51 170.938C1292.65 171.073 1292.78 171.204 1292.91 171.346C1293.05 171.488 1293.15 171.632 1293.26 171.777C1293.36 171.904 1293.47 172.026 1293.56 172.16C1293.69 172.341 1293.81 172.535 1293.93 172.728C1294 172.836 1294.07 172.937 1294.14 173.049C1294.32 173.358 1294.49 173.678 1294.64 174.01L1300.8 187.621C1300.97 187.999 1301.12 188.386 1301.24 188.78C1301.28 188.893 1301.31 189.008 1301.34 189.122C1301.42 189.405 1301.5 189.69 1301.55 189.976C1301.58 190.1 1301.6 190.222 1301.62 190.346C1301.66 190.64 1301.7 190.933 1301.72 191.227C1301.72 191.327 1301.73 191.427 1301.74 191.534C1301.76 191.915 1301.76 192.297 1301.73 192.678V192.705C1301.68 193.525 1301.53 194.336 1301.29 195.123C1301.28 195.173 1301.26 195.223 1301.24 195.274C1301.14 195.615 1301.01 195.951 1300.87 196.28C1300.85 196.328 1300.83 196.38 1300.81 196.423C1300.65 196.785 1300.47 197.137 1300.27 197.479V197.485C1299.78 198.304 1299.19 199.054 1298.51 199.717L1302.07 206.504C1302.62 206.404 1303.19 206.35 1303.75 206.341H1303.76C1304.09 206.336 1304.42 206.345 1304.75 206.37H1304.8C1305.11 206.396 1305.42 206.433 1305.73 206.486L1305.83 206.507C1306.13 206.56 1306.41 206.62 1306.7 206.696C1306.75 206.711 1306.81 206.729 1306.86 206.745C1307.13 206.819 1307.39 206.9 1307.65 206.996C1307.72 207.023 1307.8 207.057 1307.87 207.087C1308.11 207.18 1308.34 207.274 1308.57 207.387C1308.67 207.433 1308.76 207.487 1308.86 207.536C1309.06 207.636 1309.26 207.744 1309.46 207.861C1309.57 207.93 1309.68 208.009 1309.79 208.082C1309.96 208.193 1310.14 208.301 1310.3 208.422C1310.43 208.522 1310.56 208.622 1310.68 208.73C1310.81 208.838 1310.97 208.95 1311.1 209.071C1311.24 209.192 1311.38 209.342 1311.52 209.481C1311.63 209.589 1311.74 209.69 1311.84 209.802C1312 209.975 1312.15 210.162 1312.29 210.348C1312.37 210.439 1312.45 210.524 1312.52 210.618C1312.73 210.908 1312.93 211.208 1313.12 211.518L1320.83 224.318C1321.04 224.673 1321.23 225.041 1321.4 225.418C1321.45 225.531 1321.49 225.644 1321.54 225.757C1321.65 226.025 1321.75 226.294 1321.84 226.566C1321.88 226.691 1321.92 226.816 1321.95 226.941C1322.03 227.222 1322.1 227.504 1322.15 227.787C1322.17 227.893 1322.19 227.998 1322.21 228.103C1322.27 228.474 1322.32 228.848 1322.34 229.224C1322.34 229.237 1322.34 229.25 1322.34 229.264C1322.38 230.085 1322.33 230.909 1322.18 231.718C1322.17 231.767 1322.16 231.818 1322.15 231.866C1322.08 232.222 1322 232.574 1321.9 232.921C1321.88 232.967 1321.87 233.012 1321.85 233.058C1321.43 234.408 1320.75 235.662 1319.84 236.746L1325.45 245.646C1326.08 245.474 1326.73 245.36 1327.38 245.307H1327.39C1327.72 245.282 1328.05 245.269 1328.37 245.273H1328.44C1328.75 245.273 1329.05 245.294 1329.36 245.326C1329.41 245.326 1329.45 245.339 1329.49 245.344C1329.78 245.378 1330.06 245.418 1330.34 245.474C1330.41 245.487 1330.48 245.506 1330.54 245.521C1330.8 245.577 1331.06 245.637 1331.31 245.713C1331.4 245.739 1331.49 245.775 1331.59 245.805C1331.81 245.879 1332.04 245.952 1332.26 246.041C1332.38 246.088 1332.49 246.146 1332.61 246.197C1332.8 246.283 1332.99 246.364 1333.18 246.461C1333.32 246.534 1333.46 246.619 1333.59 246.698C1333.75 246.79 1333.91 246.875 1334.07 246.975C1334.22 247.075 1334.39 247.198 1334.54 247.313C1334.67 247.402 1334.79 247.485 1334.91 247.581C1335.1 247.728 1335.28 247.891 1335.45 248.052C1335.54 248.13 1335.63 248.2 1335.71 248.281C1335.97 248.532 1336.22 248.796 1336.45 249.072L1346.08 260.501C1346.34 260.82 1346.58 261.154 1346.81 261.501C1346.88 261.601 1346.94 261.706 1347 261.809C1347.15 262.057 1347.3 262.309 1347.43 262.567C1347.48 262.682 1347.54 262.798 1347.59 262.914C1347.72 263.181 1347.83 263.45 1347.93 263.724C1347.96 263.824 1348 263.924 1348.04 264.024C1348.16 264.383 1348.26 264.749 1348.34 265.119C1348.34 265.129 1348.34 265.14 1348.35 265.151C1348.52 265.957 1348.59 266.78 1348.58 267.604C1348.58 267.652 1348.58 267.698 1348.57 267.746C1348.56 268.114 1348.53 268.481 1348.48 268.846L1348.46 268.974C1348.25 270.443 1347.74 271.851 1346.95 273.111L1353.41 280.163C1353.89 279.941 1354.38 279.756 1354.89 279.608H1354.89C1355.21 279.515 1355.53 279.434 1355.85 279.371L1355.9 279.363C1356.21 279.303 1356.52 279.255 1356.83 279.222L1356.93 279.214C1357.23 279.187 1357.53 279.168 1357.83 279.165C1357.88 279.165 1357.93 279.165 1357.99 279.165C1358.27 279.165 1358.54 279.173 1358.82 279.195C1358.9 279.201 1358.97 279.214 1359.04 279.221C1359.3 279.247 1359.56 279.276 1359.81 279.321C1359.91 279.338 1360.01 279.364 1360.1 279.383C1360.33 279.43 1360.57 279.478 1360.79 279.541C1360.91 279.573 1361.03 279.616 1361.15 279.652C1361.35 279.717 1361.56 279.778 1361.76 279.852C1361.9 279.905 1362.03 279.97 1362.17 280.029C1362.35 280.105 1362.53 280.175 1362.7 280.262C1362.87 280.349 1363.02 280.434 1363.17 280.521C1363.33 280.608 1363.47 280.678 1363.61 280.767C1363.8 280.884 1363.98 281.018 1364.16 281.147C1364.27 281.223 1364.38 281.29 1364.48 281.371C1364.76 281.589 1365.04 281.823 1365.3 282.071L1376.17 292.334C1376.46 292.617 1376.75 292.918 1377.01 293.234C1377.09 293.327 1377.16 293.424 1377.23 293.519C1377.41 293.748 1377.59 293.982 1377.74 294.219C1377.82 294.328 1377.88 294.437 1377.95 294.548C1378.1 294.797 1378.24 295.048 1378.37 295.309C1378.42 295.409 1378.47 295.502 1378.52 295.6C1378.67 295.937 1378.81 296.282 1378.93 296.634C1378.94 296.65 1378.95 296.668 1378.95 296.684C1379.09 297.081 1379.2 297.486 1379.28 297.896V297.906C1379.36 298.293 1379.42 298.685 1379.46 299.079C1379.46 299.137 1379.47 299.195 1379.47 299.253C1379.5 299.605 1379.51 299.953 1379.5 300.309C1379.5 300.366 1379.5 300.422 1379.5 300.478C1379.49 300.867 1379.46 301.255 1379.4 301.641V301.662C1379.31 302.29 1379.16 302.908 1378.96 303.51L1387.36 309.294C1387.84 308.87 1388.36 308.49 1388.9 308.16L1388.92 308.15C1389.2 307.983 1389.49 307.827 1389.78 307.685L1389.84 307.66C1390.12 307.526 1390.4 307.403 1390.69 307.295C1390.73 307.282 1390.76 307.271 1390.79 307.259C1391.07 307.159 1391.35 307.067 1391.64 306.99C1391.69 306.976 1391.74 306.965 1391.8 306.952C1392.06 306.884 1392.33 306.82 1392.61 306.773C1392.68 306.761 1392.76 306.754 1392.83 306.742C1393.09 306.703 1393.34 306.666 1393.6 306.642C1393.7 306.634 1393.79 306.635 1393.89 306.63C1394.13 306.617 1394.37 306.605 1394.61 306.608C1394.72 306.608 1394.84 306.622 1394.96 306.627C1395.18 306.637 1395.4 306.645 1395.62 306.67C1395.76 306.685 1395.9 306.713 1396.03 306.733C1396.23 306.763 1396.43 306.788 1396.63 306.833C1396.79 306.867 1396.95 306.915 1397.11 306.955C1397.29 307.001 1397.47 307.039 1397.64 307.094C1397.82 307.149 1398.02 307.231 1398.21 307.303C1398.35 307.356 1398.49 307.403 1398.63 307.461C1398.96 307.6 1399.28 307.757 1399.6 307.932L1412.69 315.132C1413.05 315.333 1413.4 315.554 1413.74 315.794C1413.84 315.866 1413.93 315.944 1414.03 316.02C1414.26 316.194 1414.48 316.376 1414.69 316.566C1414.79 316.654 1414.89 316.745 1414.98 316.836C1415.19 317.036 1415.39 317.244 1415.57 317.461C1415.65 317.544 1415.72 317.625 1415.79 317.71C1416.03 317.995 1416.25 318.293 1416.45 318.601C1416.46 318.618 1416.48 318.633 1416.49 318.649C1416.72 319 1416.92 319.364 1417.11 319.739V319.744C1417.29 320.101 1417.44 320.469 1417.58 320.844C1417.6 320.895 1417.61 320.944 1417.63 320.999C1417.75 321.338 1417.85 321.68 1417.93 322.027C1417.94 322.077 1417.96 322.127 1417.97 322.178C1418.19 323.168 1418.27 324.186 1418.21 325.199L1428.26 328.799C1428.35 328.659 1428.44 328.522 1428.53 328.386V328.379C1428.72 328.106 1428.92 327.842 1429.13 327.588L1429.16 327.55C1429.36 327.308 1429.57 327.075 1429.79 326.85C1429.81 326.825 1429.84 326.802 1429.87 326.777C1430.08 326.569 1430.29 326.367 1430.52 326.177C1430.56 326.139 1430.61 326.106 1430.65 326.07C1430.87 325.898 1431.08 325.729 1431.31 325.57C1431.37 325.523 1431.45 325.482 1431.51 325.437C1431.72 325.298 1431.93 325.162 1432.15 325.037C1432.25 324.984 1432.35 324.937 1432.44 324.889C1432.64 324.783 1432.84 324.678 1433.05 324.589C1433.18 324.533 1433.3 324.489 1433.43 324.438C1433.62 324.362 1433.8 324.284 1434 324.219C1434.15 324.166 1434.32 324.126 1434.48 324.08C1434.64 324.034 1434.81 323.98 1434.98 323.939C1435.18 323.894 1435.38 323.863 1435.58 323.829C1435.73 323.804 1435.87 323.771 1436.01 323.753C1436.25 323.721 1436.5 323.707 1436.75 323.692C1436.86 323.686 1436.96 323.671 1437.07 323.667C1437.43 323.656 1437.79 323.663 1438.15 323.688L1453.06 324.733C1453.47 324.764 1453.88 324.818 1454.29 324.896C1454.4 324.918 1454.52 324.95 1454.64 324.976C1454.92 325.039 1455.2 325.111 1455.48 325.197C1455.6 325.235 1455.72 325.277 1455.85 325.319C1456.12 325.419 1456.39 325.524 1456.66 325.642C1456.76 325.685 1456.86 325.726 1456.95 325.773C1457.29 325.935 1457.62 326.114 1457.93 326.31C1457.95 326.319 1457.96 326.326 1457.98 326.334C1458.33 326.557 1458.67 326.8 1459 327.063C1459.31 327.313 1459.61 327.58 1459.89 327.863C1459.93 327.902 1459.96 327.943 1460 327.982C1460.25 328.239 1460.48 328.508 1460.7 328.789L1460.8 328.911C1461.51 329.832 1462.07 330.862 1462.45 331.962L1472.4 331.375C1472.48 330.997 1472.58 330.625 1472.7 330.258L1472.71 330.235C1472.81 329.926 1472.92 329.622 1473.05 329.325L1473.08 329.263C1473.2 328.98 1473.33 328.702 1473.48 328.431C1473.5 328.395 1473.52 328.361 1473.54 328.325C1473.68 328.071 1473.83 327.825 1473.99 327.581C1474.02 327.529 1474.06 327.481 1474.1 327.429C1474.25 327.208 1474.41 326.989 1474.58 326.779C1474.63 326.713 1474.69 326.65 1474.75 326.585C1474.91 326.398 1475.07 326.21 1475.24 326.034C1475.32 325.954 1475.41 325.88 1475.49 325.803C1475.65 325.648 1475.81 325.493 1475.98 325.348C1476.08 325.258 1476.2 325.178 1476.31 325.093C1476.46 324.969 1476.62 324.843 1476.78 324.728C1476.92 324.635 1477.06 324.554 1477.2 324.466C1477.34 324.378 1477.5 324.266 1477.66 324.182C1477.81 324.098 1478 324.008 1478.17 323.924C1478.31 323.855 1478.45 323.78 1478.59 323.717C1478.8 323.624 1479.02 323.547 1479.24 323.468C1479.35 323.427 1479.46 323.378 1479.58 323.34C1479.92 323.228 1480.27 323.134 1480.62 323.058L1495.22 319.899C1495.55 319.829 1495.87 319.779 1496.19 319.74C1496.26 319.731 1496.32 319.723 1496.39 319.716C1496.7 319.684 1497.01 319.664 1497.31 319.66C1497.38 319.66 1497.44 319.66 1497.51 319.66C1497.78 319.66 1498.06 319.671 1498.33 319.692L1498.48 319.702C1498.77 319.729 1499.05 319.771 1499.34 319.821C1499.43 319.837 1499.52 319.855 1499.62 319.874C1499.88 319.928 1500.15 319.99 1500.41 320.064C1500.51 320.092 1500.61 320.126 1500.71 320.158C1500.89 320.215 1501.07 320.276 1501.24 320.343C1501.36 320.386 1501.47 320.426 1501.58 320.473C1501.8 320.564 1502.02 320.663 1502.23 320.773C1502.36 320.839 1502.5 320.91 1502.63 320.982C1502.74 321.045 1502.86 321.112 1502.97 321.182C1503.19 321.315 1503.41 321.456 1503.63 321.605C1503.71 321.663 1503.79 321.72 1503.87 321.781C1504.53 322.265 1505.14 322.823 1505.67 323.444L1514.24 319.528C1514.12 318.802 1514.06 318.065 1514.09 317.328V317.3C1514.1 316.973 1514.12 316.648 1514.16 316.325C1514.16 316.304 1514.17 316.283 1514.17 316.262C1514.21 315.954 1514.26 315.649 1514.33 315.347C1514.33 315.307 1514.35 315.267 1514.35 315.226C1514.42 314.944 1514.49 314.663 1514.58 314.386C1514.6 314.324 1514.62 314.265 1514.64 314.203C1514.73 313.949 1514.82 313.696 1514.92 313.449C1514.96 313.366 1515 313.286 1515.04 313.204C1515.14 312.981 1515.24 312.757 1515.35 312.541C1515.41 312.441 1515.47 312.341 1515.53 312.241C1515.64 312.048 1515.75 311.855 1515.87 311.668C1515.95 311.551 1516.04 311.439 1516.12 311.324C1516.24 311.162 1516.36 310.997 1516.48 310.841C1516.59 310.71 1516.71 310.588 1516.82 310.461C1516.94 310.334 1517.05 310.193 1517.18 310.067C1517.32 309.919 1517.49 309.782 1517.64 309.642C1517.75 309.542 1517.85 309.442 1517.96 309.353C1518.24 309.126 1518.52 308.91 1518.83 308.708L1531.24 300.399C1531.59 300.171 1531.94 299.964 1532.31 299.777C1532.42 299.719 1532.53 299.672 1532.65 299.62C1532.91 299.497 1533.17 299.382 1533.44 299.282C1533.56 299.236 1533.68 299.193 1533.81 299.152C1534.08 299.059 1534.36 298.98 1534.64 298.912C1534.75 298.887 1534.85 298.858 1534.96 298.835C1535.32 298.755 1535.7 298.695 1536.07 298.655L1536.11 298.65C1536.93 298.57 1537.75 298.583 1538.57 298.691L1538.71 298.712C1539.07 298.764 1539.43 298.835 1539.79 298.923L1539.92 298.955C1541.21 299.293 1542.43 299.87 1543.51 300.655L1549.05 296.091C1548.84 295.621 1548.66 295.136 1548.52 294.64L1548.51 294.616C1548.42 294.304 1548.34 293.99 1548.28 293.672C1548.28 293.651 1548.27 293.628 1548.27 293.607C1548.21 293.307 1548.17 292.997 1548.14 292.689C1548.14 292.651 1548.14 292.612 1548.13 292.574C1548.1 292.283 1548.09 291.991 1548.08 291.698C1548.08 291.639 1548.08 291.581 1548.08 291.523C1548.08 291.25 1548.09 290.977 1548.12 290.703C1548.12 290.624 1548.14 290.546 1548.15 290.467C1548.17 290.214 1548.2 289.967 1548.25 289.712C1548.26 289.612 1548.29 289.512 1548.31 289.412C1548.36 289.183 1548.41 288.954 1548.47 288.729C1548.5 288.609 1548.55 288.492 1548.59 288.373C1548.65 288.173 1548.71 287.965 1548.79 287.764C1548.84 287.626 1548.9 287.493 1548.96 287.357C1549.04 287.179 1549.11 286.999 1549.2 286.824C1549.28 286.67 1549.37 286.524 1549.45 286.369C1549.54 286.214 1549.62 286.069 1549.71 285.917C1549.82 285.739 1549.95 285.568 1550.08 285.395C1550.16 285.28 1550.23 285.162 1550.32 285.05C1550.54 284.765 1550.78 284.492 1551.02 284.231L1561.34 273.418C1561.62 273.121 1561.93 272.84 1562.25 272.577C1562.34 272.499 1562.44 272.431 1562.53 272.359C1562.76 272.179 1563 272.008 1563.24 271.848C1563.35 271.779 1563.45 271.713 1563.56 271.648C1563.82 271.496 1564.07 271.356 1564.33 271.227C1564.43 271.18 1564.52 271.127 1564.62 271.086C1564.96 270.929 1565.31 270.791 1565.66 270.67L1565.71 270.654C1566.1 270.523 1566.51 270.415 1566.92 270.33H1566.93C1567.32 270.252 1567.71 270.195 1568.1 270.16C1568.16 270.155 1568.22 270.152 1568.28 270.148C1568.63 270.122 1568.98 270.113 1569.33 270.12H1569.51C1569.89 270.133 1570.28 270.166 1570.66 270.22H1570.69C1571.75 270.376 1572.79 270.693 1573.76 271.159L1578.59 265.55C1578.05 264.779 1577.61 263.941 1577.29 263.057L1577.28 263.033C1577.17 262.729 1577.08 262.421 1577 262.11C1576.99 262.085 1576.99 262.059 1576.98 262.034C1576.91 261.734 1576.84 261.44 1576.79 261.14C1576.79 261.094 1576.78 261.047 1576.77 261C1576.73 260.719 1576.7 260.437 1576.67 260.154C1576.67 260.082 1576.67 260.011 1576.67 259.94C1576.65 259.679 1576.64 259.418 1576.65 259.156C1576.65 259.056 1576.66 258.956 1576.67 258.862C1576.68 258.625 1576.69 258.39 1576.72 258.154C1576.73 258.028 1576.76 257.903 1576.78 257.778C1576.81 257.569 1576.84 257.361 1576.88 257.154C1576.91 257 1576.96 256.849 1577 256.697C1577.04 256.518 1577.08 256.339 1577.14 256.162C1577.19 255.985 1577.27 255.804 1577.34 255.626C1577.4 255.48 1577.44 255.326 1577.5 255.186C1577.6 254.973 1577.7 254.763 1577.81 254.554C1577.87 254.448 1577.91 254.338 1577.97 254.234C1578.14 253.922 1578.33 253.615 1578.54 253.313L1587.04 241.027C1587.28 240.69 1587.53 240.366 1587.8 240.058C1587.89 239.958 1587.98 239.873 1588.06 239.781C1588.26 239.574 1588.46 239.375 1588.66 239.187C1588.76 239.096 1588.86 239.009 1588.97 238.921C1589.19 238.739 1589.41 238.568 1589.64 238.405C1589.74 238.339 1589.83 238.27 1589.92 238.205C1590.23 238.005 1590.54 237.82 1590.86 237.65C1590.88 237.638 1590.9 237.624 1590.93 237.612C1591.3 237.421 1591.68 237.252 1592.07 237.106L1592.09 237.1C1592.46 236.964 1592.83 236.848 1593.21 236.753C1593.27 236.738 1593.33 236.726 1593.38 236.712C1593.73 236.631 1594.07 236.567 1594.42 236.52L1594.59 236.497C1594.98 236.45 1595.36 236.424 1595.75 236.419H1595.77C1596.85 236.408 1597.93 236.56 1598.96 236.872L1604.12 228.101C1603.49 227.404 1602.96 226.626 1602.53 225.789C1602.52 225.777 1602.52 225.764 1602.51 225.752C1602.37 225.469 1602.24 225.181 1602.12 224.887C1602.11 224.855 1602.1 224.824 1602.09 224.787C1601.98 224.51 1601.88 224.231 1601.8 223.946C1601.78 223.892 1601.77 223.836 1601.75 223.782C1601.68 223.517 1601.61 223.251 1601.55 222.982C1601.54 222.902 1601.53 222.821 1601.51 222.74C1601.47 222.493 1601.43 222.245 1601.41 221.995C1601.39 221.889 1601.39 221.781 1601.38 221.674C1601.37 221.445 1601.35 221.219 1601.35 220.99C1601.35 220.858 1601.36 220.724 1601.36 220.59C1601.37 220.385 1601.37 220.18 1601.39 219.974C1601.4 219.815 1601.43 219.657 1601.45 219.498C1601.47 219.317 1601.49 219.136 1601.52 218.956C1601.56 218.776 1601.61 218.587 1601.65 218.402C1601.69 218.249 1601.72 218.094 1601.76 217.941C1601.83 217.721 1601.91 217.503 1601.99 217.285C1602.03 217.17 1602.06 217.054 1602.11 216.939C1602.24 216.604 1602.39 216.275 1602.56 215.955L1609.47 202.709C1609.66 202.344 1609.88 201.99 1610.11 201.65C1610.18 201.55 1610.26 201.45 1610.33 201.35C1610.5 201.117 1610.67 200.89 1610.86 200.674C1610.95 200.574 1611.04 200.474 1611.13 200.374C1611.32 200.165 1611.52 199.965 1611.73 199.774C1611.82 199.698 1611.9 199.62 1611.98 199.545C1612.26 199.31 1612.54 199.089 1612.84 198.883C1612.86 198.865 1612.88 198.845 1612.91 198.829C1613.25 198.596 1613.6 198.382 1613.97 198.19C1613.99 198.182 1614 198.176 1614.02 198.167C1614.36 197.992 1614.7 197.835 1615.06 197.697C1615.12 197.672 1615.18 197.651 1615.25 197.628C1615.57 197.508 1615.9 197.404 1616.23 197.316C1616.29 197.3 1616.35 197.284 1616.41 197.269C1616.78 197.175 1617.16 197.101 1617.55 197.049H1617.57C1618.45 196.931 1619.35 196.925 1620.24 197.03L1623.38 189.882C1622.29 188.977 1621.39 187.864 1620.73 186.608L1620.72 186.595C1620.57 186.306 1620.43 186.012 1620.31 185.711C1620.3 185.688 1620.29 185.665 1620.28 185.642C1620.17 185.359 1620.06 185.071 1619.97 184.778C1619.96 184.733 1619.95 184.687 1619.93 184.643C1619.85 184.369 1619.78 184.094 1619.72 183.813C1619.71 183.744 1619.7 183.672 1619.68 183.603C1619.64 183.345 1619.58 183.085 1619.56 182.823C1619.55 182.723 1619.55 182.623 1619.54 182.529C1619.52 182.29 1619.5 182.052 1619.49 181.812C1619.49 181.686 1619.5 181.558 1619.5 181.432C1619.5 181.218 1619.5 181.004 1619.52 180.788C1619.53 180.632 1619.56 180.474 1619.58 180.318C1619.6 180.13 1619.62 179.943 1619.65 179.757C1619.69 179.571 1619.74 179.363 1619.79 179.166C1619.82 179.019 1619.85 178.872 1619.89 178.726C1619.99 178.383 1620.1 178.041 1620.23 177.703L1625.7 163.798C1625.85 163.416 1626.02 163.043 1626.22 162.68C1626.28 162.567 1626.35 162.461 1626.41 162.351C1626.55 162.105 1626.7 161.864 1626.86 161.634C1626.94 161.521 1627.02 161.414 1627.1 161.305C1627.27 161.078 1627.45 160.858 1627.63 160.647C1627.71 160.561 1627.78 160.474 1627.86 160.39C1628.11 160.125 1628.37 159.873 1628.65 159.634C1628.67 159.618 1628.68 159.598 1628.7 159.583C1629.02 159.312 1629.36 159.061 1629.7 158.829L1629.72 158.818C1630.05 158.6 1630.39 158.4 1630.74 158.218C1630.79 158.191 1630.84 158.167 1630.89 158.142C1631.21 157.983 1631.54 157.841 1631.87 157.714L1632.02 157.657C1632.39 157.52 1632.77 157.404 1633.15 157.308C1634.37 157.012 1635.63 156.933 1636.87 157.073L1639.03 150.958C1638.35 150.464 1637.72 149.89 1637.18 149.25L1637.17 149.244C1636.96 148.994 1636.76 148.736 1636.57 148.47C1636.55 148.452 1636.54 148.435 1636.53 148.418C1636.35 148.164 1636.18 147.906 1636.03 147.637C1636.01 147.6 1635.99 147.561 1635.97 147.524C1635.83 147.273 1635.69 147.019 1635.57 146.757C1635.54 146.697 1635.52 146.635 1635.49 146.574C1635.38 146.331 1635.28 146.085 1635.19 145.835C1635.16 145.748 1635.14 145.658 1635.11 145.57C1635.03 145.34 1634.96 145.109 1634.9 144.87C1634.87 144.753 1634.85 144.635 1634.82 144.517C1634.78 144.304 1634.73 144.092 1634.7 143.876C1634.67 143.73 1634.66 143.582 1634.65 143.436C1634.63 143.242 1634.6 143.05 1634.59 142.855C1634.58 142.677 1634.59 142.497 1634.58 142.317C1634.58 142.137 1634.57 141.983 1634.58 141.817C1634.59 141.596 1634.62 141.374 1634.64 141.152C1634.66 141.022 1634.66 140.893 1634.68 140.762C1634.73 140.405 1634.8 140.05 1634.89 139.7L1638.46 125.193C1638.56 124.793 1638.68 124.4 1638.83 124.014C1638.87 123.897 1638.93 123.786 1638.97 123.671C1639.08 123.405 1639.2 123.144 1639.33 122.891C1639.39 122.773 1639.45 122.657 1639.52 122.542C1639.66 122.29 1639.81 122.045 1639.97 121.808C1640.03 121.716 1640.09 121.623 1640.15 121.534C1640.37 121.231 1640.6 120.94 1640.84 120.662C1640.86 120.649 1640.87 120.635 1640.88 120.621C1641.43 120.011 1642.05 119.466 1642.72 118.996C1642.76 118.967 1642.8 118.94 1642.85 118.912C1643.15 118.708 1643.46 118.52 1643.77 118.347L1643.9 118.279C1645.46 117.457 1647.2 117.035 1648.97 117.05L1650.69 110.071C1649.82 109.566 1649.03 108.943 1648.34 108.218L1648.33 108.212C1648.1 107.974 1647.89 107.727 1647.68 107.471L1647.64 107.42C1647.45 107.177 1647.27 106.928 1647.1 106.669C1647.08 106.633 1647.06 106.594 1647.03 106.557C1646.88 106.314 1646.73 106.069 1646.6 105.814C1646.56 105.755 1646.54 105.692 1646.51 105.632C1646.39 105.395 1646.27 105.158 1646.17 104.912C1646.13 104.826 1646.11 104.736 1646.07 104.649C1645.98 104.425 1645.9 104.199 1645.83 103.969C1645.79 103.852 1645.76 103.732 1645.73 103.614C1645.67 103.407 1645.62 103.199 1645.57 102.987C1645.54 102.839 1645.52 102.687 1645.5 102.537C1645.47 102.35 1645.43 102.164 1645.41 101.973C1645.39 101.782 1645.38 101.603 1645.37 101.418C1645.36 101.257 1645.35 101.097 1645.35 100.935C1645.35 100.708 1645.36 100.479 1645.37 100.249C1645.38 100.125 1645.37 100.001 1645.39 99.876C1645.42 99.5164 1645.47 99.1586 1645.53 98.804L1648.33 84.126C1648.41 83.7204 1648.52 83.3198 1648.64 82.926C1648.68 82.811 1648.72 82.7 1648.76 82.587C1648.86 82.311 1648.96 82.04 1649.08 81.775C1649.13 81.659 1649.19 81.544 1649.24 81.43C1649.38 81.1633 1649.52 80.905 1649.66 80.655C1649.72 80.566 1649.76 80.476 1649.82 80.389C1650.03 80.0656 1650.25 79.7532 1650.49 79.453L1650.5 79.437C1651.02 78.7966 1651.61 78.2178 1652.26 77.712C1652.3 77.68 1652.34 77.65 1652.38 77.618C1652.66 77.4013 1652.96 77.1997 1653.27 77.013C1653.31 76.985 1653.36 76.955 1653.4 76.928C1653.74 76.7293 1654.08 76.5483 1654.43 76.386L1654.46 76.375C1655.61 75.8555 1656.84 75.5437 1658.1 75.454L1659.28 68.614C1658.4 68.223 1657.57 67.714 1656.83 67.101C1656.57 66.889 1656.33 66.666 1656.09 66.432L1656.07 66.408C1655.84 66.181 1655.62 65.946 1655.42 65.7L1655.37 65.64C1655.18 65.403 1654.99 65.162 1654.81 64.91C1654.79 64.874 1654.77 64.837 1654.74 64.801C1654.58 64.561 1654.43 64.318 1654.29 64.066C1654.26 64.01 1654.23 63.951 1654.2 63.895C1654.07 63.658 1653.95 63.42 1653.84 63.174C1653.8 63.094 1653.77 63.012 1653.74 62.932C1653.64 62.703 1653.55 62.473 1653.47 62.232C1653.43 62.132 1653.41 62.019 1653.37 61.914C1653.31 61.696 1653.24 61.48 1653.19 61.257C1653.16 61.125 1653.14 60.989 1653.11 60.857C1653.07 60.657 1653.03 60.457 1653 60.257C1652.98 60.094 1652.97 59.925 1652.96 59.757C1652.94 59.589 1652.92 59.399 1652.91 59.217C1652.9 59.011 1652.91 58.803 1652.92 58.595C1652.92 58.449 1652.92 58.305 1652.93 58.158C1652.95 57.7985 1652.99 57.4404 1653.05 57.085L1655.48 42.342C1655.55 41.937 1655.64 41.5363 1655.75 41.142C1655.79 41.023 1655.83 40.908 1655.87 40.791C1655.96 40.516 1656.05 40.247 1656.16 39.984C1656.21 39.862 1656.27 39.7417 1656.32 39.623C1656.44 39.361 1656.57 39.1053 1656.71 38.856C1656.77 38.756 1656.82 38.662 1656.88 38.568C1657.06 38.252 1657.27 37.9463 1657.49 37.652L1657.53 37.6C1657.78 37.2681 1658.06 36.9513 1658.35 36.651L1658.36 36.641C1658.63 36.3584 1658.92 36.0913 1659.23 35.841C1659.28 35.804 1659.32 35.769 1659.37 35.732C1659.64 35.512 1659.93 35.306 1660.22 35.114C1660.27 35.083 1660.32 35.052 1660.37 35.022C1660.7 34.8144 1661.04 34.6248 1661.39 34.454L1661.4 34.444C1662 34.1581 1662.61 33.9271 1663.25 33.754L1663.98 23.802C1663.9 23.77 1663.82 23.731 1663.75 23.696L1663.74 23.69C1663.43 23.553 1663.13 23.404 1662.84 23.24L1662.81 23.228C1662.53 23.066 1662.25 22.894 1661.98 22.708C1661.97 22.698 1661.96 22.687 1661.94 22.678C1661.68 22.495 1661.43 22.304 1661.19 22.101C1661.17 22.083 1661.15 22.063 1661.13 22.043C1660.9 21.843 1660.67 21.643 1660.46 21.427C1660.43 21.395 1660.4 21.36 1660.37 21.327C1660.17 21.12 1659.98 20.908 1659.79 20.687C1659.75 20.638 1659.72 20.587 1659.68 20.536C1659.51 20.325 1659.35 20.112 1659.2 19.889C1659.15 19.818 1659.11 19.744 1659.06 19.672C1658.93 19.463 1658.8 19.253 1658.68 19.035C1658.62 18.941 1658.58 18.841 1658.53 18.745C1658.43 18.545 1658.32 18.345 1658.23 18.131C1658.18 18.01 1658.14 17.883 1658.09 17.76C1658.01 17.568 1657.94 17.378 1657.87 17.181C1657.82 17.031 1657.79 16.881 1657.75 16.725C1657.7 16.547 1657.65 16.371 1657.6 16.19C1657.56 16.009 1657.54 15.822 1657.51 15.638C1657.48 15.479 1657.45 15.324 1657.43 15.162C1657.4 14.94 1657.39 14.712 1657.38 14.486C1657.38 14.358 1657.36 14.233 1657.36 14.104C1657.35 13.7437 1657.36 13.3832 1657.39 13.024L1658.49 0H1664.65L1663.53 13.55C1663.44 14.7008 1663.79 15.8445 1664.5 16.75L1664.77 13.039C1664.79 12.8395 1664.82 12.6419 1664.87 12.449C1664.89 12.378 1664.92 12.314 1664.95 12.249C1664.98 12.1354 1665.03 12.0242 1665.08 11.916C1665.12 11.8289 1665.17 11.7444 1665.23 11.663C1665.27 11.588 1665.32 11.512 1665.37 11.441C1665.44 11.3464 1665.52 11.256 1665.61 11.17C1665.65 11.125 1665.69 11.08 1665.73 11.039C1665.83 10.9429 1665.95 10.854 1666.06 10.773C1666.09 10.752 1666.12 10.73 1666.15 10.711C1666.28 10.6234 1666.42 10.5468 1666.57 10.482C1666.59 10.475 1666.6 10.466 1666.62 10.459C1666.78 10.3902 1666.94 10.3353 1667.11 10.295H1667.13C1667.31 10.2529 1667.49 10.2271 1667.67 10.218C1667.8 10.2067 1667.92 10.2034 1668.05 10.208C1668.45 10.2371 1668.84 10.3453 1669.2 10.5262C1669.56 10.7072 1669.89 10.9574 1670.15 11.2625C1670.41 11.5677 1670.61 11.9218 1670.74 12.3047C1670.87 12.6876 1670.92 13.0917 1670.89 13.494L1670.58 17.766C1671.16 17.3868 1671.65 16.878 1672.01 16.2788C1672.37 15.6797 1672.59 15.0061 1672.65 14.31L1673.84 0H1680L1678.78 14.806C1678.58 17.1397 1677.63 19.3451 1676.06 21.0855C1674.49 22.8259 1672.4 24.0058 1670.1 24.445L1669.41 33.937C1671.83 34.7356 1673.9 36.3746 1675.22 38.5587C1676.55 40.7429 1677.05 43.3289 1676.64 45.851L1674.21 60.594C1673.85 62.8015 1672.8 64.8389 1671.21 66.421C1669.63 68.0031 1667.59 69.0506 1665.39 69.417L1664.11 76.81C1666.07 77.9088 1667.63 79.5958 1668.58 81.6328C1669.54 83.6698 1669.82 85.954 1669.41 88.163L1666.61 102.842C1666.15 105.19 1664.93 107.319 1663.13 108.892C1661.33 110.465 1659.06 111.392 1656.67 111.525L1654.85 118.895C1656.67 120.12 1658.08 121.875 1658.87 123.923C1659.66 125.971 1659.81 128.213 1659.29 130.346L1655.71 144.853C1655.12 147.255 1653.71 149.378 1651.73 150.863C1649.75 152.347 1647.32 153.102 1644.84 153L1642.54 159.509C1644.27 160.952 1645.5 162.902 1646.06 165.083C1646.62 167.264 1646.48 169.565 1645.66 171.662L1640.19 185.562C1639.33 187.75 1637.77 189.593 1635.76 190.807C1633.74 192.022 1631.39 192.542 1629.05 192.286L1625.88 199.486C1627.75 201.057 1629.02 203.215 1629.49 205.606C1629.97 207.997 1629.61 210.478 1628.49 212.641L1621.58 225.888C1620.45 228.034 1618.64 229.736 1616.42 230.718C1614.21 231.7 1611.72 231.903 1609.38 231.296L1604.09 240.286C1605.58 242.086 1606.45 244.325 1606.55 246.663C1606.66 249 1606 251.308 1604.67 253.234L1596.17 265.52C1594.79 267.509 1592.77 268.972 1590.46 269.672C1588.14 270.371 1585.65 270.266 1583.4 269.374L1578.28 275.319C1579.49 277.331 1580 279.681 1579.74 282.01C1579.48 284.34 1578.46 286.52 1576.85 288.219L1566.54 299.03C1564.84 300.814 1562.57 301.955 1560.12 302.262C1557.67 302.57 1555.19 302.024 1553.1 300.717L1547.23 305.547C1548.08 307.809 1548.14 310.291 1547.4 312.592C1546.66 314.892 1545.17 316.876 1543.16 318.223L1530.75 326.532C1528.64 327.933 1526.12 328.548 1523.6 328.268C1521.09 327.988 1518.76 326.83 1517.02 325L1508.13 329.062C1508.46 331.716 1507.78 334.396 1506.23 336.576C1504.68 338.756 1502.37 340.28 1499.76 340.849L1485.16 344.007C1482.68 344.539 1480.1 344.176 1477.86 342.983C1475.63 341.791 1473.89 339.845 1472.95 337.491L1462.68 338.098C1462.09 340.396 1460.75 342.431 1458.87 343.886C1457 345.341 1454.69 346.134 1452.32 346.14C1452.06 346.139 1451.81 346.13 1451.55 346.113ZM1437.08 338.939L1451.99 339.986C1452.67 340.034 1453.36 339.926 1454 339.671C1454.64 339.416 1455.21 339.02 1455.68 338.512L1452.67 338.69C1451.93 338.73 1451.2 338.502 1450.61 338.046C1450.44 337.916 1450.29 337.769 1450.15 337.607C1450.02 337.452 1449.9 337.285 1449.81 337.107C1449.8 337.093 1449.79 337.081 1449.78 337.067C1449.69 336.901 1449.62 336.727 1449.57 336.548C1449.56 336.518 1449.54 336.49 1449.53 336.459C1449.47 336.247 1449.43 336.028 1449.42 335.808C1449.37 334.995 1449.65 334.196 1450.19 333.587C1450.73 332.979 1451.49 332.61 1452.31 332.562L1455.71 332.362C1454.91 331.481 1453.81 330.943 1452.63 330.862L1437.73 329.814C1437.11 329.771 1436.5 329.852 1435.92 330.052C1435.34 330.253 1434.81 330.568 1434.35 330.979L1436.89 331.891C1437.08 331.959 1437.26 332.045 1437.43 332.148C1437.5 332.188 1437.56 332.238 1437.62 332.283C1437.72 332.347 1437.81 332.416 1437.9 332.49C1437.97 332.561 1438.04 332.636 1438.11 332.714C1438.17 332.775 1438.22 332.831 1438.27 332.896C1438.35 332.997 1438.42 333.102 1438.48 333.211C1438.51 333.258 1438.54 333.304 1438.56 333.352C1438.63 333.481 1438.69 333.615 1438.74 333.752C1438.75 333.783 1438.76 333.812 1438.77 333.843C1438.82 333.997 1438.85 334.155 1438.88 334.315C1438.88 334.332 1438.88 334.348 1438.89 334.364C1438.91 334.536 1438.92 334.709 1438.91 334.882V334.911C1438.9 335.089 1438.88 335.267 1438.84 335.441V335.453C1438.82 335.576 1438.79 335.697 1438.75 335.816C1438.62 336.196 1438.41 336.545 1438.14 336.844C1437.86 337.143 1437.54 337.385 1437.17 337.557C1436.81 337.73 1436.41 337.828 1436.01 337.848C1435.61 337.867 1435.2 337.807 1434.83 337.671L1433.93 337.35C1434.32 337.811 1434.8 338.189 1435.35 338.461C1435.89 338.734 1436.47 338.897 1437.08 338.939ZM1485.64 333.667C1485.67 334.07 1485.61 334.473 1485.48 334.854C1485.35 335.235 1485.14 335.586 1484.87 335.887C1484.6 336.189 1484.28 336.434 1483.92 336.61C1483.55 336.786 1483.16 336.889 1482.76 336.912L1480 337.075C1480.53 337.51 1481.15 337.82 1481.82 337.981C1482.49 338.142 1483.19 338.151 1483.86 338.006L1498.46 334.847C1499.21 334.684 1499.91 334.334 1500.49 333.83C1501.07 333.325 1501.51 332.683 1501.78 331.962L1499.6 332.957C1498.93 333.262 1498.16 333.312 1497.45 333.096C1497.25 333.035 1497.05 332.954 1496.87 332.853C1496.69 332.758 1496.53 332.646 1496.37 332.52C1496.36 332.506 1496.34 332.496 1496.32 332.482C1496.19 332.364 1496.06 332.233 1495.95 332.093C1495.93 332.063 1495.9 332.037 1495.88 332.006C1495.74 331.83 1495.63 331.641 1495.54 331.441C1495.2 330.7 1495.17 329.855 1495.45 329.092C1495.74 328.33 1496.31 327.711 1497.05 327.372L1499.49 326.26C1498.57 325.811 1497.53 325.685 1496.53 325.9L1481.93 329.058C1480.77 329.309 1479.76 329.998 1479.11 330.979L1482.41 330.785C1482.61 330.773 1482.81 330.781 1483.01 330.809C1483.08 330.82 1483.16 330.844 1483.23 330.86C1483.45 330.895 1483.66 330.965 1483.86 331.067C1483.93 331.1 1484 331.128 1484.07 331.167C1484.18 331.231 1484.29 331.303 1484.39 331.381C1484.43 331.411 1484.48 331.438 1484.52 331.47C1484.63 331.565 1484.74 331.669 1484.84 331.78C1484.86 331.801 1484.88 331.818 1484.9 331.839C1485.01 331.964 1485.11 332.098 1485.2 332.239L1485.21 332.266C1485.3 332.419 1485.38 332.579 1485.45 332.746V332.754C1485.51 332.927 1485.56 333.105 1485.6 333.287V333.294C1485.62 333.417 1485.63 333.541 1485.64 333.666L1485.64 333.667ZM1392.22 321.318L1405.31 328.518C1405.96 328.873 1406.68 329.067 1407.42 329.082C1408.16 329.097 1408.89 328.933 1409.55 328.605L1406.44 327.489C1405.99 327.328 1405.59 327.065 1405.26 326.722C1404.93 326.378 1404.69 325.963 1404.55 325.509V325.499C1404.5 325.312 1404.46 325.12 1404.44 324.925C1404.44 324.902 1404.43 324.879 1404.43 324.856C1404.41 324.679 1404.41 324.5 1404.43 324.323C1404.43 324.282 1404.43 324.243 1404.44 324.203C1404.46 323.985 1404.51 323.771 1404.59 323.563C1404.72 323.183 1404.93 322.834 1405.2 322.536C1405.47 322.237 1405.8 321.995 1406.17 321.823C1406.53 321.651 1406.93 321.552 1407.33 321.533C1407.73 321.513 1408.13 321.573 1408.51 321.709L1411.8 322.886C1411.41 321.869 1410.68 321.022 1409.73 320.499L1396.64 313.299C1396.06 312.979 1395.41 312.79 1394.75 312.745C1394.09 312.7 1393.42 312.799 1392.8 313.037L1395.22 314.705C1395.39 314.82 1395.54 314.95 1395.68 315.094C1395.73 315.145 1395.77 315.203 1395.81 315.257C1395.89 315.348 1395.97 315.443 1396.04 315.543C1396.09 315.625 1396.14 315.715 1396.18 315.802C1396.22 315.889 1396.27 315.954 1396.3 316.033C1396.34 316.147 1396.38 316.263 1396.42 316.382C1396.43 316.438 1396.45 316.492 1396.46 316.548C1396.49 316.689 1396.51 316.833 1396.53 316.977C1396.53 317.01 1396.53 317.042 1396.53 317.077C1396.54 317.241 1396.54 317.405 1396.52 317.568V317.606C1396.47 318.099 1396.29 318.571 1396.01 318.981C1395.79 319.313 1395.49 319.597 1395.16 319.816C1394.82 320.035 1394.44 320.186 1394.04 320.259C1393.65 320.332 1393.24 320.326 1392.84 320.242C1392.45 320.157 1392.08 319.996 1391.74 319.767L1390.04 318.596C1390.38 319.755 1391.16 320.734 1392.22 321.317L1392.22 321.318ZM1528.54 316.363C1528.71 316.73 1528.8 317.126 1528.82 317.529C1528.83 317.932 1528.77 318.334 1528.63 318.712C1528.49 319.089 1528.27 319.436 1528 319.731C1527.72 320.026 1527.39 320.264 1527.02 320.431L1523.54 322.023C1524.18 322.204 1524.85 322.244 1525.5 322.141C1526.15 322.037 1526.78 321.792 1527.33 321.423L1539.75 313.113C1540.26 312.769 1540.7 312.323 1541.04 311.802C1541.37 311.282 1541.6 310.698 1541.71 310.087L1538.32 312.874C1537.87 313.241 1537.33 313.473 1536.76 313.545C1536.18 313.617 1535.6 313.525 1535.08 313.28C1535.06 313.272 1535.04 313.267 1535.03 313.258C1534.87 313.178 1534.71 313.085 1534.57 312.978C1534.54 312.955 1534.5 312.938 1534.47 312.913C1534.29 312.778 1534.14 312.624 1534 312.454C1533.48 311.825 1533.23 311.017 1533.31 310.206C1533.39 309.396 1533.79 308.65 1534.41 308.132L1538.36 304.887C1537.73 304.722 1537.08 304.691 1536.44 304.798C1535.8 304.904 1535.2 305.145 1534.66 305.505L1522.24 313.813C1521.74 314.149 1521.31 314.582 1520.97 315.086C1520.64 315.59 1520.41 316.156 1520.29 316.75L1524.48 314.84C1524.66 314.757 1524.85 314.692 1525.04 314.647C1525.12 314.629 1525.19 314.626 1525.26 314.614C1525.38 314.592 1525.49 314.578 1525.61 314.57C1525.71 314.57 1525.82 314.57 1525.92 314.58C1526 314.585 1526.08 314.585 1526.16 314.596C1526.29 314.616 1526.41 314.644 1526.54 314.678C1526.59 314.692 1526.64 314.703 1526.69 314.719C1526.83 314.766 1526.97 314.823 1527.1 314.889C1527.13 314.902 1527.15 314.913 1527.18 314.927C1527.32 315.005 1527.46 315.094 1527.6 315.195L1527.62 315.215C1527.76 315.324 1527.9 315.447 1528.02 315.58C1528.14 315.718 1528.25 315.867 1528.35 316.025C1528.42 316.133 1528.49 316.246 1528.54 316.363H1528.54ZM1354.79 293.173L1365.65 303.433C1366.18 303.936 1366.83 304.304 1367.54 304.504C1368.24 304.704 1368.99 304.731 1369.7 304.583L1366.91 302.658C1366.52 302.388 1366.2 302.03 1365.97 301.613C1365.74 301.197 1365.61 300.733 1365.6 300.258V300.252C1365.59 300.055 1365.6 299.858 1365.63 299.664C1365.63 299.642 1365.63 299.619 1365.64 299.597C1365.67 299.42 1365.72 299.247 1365.78 299.079C1365.79 299.043 1365.8 299.005 1365.81 298.968C1365.9 298.764 1366 298.569 1366.12 298.387C1366.59 297.716 1367.3 297.257 1368.1 297.109C1368.9 296.961 1369.72 297.138 1370.4 297.599L1373.32 299.617C1373.22 298.535 1372.72 297.528 1371.94 296.779L1361.08 286.518C1360.27 285.765 1359.23 285.33 1358.13 285.293L1359.82 287.137C1359.95 287.286 1360.07 287.448 1360.18 287.62C1360.21 287.676 1360.23 287.734 1360.26 287.792C1360.32 287.904 1360.38 288.02 1360.42 288.14C1360.46 288.227 1360.47 288.316 1360.5 288.405C1360.53 288.494 1360.55 288.585 1360.57 288.676C1360.58 288.792 1360.59 288.908 1360.6 289.025C1360.6 289.089 1360.61 289.151 1360.61 289.215C1360.61 289.355 1360.6 289.495 1360.58 289.634C1360.58 289.67 1360.57 289.707 1360.56 289.744C1360.53 289.902 1360.49 290.057 1360.44 290.209C1360.44 290.224 1360.43 290.239 1360.42 290.255C1360.36 290.421 1360.29 290.58 1360.2 290.733L1360.19 290.743C1360.1 290.905 1359.99 291.057 1359.87 291.199C1359.79 291.296 1359.71 291.389 1359.62 291.477C1359.33 291.75 1358.98 291.961 1358.6 292.099C1358.22 292.237 1357.82 292.299 1357.41 292.281C1357.01 292.263 1356.62 292.166 1356.25 291.996C1355.89 291.825 1355.56 291.584 1355.29 291.287L1353.41 289.237C1353.31 289.956 1353.38 290.687 1353.62 291.371C1353.86 292.056 1354.26 292.673 1354.79 293.172V293.173ZM1559.8 288.294C1559.95 288.302 1560.1 288.322 1560.25 288.354C1560.28 288.354 1560.3 288.362 1560.33 288.368C1560.49 288.406 1560.65 288.458 1560.81 288.522L1560.83 288.53C1561.32 288.73 1561.75 289.055 1562.08 289.471C1562.4 289.888 1562.62 290.383 1562.69 290.906C1562.77 291.43 1562.71 291.965 1562.52 292.459C1562.33 292.952 1562.01 293.387 1561.6 293.721L1558.61 296.184C1559.26 296.215 1559.9 296.107 1560.51 295.866C1561.11 295.626 1561.66 295.259 1562.11 294.79L1572.42 283.978C1572.84 283.54 1573.16 283.023 1573.38 282.458C1573.6 281.892 1573.7 281.289 1573.68 280.684L1570.69 284.153C1570.38 284.512 1569.99 284.794 1569.55 284.976C1569.11 285.159 1568.64 285.236 1568.17 285.203H1568.16C1567.96 285.188 1567.77 285.155 1567.58 285.103C1567.56 285.097 1567.53 285.094 1567.51 285.087C1567.34 285.037 1567.18 284.973 1567.03 284.895C1566.99 284.876 1566.94 284.863 1566.9 284.842C1566.5 284.625 1566.15 284.32 1565.88 283.949C1565.61 283.578 1565.42 283.152 1565.34 282.7C1565.26 282.249 1565.28 281.784 1565.4 281.341C1565.52 280.899 1565.74 280.489 1566.04 280.142L1569.37 276.268C1568.71 276.225 1568.05 276.327 1567.43 276.567C1566.81 276.807 1566.25 277.18 1565.8 277.658L1555.48 288.469C1555.06 288.916 1554.73 289.444 1554.51 290.022C1554.3 290.6 1554.2 291.215 1554.23 291.831L1557.7 288.977C1557.86 288.85 1558.02 288.739 1558.2 288.645C1558.27 288.607 1558.34 288.584 1558.42 288.552C1558.52 288.504 1558.62 288.461 1558.73 288.424C1558.83 288.395 1558.94 288.371 1559.04 288.353C1559.12 288.338 1559.19 288.319 1559.27 288.308C1559.4 288.294 1559.53 288.289 1559.66 288.291H1559.76L1559.8 288.294ZM1324.74 258.911L1334.37 270.34C1334.76 270.813 1335.26 271.201 1335.81 271.478C1336.36 271.756 1336.97 271.918 1337.58 271.955L1334.93 269.055C1334.43 268.506 1334.15 267.796 1334.13 267.055C1334.13 266.847 1334.15 266.639 1334.18 266.434V266.414C1334.22 266.226 1334.27 266.041 1334.34 265.863C1334.35 265.838 1334.36 265.812 1334.37 265.786C1334.44 265.626 1334.52 265.472 1334.62 265.327C1334.64 265.29 1334.66 265.25 1334.68 265.214C1334.81 265.035 1334.95 264.869 1335.12 264.72C1335.41 264.447 1335.76 264.236 1336.14 264.098C1336.52 263.96 1336.92 263.898 1337.32 263.916C1337.73 263.934 1338.12 264.031 1338.49 264.202C1338.85 264.372 1339.18 264.613 1339.45 264.911L1342.38 268.111C1342.48 267.464 1342.45 266.802 1342.27 266.171C1342.1 265.54 1341.79 264.953 1341.37 264.452L1331.74 253.022C1331.07 252.223 1330.14 251.679 1329.12 251.482L1330.98 254.43C1331.08 254.599 1331.17 254.778 1331.24 254.965C1331.27 255.041 1331.29 255.119 1331.31 255.196C1331.34 255.302 1331.37 255.409 1331.39 255.518C1331.41 255.625 1331.42 255.732 1331.43 255.84C1331.43 255.917 1331.44 255.992 1331.44 256.069C1331.44 256.201 1331.43 256.332 1331.41 256.462C1331.4 256.509 1331.4 256.562 1331.39 256.605C1331.36 256.755 1331.32 256.902 1331.27 257.046C1331.27 257.069 1331.26 257.094 1331.25 257.117C1331.19 257.276 1331.12 257.429 1331.04 257.576L1331.02 257.597C1330.78 258.03 1330.43 258.397 1330.01 258.664C1329.67 258.879 1329.29 259.025 1328.9 259.093C1328.5 259.162 1328.09 259.151 1327.7 259.062C1327.3 258.973 1326.93 258.807 1326.6 258.574C1326.27 258.341 1325.99 258.045 1325.78 257.704L1323.86 254.658C1323.64 255.385 1323.61 256.154 1323.76 256.896C1323.92 257.638 1324.25 258.331 1324.74 258.911ZM1588.1 256.249H1588.19C1588.36 256.259 1588.52 256.282 1588.69 256.318L1588.71 256.324C1589.2 256.429 1589.65 256.653 1590.03 256.974C1590.65 257.506 1591.03 258.26 1591.09 259.073C1591.15 259.885 1590.88 260.688 1590.35 261.305L1588.09 263.934C1588.7 263.837 1589.28 263.618 1589.8 263.29C1590.32 262.962 1590.78 262.532 1591.13 262.025L1599.63 249.74C1600.27 248.816 1600.54 247.688 1600.4 246.573L1599.33 248.391C1598.95 249.029 1598.35 249.508 1597.65 249.736H1597.64C1597.44 249.799 1597.25 249.843 1597.05 249.868H1597.01C1596.82 249.889 1596.63 249.892 1596.44 249.877C1596.42 249.877 1596.39 249.877 1596.36 249.877C1596.19 249.859 1596.01 249.825 1595.85 249.777C1595.81 249.765 1595.76 249.761 1595.72 249.748C1595.29 249.607 1594.89 249.369 1594.55 249.052C1594.22 248.736 1593.96 248.348 1593.8 247.919C1593.64 247.489 1593.58 247.028 1593.62 246.571C1593.66 246.114 1593.8 245.671 1594.03 245.276L1595.63 242.568C1594.93 242.603 1594.24 242.797 1593.63 243.137C1593.02 243.477 1592.49 243.954 1592.1 244.529L1583.6 256.816C1583.23 257.35 1582.98 257.956 1582.86 258.594C1582.74 259.231 1582.77 259.887 1582.92 260.516L1585.7 257.3C1585.83 257.148 1585.98 257.01 1586.13 256.888C1586.19 256.842 1586.26 256.808 1586.32 256.768C1586.41 256.7 1586.51 256.637 1586.62 256.58C1586.71 256.536 1586.8 256.498 1586.9 256.464C1586.98 256.432 1587.05 256.397 1587.13 256.373C1587.25 256.339 1587.37 256.312 1587.5 256.293C1587.55 256.284 1587.61 256.271 1587.66 256.265C1587.77 256.252 1587.88 256.246 1587.99 256.247L1588.1 256.249ZM1300 219.4L1307.71 232.2C1308.07 232.796 1308.56 233.302 1309.15 233.679C1309.73 234.057 1310.39 234.295 1311.09 234.377L1309.71 232.193C1309.32 231.565 1309.17 230.816 1309.29 230.085C1309.32 229.88 1309.37 229.679 1309.44 229.485L1309.45 229.461C1309.52 229.285 1309.6 229.115 1309.7 228.954C1309.72 228.928 1309.73 228.9 1309.75 228.875C1309.84 228.733 1309.95 228.599 1310.06 228.475C1310.1 228.439 1310.12 228.399 1310.16 228.364C1310.48 228.041 1310.88 227.796 1311.31 227.646C1311.75 227.497 1312.21 227.447 1312.66 227.5C1313.12 227.553 1313.56 227.708 1313.95 227.953C1314.33 228.198 1314.66 228.528 1314.9 228.917L1316.1 230.809C1316.35 229.668 1316.15 228.473 1315.55 227.472L1307.84 214.672C1307.26 213.713 1306.35 213.001 1305.28 212.672L1307.18 216.309C1307.27 216.486 1307.35 216.672 1307.41 216.864C1307.43 216.936 1307.43 217.01 1307.45 217.082C1307.48 217.196 1307.5 217.312 1307.51 217.429C1307.52 217.529 1307.51 217.624 1307.51 217.723C1307.51 217.822 1307.51 217.899 1307.51 217.987C1307.5 218.105 1307.48 218.222 1307.46 218.337C1307.45 218.399 1307.43 218.461 1307.42 218.522C1307.38 218.655 1307.34 218.785 1307.28 218.911C1307.27 218.949 1307.25 218.987 1307.24 219.024C1307.17 219.163 1307.09 219.297 1307.01 219.424C1306.99 219.444 1306.98 219.463 1306.97 219.482C1306.87 219.62 1306.76 219.75 1306.64 219.871L1306.62 219.897C1306.49 220.023 1306.35 220.138 1306.21 220.24L1306.2 220.248C1306.1 220.323 1305.99 220.392 1305.89 220.455C1305.16 220.832 1304.32 220.907 1303.54 220.663C1302.77 220.42 1302.12 219.877 1301.74 219.155L1299.7 215.255C1299.42 215.92 1299.3 216.643 1299.35 217.364C1299.4 218.084 1299.63 218.782 1300 219.4ZM1612.07 217.8H1612.13C1612.3 217.809 1612.47 217.834 1612.64 217.872H1612.66C1613.13 217.973 1613.57 218.186 1613.95 218.493C1614.32 218.799 1614.62 219.191 1614.81 219.635C1615 220.079 1615.08 220.562 1615.05 221.044C1615.01 221.526 1614.87 221.994 1614.62 222.407L1612.83 225.433C1613.53 225.317 1614.19 225.041 1614.77 224.626C1615.34 224.211 1615.81 223.669 1616.13 223.043L1623.05 209.797C1623.37 209.175 1623.55 208.486 1623.56 207.784C1623.58 207.082 1623.43 206.387 1623.13 205.751L1621.6 209.229C1621.41 209.664 1621.12 210.048 1620.75 210.351C1620.39 210.654 1619.95 210.867 1619.49 210.974C1619.3 211.02 1619.1 211.046 1618.9 211.053H1618.84C1618.66 211.055 1618.47 211.04 1618.29 211.008C1618.26 211.002 1618.22 211.002 1618.19 210.996C1617.74 210.908 1617.31 210.719 1616.95 210.444C1616.58 210.168 1616.28 209.814 1616.06 209.406C1615.85 208.998 1615.73 208.547 1615.72 208.088C1615.71 207.629 1615.8 207.172 1615.98 206.752L1617.47 203.361C1616.38 203.742 1615.47 204.526 1614.93 205.555L1608.02 218.802C1607.49 219.818 1607.36 220.996 1607.66 222.102L1609.32 219.286C1609.42 219.114 1609.54 218.953 1609.67 218.804C1609.73 218.745 1609.79 218.698 1609.84 218.643C1609.92 218.562 1610.01 218.486 1610.1 218.414C1610.18 218.352 1610.26 218.303 1610.35 218.249C1610.43 218.195 1610.49 218.156 1610.57 218.118C1610.68 218.065 1610.79 218.019 1610.9 217.979C1610.96 217.958 1611.01 217.934 1611.07 217.917C1611.21 217.877 1611.34 217.847 1611.48 217.826C1611.52 217.82 1611.56 217.812 1611.6 217.807C1611.71 217.793 1611.83 217.786 1611.95 217.786L1612.07 217.8ZM1280.69 180.316L1286.85 193.927C1287.13 194.546 1287.54 195.094 1288.06 195.532C1288.58 195.971 1289.19 196.288 1289.85 196.46L1287.75 192.46C1287.49 191.949 1287.37 191.373 1287.42 190.798C1287.46 190.223 1287.67 189.673 1288.02 189.211C1288.03 189.194 1288.04 189.176 1288.05 189.158C1288.16 189.017 1288.28 188.887 1288.42 188.768C1288.45 188.741 1288.47 188.71 1288.5 188.684C1288.85 188.387 1289.27 188.173 1289.71 188.058C1290.16 187.943 1290.62 187.929 1291.07 188.018C1291.52 188.107 1291.95 188.296 1292.31 188.572C1292.68 188.847 1292.98 189.202 1293.19 189.61L1295.3 193.634C1295.73 192.502 1295.68 191.249 1295.19 190.148L1289.02 176.537C1288.64 175.701 1288.02 174.999 1287.24 174.522L1288.06 176.909C1288.13 177.098 1288.17 177.292 1288.2 177.49C1288.21 177.574 1288.21 177.657 1288.21 177.741C1288.22 177.848 1288.23 177.956 1288.23 178.062C1288.22 178.17 1288.2 178.278 1288.18 178.385C1288.17 178.461 1288.16 178.537 1288.15 178.612C1288.11 178.737 1288.07 178.859 1288.03 178.979C1288.01 179.028 1287.99 179.079 1287.97 179.126C1287.91 179.26 1287.85 179.39 1287.77 179.515C1287.75 179.542 1287.74 179.57 1287.72 179.597C1287.63 179.732 1287.53 179.859 1287.42 179.978L1287.38 180.016C1287.27 180.142 1287.14 180.257 1287 180.361L1286.98 180.377C1286.83 180.484 1286.68 180.578 1286.51 180.658L1286.5 180.663C1286.39 180.722 1286.28 180.774 1286.17 180.82C1285.78 180.952 1285.38 181.008 1284.98 180.984C1284.57 180.96 1284.18 180.857 1283.82 180.68C1283.46 180.504 1283.13 180.257 1282.86 179.955C1282.6 179.653 1282.39 179.301 1282.26 178.92L1281.15 175.732C1280.68 176.386 1280.38 177.155 1280.3 177.961C1280.22 178.766 1280.35 179.579 1280.69 180.316ZM1631.25 177.36H1631.25C1631.44 177.38 1631.62 177.418 1631.8 177.472C1631.92 177.503 1632.04 177.542 1632.16 177.587C1632.52 177.749 1632.86 177.982 1633.14 178.274C1633.42 178.565 1633.64 178.908 1633.78 179.284C1633.93 179.66 1634 180.061 1633.99 180.464C1633.98 180.867 1633.89 181.265 1633.73 181.634L1631.85 185.913C1632.45 185.688 1632.99 185.34 1633.44 184.894C1633.89 184.447 1634.25 183.911 1634.48 183.319L1639.95 169.411C1640.32 168.477 1640.36 167.448 1640.08 166.484L1638.6 170.7C1638.44 171.149 1638.18 171.554 1637.84 171.884C1637.5 172.214 1637.08 172.459 1636.63 172.6H1636.62C1636.43 172.659 1636.24 172.7 1636.05 172.722C1636.02 172.722 1636 172.731 1635.98 172.734C1635.8 172.749 1635.62 172.749 1635.45 172.734C1635.41 172.734 1635.36 172.734 1635.32 172.734C1634.87 172.678 1634.43 172.521 1634.04 172.273C1633.65 172.026 1633.33 171.694 1633.09 171.304C1632.85 170.913 1632.7 170.473 1632.65 170.017C1632.6 169.56 1632.65 169.099 1632.81 168.666L1634.71 163.277C1633.97 163.438 1633.29 163.777 1632.72 164.264C1632.15 164.751 1631.7 165.371 1631.43 166.07L1625.96 179.978C1625.73 180.573 1625.62 181.211 1625.65 181.85C1625.68 182.488 1625.84 183.114 1626.13 183.686L1628.11 179.173C1628.19 178.99 1628.29 178.816 1628.41 178.652C1628.45 178.587 1628.51 178.533 1628.55 178.473C1628.62 178.383 1628.7 178.298 1628.78 178.216C1628.86 178.145 1628.94 178.078 1629.02 178.016C1629.08 177.967 1629.14 177.916 1629.21 177.869C1629.32 177.799 1629.43 177.736 1629.54 177.681C1629.59 177.658 1629.64 177.631 1629.68 177.61C1629.82 177.551 1629.96 177.502 1630.1 177.464C1630.13 177.456 1630.16 177.447 1630.19 177.44C1630.35 177.401 1630.51 177.374 1630.68 177.362H1630.71C1630.78 177.362 1630.85 177.355 1630.91 177.355C1631.02 177.351 1631.13 177.352 1631.25 177.36ZM1266.76 136.768L1270.63 151.2C1270.83 151.958 1271.23 152.65 1271.78 153.21C1272.33 153.771 1273.01 154.18 1273.77 154.4L1272.39 150.438C1272.15 149.736 1272.18 148.971 1272.46 148.285V148.277C1272.54 148.085 1272.63 147.901 1272.75 147.729L1272.76 147.713C1272.87 147.553 1272.99 147.403 1273.13 147.266C1273.15 147.248 1273.16 147.228 1273.18 147.21C1273.31 147.09 1273.44 146.982 1273.59 146.886C1273.63 146.862 1273.66 146.832 1273.69 146.809C1274.08 146.568 1274.52 146.418 1274.98 146.371C1275.44 146.323 1275.9 146.379 1276.33 146.534C1276.76 146.689 1277.15 146.939 1277.48 147.266C1277.8 147.593 1278.04 147.989 1278.19 148.423L1279.31 151.655C1279.66 150.752 1279.72 149.761 1279.47 148.825L1275.6 134.4C1275.44 133.794 1275.15 133.228 1274.76 132.738C1274.37 132.248 1273.88 131.843 1273.33 131.55L1274.1 134.377C1274.15 134.57 1274.19 134.768 1274.2 134.968C1274.21 135.038 1274.2 135.107 1274.2 135.176C1274.2 135.298 1274.2 135.42 1274.19 135.542C1274.18 135.642 1274.15 135.742 1274.13 135.835C1274.11 135.928 1274.1 136.002 1274.07 136.083C1274.03 136.204 1273.99 136.322 1273.93 136.437C1273.91 136.484 1273.89 136.537 1273.87 136.578C1273.8 136.713 1273.72 136.843 1273.63 136.966C1273.61 136.986 1273.6 137.006 1273.59 137.024C1273.48 137.162 1273.37 137.29 1273.24 137.408L1273.23 137.417C1272.87 137.763 1272.43 138.014 1271.95 138.149C1271.56 138.256 1271.16 138.285 1270.76 138.234C1270.36 138.184 1269.97 138.055 1269.62 137.856C1269.27 137.656 1268.96 137.389 1268.72 137.07C1268.47 136.751 1268.29 136.387 1268.18 135.998L1267.37 133.059C1267.01 133.598 1266.77 134.208 1266.67 134.847C1266.56 135.487 1266.59 136.142 1266.76 136.768ZM1646.75 138.356C1647.13 138.49 1647.48 138.698 1647.78 138.967C1648.08 139.237 1648.33 139.563 1648.5 139.927C1648.68 140.29 1648.78 140.685 1648.8 141.088C1648.82 141.491 1648.76 141.894 1648.63 142.274L1647.15 146.474C1647.79 146.193 1648.35 145.769 1648.81 145.233C1649.26 144.698 1649.58 144.066 1649.75 143.387L1653.32 128.879C1653.56 127.927 1653.48 126.924 1653.09 126.021L1652.31 129.207C1652.19 129.669 1651.97 130.097 1651.66 130.458C1651.35 130.82 1650.96 131.104 1650.53 131.288C1650.34 131.366 1650.15 131.426 1649.96 131.467L1649.9 131.483C1649.72 131.514 1649.54 131.531 1649.37 131.532C1649.33 131.532 1649.29 131.54 1649.24 131.54C1648.79 131.529 1648.34 131.415 1647.93 131.206C1647.52 130.998 1647.16 130.7 1646.88 130.336C1646.6 129.971 1646.41 129.548 1646.32 129.099C1646.22 128.65 1646.23 128.185 1646.34 127.74L1647.4 123.458C1646.67 123.705 1646.02 124.13 1645.5 124.695C1644.98 125.26 1644.61 125.946 1644.43 126.69L1640.85 141.198C1640.58 142.328 1640.74 143.522 1641.31 144.535L1642.83 140.235C1642.9 140.047 1642.98 139.867 1643.09 139.695C1643.13 139.622 1643.19 139.558 1643.23 139.488C1643.3 139.402 1643.35 139.312 1643.42 139.233C1643.5 139.152 1643.58 139.075 1643.66 139.003C1643.72 138.952 1643.77 138.903 1643.83 138.854C1643.93 138.774 1644.04 138.7 1644.16 138.634C1644.2 138.609 1644.24 138.583 1644.28 138.561C1644.41 138.49 1644.55 138.429 1644.7 138.379C1644.72 138.37 1644.74 138.36 1644.77 138.353C1644.93 138.301 1645.09 138.261 1645.26 138.236H1645.29C1645.47 138.21 1645.64 138.2 1645.82 138.207H1645.83C1646.02 138.213 1646.2 138.237 1646.38 138.277C1646.51 138.296 1646.63 138.322 1646.75 138.356ZM1256.41 93.725L1259.11 108.425C1259.23 109.113 1259.51 109.763 1259.93 110.325C1260.35 110.887 1260.89 111.345 1261.51 111.664L1260.21 106.923C1260.02 106.207 1260.09 105.445 1260.42 104.78L1260.43 104.771C1260.52 104.587 1260.63 104.413 1260.75 104.25L1260.76 104.229C1260.88 104.077 1261.01 103.937 1261.16 103.81C1261.18 103.794 1261.2 103.774 1261.22 103.756C1261.35 103.644 1261.5 103.544 1261.65 103.456C1261.69 103.435 1261.72 103.408 1261.76 103.388C1261.95 103.285 1262.16 103.204 1262.37 103.145C1262.76 103.038 1263.16 103.009 1263.56 103.06C1263.96 103.11 1264.35 103.239 1264.7 103.439C1265.05 103.638 1265.36 103.905 1265.6 104.224C1265.85 104.543 1266.03 104.907 1266.14 105.296L1267.45 110.076C1268.08 109.101 1268.32 107.92 1268.11 106.776L1265.42 92.076C1265.29 91.3862 1265.01 90.735 1264.59 90.1727C1264.17 89.6105 1263.63 89.1524 1263 88.834L1263.42 91.951C1263.45 92.1498 1263.46 92.3508 1263.45 92.551C1263.45 92.638 1263.42 92.721 1263.41 92.806C1263.39 93.0241 1263.33 93.2376 1263.25 93.438C1263.22 93.505 1263.2 93.573 1263.17 93.638C1263.11 93.7599 1263.05 93.8778 1262.97 93.991C1262.95 94.029 1262.93 94.069 1262.9 94.106C1262.81 94.2316 1262.71 94.3503 1262.61 94.461C1262.59 94.48 1262.58 94.498 1262.56 94.515C1262.44 94.6343 1262.31 94.7437 1262.18 94.842L1262.15 94.861C1262.01 94.964 1261.85 95.054 1261.69 95.13L1261.68 95.136C1261.51 95.2139 1261.34 95.2764 1261.17 95.323H1261.16C1261.04 95.3606 1260.91 95.39 1260.79 95.411C1259.98 95.5205 1259.17 95.3049 1258.52 94.8117C1257.87 94.3185 1257.44 93.588 1257.33 92.781L1257.02 90.497C1256.42 91.4592 1256.21 92.6102 1256.41 93.725ZM1657.28 96.219C1658.07 96.4139 1658.75 96.9148 1659.17 97.6117C1659.59 98.3086 1659.72 99.1443 1659.53 99.935L1658.33 104.818C1658.91 104.492 1659.41 104.044 1659.8 103.503C1660.19 102.963 1660.45 102.345 1660.58 101.691L1663.38 87.013C1663.58 85.9601 1663.4 84.8703 1662.88 83.935L1662.3 87.279C1662.17 88.0096 1661.78 88.6681 1661.2 89.131L1661.19 89.136C1661.03 89.2653 1660.86 89.3785 1660.67 89.474L1660.66 89.484C1660.48 89.5723 1660.3 89.6436 1660.11 89.697C1660.09 89.704 1660.07 89.714 1660.05 89.72C1659.87 89.7637 1659.7 89.7921 1659.52 89.805C1659.48 89.805 1659.44 89.819 1659.4 89.82C1659.18 89.8308 1658.96 89.8177 1658.75 89.781C1658.35 89.7122 1657.97 89.5658 1657.63 89.3501C1657.29 89.1344 1656.99 88.8537 1656.76 88.5241C1656.53 88.1944 1656.36 87.8222 1656.28 87.4287C1656.19 87.0353 1656.18 86.6283 1656.25 86.231L1656.98 82C1656.31 82.3022 1655.73 82.7596 1655.27 83.3338C1654.82 83.9079 1654.51 84.5822 1654.38 85.3L1651.58 99.977C1651.46 100.578 1651.47 101.196 1651.6 101.795C1651.73 102.393 1651.97 102.959 1652.33 103.46L1653.56 98.466C1653.61 98.2726 1653.67 98.0844 1653.76 97.904C1653.79 97.828 1653.84 97.762 1653.88 97.691C1653.93 97.5951 1653.99 97.502 1654.05 97.412C1654.12 97.3246 1654.19 97.2409 1654.26 97.161C1654.31 97.105 1654.36 97.047 1654.41 96.996C1654.51 96.9046 1654.61 96.8198 1654.72 96.742C1654.76 96.716 1654.8 96.686 1654.83 96.661C1654.96 96.5747 1655.1 96.4988 1655.24 96.434C1655.26 96.424 1655.28 96.415 1655.3 96.407C1655.46 96.3361 1655.62 96.2792 1655.79 96.237H1655.8C1656.05 96.1714 1656.32 96.1378 1656.58 96.137C1656.82 96.1359 1657.05 96.1634 1657.28 96.219ZM1249.7 48.2L1251.25 63.059C1251.34 63.8297 1251.61 64.5669 1252.06 65.2013C1252.5 65.8358 1253.1 66.3466 1253.8 66.686L1253.29 62.905C1253.19 62.1704 1253.36 61.4256 1253.78 60.81V60.805C1253.89 60.6311 1254.02 60.4693 1254.17 60.322L1254.18 60.31C1254.32 60.1721 1254.47 60.0479 1254.64 59.939C1254.66 59.927 1254.67 59.914 1254.69 59.901C1254.84 59.805 1255.01 59.7227 1255.18 59.655C1255.21 59.641 1255.24 59.622 1255.28 59.609C1255.71 59.4492 1256.17 59.3885 1256.63 59.4314C1257.08 59.4743 1257.53 59.6197 1257.92 59.8569C1258.31 60.0941 1258.65 60.4169 1258.9 60.8014C1259.15 61.1859 1259.31 61.6222 1259.38 62.078L1259.76 64.878C1260.25 64.0389 1260.46 63.0635 1260.36 62.095L1258.8 47.243C1258.73 46.58 1258.52 45.9402 1258.17 45.3685C1257.83 44.7968 1257.37 44.3072 1256.82 43.934L1257.03 46.188C1257.05 46.3875 1257.05 46.5885 1257.03 46.788C1257.02 46.875 1256.99 46.956 1256.98 47.041C1256.96 47.141 1256.94 47.248 1256.91 47.347C1256.88 47.456 1256.84 47.5628 1256.79 47.667C1256.76 47.731 1256.74 47.797 1256.71 47.859C1256.64 47.9807 1256.57 48.098 1256.49 48.21C1256.47 48.244 1256.45 48.281 1256.42 48.315C1256.32 48.4399 1256.22 48.5573 1256.11 48.666L1256.06 48.709C1255.94 48.8271 1255.8 48.9345 1255.66 49.03L1255.65 49.036C1255.23 49.3145 1254.76 49.4863 1254.26 49.536C1253.86 49.5737 1253.45 49.532 1253.07 49.413C1252.68 49.2941 1252.32 49.1004 1252.01 48.843C1251.7 48.5856 1251.44 48.2694 1251.26 47.9127C1251.07 47.556 1250.95 47.1656 1250.91 46.764L1250.73 44.8C1250.34 45.269 1250.05 45.8115 1249.87 46.3955C1249.69 46.9795 1249.64 47.5931 1249.7 48.2ZM1664.94 54.033C1665.34 54.1018 1665.72 54.2482 1666.06 54.4639C1666.4 54.6796 1666.69 54.9603 1666.92 55.2899C1667.16 55.6196 1667.32 55.9918 1667.41 56.3853C1667.5 56.7787 1667.51 57.1857 1667.44 57.583L1666.62 62.327C1667.44 61.6284 1667.98 60.6622 1668.15 59.6L1670.58 44.857C1670.72 44.0557 1670.63 43.2339 1670.34 42.4758C1670.05 41.7178 1669.56 41.0507 1668.93 40.543L1668.71 43.555C1668.65 44.2932 1668.33 44.9854 1667.8 45.503C1667.65 45.6479 1667.49 45.7779 1667.32 45.891L1667.3 45.907C1667.14 46.0082 1666.97 46.0943 1666.8 46.164C1666.77 46.176 1666.74 46.191 1666.71 46.203C1666.55 46.2593 1666.39 46.3028 1666.22 46.333C1666.17 46.342 1666.13 46.359 1666.08 46.366C1665.62 46.4322 1665.16 46.3955 1664.72 46.2586C1664.29 46.1217 1663.88 45.8881 1663.55 45.5751C1663.21 45.2621 1662.95 44.8777 1662.79 44.4503C1662.62 44.0229 1662.55 43.5635 1662.58 43.106L1662.74 40.972C1662.11 41.6336 1661.7 42.4674 1661.55 43.366L1659.12 58.11C1659.01 58.8312 1659.06 59.5701 1659.29 60.265C1659.51 60.9598 1659.9 61.5904 1660.42 62.104L1661.39 56.531C1661.42 56.3339 1661.48 56.1406 1661.55 55.954C1661.58 55.883 1661.62 55.819 1661.65 55.754C1661.69 55.6484 1661.75 55.5455 1661.81 55.446C1661.86 55.357 1661.93 55.277 1661.99 55.195C1662.04 55.131 1662.09 55.065 1662.14 55.005C1662.23 54.9119 1662.32 54.8244 1662.42 54.743C1662.46 54.709 1662.5 54.673 1662.54 54.643C1662.66 54.5528 1662.78 54.4716 1662.91 54.4C1662.94 54.386 1662.96 54.37 1662.99 54.357C1663.13 54.2796 1663.29 54.2144 1663.44 54.162L1663.48 54.152C1663.65 54.0969 1663.82 54.0574 1664 54.034H1664.01C1664.19 54.0098 1664.38 54.0021 1664.56 54.011C1664.69 54.0089 1664.81 54.0146 1664.94 54.028L1664.94 54.033ZM1668.77 5.214C1668.37 5.1878 1667.97 5.08256 1667.61 4.90429C1667.25 4.72601 1666.93 4.4782 1666.66 4.175C1666.4 3.8718 1666.19 3.51916 1666.06 3.13722C1665.93 2.75528 1665.88 2.35152 1665.91 1.949L1666.03 0H1672.19L1672.03 2.348C1671.98 3.08563 1671.67 3.77946 1671.14 4.3C1670.99 4.45005 1670.83 4.58411 1670.65 4.7C1670.48 4.80939 1670.31 4.90216 1670.12 4.977L1670.07 5.001C1669.9 5.0657 1669.72 5.11457 1669.54 5.147C1669.5 5.152 1669.47 5.165 1669.44 5.171C1669.28 5.19517 1669.12 5.20754 1668.96 5.208C1668.9 5.21533 1668.83 5.21733 1668.77 5.214H1668.77ZM1246.49 0.863L1246.45 0H1252.6L1252.63 0.578C1252.64 0.7786 1252.63 0.979602 1252.59 1.178C1252.58 1.258 1252.56 1.332 1252.54 1.409C1252.52 1.51923 1252.49 1.62809 1252.46 1.735C1252.42 1.83273 1252.38 1.92852 1252.33 2.022C1252.29 2.095 1252.26 2.17 1252.22 2.24C1252.16 2.34872 1252.09 2.45357 1252.01 2.554C1251.98 2.597 1251.95 2.641 1251.91 2.682C1251.81 2.79487 1251.71 2.90049 1251.6 2.998C1251.58 3.018 1251.56 3.039 1251.53 3.058C1251.41 3.16427 1251.27 3.26025 1251.13 3.345L1251.1 3.36C1250.95 3.44966 1250.79 3.52562 1250.62 3.587H1250.61C1250.44 3.65068 1250.26 3.69854 1250.07 3.73C1249.95 3.756 1249.83 3.77437 1249.7 3.785C1249.65 3.785 1249.6 3.785 1249.56 3.785C1248.77 3.78414 1248.01 3.48036 1247.44 2.93648C1246.87 2.39261 1246.53 1.65026 1246.49 0.863Z" fill="#180919"/>
<path d="M1369.16 165.069H1252.67C1252.67 165.079 1252.61 165.12 1252.47 165.26C1251.68 166.417 1251.3 167.809 1251.41 169.207V204.566C1251.53 206.792 1251.1 210.953 1248.93 213.691C1247.76 215.303 1246.13 216.526 1244.26 217.204C1242.69 217.663 1241.05 217.844 1239.42 217.738H1215.71V218.194H1216.71V220.119H1215.71V221H1213.03V220.514H1212.32V221H1209.64V220.119H1208.64V218.768H1197.62V220.119H1196.62V221H1193.94V220.514H1193.23V221H1190.55V220.119H1189.55V218.194H1190.55V217.738H-11V209.669H1190.55V209.269H1189.49V207.344H1190.55V206.258H1193.24V206.744H1193.94V206.258H1196.62V207.344H1197.56V208.714H1198.41C1198.48 208.644 1198.54 208.574 1198.6 208.507L1191.07 186.088C1190.95 185.739 1190.9 185.369 1190.93 185.002C1190.95 184.634 1191.05 184.275 1191.22 183.945C1191.38 183.614 1191.61 183.32 1191.88 183.078C1192.16 182.835 1192.49 182.65 1192.83 182.533C1193.54 182.296 1194.31 182.349 1194.98 182.681C1195.65 183.012 1196.15 183.594 1196.39 184.3L1203.92 206.719C1205.32 206.944 1206.59 207.65 1207.52 208.713H1208.57V207.343H1209.64V206.257H1212.32V206.743H1213.03V206.257H1215.71V207.343H1216.64V209.268H1215.71V209.668H1239.43C1242.75 209.661 1241.14 209.742 1242.45 208.883C1243.86 207.633 1243.17 202.211 1243.35 197.493V169.207C1243.21 165.851 1244.3 162.56 1246.41 159.943C1247.16 159.054 1248.09 158.332 1249.13 157.825C1250.18 157.318 1251.32 157.037 1252.49 157H1926.74V165.069H1369.16ZM1252.62 165.069H1252.48C1252.53 165.075 1252.57 165.075 1252.62 165.069Z" fill="#180919"/>
</g>
<defs>
<clipPath id="clip0_215_59155">
<rect width="1920" height="1080" fill="white"/>
</clipPath>
</defs>
</svg>
