<svg width="1920" height="1080" viewBox="0 0 1920 1080" fill="none" xmlns="http://www.w3.org/2000/svg">
<path d="M1108.49 614.082C1106.38 605.265 1098.69 603.503 1099.64 597.005C1100.58 590.632 1099.64 585.438 1095.31 583.962V576.139C1097.18 575.646 1098.83 574.55 1100 573.023C1101.18 571.495 1101.82 569.621 1101.83 567.692V555.501C1101.82 553.571 1101.18 551.697 1100.01 550.169C1098.83 548.641 1097.18 547.545 1095.31 547.052V539.008C1097.18 538.515 1098.83 537.419 1100.01 535.892C1101.18 534.364 1101.82 532.489 1101.83 530.56V518.37C1101.82 516.44 1101.18 514.566 1100 513.039C1098.83 511.511 1097.18 510.415 1095.31 509.922V501.878C1097.18 501.385 1098.83 500.29 1100 498.762C1101.18 497.234 1101.82 495.36 1101.83 493.431V481.239C1101.82 479.31 1101.18 477.436 1100 475.908C1098.83 474.38 1097.18 473.285 1095.31 472.792V464.747C1097.18 464.254 1098.83 463.158 1100 461.631C1101.18 460.103 1101.82 458.229 1101.83 456.3V444.108C1101.82 442.178 1101.18 440.304 1100 438.777C1098.83 437.249 1097.18 436.153 1095.31 435.66V427.615C1097.18 427.122 1098.83 426.027 1100 424.499C1101.18 422.971 1101.82 421.097 1101.83 419.168V406.977C1101.82 405.048 1101.18 403.174 1100 401.646C1098.83 400.118 1097.18 399.023 1095.31 398.53V390.485C1097.18 389.992 1098.83 388.896 1100 387.368C1101.18 385.841 1101.82 383.966 1101.83 382.037V369.846C1101.82 367.917 1101.18 366.043 1100 364.515C1098.83 362.987 1097.18 361.892 1095.31 361.399V353.354C1097.18 352.861 1098.83 351.765 1100 350.237C1101.18 348.71 1101.82 346.835 1101.83 344.906V332.715C1101.82 330.786 1101.18 328.912 1100 327.384C1098.83 325.857 1097.18 324.761 1095.31 324.268V316.224C1097.18 315.731 1098.83 314.635 1100 313.107C1101.18 311.58 1101.82 309.705 1101.83 307.776V295.585C1101.82 293.656 1101.18 291.782 1100 290.254C1098.83 288.726 1097.18 287.631 1095.31 287.138V279.093C1097.18 278.6 1098.83 277.504 1100 275.976C1101.18 274.449 1101.82 272.574 1101.83 270.645V258.453C1101.82 256.524 1101.18 254.65 1100 253.122C1098.83 251.594 1097.18 250.499 1095.31 250.006V241.961C1097.18 241.468 1098.83 240.372 1100 238.845C1101.18 237.317 1101.82 235.443 1101.83 233.514V221.323C1101.82 219.393 1101.18 217.519 1100.01 215.991C1098.83 214.464 1097.18 213.368 1095.31 212.875V204.83C1097.18 204.337 1098.83 203.242 1100 201.714C1101.18 200.186 1101.82 198.312 1101.83 196.383V184.192C1101.82 182.263 1101.18 180.388 1100.01 178.861C1098.83 177.333 1097.18 176.238 1095.31 175.745V167.701C1097.18 167.208 1098.83 166.113 1100 164.585C1101.18 163.058 1101.82 161.184 1101.83 159.255V147.061C1101.82 145.132 1101.18 143.258 1100 141.73C1098.83 140.202 1097.18 139.107 1095.31 138.614V130.569C1097.18 130.076 1098.83 128.98 1100 127.452C1101.18 125.925 1101.82 124.05 1101.83 122.121V109.931C1101.82 108.002 1101.18 106.127 1100 104.6C1098.83 103.072 1097.18 101.976 1095.31 101.483V93.438C1097.18 92.9447 1098.83 91.8491 1100 90.3214C1101.18 88.7937 1101.82 86.9194 1101.83 84.99V72.801C1101.82 70.8715 1101.18 68.9972 1100 67.4695C1098.83 65.9418 1097.18 64.8462 1095.31 64.353V56.308C1097.18 55.8149 1098.83 54.7193 1100.01 53.1916C1101.18 51.6638 1101.82 49.7895 1101.83 47.86V44.001H1096.82V47.861C1096.82 48.4422 1096.68 49.0153 1096.42 49.5345C1096.16 50.0536 1095.78 50.5045 1095.31 50.851V48.033C1095.31 47.7038 1095.25 47.3778 1095.12 47.0736C1095 46.7694 1094.81 46.4929 1094.58 46.2602C1094.35 46.0275 1094.07 45.843 1093.77 45.7173C1093.46 45.5917 1093.14 45.5273 1092.81 45.528C1092.71 45.532 1092.61 45.5423 1092.51 45.559C1092.21 45.5949 1091.92 45.6854 1091.65 45.826L1091.63 45.837C1091.51 45.9018 1091.39 45.9764 1091.28 46.06C1091.27 46.073 1091.25 46.088 1091.23 46.102C1091.14 46.1788 1091.05 46.2627 1090.96 46.353C1090.94 46.383 1090.91 46.416 1090.89 46.448C1090.82 46.5285 1090.75 46.6134 1090.7 46.702C1090.66 46.756 1090.63 46.814 1090.6 46.871C1090.56 46.9463 1090.52 47.0237 1090.49 47.103C1090.46 47.1897 1090.43 47.2782 1090.41 47.368C1090.39 47.429 1090.36 47.488 1090.35 47.55C1090.32 47.7096 1090.3 47.8721 1090.3 48.035V50.347C1089.69 49.6647 1089.35 48.7795 1089.35 47.862V44.001H1084.34V47.861C1084.34 48.1552 1084.36 48.4492 1084.38 48.742C1084.39 48.85 1084.42 48.954 1084.43 49.061C1084.46 49.24 1084.48 49.421 1084.51 49.596C1084.54 49.732 1084.58 49.862 1084.61 49.996C1084.65 50.13 1084.68 50.281 1084.72 50.419C1084.77 50.573 1084.83 50.719 1084.88 50.871C1084.93 50.983 1084.96 51.097 1085.01 51.207C1085.08 51.372 1085.16 51.531 1085.23 51.69C1085.28 51.778 1085.32 51.869 1085.36 51.955C1085.45 52.129 1085.56 52.296 1085.66 52.463C1085.7 52.528 1085.74 52.596 1085.78 52.663C1085.9 52.843 1086.03 53.016 1086.16 53.188C1086.19 53.232 1086.22 53.278 1086.26 53.321C1086.41 53.504 1086.56 53.678 1086.72 53.849C1086.75 53.875 1086.77 53.903 1086.8 53.929C1086.97 54.109 1087.15 54.28 1087.34 54.445C1087.36 54.458 1087.37 54.472 1087.38 54.484C1087.58 54.657 1087.79 54.819 1088.01 54.974L1088.02 54.984C1088.72 55.4827 1089.49 55.8755 1090.3 56.15V64.519C1089.5 64.7872 1088.75 65.1699 1088.06 65.655C1087.8 65.8409 1087.55 66.0412 1087.31 66.255L1087.21 66.343C1086.99 66.5383 1086.79 66.7433 1086.59 66.958C1086.56 66.993 1086.53 67.026 1086.5 67.058C1086.29 67.3005 1086.09 67.5545 1085.9 67.819L1085.89 67.826C1085.7 68.1065 1085.52 68.398 1085.36 68.699C1085.35 68.714 1085.35 68.73 1085.34 68.746C1085.2 69.0124 1085.08 69.2858 1084.96 69.565C1084.93 69.649 1084.9 69.736 1084.87 69.821C1084.79 70.04 1084.72 70.262 1084.66 70.489C1084.63 70.589 1084.6 70.697 1084.58 70.802C1084.52 71.028 1084.48 71.258 1084.45 71.49C1084.43 71.59 1084.41 71.69 1084.4 71.79C1084.36 72.1238 1084.34 72.4597 1084.34 72.796V84.986C1084.34 85.2802 1084.36 85.5742 1084.38 85.867C1084.39 85.975 1084.42 86.079 1084.43 86.186C1084.46 86.366 1084.48 86.546 1084.51 86.722C1084.54 86.856 1084.58 86.986 1084.61 87.122C1084.65 87.258 1084.68 87.409 1084.72 87.548C1084.77 87.687 1084.82 87.848 1084.88 87.996C1084.92 88.109 1084.96 88.225 1085.01 88.336C1085.08 88.5 1085.15 88.656 1085.23 88.815C1085.28 88.905 1085.32 88.997 1085.36 89.084C1085.45 89.257 1085.56 89.423 1085.66 89.584C1085.7 89.651 1085.74 89.719 1085.78 89.784C1085.9 89.963 1086.03 90.135 1086.16 90.305C1086.2 90.35 1086.23 90.398 1086.26 90.442C1086.41 90.624 1086.56 90.797 1086.72 90.967C1086.75 90.994 1086.77 91.023 1086.8 91.05C1086.97 91.23 1087.15 91.4 1087.34 91.565C1087.36 91.578 1087.37 91.592 1087.39 91.605C1087.59 91.778 1087.8 91.94 1088.01 92.095L1088.02 92.104C1088.72 92.6027 1089.49 92.9956 1090.3 93.27V101.639C1089.51 101.908 1088.75 102.29 1088.06 102.775C1087.8 102.961 1087.55 103.161 1087.3 103.375C1087.27 103.404 1087.24 103.433 1087.2 103.463C1086.99 103.658 1086.79 103.863 1086.59 104.078C1086.56 104.113 1086.53 104.147 1086.5 104.178C1086.29 104.419 1086.09 104.671 1085.9 104.934L1085.89 104.948C1085.7 105.227 1085.52 105.518 1085.36 105.818C1085.35 105.835 1085.35 105.855 1085.34 105.873C1085.2 106.136 1085.07 106.407 1084.96 106.683C1084.93 106.769 1084.9 106.857 1084.86 106.944C1084.79 107.161 1084.71 107.382 1084.65 107.607C1084.62 107.712 1084.6 107.817 1084.57 107.924C1084.52 108.149 1084.48 108.378 1084.44 108.609C1084.43 108.709 1084.41 108.809 1084.4 108.909C1084.36 109.243 1084.34 109.579 1084.33 109.915V122.105C1084.33 122.399 1084.35 122.693 1084.38 122.986C1084.39 123.092 1084.41 123.194 1084.43 123.3C1084.45 123.481 1084.47 123.663 1084.51 123.841C1084.54 123.973 1084.57 124.101 1084.61 124.23C1084.65 124.376 1084.68 124.522 1084.72 124.664C1084.76 124.806 1084.82 124.956 1084.88 125.101C1084.92 125.218 1084.96 125.337 1085 125.451C1085.07 125.612 1085.15 125.765 1085.22 125.921C1085.27 126.014 1085.31 126.109 1085.36 126.2C1085.45 126.37 1085.55 126.532 1085.65 126.7C1085.69 126.769 1085.73 126.841 1085.78 126.91C1085.89 127.086 1086.02 127.255 1086.15 127.422C1086.19 127.47 1086.22 127.522 1086.26 127.568C1086.4 127.747 1086.56 127.918 1086.71 128.084C1086.74 128.115 1086.77 128.146 1086.8 128.175C1086.97 128.352 1087.15 128.52 1087.33 128.682L1087.38 128.73C1087.58 128.9 1087.78 129.061 1088 129.213L1088.02 129.229C1088.72 129.727 1089.49 130.12 1090.3 130.394V138.762C1089.5 139.031 1088.75 139.413 1088.06 139.898C1087.79 140.086 1087.54 140.288 1087.3 140.504L1087.2 140.59C1086.99 140.785 1086.78 140.991 1086.59 141.207C1086.56 141.241 1086.53 141.274 1086.5 141.307C1086.28 141.55 1086.08 141.804 1085.9 142.069L1085.89 142.076C1085.7 142.356 1085.52 142.647 1085.36 142.948C1085.35 142.964 1085.34 142.981 1085.33 142.997C1085.19 143.263 1085.07 143.535 1084.96 143.814C1084.92 143.899 1084.89 143.986 1084.86 144.072C1084.78 144.29 1084.71 144.511 1084.65 144.738C1084.62 144.838 1084.6 144.946 1084.57 145.052C1084.52 145.278 1084.48 145.507 1084.44 145.738C1084.43 145.838 1084.41 145.938 1084.4 146.038C1084.36 146.372 1084.34 146.708 1084.33 147.044V159.236C1084.33 159.53 1084.35 159.824 1084.38 160.117C1084.39 160.217 1084.41 160.317 1084.42 160.417C1084.45 160.601 1084.47 160.787 1084.51 160.968C1084.53 161.095 1084.57 161.218 1084.6 161.343C1084.64 161.493 1084.67 161.643 1084.72 161.792C1084.76 161.941 1084.82 162.072 1084.87 162.212C1084.91 162.335 1084.95 162.46 1085 162.58C1085.07 162.734 1085.14 162.88 1085.21 163.03C1085.26 163.13 1085.31 163.23 1085.36 163.33C1085.44 163.492 1085.54 163.648 1085.64 163.804C1085.68 163.881 1085.73 163.96 1085.78 164.035C1085.89 164.204 1086.01 164.366 1086.13 164.527C1086.18 164.582 1086.22 164.64 1086.26 164.694C1086.4 164.866 1086.55 165.03 1086.7 165.194C1086.73 165.23 1086.76 165.269 1086.8 165.305C1086.96 165.475 1087.13 165.637 1087.31 165.794C1087.34 165.816 1087.36 165.839 1087.39 165.86C1087.58 166.025 1087.78 166.179 1087.98 166.327L1088.02 166.359C1088.24 166.512 1088.46 166.656 1088.69 166.789L1088.71 166.798C1089.21 167.091 1089.75 167.332 1090.3 167.519V175.888C1089.5 176.156 1088.75 176.539 1088.06 177.024C1087.79 177.212 1087.54 177.414 1087.3 177.63L1087.2 177.715C1086.99 177.912 1086.78 178.118 1086.59 178.334C1086.56 178.368 1086.52 178.4 1086.5 178.434C1086.28 178.677 1086.08 178.932 1085.9 179.197V179.204C1085.7 179.484 1085.52 179.775 1085.36 180.076C1085.35 180.092 1085.35 180.108 1085.34 180.124C1085.2 180.39 1085.08 180.662 1084.96 180.941C1084.93 181.026 1084.9 181.113 1084.87 181.199C1084.79 181.418 1084.72 181.64 1084.66 181.865C1084.63 181.965 1084.6 182.073 1084.58 182.179C1084.52 182.405 1084.48 182.634 1084.45 182.865C1084.43 182.965 1084.41 183.065 1084.4 183.165C1084.36 183.499 1084.34 183.835 1084.34 184.171V196.363C1084.34 196.657 1084.36 196.951 1084.38 197.244C1084.39 197.35 1084.42 197.452 1084.43 197.557C1084.46 197.739 1084.48 197.921 1084.51 198.099C1084.54 198.23 1084.58 198.357 1084.61 198.487C1084.65 198.633 1084.68 198.779 1084.73 198.922C1084.77 199.065 1084.83 199.214 1084.88 199.359C1084.93 199.476 1084.96 199.596 1085.01 199.71C1085.08 199.87 1085.16 200.024 1085.23 200.179C1085.28 200.272 1085.32 200.368 1085.37 200.46C1085.46 200.629 1085.56 200.79 1085.66 200.952C1085.7 201.022 1085.74 201.095 1085.79 201.164C1085.9 201.339 1086.03 201.507 1086.15 201.673C1086.19 201.722 1086.23 201.773 1086.27 201.822C1086.41 202 1086.56 202.169 1086.72 202.335C1086.75 202.366 1086.77 202.4 1086.8 202.435C1086.97 202.61 1087.15 202.777 1087.33 202.935L1087.39 202.989C1087.59 203.157 1087.79 203.315 1088 203.466L1088.03 203.488C1088.25 203.645 1088.48 203.791 1088.71 203.926C1089.22 204.22 1089.75 204.462 1090.3 204.649V213.018C1089.51 213.286 1088.75 213.669 1088.06 214.154C1087.8 214.342 1087.54 214.544 1087.3 214.761C1087.27 214.788 1087.24 214.816 1087.21 214.843C1086.99 215.04 1086.79 215.249 1086.59 215.467L1086.5 215.567C1086.06 216.071 1085.68 216.623 1085.36 217.214C1085.36 217.226 1085.35 217.24 1085.35 217.252C1085.2 217.521 1085.08 217.797 1084.97 218.079C1084.93 218.162 1084.9 218.248 1084.87 218.332C1084.79 218.552 1084.72 218.774 1084.66 219.002C1084.63 219.102 1084.6 219.209 1084.58 219.314C1084.53 219.541 1084.48 219.77 1084.45 220.003C1084.43 220.103 1084.42 220.203 1084.4 220.303C1084.36 220.637 1084.34 220.973 1084.34 221.31V233.501C1084.34 233.795 1084.36 234.089 1084.39 234.382C1084.4 234.488 1084.42 234.59 1084.43 234.695C1084.46 234.877 1084.48 235.059 1084.52 235.237C1084.54 235.369 1084.58 235.496 1084.62 235.625C1084.65 235.771 1084.68 235.917 1084.73 236.06C1084.77 236.203 1084.83 236.351 1084.88 236.496C1084.93 236.614 1084.97 236.733 1085.01 236.848C1085.08 237.008 1085.16 237.162 1085.23 237.316C1085.28 237.409 1085.32 237.505 1085.37 237.597C1085.46 237.766 1085.56 237.928 1085.66 238.09C1085.7 238.16 1085.74 238.233 1085.79 238.302C1085.9 238.477 1086.03 238.645 1086.16 238.811C1086.19 238.86 1086.23 238.911 1086.27 238.96C1086.41 239.138 1086.56 239.308 1086.72 239.474C1086.75 239.505 1086.77 239.537 1086.8 239.568C1086.97 239.744 1087.15 239.91 1087.34 240.068L1087.39 240.12C1087.59 240.289 1087.79 240.447 1088 240.598L1088.03 240.619C1088.25 240.776 1088.48 240.922 1088.71 241.058C1089.22 241.352 1089.75 241.595 1090.31 241.782V250.151C1089.51 250.419 1088.75 250.802 1088.07 251.287C1087.8 251.474 1087.55 251.676 1087.3 251.892L1087.21 251.978C1087 252.173 1086.79 252.379 1086.6 252.595C1086.57 252.629 1086.53 252.662 1086.5 252.695C1086.29 252.937 1086.09 253.192 1085.9 253.456L1085.9 253.465C1085.7 253.745 1085.53 254.036 1085.36 254.336C1085.36 254.353 1085.35 254.37 1085.34 254.386C1085.2 254.651 1085.08 254.923 1084.97 255.201C1084.93 255.286 1084.9 255.373 1084.87 255.459C1084.79 255.677 1084.72 255.899 1084.66 256.124C1084.63 256.224 1084.6 256.333 1084.58 256.44C1084.53 256.665 1084.49 256.894 1084.45 257.126C1084.44 257.226 1084.42 257.326 1084.4 257.426C1084.36 257.76 1084.34 258.096 1084.34 258.432V270.624C1084.34 270.918 1084.36 271.212 1084.39 271.505C1084.4 271.613 1084.42 271.718 1084.43 271.824C1084.46 272.004 1084.48 272.184 1084.52 272.36C1084.54 272.495 1084.58 272.626 1084.62 272.76C1084.65 272.894 1084.68 273.046 1084.73 273.184C1084.77 273.322 1084.83 273.484 1084.89 273.633C1084.93 273.746 1084.97 273.861 1085.01 273.972C1085.08 274.136 1085.16 274.295 1085.24 274.454C1085.28 274.542 1085.32 274.633 1085.37 274.72C1085.46 274.894 1085.57 275.061 1085.67 275.228C1085.71 275.293 1085.74 275.361 1085.78 275.428C1085.9 275.608 1086.03 275.781 1086.16 275.951C1086.2 275.995 1086.23 276.042 1086.26 276.086C1086.41 276.268 1086.56 276.442 1086.73 276.612C1086.75 276.639 1086.77 276.667 1086.8 276.694C1086.97 276.873 1087.15 277.044 1087.34 277.208L1087.39 277.25C1087.59 277.422 1087.8 277.585 1088.01 277.738L1088.03 277.749C1088.73 278.248 1089.49 278.641 1090.31 278.915V287.301C1089.51 287.569 1088.76 287.952 1088.07 288.437C1087.8 288.625 1087.55 288.827 1087.31 289.043L1087.21 289.129C1087 289.325 1086.79 289.531 1086.6 289.748L1086.51 289.848C1086.29 290.092 1086.09 290.348 1085.91 290.615C1085.71 290.896 1085.53 291.188 1085.37 291.49C1085.36 291.503 1085.36 291.517 1085.35 291.531C1085.21 291.799 1085.08 292.074 1084.97 292.356C1084.94 292.439 1084.91 292.525 1084.88 292.609C1084.8 292.829 1084.73 293.052 1084.67 293.279C1084.64 293.379 1084.61 293.486 1084.59 293.591C1084.53 293.817 1084.49 294.047 1084.46 294.28C1084.44 294.38 1084.42 294.48 1084.41 294.58C1084.37 294.914 1084.35 295.25 1084.35 295.587V307.778C1084.35 308.072 1084.36 308.366 1084.39 308.659C1084.4 308.77 1084.43 308.876 1084.44 308.986C1084.47 309.163 1084.49 309.341 1084.52 309.514C1084.55 309.653 1084.59 309.787 1084.62 309.923C1084.65 310.059 1084.69 310.201 1084.73 310.336C1084.78 310.493 1084.84 310.645 1084.89 310.799C1084.93 310.907 1084.97 311.017 1085.01 311.123C1085.08 311.293 1085.17 311.457 1085.25 311.623C1085.29 311.706 1085.32 311.792 1085.37 311.873C1085.47 312.053 1085.57 312.225 1085.68 312.397C1085.71 312.457 1085.75 312.518 1085.79 312.577C1085.91 312.762 1086.04 312.94 1086.18 313.116C1086.21 313.155 1086.23 313.196 1086.27 313.235C1086.42 313.422 1086.58 313.601 1086.74 313.776L1086.8 313.843C1086.98 314.028 1087.17 314.203 1087.36 314.372C1087.37 314.381 1087.38 314.39 1087.39 314.398C1088.25 315.138 1089.24 315.705 1090.31 316.067V324.436C1089.51 324.704 1088.76 325.087 1088.07 325.572C1087.81 325.758 1087.55 325.958 1087.31 326.172L1087.21 326.26C1087 326.455 1086.79 326.66 1086.6 326.875L1086.51 326.975C1086.29 327.217 1086.09 327.47 1085.91 327.734L1085.9 327.745C1085.7 328.024 1085.53 328.315 1085.37 328.616C1085.36 328.633 1085.35 328.65 1085.34 328.667C1085.2 328.932 1085.08 329.204 1084.97 329.482C1084.94 329.567 1084.91 329.654 1084.88 329.74C1084.8 329.958 1084.72 330.179 1084.66 330.405C1084.63 330.505 1084.61 330.614 1084.58 330.721C1084.53 330.946 1084.49 331.175 1084.45 331.407C1084.44 331.507 1084.42 331.607 1084.41 331.707C1084.37 332.041 1084.35 332.377 1084.34 332.713V344.905C1084.35 345.199 1084.36 345.493 1084.39 345.785C1084.4 345.895 1084.42 346.002 1084.44 346.112C1084.46 346.289 1084.48 346.467 1084.52 346.64C1084.55 346.779 1084.59 346.913 1084.62 347.05C1084.65 347.187 1084.68 347.327 1084.73 347.462C1084.77 347.619 1084.83 347.771 1084.89 347.925C1084.93 348.033 1084.97 348.143 1085.01 348.249C1085.08 348.419 1085.16 348.582 1085.24 348.749C1085.28 348.832 1085.32 348.918 1085.36 348.999C1085.46 349.178 1085.56 349.351 1085.67 349.522C1085.71 349.582 1085.74 349.644 1085.78 349.703C1085.9 349.888 1086.04 350.066 1086.17 350.241C1086.2 350.28 1086.23 350.322 1086.26 350.36C1086.41 350.547 1086.57 350.727 1086.74 350.901C1086.76 350.923 1086.78 350.946 1086.8 350.968C1086.97 351.152 1087.16 351.327 1087.35 351.495L1087.39 351.524C1088.24 352.264 1089.23 352.831 1090.31 353.192V361.561C1089.51 361.829 1088.75 362.212 1088.07 362.697C1087.8 362.885 1087.55 363.087 1087.31 363.302L1087.21 363.388C1087 363.584 1086.79 363.79 1086.6 364.007C1086.57 364.041 1086.54 364.073 1086.51 364.107C1086.29 364.351 1086.09 364.607 1085.91 364.873C1085.71 365.154 1085.53 365.445 1085.37 365.747C1085.36 365.761 1085.36 365.776 1085.35 365.789C1085.21 366.057 1085.08 366.331 1084.97 366.612C1084.94 366.696 1084.91 366.781 1084.88 366.866C1084.8 367.086 1084.73 367.308 1084.67 367.536C1084.64 367.636 1084.61 367.743 1084.59 367.848C1084.53 368.075 1084.49 368.304 1084.46 368.537C1084.44 368.637 1084.42 368.737 1084.41 368.837C1084.37 369.171 1084.35 369.507 1084.35 369.843V382.035C1084.35 382.329 1084.37 382.623 1084.39 382.915C1084.4 383.023 1084.43 383.129 1084.44 383.236C1084.47 383.415 1084.49 383.595 1084.52 383.771C1084.55 383.906 1084.59 384.037 1084.62 384.171C1084.66 384.305 1084.69 384.457 1084.73 384.595C1084.78 384.733 1084.83 384.895 1084.89 385.045C1084.94 385.158 1084.97 385.272 1085.02 385.383C1085.09 385.547 1085.17 385.706 1085.24 385.865C1085.29 385.953 1085.33 386.044 1085.37 386.131C1085.47 386.306 1085.57 386.473 1085.67 386.639C1085.71 386.704 1085.75 386.772 1085.79 386.839C1085.91 387.02 1086.04 387.193 1086.17 387.364C1086.21 387.408 1086.24 387.454 1086.27 387.497C1086.42 387.681 1086.57 387.855 1086.74 388.026C1086.76 388.052 1086.78 388.08 1086.81 388.105C1086.98 388.286 1087.17 388.458 1087.36 388.623L1087.4 388.66C1087.6 388.833 1087.81 388.997 1088.02 389.152L1088.03 389.159C1088.73 389.658 1089.5 390.052 1090.31 390.326V398.694C1089.52 398.963 1088.76 399.346 1088.07 399.831C1087.81 400.017 1087.56 400.217 1087.32 400.431L1087.22 400.52C1087 400.715 1086.8 400.919 1086.61 401.134C1086.58 401.169 1086.54 401.203 1086.51 401.234C1086.3 401.475 1086.1 401.727 1085.91 401.99L1085.9 402.004C1085.71 402.283 1085.53 402.574 1085.37 402.874C1085.36 402.891 1085.36 402.91 1085.35 402.927C1085.21 403.191 1085.08 403.463 1084.97 403.74C1084.94 403.825 1084.91 403.912 1084.87 404C1084.79 404.218 1084.72 404.438 1084.66 404.664C1084.63 404.764 1084.6 404.873 1084.58 404.979C1084.53 405.204 1084.49 405.433 1084.45 405.665C1084.44 405.765 1084.42 405.865 1084.4 405.965C1084.36 406.299 1084.34 406.635 1084.34 406.971V419.162C1084.34 419.456 1084.36 419.75 1084.39 420.043C1084.4 420.148 1084.42 420.25 1084.43 420.355C1084.46 420.537 1084.48 420.72 1084.52 420.898C1084.54 421.029 1084.58 421.155 1084.62 421.284C1084.65 421.43 1084.68 421.578 1084.73 421.722C1084.77 421.866 1084.83 422.011 1084.88 422.154C1084.93 422.273 1084.97 422.394 1085.01 422.51C1085.08 422.668 1085.16 422.82 1085.23 422.974C1085.28 423.069 1085.32 423.166 1085.37 423.259C1085.46 423.426 1085.56 423.587 1085.66 423.748C1085.7 423.82 1085.74 423.894 1085.79 423.965C1085.9 424.138 1086.03 424.303 1086.15 424.465C1086.19 424.517 1086.23 424.57 1086.27 424.621C1086.41 424.796 1086.56 424.963 1086.71 425.128C1086.74 425.162 1086.77 425.197 1086.81 425.228C1086.97 425.401 1087.15 425.565 1087.33 425.728C1087.35 425.747 1087.37 425.768 1087.4 425.788C1087.59 425.954 1087.79 426.11 1088 426.259L1088.03 426.287C1088.25 426.441 1088.47 426.587 1088.71 426.719L1088.72 426.726C1089.22 427.02 1089.76 427.262 1090.31 427.449V435.817C1089.51 436.086 1088.76 436.469 1088.07 436.954C1087.8 437.14 1087.55 437.34 1087.31 437.554L1087.22 437.638C1087 437.838 1086.79 438.045 1086.6 438.26L1086.51 438.36C1086.07 438.864 1085.69 439.416 1085.37 440.006C1085.36 440.018 1085.36 440.032 1085.35 440.045C1085.21 440.314 1085.08 440.59 1084.97 440.872C1084.94 440.955 1084.91 441.041 1084.88 441.125C1084.8 441.345 1084.73 441.567 1084.67 441.795C1084.64 441.895 1084.61 442.002 1084.59 442.107C1084.53 442.333 1084.49 442.563 1084.46 442.795C1084.44 442.895 1084.42 442.995 1084.41 443.095C1084.37 443.429 1084.35 443.765 1084.35 444.101V456.301C1084.35 456.595 1084.36 456.889 1084.39 457.182C1084.4 457.29 1084.43 457.395 1084.44 457.501C1084.47 457.68 1084.49 457.861 1084.52 458.036C1084.55 458.171 1084.59 458.302 1084.62 458.436C1084.66 458.57 1084.69 458.722 1084.73 458.861C1084.78 459 1084.83 459.161 1084.89 459.308C1084.93 459.421 1084.97 459.537 1085.02 459.648C1085.08 459.812 1085.16 459.97 1085.24 460.128C1085.28 460.217 1085.32 460.308 1085.37 460.396C1085.46 460.569 1085.57 460.735 1085.67 460.901C1085.71 460.967 1085.75 461.035 1085.79 461.101C1085.91 461.28 1086.04 461.452 1086.17 461.622C1086.2 461.667 1086.24 461.714 1086.27 461.758C1086.42 461.94 1086.57 462.113 1086.73 462.283C1086.76 462.31 1086.78 462.34 1086.8 462.366C1086.98 462.545 1087.16 462.716 1087.35 462.879L1087.39 462.921C1087.59 463.093 1087.8 463.256 1088.02 463.409L1088.03 463.42C1088.73 463.919 1089.5 464.312 1090.31 464.586V472.955C1089.51 473.224 1088.76 473.607 1088.07 474.093C1088.06 474.098 1088.06 474.105 1088.05 474.11C1087.79 474.291 1087.55 474.486 1087.31 474.693L1087.21 474.793C1087 474.984 1086.8 475.184 1086.61 475.393C1086.57 475.43 1086.54 475.466 1086.51 475.504C1086.3 475.743 1086.1 475.994 1085.92 476.255L1085.9 476.271C1085.71 476.55 1085.53 476.841 1085.37 477.141C1085.36 477.158 1085.36 477.177 1085.35 477.195C1085.21 477.459 1085.09 477.73 1084.98 478.007C1084.94 478.092 1084.91 478.179 1084.88 478.266C1084.8 478.484 1084.73 478.705 1084.66 478.931C1084.63 479.031 1084.61 479.14 1084.58 479.246C1084.53 479.472 1084.49 479.701 1084.45 479.932C1084.44 480.032 1084.42 480.132 1084.41 480.232C1084.37 480.566 1084.35 480.902 1084.34 481.238V493.429C1084.35 493.723 1084.36 494.017 1084.39 494.31C1084.4 494.415 1084.42 494.517 1084.44 494.621C1084.46 494.803 1084.48 494.987 1084.52 495.165C1084.55 495.296 1084.58 495.422 1084.62 495.551C1084.66 495.697 1084.69 495.845 1084.73 495.989C1084.78 496.133 1084.83 496.278 1084.89 496.421C1084.93 496.54 1084.97 496.661 1085.02 496.778C1085.08 496.936 1085.16 497.088 1085.23 497.241C1085.28 497.336 1085.32 497.433 1085.37 497.527C1085.46 497.694 1085.56 497.855 1085.66 498.016C1085.7 498.088 1085.74 498.162 1085.79 498.231C1085.91 498.405 1086.03 498.572 1086.16 498.736C1086.2 498.786 1086.23 498.836 1086.27 498.889C1086.41 499.066 1086.56 499.233 1086.72 499.398C1086.75 499.431 1086.78 499.465 1086.81 499.498C1086.98 499.672 1087.15 499.838 1087.34 499.998L1087.4 500.053C1087.6 500.221 1087.8 500.378 1088 500.529L1088.03 500.551C1088.25 500.708 1088.48 500.854 1088.72 500.99C1089.22 501.284 1089.76 501.526 1090.31 501.713V510.082C1089.51 510.351 1088.76 510.733 1088.07 511.218C1087.8 511.404 1087.55 511.604 1087.31 511.818L1087.21 511.905C1087 512.101 1086.79 512.307 1086.6 512.522C1086.57 512.556 1086.53 512.589 1086.5 512.622C1086.29 512.864 1086.09 513.118 1085.9 513.383L1085.9 513.391C1085.7 513.671 1085.53 513.962 1085.36 514.263C1085.36 514.279 1085.35 514.295 1085.34 514.311C1085.2 514.577 1085.08 514.85 1084.97 515.129C1084.93 515.214 1084.9 515.3 1084.87 515.386C1084.79 515.605 1084.72 515.826 1084.66 516.053C1084.63 516.153 1084.6 516.261 1084.58 516.367C1084.53 516.592 1084.49 516.822 1084.45 517.054C1084.44 517.154 1084.42 517.254 1084.41 517.354C1084.37 517.688 1084.34 518.024 1084.34 518.36V530.55C1084.34 530.844 1084.36 531.138 1084.39 531.431C1084.4 531.539 1084.42 531.643 1084.43 531.75C1084.46 531.929 1084.48 532.11 1084.52 532.285C1084.54 532.42 1084.58 532.551 1084.62 532.685C1084.65 532.819 1084.68 532.97 1084.73 533.109C1084.77 533.248 1084.83 533.409 1084.89 533.558C1084.93 533.671 1084.97 533.786 1085.01 533.896C1085.08 534.06 1085.16 534.218 1085.24 534.378C1085.28 534.467 1085.32 534.558 1085.37 534.645C1085.46 534.819 1085.57 534.985 1085.67 535.152C1085.71 535.217 1085.74 535.286 1085.79 535.352C1085.9 535.532 1086.03 535.704 1086.16 535.875C1086.2 535.92 1086.23 535.966 1086.26 536.01C1086.41 536.192 1086.56 536.366 1086.72 536.536C1086.75 536.563 1086.77 536.592 1086.8 536.619C1086.97 536.798 1087.15 536.968 1087.34 537.133C1087.36 537.147 1087.37 537.162 1087.39 537.175C1087.59 537.347 1087.8 537.508 1088.01 537.662L1088.03 537.674C1088.72 538.173 1089.49 538.566 1090.31 538.84V547.209C1089.51 547.477 1088.75 547.86 1088.07 548.345C1087.8 548.531 1087.55 548.731 1087.31 548.945L1087.21 549.033C1086.99 549.228 1086.79 549.433 1086.6 549.648C1086.56 549.683 1086.53 549.716 1086.5 549.748C1086.29 549.991 1086.09 550.245 1085.9 550.51L1085.9 550.518C1085.7 550.798 1085.52 551.089 1085.36 551.39C1085.36 551.405 1085.35 551.421 1085.34 551.436C1085.2 551.703 1085.08 551.976 1084.97 552.256C1084.93 552.34 1084.9 552.427 1084.87 552.512C1084.79 552.731 1084.72 552.953 1084.66 553.18C1084.63 553.28 1084.6 553.388 1084.58 553.494C1084.52 553.72 1084.48 553.949 1084.45 554.182C1084.43 554.282 1084.41 554.382 1084.4 554.482C1084.36 554.816 1084.34 555.152 1084.34 555.489V567.68C1084.34 567.974 1084.36 568.268 1084.39 568.561C1084.4 568.669 1084.42 568.775 1084.43 568.882C1084.46 569.061 1084.48 569.241 1084.51 569.417C1084.54 569.552 1084.58 569.683 1084.61 569.817C1084.65 569.951 1084.68 570.101 1084.72 570.24C1084.77 570.379 1084.83 570.54 1084.88 570.689C1084.93 570.802 1084.96 570.917 1085.01 571.027C1085.08 571.192 1085.16 571.35 1085.23 571.509C1085.28 571.597 1085.32 571.688 1085.36 571.775C1085.46 571.949 1085.56 572.116 1085.66 572.283C1085.7 572.348 1085.74 572.416 1085.78 572.483C1085.9 572.663 1086.03 572.835 1086.16 573.006C1086.2 573.05 1086.23 573.097 1086.26 573.141C1086.41 573.323 1086.56 573.497 1086.72 573.667C1086.75 573.694 1086.77 573.722 1086.8 573.749C1086.97 573.929 1087.15 574.099 1087.34 574.264C1087.36 574.277 1087.37 574.291 1087.39 574.304C1087.59 574.477 1087.79 574.64 1088.01 574.793L1088.02 574.804C1088.72 575.303 1089.49 575.696 1090.31 575.97V583.741C1085.57 584.679 1083.55 589.105 1085.63 597.946C1087.74 606.895 1096.04 607.031 1095.69 615.809C1095.67 617.056 1095.31 618.273 1094.65 619.333C1093.99 620.393 1093.06 621.256 1091.95 621.833C1090.85 622.409 1089.61 622.678 1088.36 622.61C1087.11 622.542 1085.91 622.141 1084.87 621.448C1080.19 617.956 1083.76 614.902 1081.19 614.159C1078.62 613.416 1075.83 619.128 1077.52 623.972C1080.72 633.113 1090.45 635.425 1098.07 633.189C1106.38 630.758 1110.51 622.501 1108.49 614.082ZM1089.35 555.501C1089.35 554.583 1089.69 553.698 1090.3 553.016V555.329C1090.3 555.658 1090.36 555.984 1090.49 556.288C1090.62 556.592 1090.8 556.868 1091.03 557.101C1091.27 557.333 1091.54 557.518 1091.85 557.644C1092.15 557.769 1092.48 557.834 1092.81 557.834C1092.99 557.833 1093.16 557.813 1093.34 557.774C1093.37 557.767 1093.4 557.753 1093.43 557.745C1093.57 557.71 1093.71 557.662 1093.84 557.603C1093.86 557.595 1093.88 557.585 1093.89 557.577C1094.04 557.507 1094.18 557.424 1094.3 557.327C1094.44 557.222 1094.57 557.103 1094.68 556.972C1095.08 556.519 1095.31 555.936 1095.31 555.332V552.511C1095.77 552.857 1096.15 553.308 1096.41 553.827C1096.68 554.347 1096.81 554.92 1096.81 555.501V567.692C1096.81 568.273 1096.68 568.846 1096.41 569.365C1096.15 569.884 1095.77 570.335 1095.31 570.681V567.766C1095.31 567.437 1095.24 567.111 1095.12 566.807C1094.99 566.502 1094.81 566.226 1094.57 565.993C1094.34 565.76 1094.07 565.576 1093.76 565.45C1093.46 565.325 1093.13 565.26 1092.8 565.261C1092.7 565.265 1092.6 565.275 1092.5 565.291C1092.35 565.31 1092.2 565.344 1092.05 565.391C1091.92 565.435 1091.78 565.491 1091.65 565.559L1091.63 565.573C1091.51 565.637 1091.4 565.71 1091.29 565.792C1091.27 565.807 1091.25 565.823 1091.23 565.838C1091.14 565.913 1091.05 565.996 1090.97 566.084C1090.94 566.116 1090.91 566.151 1090.89 566.184C1090.82 566.263 1090.76 566.347 1090.7 566.434C1090.66 566.489 1090.64 566.549 1090.61 566.606C1090.56 566.68 1090.53 566.757 1090.49 566.835C1090.46 566.922 1090.43 567.011 1090.41 567.101C1090.39 567.162 1090.37 567.22 1090.36 567.283C1090.32 567.443 1090.31 567.605 1090.31 567.768V570.178C1089.69 569.496 1089.35 568.611 1089.35 567.694L1089.35 555.501ZM1089.35 518.37C1089.35 517.453 1089.69 516.568 1090.3 515.886V518.201C1090.3 518.866 1090.56 519.503 1091.03 519.973C1091.5 520.443 1092.14 520.707 1092.81 520.707C1092.99 520.706 1093.16 520.686 1093.34 520.647C1093.37 520.64 1093.4 520.626 1093.43 520.618C1093.57 520.582 1093.71 520.534 1093.84 520.475C1093.86 520.467 1093.88 520.457 1093.89 520.448C1094.04 520.378 1094.17 520.295 1094.3 520.199C1094.44 520.094 1094.57 519.976 1094.68 519.845C1095.08 519.392 1095.3 518.809 1095.31 518.205V515.388C1095.77 515.734 1096.15 516.185 1096.41 516.704C1096.68 517.224 1096.81 517.797 1096.81 518.378V530.568C1096.81 531.149 1096.67 531.722 1096.41 532.241C1096.15 532.761 1095.77 533.211 1095.31 533.558V530.74C1095.31 530.411 1095.24 530.085 1095.12 529.781C1094.99 529.476 1094.81 529.2 1094.57 528.967C1094.34 528.734 1094.06 528.55 1093.76 528.424C1093.46 528.299 1093.13 528.234 1092.8 528.235C1092.7 528.239 1092.6 528.249 1092.5 528.265C1092.35 528.284 1092.2 528.318 1092.05 528.365C1091.92 528.409 1091.78 528.465 1091.65 528.533L1091.63 528.547C1091.51 528.611 1091.4 528.684 1091.29 528.766C1091.27 528.781 1091.25 528.797 1091.23 528.812C1091.14 528.887 1091.05 528.97 1090.97 529.058C1090.94 529.09 1090.91 529.125 1090.89 529.158C1090.82 529.237 1090.76 529.321 1090.7 529.408C1090.66 529.463 1090.64 529.523 1090.61 529.58C1090.56 529.654 1090.53 529.731 1090.49 529.809C1090.46 529.896 1090.43 529.985 1090.41 530.075C1090.39 530.136 1090.37 530.194 1090.36 530.257C1090.32 530.417 1090.31 530.579 1090.31 530.742V533.055C1089.69 532.373 1089.35 531.488 1089.35 530.57L1089.35 518.37ZM1089.35 481.239C1089.35 480.322 1089.69 479.437 1090.3 478.755V481.067C1090.3 481.396 1090.36 481.722 1090.49 482.026C1090.62 482.33 1090.8 482.606 1091.03 482.839C1091.27 483.071 1091.54 483.256 1091.85 483.382C1092.15 483.507 1092.48 483.572 1092.81 483.572C1092.99 483.571 1093.16 483.551 1093.34 483.512C1093.37 483.505 1093.4 483.491 1093.44 483.483C1093.58 483.448 1093.72 483.4 1093.85 483.341C1093.87 483.333 1093.88 483.322 1093.9 483.314C1094.04 483.244 1094.18 483.161 1094.31 483.065C1094.45 482.96 1094.57 482.842 1094.69 482.711C1095.09 482.259 1095.31 481.675 1095.31 481.071V478.254C1095.78 478.6 1096.16 479.051 1096.42 479.57C1096.68 480.09 1096.82 480.663 1096.82 481.244V493.435C1096.82 494.016 1096.68 494.589 1096.42 495.108C1096.16 495.627 1095.78 496.078 1095.31 496.424V493.601C1095.31 493.272 1095.25 492.946 1095.12 492.642C1095 492.337 1094.81 492.061 1094.58 491.828C1094.35 491.595 1094.07 491.411 1093.77 491.285C1093.46 491.16 1093.14 491.095 1092.81 491.096C1092.71 491.1 1092.61 491.111 1092.51 491.127C1092.35 491.146 1092.2 491.18 1092.06 491.227C1091.92 491.271 1091.79 491.327 1091.66 491.395L1091.64 491.407C1091.52 491.471 1091.4 491.545 1091.29 491.628C1091.28 491.642 1091.26 491.657 1091.24 491.671C1091.15 491.748 1091.06 491.831 1090.97 491.921C1090.95 491.951 1090.92 491.984 1090.9 492.016C1090.83 492.096 1090.76 492.181 1090.71 492.27C1090.67 492.323 1090.64 492.381 1090.62 492.436C1090.57 492.512 1090.53 492.591 1090.5 492.671C1090.47 492.756 1090.44 492.844 1090.42 492.932C1090.4 492.994 1090.38 493.054 1090.36 493.119C1090.33 493.279 1090.31 493.441 1090.31 493.604V495.916C1089.7 495.234 1089.36 494.349 1089.36 493.432L1089.35 481.239ZM1089.35 444.108C1089.35 443.191 1089.69 442.306 1090.3 441.624V443.936C1090.3 444.601 1090.56 445.238 1091.03 445.708C1091.5 446.178 1092.14 446.442 1092.81 446.442C1092.99 446.441 1093.16 446.421 1093.34 446.382C1093.37 446.375 1093.4 446.361 1093.43 446.353C1093.57 446.318 1093.71 446.27 1093.84 446.211L1093.89 446.185C1094.04 446.115 1094.17 446.031 1094.3 445.935C1094.44 445.83 1094.57 445.712 1094.68 445.581C1095.08 445.128 1095.3 444.545 1095.3 443.941V441.124C1095.77 441.47 1096.15 441.921 1096.41 442.44C1096.67 442.96 1096.81 443.533 1096.81 444.114V456.301C1096.81 456.882 1096.67 457.455 1096.41 457.974C1096.15 458.493 1095.77 458.944 1095.3 459.29V456.471C1095.31 456.142 1095.24 455.816 1095.12 455.512C1094.99 455.207 1094.81 454.931 1094.57 454.698C1094.34 454.465 1094.06 454.281 1093.76 454.155C1093.46 454.03 1093.13 453.965 1092.8 453.966C1092.39 453.969 1091.99 454.072 1091.64 454.266L1091.62 454.273C1091.5 454.338 1091.38 454.414 1091.27 454.499C1091.26 454.511 1091.24 454.525 1091.23 454.538C1091.13 454.616 1091.04 454.7 1090.95 454.791C1090.93 454.821 1090.9 454.853 1090.88 454.884C1090.81 454.965 1090.74 455.05 1090.69 455.139C1090.65 455.193 1090.62 455.251 1090.59 455.308C1090.55 455.383 1090.51 455.461 1090.48 455.54C1090.45 455.627 1090.42 455.715 1090.4 455.805C1090.38 455.867 1090.35 455.925 1090.34 455.988C1090.31 456.148 1090.29 456.31 1090.29 456.473V458.786C1089.68 458.104 1089.34 457.219 1089.34 456.302L1089.35 444.108ZM1089.35 406.977C1089.35 406.06 1089.69 405.175 1090.3 404.493V406.801C1090.3 407.13 1090.36 407.456 1090.49 407.76C1090.62 408.064 1090.8 408.34 1091.03 408.573C1091.27 408.805 1091.54 408.99 1091.85 409.116C1092.15 409.241 1092.48 409.306 1092.81 409.306C1092.99 409.305 1093.16 409.285 1093.34 409.246C1093.37 409.239 1093.4 409.225 1093.43 409.217C1093.57 409.182 1093.71 409.134 1093.84 409.075C1093.86 409.067 1093.88 409.056 1093.89 409.048C1094.04 408.978 1094.18 408.894 1094.3 408.798H1094.31C1094.45 408.693 1094.57 408.575 1094.69 408.445C1095.09 407.992 1095.31 407.409 1095.31 406.805V403.988C1095.78 404.334 1096.16 404.785 1096.42 405.304C1096.68 405.823 1096.82 406.396 1096.82 406.977V419.168C1096.82 419.749 1096.68 420.322 1096.42 420.841C1096.16 421.36 1095.78 421.811 1095.31 422.157V419.34C1095.31 419.011 1095.25 418.685 1095.12 418.381C1094.99 418.077 1094.81 417.801 1094.58 417.568C1094.34 417.335 1094.07 417.151 1093.76 417.025C1093.46 416.899 1093.13 416.834 1092.81 416.834C1092.71 416.838 1092.61 416.848 1092.51 416.865C1092.35 416.884 1092.21 416.918 1092.06 416.965H1092.05C1091.92 417.009 1091.78 417.065 1091.65 417.132L1091.63 417.146C1091.51 417.21 1091.39 417.283 1091.29 417.365C1091.27 417.38 1091.25 417.396 1091.23 417.412C1091.14 417.487 1091.05 417.57 1090.97 417.658C1090.94 417.69 1090.91 417.725 1090.88 417.758C1090.82 417.837 1090.75 417.921 1090.7 418.008C1090.66 418.063 1090.63 418.123 1090.6 418.18C1090.56 418.255 1090.52 418.331 1090.49 418.41C1090.46 418.497 1090.43 418.586 1090.41 418.676C1090.39 418.737 1090.37 418.796 1090.35 418.858C1090.32 419.018 1090.31 419.18 1090.31 419.343V421.655C1089.69 420.973 1089.35 420.088 1089.35 419.171L1089.35 406.977ZM1089.35 369.846C1089.35 368.929 1089.69 368.044 1090.3 367.362V369.673C1090.3 370.338 1090.56 370.975 1091.03 371.445C1091.5 371.915 1092.14 372.179 1092.81 372.179C1092.99 372.178 1093.16 372.158 1093.34 372.119C1093.37 372.112 1093.4 372.098 1093.44 372.09C1093.58 372.055 1093.72 372.007 1093.85 371.948C1093.87 371.94 1093.88 371.929 1093.9 371.921C1094.04 371.851 1094.18 371.768 1094.31 371.673L1094.32 371.666C1094.45 371.562 1094.58 371.446 1094.69 371.317C1095.09 370.864 1095.31 370.28 1095.31 369.675V366.858C1095.78 367.204 1096.16 367.655 1096.42 368.174C1096.68 368.693 1096.82 369.266 1096.82 369.847V382.039C1096.82 382.62 1096.68 383.193 1096.42 383.713C1096.16 384.232 1095.78 384.683 1095.31 385.029V382.211C1095.31 381.882 1095.25 381.556 1095.12 381.252C1095 380.947 1094.81 380.671 1094.58 380.438C1094.35 380.205 1094.07 380.021 1093.77 379.895C1093.46 379.77 1093.14 379.705 1092.81 379.706C1092.71 379.71 1092.61 379.72 1092.51 379.737C1092.36 379.756 1092.21 379.79 1092.06 379.837C1091.92 379.881 1091.79 379.937 1091.66 380.005L1091.64 380.018C1091.52 380.082 1091.4 380.155 1091.3 380.238C1091.28 380.252 1091.26 380.269 1091.24 380.283C1091.15 380.359 1091.06 380.441 1090.98 380.53C1090.95 380.562 1090.92 380.596 1090.89 380.63C1090.83 380.709 1090.76 380.793 1090.71 380.88C1090.67 380.935 1090.64 380.994 1090.61 381.052C1090.57 381.128 1090.53 381.201 1090.5 381.282C1090.47 381.369 1090.44 381.458 1090.42 381.548C1090.4 381.609 1090.38 381.667 1090.36 381.73C1090.33 381.89 1090.32 382.052 1090.31 382.215V384.528C1089.7 383.846 1089.36 382.961 1089.36 382.044L1089.35 369.846ZM1089.35 332.715C1089.35 331.798 1089.69 330.913 1090.3 330.231V332.544C1090.3 333.208 1090.56 333.846 1091.03 334.315C1091.5 334.785 1092.14 335.049 1092.81 335.049C1092.99 335.048 1093.16 335.028 1093.34 334.989C1093.37 334.982 1093.4 334.968 1093.44 334.959C1093.58 334.924 1093.72 334.877 1093.85 334.818C1093.87 334.809 1093.88 334.799 1093.9 334.79C1094.04 334.72 1094.18 334.637 1094.31 334.542L1094.31 334.534C1094.45 334.43 1094.58 334.313 1094.69 334.184C1095.09 333.732 1095.31 333.148 1095.31 332.544V329.726C1095.78 330.072 1096.16 330.523 1096.42 331.042C1096.68 331.561 1096.82 332.134 1096.82 332.715V344.907C1096.82 345.488 1096.68 346.061 1096.42 346.58C1096.16 347.1 1095.78 347.55 1095.31 347.897V345.079C1095.31 344.75 1095.25 344.424 1095.12 344.12C1095 343.815 1094.81 343.539 1094.58 343.306C1094.35 343.073 1094.07 342.889 1093.77 342.763C1093.46 342.638 1093.14 342.573 1092.81 342.574C1092.71 342.578 1092.61 342.588 1092.51 342.604C1092.36 342.623 1092.21 342.657 1092.06 342.704C1091.92 342.748 1091.79 342.804 1091.66 342.872L1091.64 342.886C1091.52 342.95 1091.4 343.023 1091.3 343.105L1091.24 343.151C1091.15 343.227 1091.06 343.31 1090.97 343.398C1090.95 343.429 1090.92 343.464 1090.89 343.498C1090.83 343.578 1090.76 343.661 1090.71 343.748C1090.67 343.803 1090.64 343.862 1090.61 343.92C1090.57 343.996 1090.53 344.069 1090.5 344.15C1090.47 344.237 1090.44 344.326 1090.42 344.416C1090.4 344.477 1090.37 344.535 1090.36 344.598C1090.33 344.758 1090.31 344.92 1090.31 345.083V347.396C1089.7 346.714 1089.36 345.829 1089.36 344.912L1089.35 332.715ZM1089.35 295.584C1089.35 294.667 1089.69 293.782 1090.3 293.1V295.412C1090.3 296.076 1090.56 296.714 1091.03 297.183C1091.5 297.653 1092.14 297.917 1092.81 297.917C1092.99 297.916 1093.16 297.896 1093.34 297.857C1093.37 297.85 1093.4 297.836 1093.43 297.828C1093.57 297.792 1093.71 297.744 1093.84 297.685C1093.86 297.677 1093.88 297.666 1093.89 297.658C1094.04 297.589 1094.17 297.506 1094.3 297.41L1094.31 297.402C1094.45 297.299 1094.57 297.182 1094.68 297.053C1095.08 296.6 1095.31 296.017 1095.31 295.412V292.595C1095.77 292.941 1096.15 293.392 1096.42 293.911C1096.68 294.431 1096.81 295.004 1096.81 295.585V307.776C1096.81 308.357 1096.68 308.93 1096.42 309.45C1096.15 309.969 1095.77 310.419 1095.31 310.766V307.948C1095.31 307.619 1095.24 307.293 1095.12 306.989C1094.99 306.685 1094.81 306.409 1094.57 306.176C1094.34 305.943 1094.07 305.759 1093.76 305.633C1093.46 305.507 1093.13 305.442 1092.8 305.442C1092.4 305.445 1092 305.548 1091.64 305.742L1091.63 305.749C1091.5 305.814 1091.39 305.889 1091.28 305.974C1091.26 305.986 1091.24 306 1091.23 306.013C1091.13 306.091 1091.04 306.175 1090.96 306.266C1090.93 306.296 1090.91 306.328 1090.88 306.359C1090.81 306.44 1090.75 306.525 1090.69 306.614C1090.65 306.668 1090.63 306.726 1090.6 306.783C1090.55 306.858 1090.52 306.936 1090.48 307.015C1090.45 307.102 1090.42 307.19 1090.4 307.28C1090.38 307.341 1090.36 307.399 1090.34 307.463C1090.31 307.623 1090.3 307.785 1090.3 307.948V310.261C1089.68 309.579 1089.34 308.694 1089.34 307.777L1089.35 295.584ZM1089.35 258.453C1089.35 257.536 1089.69 256.651 1090.3 255.969V258.281C1090.3 258.946 1090.56 259.583 1091.03 260.053C1091.5 260.523 1092.14 260.787 1092.81 260.787C1092.99 260.786 1093.16 260.766 1093.34 260.727C1093.37 260.72 1093.4 260.706 1093.44 260.698C1093.58 260.663 1093.72 260.615 1093.85 260.555C1093.87 260.547 1093.88 260.537 1093.9 260.529C1094.04 260.459 1094.18 260.375 1094.31 260.279C1094.62 260.046 1094.87 259.744 1095.05 259.397C1095.22 259.05 1095.31 258.667 1095.31 258.279V255.462C1095.78 255.808 1096.15 256.259 1096.42 256.778C1096.68 257.297 1096.81 257.87 1096.81 258.451V270.643C1096.81 271.224 1096.68 271.797 1096.42 272.317C1096.15 272.836 1095.78 273.286 1095.31 273.633V270.815C1095.31 270.486 1095.25 270.16 1095.12 269.856C1094.99 269.551 1094.81 269.275 1094.58 269.042C1094.34 268.809 1094.07 268.625 1093.76 268.499C1093.46 268.374 1093.13 268.309 1092.8 268.31C1092.7 268.314 1092.6 268.324 1092.5 268.341C1092.35 268.36 1092.2 268.394 1092.06 268.441C1091.92 268.485 1091.78 268.541 1091.66 268.608L1091.63 268.622C1091.51 268.686 1091.4 268.759 1091.29 268.841C1091.27 268.856 1091.25 268.872 1091.23 268.888C1091.14 268.964 1091.05 269.046 1090.97 269.134C1090.94 269.166 1090.91 269.201 1090.89 269.234C1090.82 269.313 1090.76 269.396 1090.7 269.483C1090.66 269.538 1090.64 269.598 1090.61 269.656C1090.56 269.73 1090.53 269.806 1090.49 269.884C1090.46 269.971 1090.43 270.06 1090.41 270.15C1090.39 270.211 1090.37 270.269 1090.36 270.332C1090.32 270.492 1090.31 270.654 1090.31 270.817V273.13C1089.69 272.448 1089.35 271.563 1089.35 270.646L1089.35 258.453ZM1089.35 221.322C1089.35 220.404 1089.69 219.519 1090.3 218.837V221.15C1090.3 221.814 1090.56 222.452 1091.03 222.921C1091.5 223.391 1092.14 223.655 1092.81 223.655C1092.99 223.654 1093.16 223.635 1093.34 223.596C1093.37 223.589 1093.4 223.575 1093.44 223.566C1093.58 223.531 1093.72 223.483 1093.85 223.424C1093.87 223.416 1093.88 223.405 1093.9 223.397C1094.04 223.328 1094.18 223.245 1094.31 223.149L1094.31 223.144C1094.45 223.039 1094.58 222.921 1094.69 222.791C1095.09 222.339 1095.31 221.755 1095.31 221.151V218.332C1095.78 218.679 1096.16 219.129 1096.42 219.648C1096.68 220.168 1096.82 220.741 1096.82 221.322V233.513C1096.82 234.094 1096.68 234.667 1096.42 235.186C1096.16 235.705 1095.78 236.156 1095.31 236.502V233.685C1095.32 233.356 1095.25 233.03 1095.13 232.726C1095 232.421 1094.82 232.145 1094.58 231.912C1094.35 231.679 1094.07 231.495 1093.77 231.369C1093.47 231.244 1093.14 231.179 1092.81 231.18C1092.71 231.184 1092.61 231.194 1092.51 231.211C1092.36 231.23 1092.21 231.264 1092.06 231.311C1091.92 231.355 1091.79 231.412 1091.66 231.48L1091.63 231.492C1091.51 231.556 1091.4 231.63 1091.29 231.713C1091.27 231.727 1091.26 231.742 1091.24 231.756C1091.14 231.833 1091.05 231.916 1090.97 232.006C1090.94 232.037 1090.92 232.069 1090.89 232.101C1090.82 232.182 1090.76 232.267 1090.7 232.356C1090.67 232.409 1090.64 232.467 1090.61 232.522C1090.57 232.6 1090.53 232.675 1090.49 232.757C1090.46 232.842 1090.44 232.93 1090.41 233.018C1090.4 233.08 1090.37 233.14 1090.36 233.204C1090.33 233.364 1090.31 233.526 1090.31 233.689V236.001C1089.7 235.319 1089.36 234.434 1089.36 233.517L1089.35 221.322ZM1089.35 184.191C1089.35 183.274 1089.69 182.389 1090.3 181.707V184.019C1090.3 184.683 1090.56 185.321 1091.03 185.79C1091.5 186.26 1092.14 186.524 1092.81 186.524C1092.99 186.523 1093.16 186.503 1093.34 186.464C1093.37 186.457 1093.4 186.443 1093.44 186.435C1093.58 186.4 1093.72 186.352 1093.85 186.293C1093.87 186.285 1093.88 186.274 1093.9 186.266C1094.04 186.196 1094.18 186.112 1094.31 186.016C1094.62 185.784 1094.87 185.483 1095.04 185.137C1095.22 184.79 1095.31 184.408 1095.31 184.021V181.201C1095.78 181.547 1096.15 181.998 1096.42 182.517C1096.68 183.036 1096.81 183.609 1096.81 184.19V196.382C1096.81 196.963 1096.68 197.536 1096.42 198.055C1096.15 198.574 1095.78 199.025 1095.31 199.371V196.554C1095.31 196.225 1095.25 195.899 1095.12 195.594C1094.99 195.29 1094.81 195.013 1094.58 194.781C1094.34 194.548 1094.07 194.363 1093.76 194.237C1093.46 194.112 1093.13 194.047 1092.8 194.048C1092.7 194.052 1092.6 194.063 1092.5 194.079C1092.35 194.099 1092.2 194.132 1092.05 194.179C1091.91 194.223 1091.78 194.28 1091.65 194.348L1091.63 194.36C1091.51 194.424 1091.39 194.498 1091.28 194.581C1091.27 194.594 1091.25 194.609 1091.23 194.623C1091.14 194.7 1091.05 194.784 1090.96 194.874C1090.93 194.904 1090.91 194.937 1090.88 194.968C1090.82 195.049 1090.75 195.134 1090.69 195.223C1090.66 195.275 1090.63 195.333 1090.6 195.388C1090.56 195.465 1090.52 195.543 1090.49 195.624C1090.45 195.709 1090.43 195.797 1090.4 195.885C1090.39 195.947 1090.36 196.007 1090.35 196.072C1090.32 196.232 1090.3 196.394 1090.3 196.557V198.869C1089.69 198.187 1089.35 197.302 1089.35 196.385L1089.35 184.191ZM1089.35 147.06C1089.35 146.143 1089.69 145.258 1090.3 144.576V146.888C1090.3 147.552 1090.56 148.19 1091.03 148.659C1091.5 149.129 1092.14 149.393 1092.81 149.393C1092.99 149.392 1093.16 149.372 1093.34 149.333C1093.37 149.325 1093.4 149.312 1093.44 149.303C1093.58 149.268 1093.72 149.22 1093.85 149.161C1093.86 149.153 1093.88 149.142 1093.9 149.134C1094.04 149.065 1094.18 148.982 1094.31 148.886H1094.31C1094.45 148.781 1094.58 148.663 1094.69 148.532C1095.09 148.079 1095.31 147.496 1095.31 146.892V144.074C1095.78 144.42 1096.16 144.871 1096.42 145.39C1096.68 145.909 1096.82 146.482 1096.82 147.063V159.255C1096.82 159.836 1096.68 160.409 1096.42 160.928C1096.16 161.446 1095.78 161.897 1095.31 162.243V159.426C1095.31 159.097 1095.25 158.771 1095.12 158.467C1095 158.162 1094.81 157.886 1094.58 157.653C1094.35 157.42 1094.07 157.236 1093.77 157.11C1093.46 156.985 1093.14 156.92 1092.81 156.921C1092.71 156.925 1092.61 156.935 1092.51 156.952C1092.36 156.971 1092.21 157.005 1092.06 157.052C1091.92 157.096 1091.79 157.153 1091.66 157.221L1091.64 157.233C1091.52 157.297 1091.4 157.371 1091.29 157.454C1091.28 157.468 1091.26 157.483 1091.24 157.497C1091.15 157.574 1091.06 157.657 1090.97 157.747C1090.95 157.778 1090.92 157.81 1090.9 157.847C1090.83 157.927 1090.76 158.012 1090.71 158.101C1090.67 158.154 1090.65 158.212 1090.62 158.267C1090.57 158.345 1090.53 158.42 1090.5 158.502C1090.47 158.587 1090.44 158.675 1090.42 158.763C1090.4 158.825 1090.38 158.885 1090.36 158.949C1090.33 159.109 1090.32 159.271 1090.31 159.434V161.746C1089.7 161.064 1089.36 160.18 1089.36 159.263L1089.35 147.06ZM1089.35 109.93C1089.35 109.013 1089.69 108.128 1090.3 107.446V109.758C1090.3 110.422 1090.56 111.06 1091.03 111.529C1091.5 111.999 1092.14 112.263 1092.81 112.263C1092.99 112.262 1093.16 112.243 1093.34 112.204C1093.37 112.197 1093.4 112.183 1093.44 112.174C1093.58 112.139 1093.72 112.091 1093.85 112.032C1093.87 112.024 1093.88 112.013 1093.9 112.005C1094.04 111.935 1094.18 111.852 1094.31 111.757L1094.31 111.751C1094.45 111.647 1094.58 111.529 1094.69 111.399C1095.09 110.947 1095.31 110.363 1095.31 109.759V106.941C1095.78 107.287 1096.16 107.738 1096.42 108.257C1096.68 108.777 1096.82 109.35 1096.82 109.931V122.121C1096.82 122.702 1096.68 123.275 1096.42 123.795C1096.16 124.314 1095.78 124.765 1095.31 125.111V122.294C1095.32 121.965 1095.25 121.639 1095.12 121.335C1095 121.031 1094.81 120.755 1094.58 120.522C1094.35 120.289 1094.07 120.105 1093.77 119.979C1093.46 119.853 1093.14 119.788 1092.81 119.788C1092.71 119.792 1092.61 119.803 1092.51 119.819H1092.5C1092.35 119.837 1092.21 119.868 1092.07 119.912L1092.05 119.918C1091.92 119.962 1091.78 120.016 1091.66 120.082L1091.62 120.101C1091.51 120.164 1091.4 120.236 1091.29 120.316C1091.27 120.332 1091.25 120.35 1091.23 120.368C1091.14 120.442 1091.05 120.523 1090.97 120.609C1090.94 120.643 1090.91 120.68 1090.88 120.715C1090.82 120.792 1090.76 120.873 1090.7 120.958C1090.66 121.015 1090.63 121.078 1090.6 121.138C1090.56 121.21 1090.52 121.284 1090.49 121.36C1090.46 121.449 1090.43 121.54 1090.4 121.633C1090.39 121.692 1090.37 121.748 1090.35 121.809C1090.32 121.969 1090.31 122.132 1090.3 122.295V124.601C1089.69 123.919 1089.35 123.034 1089.35 122.117L1089.35 109.93ZM1089.35 72.799C1089.35 71.8817 1089.69 70.9969 1090.3 70.315V72.628C1090.3 72.957 1090.36 73.2828 1090.49 73.5868C1090.62 73.8908 1090.8 74.167 1091.03 74.3996C1091.27 74.6323 1091.54 74.8167 1091.85 74.9426C1092.15 75.0684 1092.48 75.1331 1092.81 75.133C1092.99 75.1321 1093.16 75.112 1093.34 75.073C1093.37 75.066 1093.4 75.052 1093.43 75.044C1093.58 75.0087 1093.71 74.9608 1093.85 74.901C1093.86 74.893 1093.88 74.882 1093.9 74.874C1094.04 74.8044 1094.18 74.721 1094.31 74.625H1094.31C1094.45 74.5206 1094.58 74.4023 1094.69 74.272C1095.09 73.8194 1095.31 73.2363 1095.31 72.632V69.814C1095.78 70.1604 1096.16 70.6112 1096.42 71.1304C1096.68 71.6496 1096.82 72.2227 1096.82 72.804V84.994C1096.82 85.5752 1096.68 86.1483 1096.42 86.6675C1096.16 87.1866 1095.78 87.6375 1095.31 87.984V85.166C1095.31 84.8368 1095.25 84.5108 1095.12 84.2066C1095 83.9024 1094.81 83.6259 1094.58 83.3932C1094.35 83.1604 1094.07 82.976 1093.77 82.8503C1093.46 82.7247 1093.14 82.6603 1092.81 82.661C1092.71 82.6647 1092.61 82.6748 1092.51 82.691C1092.36 82.7104 1092.21 82.7439 1092.06 82.791C1091.92 82.835 1091.79 82.8908 1091.66 82.958L1091.63 82.972C1091.52 83.0355 1091.4 83.1087 1091.29 83.191C1091.28 83.205 1091.26 83.222 1091.24 83.236C1091.15 83.3117 1091.06 83.3943 1090.97 83.483C1090.95 83.515 1090.92 83.549 1090.89 83.583C1090.83 83.6621 1090.76 83.7456 1090.71 83.833C1090.67 83.888 1090.64 83.947 1090.61 84.005C1090.57 84.081 1090.53 84.154 1090.5 84.235C1090.47 84.3221 1090.44 84.4109 1090.42 84.501C1090.4 84.562 1090.37 84.62 1090.36 84.683C1090.33 84.8427 1090.31 85.0051 1090.31 85.168V87.481C1089.7 86.7987 1089.36 85.9136 1089.36 84.996L1089.35 72.799Z" fill="#180919"/>
</svg>
