<svg width="1920" height="960" viewBox="0 0 1920 960" fill="none" xmlns="http://www.w3.org/2000/svg">
<g clip-path="url(#clip0_213_57090)">
<path d="M786 -1.5L770.975 219.373L-2.5 208V259.5L811.601 279.131L897 -4L786 -1.5Z" fill="#251733"/>
<path d="M786 -1.5L770.975 219.373L-2.5 208V259.5L811.601 279.131L897 -4L786 -1.5Z" fill="url(#paint0_linear_213_57090)"/>
<path d="M786 -1.5L770.975 219.373L-2.5 208V259.5L811.601 279.131L897 -4L786 -1.5Z" fill="url(#paint1_linear_213_57090)"/>
<path fill-rule="evenodd" clip-rule="evenodd" d="M770.975 219.373L786 -1.5L897 -4L812.425 276.398L766.258 219.304L770.975 219.373Z" fill="url(#paint2_linear_213_57090)"/>
<path fill-rule="evenodd" clip-rule="evenodd" d="M764.964 219.285L-2.5 208V259.5L809.816 279.088L764.964 219.285Z" fill="url(#paint3_linear_213_57090)"/>
<path d="M674.868 283.658H660.735L659.749 209.835H675.854L674.868 283.658Z" fill="#0F0C20"/>
<path d="M823.741 280.483L812.556 289.109L755.227 213.907L767.975 204.073L823.741 280.483Z" fill="#0F0C20"/>
<path d="M517.52 279.131H503.392L502.402 205.308H518.51L517.52 279.131Z" fill="#0F0C20"/>
<path d="M373.168 279.131H359.035L358.049 205.308H374.154L373.168 279.131Z" fill="#0F0C20"/>
<path d="M243.178 273.388H229.046L228.06 199.565H244.165L243.178 273.388Z" fill="#0F0C20"/>
<path fill-rule="evenodd" clip-rule="evenodd" d="M204.301 964.112C204.301 964.112 190.968 974.062 177.092 962.128L178.27 632H205.092L204.298 964.112H204.301Z" fill="url(#paint4_linear_213_57090)"/>
<path fill-rule="evenodd" clip-rule="evenodd" d="M204.301 964.232C204.301 964.232 190.968 973.874 177.092 962.31L178.27 632H205.092L204.298 964.232H204.301Z" fill="url(#paint5_linear_213_57090)"/>
<path fill-rule="evenodd" clip-rule="evenodd" d="M204.301 964.232C204.301 964.232 190.968 973.874 177.092 962.31L178.27 632H205.092L204.298 964.232H204.301Z" fill="url(#paint6_linear_213_57090)"/>
<path fill-rule="evenodd" clip-rule="evenodd" d="M180.991 592.442H152.413C147.953 604.128 152.413 619.037 152.413 619.037H170.597C178.497 620.627 176.843 631.964 176.843 631.964V638.971C176.876 638.982 176.896 638.993 176.93 638.993C177.615 639.134 181.99 640.049 187.104 640.507C188.823 640.659 190.632 640.757 192.404 640.757C199.596 640.757 208.127 638.974 208.127 638.974L207.726 626.187C206.855 597.318 180.988 592.442 180.988 592.442H180.991Z" fill="url(#paint7_linear_213_57090)"/>
<path style="mix-blend-mode:multiply" opacity="0.6" fill-rule="evenodd" clip-rule="evenodd" d="M204.757 639.586V640.105C204.757 640.105 191.39 644.792 177.935 642.321V639.195C177.935 639.195 189.469 642.571 204.757 639.586Z" fill="url(#paint8_linear_213_57090)"/>
<path style="mix-blend-mode:multiply" opacity="0.6" fill-rule="evenodd" clip-rule="evenodd" d="M152.416 619.037H170.6C178.5 620.627 176.845 631.964 176.845 631.964V638.971C176.879 638.982 176.899 638.993 176.933 638.993C182.046 640.484 187.085 640.636 187.085 640.636C187.085 640.636 187.096 640.594 187.107 640.507C187.455 638.667 191.263 617.751 184.279 618.231C176.955 618.731 152.416 619.037 152.416 619.037Z" fill="url(#paint9_linear_213_57090)"/>
<g style="mix-blend-mode:soft-light">
<path fill-rule="evenodd" clip-rule="evenodd" d="M203.845 626.76C203.845 626.76 197.464 620.624 197.262 610.519C197.262 610.519 202.932 613.412 203.845 626.76Z" fill="white"/>
</g>
<g style="mix-blend-mode:soft-light">
<path fill-rule="evenodd" clip-rule="evenodd" d="M191.348 605.709C191.348 605.709 187.231 605.709 185.855 602.547C185.855 602.547 189.003 602.96 191.348 605.709Z" fill="white"/>
</g>
<path fill-rule="evenodd" clip-rule="evenodd" d="M151.958 593.757L-5.24525 593.588C-5.24525 593.588 -10.4435 611.339 -4.93634 620.065L152.143 618.02C152.143 618.02 149.43 608.219 151.961 593.759L151.958 593.757Z" fill="url(#paint10_linear_213_57090)"/>
<path fill-rule="evenodd" clip-rule="evenodd" d="M151.958 593.757L-5.24525 593.588C-5.24525 593.588 -10.4435 611.339 -4.93634 620.065L152.143 618.02C152.143 618.02 149.43 608.219 151.961 593.759L151.958 593.757Z" fill="url(#paint11_linear_213_57090)"/>
<path fill-rule="evenodd" clip-rule="evenodd" d="M114.346 572.84L113.52 593.661C113.52 593.661 130.429 601.412 141.974 593.734V572.84H114.346Z" fill="url(#paint12_linear_213_57090)"/>
<path fill-rule="evenodd" clip-rule="evenodd" d="M117.337 572.84L120.749 188.091C120.749 188.091 136.338 179.843 150.436 189.56L139.009 572.84H117.337Z" fill="url(#paint13_linear_213_57090)"/>
<path fill-rule="evenodd" clip-rule="evenodd" d="M117.337 572.84L120.749 188.091C120.749 188.091 136.338 179.843 150.436 189.56L139.009 572.84H117.337Z" fill="url(#paint14_linear_213_57090)"/>
<path fill-rule="evenodd" clip-rule="evenodd" d="M117.337 572.84L120.749 188.091C120.749 188.091 136.338 179.843 150.436 189.56L139.009 572.84H117.337Z" fill="url(#paint15_linear_213_57090)"/>
<g style="mix-blend-mode:multiply" opacity="0.3">
<path d="M207.849 622.222L207.608 621.736C195.956 627.527 177.255 628.313 177.067 628.321L177.09 628.866C177.278 628.858 196.093 628.066 207.849 622.225V622.222Z" fill="#60157A"/>
<path d="M181.263 592.482L180.724 592.406C177.971 611.643 170.487 618.773 170.414 618.843L170.785 619.242C170.861 619.172 178.485 611.907 181.266 592.482H181.263Z" fill="#60157A"/>
<path d="M185.18 640.282V627.906C185.163 627.757 183.529 616.659 174.933 614.274L151.289 612.968L151.259 613.513L174.846 614.808C183.043 617.088 184.627 627.836 184.641 627.942V640.282H185.183H185.18Z" fill="#60157A"/>
<path d="M183.092 640.01L182.601 640L180.697 941.895L176.974 941.67L176.092 972.937L176.584 973L177.436 942.709L181.181 942.938L181.184 942.422L183.092 640.01Z" fill="#60157A"/>
<path d="M-2 610H151V611H-2V610Z" fill="#60157A"/>
<path d="M147.307 168.118L146.763 168.107L146.417 185.477H141.935L141.929 185.741L132.387 573.11H135.105V596.085H135.65V572.568H132.946L142.466 186.019H146.951L147.307 168.118Z" fill="#8425A5"/>
</g>
<path opacity="0.5" fill-rule="evenodd" clip-rule="evenodd" d="M147.308 168.118L146.763 168.107L146.417 185.477H141.935L141.931 185.675C130.724 182.814 120.749 188.091 120.749 188.091L117.337 572.84L114.346 572.84L113.52 593.661C113.52 593.661 113.562 593.68 113.643 593.716L-5.24525 593.588C-5.24525 593.588 -10.4435 611.34 -4.93634 620.065L152.139 618.021C152.305 618.675 152.413 619.037 152.413 619.037H170.595L170.785 619.242C170.788 619.24 170.802 619.226 170.826 619.202C170.849 619.18 170.88 619.149 170.919 619.109C178.451 620.938 176.843 631.964 176.843 631.964V638.971C176.851 638.973 176.858 638.976 176.865 638.979C176.887 638.987 176.904 638.993 176.93 638.993L176.94 638.995C177.272 639.092 177.605 639.183 177.935 639.269V642.321L177.977 642.329L177.367 802.398L176.601 802.376L175.624 819.2L176.169 819.234L177.112 802.935L177.365 802.942L176.843 940.009C176.957 940.101 177.072 940.192 177.187 940.282L177.092 967.225C190.968 978.962 204.301 969.176 204.301 969.176L204.298 811.727L204.302 810.181L205.059 639.536C206.932 639.223 208.127 638.974 208.127 638.974L207.726 626.187C207.686 624.881 207.596 623.625 207.459 622.415C207.59 622.352 207.72 622.289 207.849 622.225V622.222L207.608 621.736C207.536 621.772 207.463 621.808 207.39 621.843C204.419 598.425 183.885 593.089 181.263 592.501L181.266 592.482H181.263L180.999 592.444L180.988 592.442H180.984L180.724 592.406L180.719 592.442H152.413C152.247 592.876 152.094 593.315 151.952 593.757L141.956 593.746L141.974 593.734V572.84L139.009 572.84L150.436 189.56C148.024 187.897 145.568 186.761 143.154 186.019H146.951L147.308 168.118Z" fill="#0C0014"/>
<g clip-path="url(#clip1_213_57090)">
<path fill-rule="evenodd" clip-rule="evenodd" d="M1102.73 -43H1159.81C1159.81 -43 1185.68 -42.3988 1184.79 -16.1781L1191.93 258.933C1191.93 258.933 1191.93 277.01 1209.77 281.297L2275.7 277.921C2275.7 277.921 2282.54 285.014 2275.7 295.391L1205.31 297.177C1205.31 297.177 1177.06 294.329 1175.27 259.789L1167.19 -15.5102C1167.19 -15.5102 1166.95 -26.4102 1154.46 -26.6045L1105.11 -24.133C1105.11 -24.133 1097.97 -34.8205 1102.73 -43Z" fill="url(#paint16_linear_213_57090)"/>
<path fill-rule="evenodd" clip-rule="evenodd" d="M1102.73 -15.4191H1131.57C1131.57 -15.4191 1157.43 -14.8179 1156.55 11.4028L1163.68 286.514C1163.68 286.514 1163.68 304.591 1181.52 308.878L2275.7 305.502C2275.7 305.502 2285.59 316.542 2275.7 330.994L1177.06 324.751C1177.06 324.751 1148.81 321.904 1147.03 287.364L1138.95 12.0647C1138.95 12.0647 1138.7 1.1647 1126.21 0.970381L1105.1 3.44792C1105.1 3.44792 1097.96 -7.23953 1102.72 -15.4191H1102.73Z" fill="url(#paint17_linear_213_57090)"/>
<path fill-rule="evenodd" clip-rule="evenodd" d="M1186.2 38.1517L1180.63 43.7566V76.3351L1187.39 83.8466L1186.2 38.1517Z" fill="#462547"/>
<path fill-rule="evenodd" clip-rule="evenodd" d="M1176.12 41.358V33.8828L1179.41 31.7514L1182.11 33.8828L1177.36 41.358H1176.12Z" fill="#462547"/>
<path fill-rule="evenodd" clip-rule="evenodd" d="M1151.21 77.2277V70.3901L1158.68 65.3379V87.0346L1155.84 84.1988L1154.94 77.8167L1151.21 77.2277Z" fill="#462547"/>
<path fill-rule="evenodd" clip-rule="evenodd" d="M1189.29 324.581L1194.04 319.171H1205.35L1208.91 321.873H1216.35L1222.59 325.085L1189.29 324.581Z" fill="#462547"/>
<path fill-rule="evenodd" clip-rule="evenodd" d="M1184.54 324.581L1181.56 322.128H1172.09L1167.26 325.085L1184.54 324.581Z" fill="#462547"/>
<path fill-rule="evenodd" clip-rule="evenodd" d="M1183.35 281.297L1180.43 278.449L1181.88 273.695L1186.32 277.496V286.477L1183.35 281.297Z" fill="#462547"/>
<path fill-rule="evenodd" clip-rule="evenodd" d="M1159.81 -43H1102.73C1097.97 -34.8205 1105.11 -24.133 1105.11 -24.133L1154.46 -26.6045C1166.95 -26.4102 1167.19 -15.5102 1167.19 -15.5102L1175.27 259.789C1177.06 294.329 1205.31 297.177 1205.31 297.177L2275.7 295.391C2282.54 285.014 2275.7 277.921 2275.7 277.921L1209.77 281.297C1191.93 277.01 1191.93 258.933 1191.93 258.933L1186.2 38.1517L1184.79 -16.1781C1185.68 -42.3988 1159.81 -43 1159.81 -43ZM1131.57 -15.4191H1102.73H1102.72C1097.96 -7.23952 1105.1 3.44792 1105.1 3.44792L1126.21 0.970383C1138.7 1.1647 1138.95 12.0647 1138.95 12.0647L1147.03 287.364C1148.26 311.199 1162.09 319.942 1170.55 323.072L1167.26 325.085L1178.44 324.759L1214.64 324.965L1222.59 325.085L1222.45 325.009L2275.7 330.994C2285.59 316.542 2275.7 305.502 2275.7 305.502L1181.52 308.878C1163.68 304.591 1163.68 286.514 1163.68 286.514L1158.5 86.8601L1158.68 87.0347V65.338L1157.96 65.8251L1156.55 11.4028C1157.43 -14.8179 1131.57 -15.4191 1131.57 -15.4191Z" fill="url(#paint18_linear_213_57090)"/>
<path fill-rule="evenodd" clip-rule="evenodd" d="M1159.81 -43H1102.73C1097.97 -34.8205 1105.11 -24.133 1105.11 -24.133L1154.46 -26.6045C1166.95 -26.4102 1167.19 -15.5102 1167.19 -15.5102L1175.27 259.789C1177.06 294.329 1205.31 297.177 1205.31 297.177L2275.7 295.391C2282.54 285.014 2275.7 277.921 2275.7 277.921L1209.77 281.297C1191.93 277.01 1191.93 258.933 1191.93 258.933L1186.2 38.1517L1184.79 -16.1781C1185.68 -42.3988 1159.81 -43 1159.81 -43ZM1131.57 -15.4191H1102.73H1102.72C1097.96 -7.23952 1105.1 3.44792 1105.1 3.44792L1126.21 0.970383C1138.7 1.1647 1138.95 12.0647 1138.95 12.0647L1147.03 287.364C1148.26 311.199 1162.09 319.942 1170.55 323.072L1167.26 325.085L1178.44 324.759L1214.64 324.965L1222.59 325.085L1222.45 325.009L2275.7 330.994C2285.59 316.542 2275.7 305.502 2275.7 305.502L1181.52 308.878C1163.68 304.591 1163.68 286.514 1163.68 286.514L1158.5 86.8601L1158.68 87.0347V65.338L1157.96 65.8251L1156.55 11.4028C1157.43 -14.8179 1131.57 -15.4191 1131.57 -15.4191Z" fill="url(#paint19_linear_213_57090)"/>
<path fill-rule="evenodd" clip-rule="evenodd" d="M1159.81 -43H1102.73C1097.97 -34.8205 1105.11 -24.133 1105.11 -24.133L1154.46 -26.6045C1166.95 -26.4102 1167.19 -15.5102 1167.19 -15.5102L1175.27 259.789C1177.06 294.329 1205.31 297.177 1205.31 297.177L2275.7 295.391C2282.54 285.014 2275.7 277.921 2275.7 277.921L1209.77 281.297C1191.93 277.01 1191.93 258.933 1191.93 258.933L1186.2 38.1517L1184.79 -16.1781C1185.68 -42.3988 1159.81 -43 1159.81 -43ZM1131.57 -15.4191H1102.73H1102.72C1097.96 -7.23952 1105.1 3.44792 1105.1 3.44792L1126.21 0.970383C1138.7 1.1647 1138.95 12.0647 1138.95 12.0647L1147.03 287.364C1148.26 311.199 1162.09 319.942 1170.55 323.072L1167.26 325.085L1178.44 324.759L1214.64 324.965L1222.59 325.085L1222.45 325.009L2275.7 330.994C2285.59 316.542 2275.7 305.502 2275.7 305.502L1181.52 308.878C1163.68 304.591 1163.68 286.514 1163.68 286.514L1158.5 86.8601L1158.68 87.0347V65.338L1157.96 65.8251L1156.55 11.4028C1157.43 -14.8179 1131.57 -15.4191 1131.57 -15.4191Z" fill="#180919" fill-opacity="0.5"/>
</g>
</g>
<defs>
<linearGradient id="paint0_linear_213_57090" x1="432.5" y1="251.5" x2="782" y2="261" gradientUnits="userSpaceOnUse">
<stop/>
<stop offset="1" stop-color="#251733" stop-opacity="0"/>
</linearGradient>
<linearGradient id="paint1_linear_213_57090" x1="813.5" y1="125.5" x2="785" y2="241" gradientUnits="userSpaceOnUse">
<stop stop-color="#020102"/>
<stop offset="1" stop-color="#251733" stop-opacity="0"/>
</linearGradient>
<linearGradient id="paint2_linear_213_57090" x1="773.5" y1="183.5" x2="832" y2="204" gradientUnits="userSpaceOnUse">
<stop stop-color="#020102"/>
<stop offset="1" stop-color="#251733" stop-opacity="0"/>
</linearGradient>
<linearGradient id="paint3_linear_213_57090" x1="683.5" y1="208" x2="683.5" y2="279" gradientUnits="userSpaceOnUse">
<stop stop-color="#020102"/>
<stop offset="1" stop-color="#251733" stop-opacity="0"/>
</linearGradient>
<linearGradient id="paint4_linear_213_57090" x1="177.092" y1="724.982" x2="205.092" y2="724.982" gradientUnits="userSpaceOnUse">
<stop offset="0.02" stop-color="#825780"/>
<stop offset="1" stop-color="#908CC7"/>
</linearGradient>
<linearGradient id="paint5_linear_213_57090" x1="216.462" y1="752.513" x2="162.296" y2="753.482" gradientUnits="userSpaceOnUse">
<stop stop-color="#825780" stop-opacity="0"/>
<stop offset="1" stop-color="#0C0014"/>
</linearGradient>
<linearGradient id="paint6_linear_213_57090" x1="191" y1="640" x2="190.543" y2="994.999" gradientUnits="userSpaceOnUse">
<stop stop-color="#825780" stop-opacity="0"/>
<stop offset="1" stop-color="#0C0014"/>
</linearGradient>
<linearGradient id="paint7_linear_213_57090" x1="150.433" y1="616.6" x2="521.621" y2="616.6" gradientUnits="userSpaceOnUse">
<stop offset="0.02" stop-color="#434280"/>
<stop offset="1" stop-color="#5778C7"/>
</linearGradient>
<linearGradient id="paint8_linear_213_57090" x1="177.935" y1="641.119" x2="204.757" y2="641.119" gradientUnits="userSpaceOnUse">
<stop stop-color="#977CBA"/>
<stop offset="0.46" stop-color="#9785C2"/>
<stop offset="1" stop-color="#9897D1"/>
</linearGradient>
<linearGradient id="paint9_linear_213_57090" x1="152.413" y1="629.431" x2="188.455" y2="629.431" gradientUnits="userSpaceOnUse">
<stop stop-color="#977CBA"/>
<stop offset="0.14" stop-color="#9E85BE"/>
<stop offset="0.38" stop-color="#B29ECC"/>
<stop offset="0.67" stop-color="#D3C8E2"/>
<stop offset="1" stop-color="white"/>
</linearGradient>
<linearGradient id="paint10_linear_213_57090" x1="152.141" y1="606.826" x2="82.5306" y2="606.826" gradientUnits="userSpaceOnUse">
<stop stop-color="#615B95"/>
<stop offset="0.98" stop-color="#654E64"/>
</linearGradient>
<linearGradient id="paint11_linear_213_57090" x1="217" y1="607" x2="4.00001" y2="607" gradientUnits="userSpaceOnUse">
<stop stop-color="#615B95" stop-opacity="0"/>
<stop offset="1" stop-color="#0F0216"/>
</linearGradient>
<linearGradient id="paint12_linear_213_57090" x1="141.977" y1="584.983" x2="113.52" y2="584.983" gradientUnits="userSpaceOnUse">
<stop stop-color="#464887"/>
<stop offset="1" stop-color="#3F3E7D"/>
</linearGradient>
<linearGradient id="paint13_linear_213_57090" x1="150.433" y1="378.83" x2="117.334" y2="378.83" gradientUnits="userSpaceOnUse">
<stop stop-color="#716CA1"/>
<stop offset="0.98" stop-color="#825780"/>
</linearGradient>
<linearGradient id="paint14_linear_213_57090" x1="111" y1="512.5" x2="150" y2="509" gradientUnits="userSpaceOnUse">
<stop stop-color="#0C0014"/>
<stop offset="0.98" stop-color="#825780" stop-opacity="0"/>
</linearGradient>
<linearGradient id="paint15_linear_213_57090" x1="134" y1="296" x2="134" y2="630" gradientUnits="userSpaceOnUse">
<stop stop-color="#0C0014"/>
<stop offset="0.98" stop-color="#825780" stop-opacity="0"/>
</linearGradient>
<linearGradient id="paint16_linear_213_57090" x1="1689.91" y1="297.177" x2="1689.91" y2="-43" gradientUnits="userSpaceOnUse">
<stop offset="0.02" stop-color="#634A6A"/>
<stop offset="0.13" stop-color="#69516F"/>
<stop offset="0.36" stop-color="#705875"/>
<stop offset="1" stop-color="#725A77"/>
</linearGradient>
<linearGradient id="paint17_linear_213_57090" x1="1690.59" y1="331" x2="1690.59" y2="-15.4191" gradientUnits="userSpaceOnUse">
<stop offset="0.02" stop-color="#634A6A"/>
<stop offset="0.13" stop-color="#69516F"/>
<stop offset="0.36" stop-color="#705875"/>
<stop offset="1" stop-color="#725A77"/>
</linearGradient>
<linearGradient id="paint18_linear_213_57090" x1="1149.09" y1="117.5" x2="1149.09" y2="319.5" gradientUnits="userSpaceOnUse">
<stop stop-color="#180919"/>
<stop offset="1" stop-color="#180919" stop-opacity="0"/>
</linearGradient>
<linearGradient id="paint19_linear_213_57090" x1="1716.59" y1="307.5" x2="1241.59" y2="304.5" gradientUnits="userSpaceOnUse">
<stop stop-color="#180919"/>
<stop offset="1" stop-color="#180919" stop-opacity="0"/>
</linearGradient>
<clipPath id="clip0_213_57090">
<rect width="1920" height="960" fill="white"/>
</clipPath>
<clipPath id="clip1_213_57090">
<rect width="1179" height="374" fill="white" transform="translate(1101.09 -43)"/>
</clipPath>
</defs>
</svg>
