<svg width="1920" height="1080" viewBox="0 0 1920 1080" fill="none" xmlns="http://www.w3.org/2000/svg">
<path d="M768.46 802.58L767.504 800.572L690.782 800L649.732 801.672L648.958 804.147L650.716 805.819H654.515C654.935 806.524 655.697 807 656.575 807C657.454 807 658.216 806.524 658.635 805.819H660.887C661.307 806.524 662.069 807 662.947 807C663.667 807 664.306 806.679 664.747 806.179C665.188 806.679 665.826 807 666.546 807C667.425 807 668.186 806.524 668.606 805.819H670.858C671.278 806.524 672.04 807 672.918 807C673.797 807 674.559 806.524 674.978 805.819H771.987C772.406 806.524 773.168 807 774.047 807C774.925 807 775.687 806.524 776.107 805.819H778.359C778.779 806.524 779.54 807 780.419 807C781.139 807 781.777 806.679 782.218 806.179C782.659 806.679 783.298 807 784.018 807C784.896 807 785.658 806.524 786.078 805.819H788.33C788.749 806.524 789.511 807 790.39 807C791.268 807 792.03 806.524 792.45 805.819H804.736L806.877 804.213L772.209 799.664L768.445 802.577L768.46 802.58Z" fill="#526180"/>
<path d="M930.172 802.58L929.215 800.572L852.493 800L811.444 801.672L810.67 804.147L812.427 805.819H816.227C816.646 806.524 817.408 807 818.287 807C819.165 807 819.927 806.524 820.347 805.819H822.599C823.019 806.524 823.78 807 824.659 807C825.379 807 826.017 806.679 826.458 806.179C826.899 806.679 827.538 807 828.257 807C829.136 807 829.898 806.524 830.317 805.819H832.57C832.989 806.524 833.751 807 834.63 807C835.508 807 836.27 806.524 836.69 805.819H933.695C934.115 806.524 934.877 807 935.758 807C936.64 807 937.398 806.524 937.821 805.819H940.073C940.493 806.524 941.255 807 942.133 807C942.853 807 943.492 806.679 943.933 806.179C944.374 806.679 945.012 807 945.732 807C946.614 807 947.372 806.524 947.792 805.819H950.044C950.464 806.524 951.226 807 952.104 807C952.983 807 953.744 806.524 954.164 805.819H966.45L968.591 804.213L933.923 799.664L930.16 802.577L930.172 802.58Z" fill="#526180"/>
<path d="M1277.88 803.209L1274.64 802.769C1274.22 802.412 1273.68 802.187 1273.08 802.187C1272.72 802.187 1272.38 802.274 1272.07 802.418L1260.21 800.803L1166.16 800L1127.07 801.672L1126.46 803.71L1095.65 799.667L1091.88 802.58L1090.93 800.572L1014.2 800L973.155 801.672L972.381 804.147L974.139 805.819H977.938C978.358 806.524 979.119 807 979.998 807C980.877 807 981.638 806.524 982.058 805.819H984.31C984.73 806.524 985.492 807 986.37 807C987.09 807 987.729 806.679 988.17 806.179C988.61 806.679 989.249 807 989.969 807C990.847 807 991.609 806.524 992.032 805.819H994.284C994.704 806.524 995.465 807 996.344 807C997.223 807 997.984 806.524 998.407 805.819H1095.42C1095.84 806.524 1096.6 807 1097.48 807C1098.35 807 1099.12 806.524 1099.54 805.819H1101.79C1102.21 806.524 1102.97 807 1103.85 807C1104.57 807 1105.21 806.679 1105.65 806.179C1106.09 806.679 1106.73 807 1107.45 807C1108.33 807 1109.09 806.524 1109.51 805.819H1111.76C1112.18 806.524 1112.95 807 1113.82 807C1114.7 807 1115.46 806.524 1115.88 805.819H1135.41C1135.83 806.524 1136.59 807 1137.47 807C1138.35 807 1139.11 806.524 1139.54 805.819H1141.79C1142.21 806.524 1142.97 807 1143.85 807C1144.57 807 1145.21 806.679 1145.65 806.179C1146.09 806.679 1146.73 807 1147.45 807C1148.33 807 1149.09 806.524 1149.51 805.819H1151.76C1152.18 806.524 1152.94 807 1153.82 807C1154.7 807 1155.46 806.524 1155.88 805.819H1251.15C1251.57 806.524 1252.33 807 1253.21 807C1254.09 807 1254.85 806.524 1255.27 805.819H1257.52C1257.94 806.524 1258.7 807 1259.58 807C1260.46 807 1261.22 806.524 1261.64 805.819H1264.64C1265.06 806.524 1265.83 807 1266.7 807C1267.58 807 1268.35 806.524 1268.77 805.819H1271.02C1271.44 806.524 1272.2 807 1273.08 807C1274.06 807 1274.9 806.41 1275.28 805.565L1277.87 803.212L1277.88 803.209Z" fill="#526180"/>
<path d="M1240.72 789.008H1245.55C1246.1 789.008 1246.54 789.455 1246.54 790.003V802.73C1246.54 803.278 1246.1 803.725 1245.55 803.725H1240.72C1240.17 803.725 1239.73 803.278 1239.73 802.73V790C1239.73 789.452 1240.17 789.005 1240.72 789.005V789.008Z" fill="#EFEFEF"/>
<path d="M1280.88 800.89C1280.64 799.985 1279.94 798.846 1278.87 797.591C1277.65 796.158 1275.97 794.57 1274 793.018H1274C1271.73 791.232 1269.09 789.482 1266.34 788.049C1265.75 787.738 1265.16 787.45 1264.56 787.171C1261.21 785.625 1257.79 784.615 1254.77 784.615H1252.57L1250.95 783H1241.8L1240.4 784.615H1216.53L1215.39 783.476H1206.75L1205.76 784.615H1164.85L1163.72 783.476H1155.07L1154.08 784.615H1131.57H1104.2L1103.06 783.479H1094.42L1093.43 784.615H1046.7L1045.56 783.479H1036.92L1035.93 784.615H988.782L987.643 783.479H979.003L978.014 784.615H942.485L941.346 783.479H932.706L931.714 784.615H884.991L883.851 783.479H875.212L874.222 784.615H827.071L825.931 783.479H817.292L816.302 784.615H780.774L779.634 783.479H770.995L770.002 784.615H723.276L722.137 783.479H713.497L712.508 784.615H665.359L664.22 783.479H655.58L654.591 784.615H639V804.818H653.292V803.719C653.292 803.008 653.871 802.43 654.579 802.43H662.735C663.449 802.43 664.025 803.008 664.025 803.719V804.818H770.77V803.719C770.77 803.008 771.349 802.43 772.059 802.43H780.216C780.927 802.43 781.502 803.008 781.502 803.719V804.818H815.004V803.719C815.004 803.008 815.583 802.43 816.29 802.43H824.447C825.161 802.43 825.736 803.008 825.736 803.719V804.818H932.481V803.719C932.481 803.008 933.06 802.43 933.771 802.43H941.927C942.641 802.43 943.214 803.008 943.214 803.719V804.818H976.715V803.719C976.715 803.008 977.294 802.43 978.002 802.43H986.158C986.872 802.43 987.445 803.008 987.445 803.719V804.818H1094.19V803.719C1094.19 803.008 1094.77 802.43 1095.48 802.43H1103.63C1104.34 802.43 1104.92 803.008 1104.92 803.719V804.818H1134.3V803.716C1134.3 803.011 1134.88 802.433 1135.59 802.433H1143.75C1144.46 802.433 1145.03 803.011 1145.03 803.716V804.818H1249.61V803.716C1249.61 803.011 1250.18 802.433 1250.9 802.433H1259.05C1259.76 802.433 1260.34 803.011 1260.34 803.716V804.818H1275.87C1275.87 804.818 1281.89 804.818 1280.87 800.893L1280.88 800.89Z" fill="url(#paint0_linear_796_12811)"/>
<path style="mix-blend-mode:overlay" d="M1263.46 786.716C1260.47 785.448 1257.46 784.645 1254.77 784.645H1252.57L1250.95 783.03H1241.8L1240.4 784.645H1216.53L1215.39 783.506H1206.75L1205.76 784.645H1164.85L1163.72 783.506H1155.07L1154.08 784.645H1131.57H1104.2L1103.06 783.509H1094.42L1093.43 784.645H1046.7L1045.56 783.509H1036.92L1035.93 784.645H988.782L987.643 783.509H979.003L978.014 784.645H942.485L941.346 783.509H932.706L931.714 784.645H884.991L883.851 783.509H875.212L874.222 784.645H827.071L825.931 783.509H817.292L816.302 784.645H780.774L779.634 783.509H770.995L770.002 784.645H723.276L722.137 783.509H713.497L712.508 784.645H665.359L664.22 783.509H655.58L654.591 784.645H639V786.716H1263.46Z" fill="url(#paint1_linear_796_12811)"/>
<path style="mix-blend-mode:multiply" d="M794.619 797.591H639V790.935H794.619V797.591ZM956.33 790.935H800.712V797.591H956.33V790.935ZM1118.04 790.935H962.424V797.591H1118.04V790.935ZM1256.62 793.227L1251.71 788.049H1236.98L1234.5 790.938H1123.47V797.594H1262.48L1256.62 793.227Z" fill="url(#paint2_linear_796_12811)"/>
<path d="M1274 793.018H1273.99C1271.73 791.232 1269.08 789.482 1266.33 788.049H1251.1C1249.83 788.049 1248.92 788.478 1249.66 789.521C1249.69 789.56 1249.72 789.596 1249.75 789.635C1250.51 790.614 1251.59 791.933 1252.92 793.32C1253.48 793.893 1254.06 794.477 1254.7 795.049C1257.49 797.585 1262.08 797.597 1262.08 797.597H1278.86C1277.65 796.164 1275.96 794.576 1274 793.024V793.018ZM731.592 792.757V797.591H749.458V792.757H731.592ZM754.82 792.757V797.591H772.686V792.757H754.82ZM708.427 792.757V797.591H726.293V792.757H708.427ZM685.256 792.757V797.591H703.122V792.757H685.256ZM662.091 792.757V797.591H679.957V792.757H662.091ZM893.301 792.757V797.591H911.167V792.757H893.301ZM916.529 792.757V797.591H934.395V792.757H916.529ZM870.135 792.757V797.591H888.002V792.757H870.135ZM846.967 792.757V797.591H864.834V792.757H846.967ZM823.802 792.757V797.591H841.669V792.757H823.802ZM1055.01 792.757V797.591H1072.88V792.757H1055.01ZM1078.24 792.757V797.591H1096.11V792.757H1078.24ZM1031.85 792.757V797.591H1049.71V792.757H1031.85ZM1008.68 792.757V797.591H1026.54V792.757H1008.68ZM985.511 792.757V797.591H1003.38V792.757H985.511ZM1212.23 792.757V797.591H1230.09V792.757H1212.23ZM1189.06 792.757V797.591H1206.93V792.757H1189.06ZM1165.89 792.757V797.591H1183.76V792.757H1165.89ZM1142.73 792.757V797.591H1160.59V792.757H1142.73Z" fill="url(#paint3_linear_796_12811)"/>
<g style="mix-blend-mode:multiply">
<path d="M660.405 783.479L661.542 784.615H665.356L664.22 783.479H660.405Z" fill="#638A99"/>
</g>
<g style="mix-blend-mode:multiply">
<path d="M718.325 783.479L719.462 784.615H723.276L722.14 783.479H718.325Z" fill="#638A99"/>
</g>
<g style="mix-blend-mode:multiply">
<path d="M775.816 783.479L776.956 784.615H780.77L779.634 783.479H775.816Z" fill="#638A99"/>
</g>
<g style="mix-blend-mode:multiply">
<path d="M822.117 783.479L823.253 784.615H827.068L825.931 783.479H822.117Z" fill="#638A99"/>
</g>
<g style="mix-blend-mode:multiply">
<path d="M880.037 783.479L881.174 784.615H884.988L883.851 783.479H880.037Z" fill="#638A99"/>
</g>
<g style="mix-blend-mode:multiply">
<path d="M937.529 783.479L938.668 784.615H942.483L941.346 783.479H937.529Z" fill="#638A99"/>
</g>
<g style="mix-blend-mode:multiply">
<path d="M983.828 783.479L984.965 784.615H988.779L987.642 783.479H983.828Z" fill="#638A99"/>
</g>
<g style="mix-blend-mode:multiply">
<path d="M1041.75 783.479L1042.88 784.615H1046.7L1045.56 783.479H1041.75Z" fill="#638A99"/>
</g>
<g style="mix-blend-mode:multiply">
<path d="M1099.24 783.479L1100.38 784.615H1104.19L1103.06 783.479H1099.24Z" fill="#638A99"/>
</g>
<g style="mix-blend-mode:multiply">
<path d="M800.712 784.615H794.618V804.818H800.712V784.615Z" fill="#638A99"/>
</g>
<g style="mix-blend-mode:multiply">
<path d="M962.423 784.615H956.33V804.818H962.423V784.615Z" fill="#638A99"/>
</g>
<g style="mix-blend-mode:multiply">
<path d="M1123.47 784.615H1118.04V804.818H1123.47V784.615Z" fill="#638A99"/>
</g>
<path d="M1280.88 800.89C1280.64 799.985 1279.94 798.846 1278.87 797.591C1277.65 796.158 1275.97 794.57 1274 793.018H1274C1271.73 791.232 1269.09 789.482 1266.34 788.049C1265.75 787.738 1265.16 787.45 1264.56 787.171C1261.21 785.625 1257.79 784.615 1254.77 784.615H1252.57L1250.95 783H1249.13L1250.05 784.615H1248.05C1246.95 784.615 1246.81 784.915 1247.67 785.173C1247.7 785.179 1247.72 785.188 1247.76 785.2C1247.82 785.209 1247.89 785.232 1247.96 785.247C1249.69 785.697 1251.47 786.359 1253.23 787.171C1253.82 787.45 1254.42 787.738 1255.01 788.049C1257.83 789.521 1260.55 791.322 1262.86 793.162C1264.74 794.669 1266.36 796.2 1267.55 797.591C1268.61 798.846 1269.32 799.988 1269.55 800.89C1270.57 804.815 1264.56 804.815 1264.56 804.815H1275.89C1275.89 804.815 1281.9 804.815 1280.88 800.89H1280.88Z" fill="#638A99" fill-opacity="0.2"/>
<g style="mix-blend-mode:multiply">
<path d="M1211.57 783.479L1212.71 784.615H1216.53L1215.39 783.479H1211.57Z" fill="#638A99"/>
</g>
<g style="mix-blend-mode:multiply">
<path d="M1159.9 783.479L1161.03 784.615H1164.85L1163.71 783.479H1159.9Z" fill="#638A99"/>
</g>
<g opacity="0.75">
<path d="M789.061 790.078H786.072C785.187 790.078 784.464 790.8 784.464 791.684V800.851C784.464 801.735 785.184 802.457 786.072 802.457H789.061C789.946 802.457 790.669 801.735 790.669 800.851V791.684C790.669 790.797 789.946 790.078 789.061 790.078ZM790.132 800.851C790.132 801.441 789.652 801.921 789.061 801.921H786.072C785.481 801.921 785.001 801.441 785.001 800.851V791.684C785.001 791.094 785.481 790.611 786.072 790.611H789.061C789.652 790.611 790.132 791.091 790.132 791.684V800.851Z" fill="#E3CFA6"/>
<path d="M647.924 790.078H644.934C644.05 790.078 643.327 790.8 643.327 791.684V800.851C643.327 801.735 644.047 802.457 644.934 802.457H647.924C648.809 802.457 649.531 801.735 649.531 800.851V791.684C649.531 790.797 648.812 790.078 647.924 790.078ZM648.995 800.851C648.995 801.441 648.515 801.921 647.924 801.921H644.934C644.344 801.921 643.864 801.441 643.864 800.851V791.684C643.864 791.094 644.344 790.611 644.934 790.611H647.924C648.515 790.611 648.995 791.091 648.995 791.684V800.851Z" fill="#E3CFA6"/>
<path d="M950.773 790.078H947.784C946.896 790.078 946.176 790.8 946.176 791.684V800.851C946.176 801.735 946.896 802.457 947.784 802.457H950.773C951.658 802.457 952.381 801.735 952.381 800.851V791.684C952.381 790.797 951.658 790.078 950.773 790.078ZM951.844 800.851C951.844 801.441 951.364 801.921 950.773 801.921H947.784C947.193 801.921 946.713 801.441 946.713 800.851V791.684C946.713 791.094 947.193 790.611 947.784 790.611H950.773C951.364 790.611 951.844 791.091 951.844 791.684V800.851Z" fill="#E3CFA6"/>
<path d="M809.636 790.078H806.646C805.761 790.078 805.039 790.8 805.039 791.684V800.851C805.039 801.735 805.758 802.457 806.646 802.457H809.636C810.52 802.457 811.243 801.735 811.243 800.851V791.684C811.243 790.797 810.523 790.078 809.636 790.078ZM810.706 800.851C810.706 801.441 810.226 801.921 809.636 801.921H806.646C806.055 801.921 805.575 801.441 805.575 800.851V791.684C805.575 791.094 806.055 790.611 806.646 790.611H809.636C810.226 790.611 810.706 791.091 810.706 791.684V800.851Z" fill="#E3CFA6"/>
<path d="M1112.48 790.078H1109.5C1108.61 790.078 1107.89 790.8 1107.89 791.684V800.851C1107.89 801.735 1108.61 802.457 1109.5 802.457H1112.48C1113.37 802.457 1114.09 801.735 1114.09 800.851V791.684C1114.09 790.797 1113.37 790.078 1112.48 790.078ZM1113.56 800.851C1113.56 801.441 1113.08 801.921 1112.48 801.921H1109.5C1108.9 801.921 1108.42 801.441 1108.42 800.851V791.684C1108.42 791.094 1108.9 790.611 1109.5 790.611H1112.48C1113.08 790.611 1113.56 791.091 1113.56 791.684V800.851Z" fill="#E3CFA6"/>
<path d="M971.347 790.078H968.357C967.473 790.078 966.75 790.8 966.75 791.684V800.851C966.75 801.735 967.47 802.457 968.357 802.457H971.347C972.232 802.457 972.954 801.735 972.954 800.851V791.684C972.954 790.797 972.235 790.078 971.347 790.078ZM972.418 800.851C972.418 801.441 971.938 801.921 971.347 801.921H968.357C967.767 801.921 967.287 801.441 967.287 800.851V791.684C967.287 791.094 967.767 790.611 968.357 790.611H971.347C971.938 790.611 972.418 791.091 972.418 791.684V800.851Z" fill="#E3CFA6"/>
<path d="M1130.86 790.078H1127.87C1126.98 790.078 1126.26 790.8 1126.26 791.684V800.851C1126.26 801.735 1126.98 802.457 1127.87 802.457H1130.86C1131.75 802.457 1132.47 801.735 1132.47 800.851V791.684C1132.47 790.797 1131.75 790.078 1130.86 790.078ZM1131.93 800.851C1131.93 801.441 1131.45 801.921 1130.86 801.921H1127.87C1127.28 801.921 1126.8 801.441 1126.8 800.851V791.684C1126.8 791.094 1127.28 790.611 1127.87 790.611H1130.86C1131.45 790.611 1131.93 791.091 1131.93 791.684V800.851Z" fill="#E3CFA6"/>
<path d="M1243.7 790.078H1240.72C1239.83 790.078 1239.11 790.8 1239.11 791.684V800.851C1239.11 801.735 1239.83 802.457 1240.72 802.457H1243.7C1244.59 802.457 1245.31 801.735 1245.31 800.851V791.684C1245.31 790.797 1244.59 790.078 1243.7 790.078ZM1244.78 800.851C1244.78 801.441 1244.3 801.921 1243.7 801.921H1240.72C1240.12 801.921 1239.64 801.441 1239.64 800.851V791.684C1239.64 791.094 1240.12 790.611 1240.72 790.611H1243.7C1244.3 790.611 1244.78 791.091 1244.78 791.684V800.851Z" fill="#E3CFA6"/>
</g>
<defs>
<linearGradient id="paint0_linear_796_12811" x1="639" y1="793.908" x2="1280.99" y2="793.908" gradientUnits="userSpaceOnUse">
<stop offset="0.02" stop-color="#FFE8CF"/>
<stop offset="0.28" stop-color="#FFEEDD"/>
<stop offset="0.61" stop-color="#FFF3E7"/>
<stop offset="1" stop-color="#FFF5EB"/>
</linearGradient>
<linearGradient id="paint1_linear_796_12811" x1="639" y1="784.873" x2="1280.99" y2="784.873" gradientUnits="userSpaceOnUse">
<stop offset="0.02" stop-color="#FFA3DE"/>
<stop offset="0.58" stop-color="#FFC8DA"/>
<stop offset="1" stop-color="#FFE0D9"/>
</linearGradient>
<linearGradient id="paint2_linear_796_12811" x1="639" y1="792.82" x2="1262.48" y2="792.82" gradientUnits="userSpaceOnUse">
<stop stop-color="#FFCF94"/>
<stop offset="0.51" stop-color="#EFCFB5"/>
<stop offset="1" stop-color="#E3CFD1"/>
</linearGradient>
<linearGradient id="paint3_linear_796_12811" x1="662.094" y1="792.82" x2="1278.87" y2="792.82" gradientUnits="userSpaceOnUse">
<stop stop-color="#75A89C"/>
<stop offset="0.29" stop-color="#7CADB3"/>
<stop offset="0.73" stop-color="#86B5D2"/>
<stop offset="0.98" stop-color="#8AB8DE"/>
</linearGradient>
</defs>
</svg>
