<svg width="1920" height="1080" viewBox="0 0 1920 1080" fill="none" xmlns="http://www.w3.org/2000/svg">
<path d="M836.193 373.355L689.734 372.741C689.734 372.741 628.264 373.773 623.961 371.837C619.67 369.885 628.643 365.312 628.643 365.312C628.643 365.312 562.547 368.547 467.862 360.906C467.862 360.906 484.274 366.539 483.733 370.487C483.175 374.418 403.382 369.734 350.383 365.424C350.383 365.424 360.526 372.801 325.304 372.745C290.083 372.677 298.821 361.775 298.821 361.775L245.364 363.826C245.364 363.826 102.639 371.423 87.4929 362.137C72.3343 352.852 99.0966 297.546 110.147 291.48C121.182 285.417 132.968 299.024 132.968 299.024C132.968 299.024 138.848 287.006 145.97 288.775C153.075 290.532 182.946 316.169 182.946 316.169L189.789 310.982C189.789 310.982 149.273 282.931 146.403 263.301C143.533 243.671 165.714 216.022 165.714 216.022C165.714 216.022 140.066 203.139 117.229 182.856C117.201 182.828 117.133 182.772 117.034 182.689C101.728 169.049 87.7397 152.112 83.6435 133.498C82.4453 128.032 82.3617 122.997 83.2096 118.424C89.6066 84.155 148.203 75.8735 175.57 107.705C175.61 107.733 175.626 107.761 175.654 107.789C175.654 107.789 175.57 107.593 175.443 107.219L175.347 106.912C175.208 106.51 175.057 105.964 174.901 105.311C174.889 105.271 174.873 105.227 174.873 105.187L174.861 105.175C173.357 98.6108 172.672 82.1314 205.051 84.8362C224.167 86.4375 241.347 95.7945 254.121 105.175L254.137 105.187C267.887 115.293 276.553 125.443 277.054 126.045L277.082 126.072C277.082 126.072 276.692 115.895 289.247 112.593C301.631 109.33 315.803 135.441 316.209 136.21V136.182C315.719 134.939 304.533 105.677 315.333 87.8317C317.228 84.6967 319.791 81.9084 323.219 79.6896C346.585 64.5646 369.24 85.5452 369.24 85.5452C369.24 85.5452 364.626 67.3928 374.868 62.78C385.095 58.1513 406.467 82.701 406.929 94.6792C407.387 106.641 382.408 98.4435 382.408 98.4435L408.111 125.642C408.111 125.642 408.139 125.602 408.139 125.586C408.362 125.017 410.229 120.651 414.536 116.034C420.627 109.537 431.562 102.566 449.658 105.16H449.729C450.605 105.283 451.513 105.438 452.432 105.606C486.495 112.063 525.884 183.864 525.884 183.864C525.884 183.864 536.891 179.303 550.768 182.374L550.784 182.386C552.078 182.665 553.403 183.027 554.753 183.461C570.441 188.492 568.797 255.748 568.797 255.748C568.797 255.748 568.518 266.818 535.538 270.192C535.538 270.192 536.959 284.301 532.962 290.157C528.95 296.013 495.428 303.637 495.428 303.637C495.428 303.637 500.639 307.122 502.896 314.83L502.924 314.93C503.079 315.46 503.202 315.99 503.33 316.547C503.33 316.547 503.37 316.531 503.469 316.507C505.738 315.81 535.777 307.027 551.174 324.231C551.174 324.231 555.979 314.611 566.79 309.19C570.234 307.445 574.286 306.15 578.995 305.716C598.473 303.904 597.955 329.836 597.955 329.836C597.955 329.836 614.033 323.924 627.631 333.979C638.093 341.714 641.608 355.979 642.663 362.141C642.897 363.496 643.009 364.456 643.053 364.874L643.081 365.109L665.735 363.185C665.735 363.185 658.629 329.613 669.608 312.799C680.587 296.001 711.891 313.301 711.891 313.301C711.891 313.301 720.808 286.815 734.47 265.404C753.569 235.465 798.893 243.336 811.118 258.338C846.857 302.195 836.197 373.363 836.197 373.363L836.193 373.355Z" fill="url(#paint0_linear_796_15881)"/>
<path style="mix-blend-mode:multiply" opacity="0.5" d="M449.65 105.156C431.414 105.156 396.818 155.347 398.255 180.554L409.329 204.338L358.129 185.84L300.214 177.474L117.253 182.868C117.253 182.868 117.241 182.868 117.225 182.852C117.197 182.824 117.129 182.768 117.03 182.685C113.786 179.996 76.6973 148.499 82.6444 117.158C82.6444 117.158 82.8276 117.616 83.2137 118.424C85.7773 123.738 97.3969 144.133 125.819 147.802C158.549 152.024 178.532 136.688 178.532 136.688L175.574 107.705L175.447 107.215L175.351 106.908L174.905 105.307L174.866 105.167L174.877 105.179C175.196 105.526 185.94 116.779 215.043 126.662C244.608 136.7 271.008 128.781 271.008 128.781L254.137 105.175L277.054 126.033L277.082 126.06C277.082 126.06 294.235 139.863 309.015 143.042C323.812 146.209 316.221 136.21 316.221 136.21L316.209 136.194V136.166C315.679 134.955 303.419 106.147 315.333 87.8158C315.612 88.9869 329.17 144.209 385.58 155.199C385.58 155.199 397.546 154.693 412.51 133.529C412.526 133.517 408.139 125.586 408.139 125.571C410.591 122.125 412.669 118.95 414.536 116.018C420.627 109.521 431.562 102.55 449.658 105.144L449.65 105.156Z" fill="url(#paint1_linear_796_15881)"/>
<path style="mix-blend-mode:multiply" opacity="0.5" d="M536.868 235.457L474.796 210.15L482.583 205.41C482.583 205.41 490.636 184.792 489.063 154.673C487.475 124.559 469.641 111.481 452.421 105.598C486.484 112.055 525.873 183.856 525.873 183.856C525.873 183.856 536.88 179.295 550.756 182.366L550.772 182.378C550.772 182.378 526.542 187.425 515.451 200.112C504.528 212.62 536.016 234.871 536.868 235.457Z" fill="url(#paint2_linear_796_15881)"/>
<path style="mix-blend-mode:multiply" opacity="0.5" d="M355.482 183.553C355.482 183.553 391.52 155.378 411.34 141.64C411.34 141.64 396.121 174.395 396.392 183.553C396.663 192.711 409.329 204.339 409.329 204.339L355.482 183.553Z" fill="url(#paint3_linear_796_15881)"/>
<path style="mix-blend-mode:multiply" opacity="0.5" d="M643.072 365.101L628.638 365.308L562.977 355.437L523.727 336.52L504.377 319.232L503.457 316.499C505.726 315.802 535.764 307.019 551.162 324.223C551.162 324.223 555.967 314.603 566.778 309.182C566.778 309.182 555.019 320.069 555.756 326.804C556.496 333.54 581.447 345.57 581.447 345.57L597.943 329.832C597.943 329.832 589.878 346.729 593.668 353.673C597.458 360.616 642.654 362.137 642.654 362.137L643.045 364.87L643.072 365.105V365.101Z" fill="url(#paint4_linear_796_15881)"/>
<path style="mix-blend-mode:multiply" opacity="0.5" d="M110.143 291.476C110.143 291.476 95.1956 307.887 97.8348 323.207C100.474 338.528 126.345 336.524 126.345 336.524C126.345 336.524 126.384 316.567 132.965 299.02C132.965 299.02 128.458 321.626 143.768 328.493C159.078 335.361 182.942 316.169 182.942 316.169L189.785 310.982C189.785 310.982 202.201 332.72 213.642 340.647L87.489 362.137C87.489 362.137 66.4947 348.466 110.143 291.476Z" fill="url(#paint5_linear_796_15881)"/>
<path d="M87.4892 362.137C87.4892 362.137 78.4769 346.279 124.235 340.643C169.993 335.006 213.638 340.643 213.638 340.643C213.638 340.643 191.111 312.819 205.895 305.422C205.895 305.422 168.059 296.088 154.859 275.574C141.659 255.055 187.067 241.89 237.749 238.17C237.749 238.17 229.302 237.688 230.62 230.521C231.941 223.355 243.553 223.718 243.553 223.718C243.553 223.718 177.31 230.099 117.245 182.876C117.245 182.876 112.615 156.215 185.478 164.954C185.478 164.954 183.894 140.468 224.02 139.648C264.145 138.827 320.639 159.386 323.804 164.954C326.973 170.523 305.855 171.053 305.855 171.053C305.855 171.053 377.659 185.318 409.338 204.338C409.338 204.338 389.804 188.488 398.251 180.565C406.698 172.638 469.012 192.719 479.036 200.642C489.063 208.565 474.804 210.162 474.804 210.162C474.804 210.162 566.683 243.758 568.789 255.748C570.895 267.738 494.342 273.02 494.342 273.02C494.342 273.02 533.771 281.425 532.951 290.149C531.482 305.808 355.487 294.268 355.487 294.268L506.244 319.515L545.048 336.528C545.048 336.528 541.374 328.497 545.048 327.968C548.722 327.438 576.173 345.893 581.981 352.251C587.789 358.608 562.973 355.437 562.973 355.437L628.647 365.308C628.647 365.308 653.682 374.422 680.711 365.308C778.003 332.509 837.678 373.359 837.678 373.359C837.678 373.359 631.632 375.549 623.966 371.833C616.299 368.116 623.161 367.591 623.161 367.591C623.161 367.591 513.823 364.95 469.852 361.074C469.852 361.074 483.49 365.452 483.725 370.483C483.956 375.514 350.383 365.432 350.383 365.432C350.383 365.432 357.421 372.606 325.301 372.741C293.18 372.877 295.82 361.078 295.82 361.078C295.82 361.078 166.363 377.298 87.4853 362.145L87.4892 362.137Z" fill="url(#paint6_radial_796_15881)"/>
<path style="mix-blend-mode:screen" opacity="0.2" d="M160.487 272.168C160.487 272.168 172.453 250.745 263.265 246.383C354.077 242.022 378.009 258.361 378.009 258.361C378.009 258.361 388.57 268.085 337.884 276.183L365.283 282.875L291.425 294.26C291.425 294.26 464.407 300.876 515.734 329.374C578.585 364.272 393.06 358.795 393.06 358.795L413.211 365.953C413.211 365.953 354.077 365.961 290.02 352.243C225.958 338.524 204.84 311.106 220.329 305.796C235.818 300.486 264.678 296.861 264.678 296.861C264.678 296.861 180.204 303.721 160.491 272.164L160.487 272.168Z" fill="url(#paint7_linear_796_15881)"/>
<path style="mix-blend-mode:screen" opacity="0.5" d="M294.263 176.522C294.263 176.522 378.698 188.492 419.636 219.133C460.573 249.777 334.918 240.265 268.922 200.642C202.926 161.019 294.263 176.522 294.263 176.522Z" fill="url(#paint8_linear_796_15881)"/>
<path style="mix-blend-mode:multiply" opacity="0.5" d="M185.478 164.951C185.478 164.951 174.097 126.459 174.862 105.167C174.862 105.167 183.989 137.525 195.115 147.328C195.115 147.328 186.183 157.972 185.478 164.951Z" fill="url(#paint9_linear_796_15881)"/>
<path style="mix-blend-mode:multiply" opacity="0.5" d="M474.804 210.154C474.804 210.154 481.384 209.003 482.586 205.41C483.788 201.817 490.205 178.777 489.266 163.122C489.266 163.122 492.403 185.314 504.369 202.924C516.335 220.535 540.728 237.273 540.728 237.273C540.728 237.273 503.314 220.204 474.8 210.154H474.804Z" fill="url(#paint10_linear_796_15881)"/>
<path style="mix-blend-mode:screen" opacity="0.5" d="M448.934 109.235C448.934 109.235 441.016 142.512 444.71 163.122C448.404 183.728 482.196 195.352 482.196 195.352C482.196 195.352 495.241 163.931 485.815 137.11C476.389 110.29 455.259 111.346 448.934 109.235Z" fill="url(#paint11_linear_796_15881)"/>
<path style="mix-blend-mode:screen" opacity="0.5" d="M540.729 185.242C540.729 185.242 535.387 211.246 545.044 225.578C554.701 239.91 568.422 246.383 568.422 246.383C568.422 246.383 573.219 174.953 540.729 185.242Z" fill="url(#paint12_linear_796_15881)"/>
<path style="mix-blend-mode:screen" opacity="0.5" d="M184.969 87.8237C184.969 87.8237 193.643 113.736 218.212 122.706C242.781 131.677 265.821 115.819 265.821 115.819C265.821 115.819 220.712 78.0365 184.969 87.8237Z" fill="url(#paint13_linear_796_15881)"/>
<path style="mix-blend-mode:screen" opacity="0.5" d="M597.948 329.828C597.948 329.828 589.198 342.404 601.518 349.797C613.839 357.194 640.74 354.21 640.74 354.21C640.74 354.21 633.802 319.714 597.948 329.824V329.828Z" fill="url(#paint14_linear_796_15881)"/>
<path style="mix-blend-mode:multiply" opacity="0.5" d="M766.315 245.642C766.315 245.642 746.961 255.569 739.219 299.379C731.476 343.188 756.196 352.565 756.196 352.565C714.749 350.558 668.561 368.686 669.349 368.539C669.349 368.539 678.676 364.177 691.347 346.642C704.017 329.103 689.886 305.8 689.886 305.8L711.883 313.293C711.883 313.293 732.869 246.714 766.311 245.642H766.315Z" fill="url(#paint15_linear_796_15881)"/>
<path style="mix-blend-mode:screen" opacity="0.5" d="M763.425 247.674C763.425 247.674 741.973 280.497 758.549 315.014C775.125 349.53 832.391 331.465 832.391 331.465C832.391 331.465 831.038 225.562 763.429 247.674H763.425Z" fill="url(#paint16_linear_796_15881)"/>
<path d="M739.677 258.768C739.677 258.768 758.573 242.46 790.431 250.913C790.431 250.913 790.61 273.02 805.394 287.325C820.179 301.629 829.708 305.8 829.708 305.8C829.708 305.8 839.453 351.844 836.193 373.355C836.193 373.355 845.866 276.231 810.868 252.482C777.939 230.139 744.888 252.139 739.677 258.768Z" fill="#FFFFA2"/>
<path d="M525.872 183.856C525.872 183.856 544.319 178.669 553.964 187.863C563.609 197.057 568.788 255.74 568.788 255.74C568.788 255.74 572.144 206.983 562.53 188.919C552.917 170.854 525.876 183.856 525.876 183.856H525.872Z" fill="#FFFFA2"/>
<path d="M457.333 107.482C457.333 107.482 469.582 111.23 480.342 137.764C491.101 164.297 487.706 183.979 487.706 183.979C487.706 183.979 490.731 157.342 486.639 140.568C480.429 115.11 457.333 107.486 457.333 107.486V107.482Z" fill="#FFFFA2"/>
<path d="M601.51 328.485C601.51 328.485 618.185 341.694 626.083 346.184C633.981 350.673 636.882 349.355 636.882 349.355C636.882 349.355 641.333 356.899 643.072 365.101C643.072 365.101 642.185 323.781 601.506 328.485H601.51Z" fill="#FFFFA2"/>
<path d="M368.212 75.6863C368.212 75.6863 367.882 65.6441 376.066 68.0222C384.251 70.4003 390.516 93.5797 406.917 94.6712C406.917 94.6712 401.312 71.4001 383.411 63.7679C365.505 56.1357 368.212 75.6863 368.212 75.6863Z" fill="#FFFFA2"/>
<path style="mix-blend-mode:screen" opacity="0.5" d="M699.798 365.957C699.798 365.957 764.624 352.426 800.311 361.508C849.389 373.996 786.824 372.869 786.824 372.869L683.254 372.076L699.798 365.957Z" fill="url(#paint17_linear_796_15881)"/>
<path d="M810.672 249.152C811.799 251.004 813.184 252.685 814.912 254.032C815.728 254.665 816.679 255.426 817.71 255.501C819.075 255.605 820.337 255.254 820.532 253.741C820.672 252.661 820.027 251.594 819.573 250.666C818.63 248.738 817.372 247.232 815.951 245.631C814.434 243.922 812.989 242.137 811.385 240.508C810.632 239.743 809.713 239.185 808.893 238.496C808.216 237.927 807.663 237.174 806.799 236.875C806.071 236.62 804.407 236.114 803.622 236.512C802.663 236.998 802.575 238.723 802.814 239.556C803.407 241.627 805.617 242.723 806.54 244.567C806.879 245.24 807.293 245.985 807.512 246.698C807.671 247.228 807.746 247.746 808.021 248.283C808.324 248.869 808.785 249.263 809.271 249.686C809.932 250.263 810.091 250.195 810.668 249.156L810.672 249.152Z" fill="#FFFFA2"/>
<path d="M822.288 247.742C822.539 248.041 823.574 249.813 824.418 249.534C824.887 249.379 824.923 248.383 824.724 247.945C824.469 247.379 824.075 247.415 823.522 247.387C822.571 247.339 822.503 247.347 821.934 248.096L822.284 247.746L822.288 247.742Z" fill="#FFFFA2"/>
<path d="M839.031 210.792C837.678 208.852 836.248 205.836 838.732 204.091C841.547 202.116 845.798 203.108 848.62 204.434C852.354 206.191 854.803 209.899 856.303 213.624C856.936 215.197 857.167 216.922 857.669 218.535C858.17 220.149 859.018 221.678 859.623 223.252C860.153 224.626 860.26 225.104 859.038 226.195C857.9 227.211 856.502 227.821 855.125 228.394C854.002 228.864 852.884 229.306 851.706 229.629C851.037 229.812 850.328 230.199 849.628 230.123C848.82 230.035 847.848 229.478 847.136 229.135C845.257 228.231 843.211 226.578 842.116 224.817C840.846 222.77 839.326 220.878 838.056 218.83C837.506 217.942 837.196 216.986 836.818 216.026C836.547 215.337 836.236 215.018 836.189 214.253C836.105 212.887 836.217 211.457 839.031 210.792Z" fill="#FFFFA2"/>
<path d="M825.103 256.194C825.592 256.728 827.766 259.728 828.725 258.764C829.262 258.222 829.095 256.453 828.717 255.828C828.295 255.131 827.499 254.478 826.683 254.422C825.759 254.358 824.47 255.187 824.398 256.198H825.103V256.194Z" fill="#FFFFA2"/>
<path d="M798.002 247.387C797.162 246.73 792.927 243.981 796.035 243.149C797.206 242.834 799.172 243.364 800.227 243.858C801.19 244.308 802.218 244.75 802.85 245.631C803.272 246.22 803.866 246.965 803.659 247.75C803.471 248.463 802.663 249.068 801.959 249.176C801.143 249.303 800.195 248.945 799.419 248.805C798.344 248.618 797.297 247.853 796.242 247.742L798.002 247.391V247.387Z" fill="#FFFFA2"/>
<path d="M737.109 246.332C735.381 247.124 733.749 247.825 732.176 248.869C731.165 249.538 730.206 250.295 729.171 250.924C728.546 251.307 727.463 251.426 727.025 251.984C727.451 251.96 727.885 252.004 728.311 251.972C728.908 251.928 729.378 251.685 729.975 251.594C731.149 251.418 732.081 252.179 733.239 251.98C734.41 251.777 735.405 250.793 736.074 249.869C736.364 249.467 737.499 246.905 736.054 247.383L737.109 246.328V246.332Z" fill="#FFFFA2"/>
<path d="M727.958 258.31C726.919 258.951 724.67 259.756 724.825 261.445C725.526 261.716 725.745 261.309 726.246 260.967C727.066 260.409 728.296 260.126 728.83 259.186C729.829 257.429 727.333 258.955 726.903 259.011L727.958 258.306V258.31Z" fill="#FFFFA2"/>
<path d="M842.001 296.698C842.761 298.016 843.474 299.323 844.561 297.499C845.138 296.531 845.5 295.124 845.006 294.045C844.6 293.165 843.888 292.985 843.06 293.34C841.444 294.029 841.4 295.391 841.3 297.052L842.005 296.702L842.001 296.698Z" fill="#FFFFA2"/>
<path d="M626.234 328.398C626.807 330.027 627.197 331.238 628.591 332.302C629.001 332.612 630.752 333.728 631.337 333.325C632.102 332.803 631.039 330.8 630.808 330.158C630.406 329.039 629.693 328.43 628.694 327.76C627.404 326.896 626.541 327.525 625.88 328.748L626.23 328.398H626.234Z" fill="#FFFFA2"/>
<path d="M637.149 338.611C637.854 338.424 638.24 338.034 638.312 337.452C637.118 337.532 638.025 340.324 639.613 340.021L637.149 338.611Z" fill="#FFFFA2"/>
<path d="M608.285 310.082C607.979 308.485 607.469 305.346 610.319 305.824C611.725 306.059 613.341 307.975 613.58 309.377C613.767 310.465 613.102 311.329 612.159 311.671C611.677 311.847 611.124 311.954 610.57 311.819C609.754 311.616 609.153 310.811 608.281 310.791V310.086L608.285 310.082Z" fill="#FFFFA2"/>
<path d="M604.766 293.882C605.176 294.268 607.533 296.674 608.214 295.571C608.504 295.101 608.174 294.447 608.03 293.985C607.724 293.013 607.481 292.037 607.23 291.049C606.832 289.48 606.207 287.373 604.945 286.293C603.954 285.445 603.194 285.99 602.111 286.441C600.551 287.086 598.7 287.899 599.715 289.982C600.439 291.468 601.653 292.906 602.832 294.057C603.731 294.937 604.109 295.917 605.117 296.698L604.766 293.882Z" fill="#FFFFA2"/>
<path d="M603.711 281.907C603.652 281.824 601.829 279.334 602.35 278.792C602.868 278.251 603.751 278.98 604.054 279.294C604.643 279.908 604.794 280.613 605.121 281.35C605.355 281.88 605.758 282.401 604.77 282.613L603.715 281.907H603.711Z" fill="#FFFFA2"/>
<path d="M807.153 230.482C807.249 231.226 807.273 232.768 807.711 233.561C807.894 233.891 808.312 234.282 808.554 234.608C809.056 235.286 809.693 236.345 810.68 236.413C811.361 236.457 812.591 235.393 812.802 234.744C813.041 234.015 812.746 232.995 812.448 232.35C812.05 231.485 811.735 230.334 811.13 229.617C810.72 229.127 809.566 228.135 808.913 228.016C807.957 227.845 807.161 228.868 807.153 229.777V230.482Z" fill="#FFFFA2"/>
<path d="M815.601 239.64C815.653 239.739 816.369 241.683 817.038 241.472C817.476 241.336 817.376 241.125 817.297 240.779C817.205 240.388 816.521 239.807 816.302 239.46C815.987 238.962 815.915 238.68 815.334 238.488C814.478 238.205 814.542 238.795 814.542 239.636H815.597L815.601 239.64Z" fill="#FFFFA2"/>
<path d="M809.264 255.139C808.527 254.338 806.752 253.223 807.926 252.04C808.758 251.199 810.155 251.765 810.864 252.482C811.306 252.932 811.445 253.45 811.728 254.004C811.907 254.358 812.42 254.904 812.416 255.326C812.416 256.23 811.481 256.35 810.733 256.135C810.713 256.039 810.693 255.94 810.673 255.844L809.264 255.139Z" fill="#FFFFA2"/>
<path d="M566.929 199.311C566.667 198.208 565.775 196.065 566.894 195.033C567.817 194.185 568.506 194.854 569.175 195.587C570.735 197.304 571.663 199.682 571.694 201.98C571.726 204.394 570.249 205.179 568.235 203.805C567.328 203.187 567.244 202.582 566.671 201.666C566.308 201.088 565.803 199.674 565.349 199.307H566.933L566.929 199.311Z" fill="#FFFFA2"/>
<path d="M572.208 193.5C572.319 194.117 572.96 198.491 574.437 198.726C575.938 198.965 576.153 196.539 575.93 195.587C575.743 194.79 575.014 193.946 574.449 193.372C573.494 192.404 573.386 192.404 572.208 192.974V193.504V193.5Z" fill="#FFFFA2"/>
<path d="M567.984 161.8C567.176 160.668 565.524 158.29 566.507 156.625C566.969 155.841 568.223 155.848 568.908 155.538C570.421 157.29 572.244 159.035 572.22 161.541C572.212 162.433 571.838 163.56 570.842 163.879C569.764 164.226 568.569 163.023 567.455 162.855L567.984 161.8Z" fill="#FFFFA2"/>
<path d="M601.247 198.782C602.362 198.176 605.073 197.125 604.918 195.412C604.834 194.48 604.102 194.141 603.373 194.017C601.809 193.751 599.874 195.511 600.192 197.196L601.247 198.782Z" fill="#FFFFA2"/>
<path d="M574.318 179.765C574.39 178.267 574.247 176.638 575.903 177.367C576.611 177.678 577.61 178.323 578.036 178.952C579.247 180.725 578.315 181.92 576.428 181.876L574.314 179.761L574.318 179.765Z" fill="#FFFFA2"/>
<path d="M848.087 331.955C848.159 330.457 848.015 328.828 849.671 329.557C850.38 329.868 851.379 330.513 851.805 331.142C853.015 332.915 852.084 334.11 850.197 334.066L848.083 331.951L848.087 331.955Z" fill="#FFFFA2"/>
<path d="M462.918 95.7587C462.866 98.3001 463.419 100.057 465.509 101.782C466.349 102.475 468.14 103.546 469.279 103.088C470.067 102.769 469.948 102.056 470.429 101.543C470.792 101.156 471.217 101.045 471.631 100.734C472.463 100.109 473.403 98.9693 473.514 97.8699C473.642 96.647 472.511 95.1572 471.934 94.1454C470.935 92.4046 468.459 91.2972 466.592 90.8471C465.7 90.632 463.925 89.7756 463.053 89.9907C460.88 90.5284 460.06 93.9343 460.282 95.7587H462.922H462.918Z" fill="#FFFFA2"/>
<path d="M472.42 112.664C472.006 112.059 470.62 110.453 470.366 109.605C472.69 108.733 474.725 110.394 475.652 112.334C477.041 115.246 473.148 113.867 471.894 112.664H472.424H472.42Z" fill="#FFFFA2"/>
<path d="M400.62 84.1351C401.81 85.7962 403.088 87.3178 404.338 88.8833C404.891 89.5804 406.173 90.8431 407.192 90.4767C409.191 89.7557 408.709 85.362 408.498 83.8682C408.199 81.757 407.033 79.6418 404.856 78.9606C400.907 77.7298 401.631 83.3264 401.675 85.7205L400.62 84.1351Z" fill="#FFFFA2"/>
<path d="M397.976 69.3447C397.813 68.5878 396.523 66.138 397.029 65.2218C397.805 63.8197 398.398 65.0745 399.003 65.66C399.987 66.616 400.826 66.7156 401.037 68.297C401.153 69.1455 400.751 70.1892 399.561 69.8705L397.976 69.3407V69.3447Z" fill="#FFFFA2"/>
<path d="M220.58 82.0239C223.557 83.2189 225.627 85.1469 228.286 83.0994C229.783 81.9442 230.297 79.6099 229.851 77.7537C229.469 76.1603 228.979 75.2282 227.984 73.9615C226.977 72.6788 226.368 72.5673 224.831 71.9937C223.08 71.3364 221.34 71.1532 219.505 70.8703C218.136 70.6592 216.854 70.233 215.441 70.3844C213.414 70.5955 212.459 71.679 211.54 73.2484C210.66 74.7542 211.416 76.2001 212.758 77.2757C214.824 78.9288 217.523 79.4267 219.553 80.9484C220.365 81.5538 220.886 82.4939 221.73 83.0875C223.187 84.1112 224.752 84.6011 226.392 85.2026L220.584 82.0318L220.58 82.0239Z" fill="#FFBDA2"/>
<path d="M234.835 88.3615C234.238 87.4373 233.987 86.4574 234.083 85.4177C235.01 85.1269 235.249 84.2665 236.419 84.7445C237.116 85.0313 238.792 86.7123 238.959 87.4214C239.548 89.8831 235.739 89.4171 234.306 89.4171L234.835 88.3615Z" fill="#FFBDA2"/>
<path style="mix-blend-mode:screen" opacity="0.5" d="M449.65 243.846C436.155 258.127 473.94 266.898 510.435 266.408C533.4 266.101 561.444 262.759 566.205 258.306C573.143 251.817 537.643 237.807 505.232 235.453C480.09 233.629 453.885 239.365 449.65 243.846Z" fill="url(#paint18_linear_796_15881)"/>
<defs>
<linearGradient id="paint0_linear_796_15881" x1="327.55" y1="490.949" x2="533.454" y2="107.196" gradientUnits="userSpaceOnUse">
<stop offset="0.47" stop-color="#FC6A7C"/>
<stop offset="1" stop-color="#FFEFA4"/>
</linearGradient>
<linearGradient id="paint1_linear_796_15881" x1="265.821" y1="204.338" x2="265.821" y2="87.8237" gradientUnits="userSpaceOnUse">
<stop stop-color="#D698C7"/>
<stop offset="1" stop-color="#FFDBFF"/>
</linearGradient>
<linearGradient id="paint2_linear_796_15881" x1="501.599" y1="235.457" x2="501.599" y2="105.602" gradientUnits="userSpaceOnUse">
<stop stop-color="#D698C7"/>
<stop offset="1" stop-color="#FFDBFF"/>
</linearGradient>
<linearGradient id="paint3_linear_796_15881" x1="383.411" y1="61.9993" x2="383.411" y2="141.64" gradientUnits="userSpaceOnUse">
<stop stop-color="#D698C7"/>
<stop offset="1" stop-color="#FFDBFF"/>
</linearGradient>
<linearGradient id="paint4_linear_796_15881" x1="503.457" y1="337.245" x2="643.072" y2="337.245" gradientUnits="userSpaceOnUse">
<stop stop-color="#D698C7"/>
<stop offset="1" stop-color="#FFDBFF"/>
</linearGradient>
<linearGradient id="paint5_linear_796_15881" x1="148.04" y1="362.137" x2="148.04" y2="291.476" gradientUnits="userSpaceOnUse">
<stop stop-color="#D698C7"/>
<stop offset="1" stop-color="#FFDBFF"/>
</linearGradient>
<radialGradient id="paint6_radial_796_15881" cx="0" cy="0" r="1" gradientUnits="userSpaceOnUse" gradientTransform="translate(641.95 217.442) scale(473.955 203.939)">
<stop stop-color="#FD676A"/>
<stop offset="1" stop-color="#A64A8E"/>
</radialGradient>
<linearGradient id="paint7_linear_796_15881" x1="160.487" y1="305.8" x2="528.731" y2="305.8" gradientUnits="userSpaceOnUse">
<stop/>
<stop offset="1" stop-color="#FF3345"/>
</linearGradient>
<linearGradient id="paint8_linear_796_15881" x1="244.974" y1="205.406" x2="427.665" y2="205.406" gradientUnits="userSpaceOnUse">
<stop stop-color="#FF3345"/>
<stop offset="1"/>
</linearGradient>
<linearGradient id="paint9_linear_796_15881" x1="174.822" y1="135.059" x2="195.115" y2="135.059" gradientUnits="userSpaceOnUse">
<stop stop-color="#D698C7"/>
<stop offset="1" stop-color="#FFDBFF"/>
</linearGradient>
<linearGradient id="paint10_linear_796_15881" x1="474.804" y1="200.2" x2="540.728" y2="200.2" gradientUnits="userSpaceOnUse">
<stop stop-color="#D698C7"/>
<stop offset="1" stop-color="#FFDBFF"/>
</linearGradient>
<linearGradient id="paint11_linear_796_15881" x1="466.481" y1="195.352" x2="466.481" y2="109.235" gradientUnits="userSpaceOnUse">
<stop/>
<stop offset="1" stop-color="#FFCF00"/>
</linearGradient>
<linearGradient id="paint12_linear_796_15881" x1="553.965" y1="246.383" x2="553.965" y2="184.226" gradientUnits="userSpaceOnUse">
<stop/>
<stop offset="1" stop-color="#FFCF00"/>
</linearGradient>
<linearGradient id="paint13_linear_796_15881" x1="225.397" y1="125.455" x2="225.397" y2="86.2065" gradientUnits="userSpaceOnUse">
<stop/>
<stop offset="1" stop-color="#FFCF00"/>
</linearGradient>
<linearGradient id="paint14_linear_796_15881" x1="617.835" y1="354.808" x2="617.835" y2="327.972" gradientUnits="userSpaceOnUse">
<stop/>
<stop offset="1" stop-color="#FFCF00"/>
</linearGradient>
<linearGradient id="paint15_linear_796_15881" x1="717.83" y1="368.543" x2="717.83" y2="245.642" gradientUnits="userSpaceOnUse">
<stop stop-color="#D698C7"/>
<stop offset="1" stop-color="#FFDBFF"/>
</linearGradient>
<linearGradient id="paint16_linear_796_15881" x1="752.259" y1="290.416" x2="832.387" y2="290.416" gradientUnits="userSpaceOnUse">
<stop stop-color="#FFCF00"/>
<stop offset="1"/>
</linearGradient>
<linearGradient id="paint17_linear_796_15881" x1="683.258" y1="365.631" x2="819.104" y2="365.631" gradientUnits="userSpaceOnUse">
<stop/>
<stop offset="1" stop-color="#FF3345"/>
</linearGradient>
<linearGradient id="paint18_linear_796_15881" x1="446.851" y1="250.769" x2="567.081" y2="250.769" gradientUnits="userSpaceOnUse">
<stop/>
<stop offset="1" stop-color="#FF3345"/>
</linearGradient>
</defs>
</svg>
