<svg width="1920" height="1080" viewBox="0 0 1920 1080" fill="none" xmlns="http://www.w3.org/2000/svg">
<path d="M326.005 493.055H481.692C481.692 493.055 456.361 494.013 454.507 498.357C452.653 502.697 733.759 495.706 733.759 495.706L874 496.418C874 496.418 839.404 486.966 822.104 488.51C804.804 490.055 798.628 491.594 798.628 491.594C798.628 491.594 783.801 460.746 762.178 458.9C740.555 457.049 737.155 470.928 737.155 470.928C737.155 470.928 732.52 467.844 728.812 468.77C725.104 469.696 724.797 479.254 724.797 479.254C724.797 479.254 712.751 462.909 689.274 469.696C689.274 469.696 676.097 400.293 636.969 387.544C597.841 374.794 600.002 414.689 600.002 414.689C600.002 414.689 590.425 408.107 586.308 410.163C582.19 412.219 583.834 415.921 583.834 415.921C583.834 415.921 564.89 407.284 546.765 411.81C528.641 416.335 525.347 427.029 525.347 427.029C525.347 427.029 512.291 346.072 465.687 346.244C419.082 346.416 422.79 423.015 422.79 423.015C422.79 423.015 414.555 423.326 410.847 427.443C407.139 431.555 413.32 448.006 413.32 448.006C413.32 448.006 405.085 448.416 394.786 453.765C384.487 459.109 391.903 487.901 391.903 487.901C391.903 487.901 380.369 476.798 377.486 488.724C377.486 488.724 365.128 468.57 349.067 468.984C333.006 469.393 326 493.064 326 493.064L326.005 493.055Z" fill="url(#paint0_linear_796_12869)"/>
<path style="mix-blend-mode:multiply" opacity="0.5" d="M342.127 470.728C342.127 470.728 332.377 483.059 336.849 487.068C341.316 491.078 391.907 487.892 391.907 487.892C391.907 487.892 386.085 465.374 392.499 455.658C392.499 455.658 400.096 471.761 419.092 479.78C438.088 487.799 448.335 477.766 448.335 477.766C448.335 477.766 418.682 458.281 413.325 447.997C413.325 447.997 431.45 467.923 440.92 465.57C450.394 463.216 422.795 423.005 422.795 423.005C422.795 423.005 422.409 371.762 440.105 357.44C440.105 357.44 426.503 410.047 449.98 442.797C473.456 475.547 505.583 457.7 513.819 446.267C522.054 434.834 523.205 416.856 523.205 416.856L525.352 427.015C525.352 427.015 520 457.881 525.352 459.104C530.704 460.328 583.839 453.174 585.898 446.267C587.957 439.355 583.839 415.912 583.839 415.912C583.839 415.912 585.898 433.596 593.723 438.532C601.549 443.467 600.003 414.679 600.003 414.679L600.617 406.302L611.434 427.378C611.434 427.378 595.685 450.309 596.192 455.653C596.705 460.998 627.686 470.035 627.686 470.035L617.61 435.09C617.61 435.09 638.203 469.793 653.03 473.905C667.857 478.017 689.275 469.691 689.275 469.691C689.275 469.691 678.566 479.073 681.449 479.78C684.332 480.487 722.226 484.189 722.226 484.189L724.802 479.249C724.802 479.249 732.525 478.431 762.178 482.952C791.832 487.478 793.709 483.096 793.709 483.096L798.632 491.585H553.357L452.034 489.529L326.005 493.055C326.005 493.055 333.537 475.361 342.127 470.728Z" fill="url(#paint1_linear_796_12869)"/>
<path d="M326.005 493.055C326.005 493.055 337.948 490.361 387.785 487.892C437.622 485.422 435.148 487.892 435.148 487.892L470.568 486.794C470.568 486.794 437.617 480.077 441.325 469.793C445.033 459.509 515.873 469.793 515.873 469.793C515.873 469.793 536.876 455.397 594.129 460.746C651.377 466.091 620.899 482.957 620.899 482.957C620.899 482.957 726.544 485.012 762.584 488.301C798.623 491.589 869.678 496.39 869.678 496.39C869.678 496.39 465.626 502.297 456.976 498.999C448.326 495.701 470.983 492.413 470.983 492.413L326.005 493.055Z" fill="url(#paint2_radial_796_12869)"/>
<path d="M602.676 398.846C602.676 398.846 612.896 388.451 640.169 396.014C667.446 403.581 687.961 463.853 687.961 463.853C687.961 463.853 682.916 421.331 653.971 397.646C625.021 373.966 607.921 389.172 602.676 398.842V398.846Z" fill="#FFE58B"/>
<path d="M685.194 473.533C685.194 473.533 695.456 469.589 708.839 471.026C722.226 472.463 724.797 479.25 724.797 479.25C724.797 479.25 707.674 457.323 685.189 473.533H685.194Z" fill="#FFE58B"/>
<path d="M725.645 473.408C725.645 473.408 731.905 469.384 737.155 470.924C737.155 470.924 726.591 463.649 725.645 473.408Z" fill="#FFE58B"/>
<path d="M740.234 465.57C740.234 465.57 760.883 461.37 773.781 467.566C786.684 473.761 794.887 485.139 794.887 485.139C794.887 485.139 784.36 463.482 763.859 459.114C747.659 455.658 740.229 465.575 740.229 465.575L740.234 465.57Z" fill="#FFE58B"/>
<path d="M429.502 374.999C429.502 374.999 437.901 349.937 466.557 354.635C495.214 359.333 518.686 401.181 518.686 401.181C518.686 401.181 508.49 351.719 469.408 346.407C436.904 341.988 429.507 374.999 429.507 374.999H429.502Z" fill="#FFE58B"/>
<defs>
<linearGradient id="paint0_linear_796_12869" x1="600.002" y1="499.776" x2="600.002" y2="346.24" gradientUnits="userSpaceOnUse">
<stop stop-color="#FF8B90"/>
<stop offset="1" stop-color="#FFEFA4"/>
</linearGradient>
<linearGradient id="paint1_linear_796_12869" x1="562.319" y1="493.055" x2="562.319" y2="357.445" gradientUnits="userSpaceOnUse">
<stop stop-color="#D698C7"/>
<stop offset="1" stop-color="#FFDBFF"/>
</linearGradient>
<radialGradient id="paint2_radial_796_12869" cx="0" cy="0" r="1" gradientUnits="userSpaceOnUse" gradientTransform="translate(654.87 463.184) scale(257.89 110.732)">
<stop stop-color="#E4626A"/>
<stop offset="1" stop-color="#C75B7D"/>
</radialGradient>
</defs>
</svg>
