<svg width="1920" height="1080" viewBox="0 0 1920 1080" fill="none" xmlns="http://www.w3.org/2000/svg">
<path d="M950 589.118L951.177 589.13L1304.96 593.116C1304.96 593.116 1264.05 594.692 1262.48 596.265C1260.91 597.84 1495.89 598.363 1498.51 596.265C1501.13 594.166 1459.17 593.383 1459.17 593.383L1616 593.701L1561.97 586.818C1561.97 586.818 1559.09 581.307 1554.37 581.046C1549.65 580.785 1541 585.246 1541 585.246C1541 585.246 1539.95 573.962 1529.98 574.224C1520.01 574.485 1498.51 585.934 1498.51 585.934L1490.12 587.08C1490.12 587.08 1491.43 577.895 1473.86 578.684C1456.29 579.47 1445.27 588.917 1445.27 588.917C1445.27 588.917 1446.06 577.895 1442.91 577.633C1439.76 577.372 1436.88 580.257 1436.88 580.257C1436.88 580.257 1442.65 572.909 1438.19 572.122C1438.19 572.122 1452.61 529.349 1424.55 517.805C1396.49 506.257 1351.91 565.3 1351.91 565.3C1351.91 565.3 1349.81 559.002 1340.37 561.1C1330.92 563.199 1317.55 578.156 1317.55 578.156C1317.55 578.156 1318.07 569.496 1304.44 572.384C1304.44 572.384 1303.39 562.937 1278.21 564.774C1253.03 566.611 1250.14 580.586 1251.2 586.554L1231.79 589.703C1231.79 589.703 1239.14 577.895 1229.7 575.271C1229.7 575.271 1243.07 517.772 1203.21 509.035C1163.34 500.298 1146.56 571.544 1146.56 578.393C1146.56 578.393 1145.51 567.923 1128.72 570.024C1111.94 572.122 1095.68 586.818 1095.68 586.818C1095.68 586.818 1100.14 575.271 1085.32 570.55C1070.5 565.825 1039.56 585.246 1039.56 585.246L1019.63 586.296C1019.63 586.296 1012.85 580.595 996.023 578.396C979.2 576.2 974.517 585.771 974.517 585.771C974.517 585.771 975.042 582.358 970.584 581.572C966.126 580.785 962.454 586.557 962.454 586.557L950 589.118Z" fill="url(#paint0_linear_796_12860)"/>
<path d="M1498.51 596.265C1498.51 596.265 1492.35 593.914 1459.17 593.383C1426 592.852 1298.61 593.383 1298.61 593.383L1047.97 590.219L1260.11 596.262C1260.11 596.262 1244.25 599.542 1245.43 599.936C1246.61 600.331 1484.87 598.886 1498.51 596.262V596.265Z" fill="url(#paint1_linear_796_12860)"/>
<path style="mix-blend-mode:multiply" opacity="0.5" d="M1041.51 584.067C1041.51 584.067 1054.52 590.739 1074.65 590.222C1094.76 589.706 1095.68 586.818 1095.68 586.818L1111.36 576.016C1111.36 576.016 1100.27 583.682 1104.21 586.103C1108.14 588.525 1138.72 589.332 1142.31 587.943C1145.91 586.557 1146.56 578.393 1146.56 578.393C1146.56 578.393 1151.23 558.34 1155.4 550.245C1155.4 550.245 1142.21 575.927 1156.06 583.8C1169.9 591.674 1214.96 584.053 1222.62 578.393C1230.27 572.734 1230.91 569.051 1230.91 569.051L1229.7 575.271C1229.7 575.271 1214.33 582.106 1215.92 586.103C1217.5 590.098 1231.79 589.706 1231.79 589.706L1229.77 592.27L1251.2 586.557C1251.2 586.557 1284.04 592.315 1302.3 590.222C1320.56 588.13 1317.55 578.159 1317.55 578.159C1317.55 578.159 1317.02 582.607 1322.93 587.943C1328.83 593.279 1346.77 578.539 1346.77 578.539C1346.77 578.539 1342.99 587.231 1348.5 590.219C1354 593.208 1394.62 593.454 1416.21 578.393C1437.79 563.332 1441.48 542.042 1441.48 542.042C1441.48 542.042 1444.09 563.202 1438.19 572.122C1432.29 581.043 1422.45 590.219 1422.45 590.219C1422.45 590.219 1452.35 591.131 1472.81 590.219C1493.26 589.308 1490.11 587.08 1490.11 587.08L1498.51 585.934C1498.51 585.934 1505.06 589.952 1520.4 590.222C1535.75 590.492 1540.99 585.246 1540.99 585.246C1540.99 585.246 1538.19 588.379 1549.75 590.222C1561.32 592.068 1598.69 593.217 1598.69 593.217L1459.17 593.383L1260.1 596.265L951.178 589.13L990.86 587.943C990.86 587.943 994.647 582.227 1006.84 583.21C1019.04 584.195 1022.97 587.145 1022.97 587.145L1037.33 587.943L1041.51 584.067Z" fill="url(#paint2_linear_796_12860)"/>
<path d="M1095.68 586.818C1095.68 586.818 1110.37 575.037 1125.06 574.105C1139.74 573.173 1145.14 574.873 1145.14 574.873C1145.14 574.873 1128.99 557.69 1095.68 586.815V586.818Z" fill="#FFE58B"/>
<path d="M1039.56 585.243C1039.56 585.243 1060.92 574.565 1076.14 574.031C1091.37 573.499 1095.68 578.328 1095.68 578.328C1095.68 578.328 1083.88 556.64 1039.56 585.243Z" fill="#FFE58B"/>
<path d="M1150.82 561.569C1150.82 561.569 1162.82 520.309 1186.69 514.994C1210.56 509.679 1222.11 519.431 1222.11 519.431C1222.11 519.431 1207.92 503.64 1188.25 509.178C1162.3 516.481 1150.82 561.569 1150.82 561.569Z" fill="#FFFC9A"/>
<path d="M1317.55 578.159C1317.55 578.159 1327.99 566.407 1338.75 564.35C1349.52 562.296 1351.91 565.3 1351.91 565.3C1351.91 565.3 1338.8 548.244 1317.55 578.159H1317.55Z" fill="#FFE58B"/>
<defs>
<linearGradient id="paint0_linear_796_12860" x1="1283" y1="597.651" x2="1283" y2="508.296" gradientUnits="userSpaceOnUse">
<stop stop-color="#FCAC90"/>
<stop offset="1" stop-color="#FFEFA4"/>
</linearGradient>
<linearGradient id="paint1_linear_796_12860" x1="1311.63" y1="679.525" x2="1234.76" y2="507" gradientUnits="userSpaceOnUse">
<stop stop-color="#FC6A7C"/>
<stop offset="1" stop-color="#FFA693"/>
</linearGradient>
<linearGradient id="paint2_linear_796_12860" x1="1274.93" y1="596.265" x2="1274.93" y2="542.042" gradientUnits="userSpaceOnUse">
<stop stop-color="#D698C7"/>
<stop offset="1" stop-color="#FFDBFF"/>
</linearGradient>
</defs>
</svg>
