<svg width="1920" height="1080" viewBox="0 0 1920 1080" fill="none" xmlns="http://www.w3.org/2000/svg">
<path d="M445.215 643.257H630.157C630.157 643.257 616.477 646.101 616.477 647.236C616.477 648.371 757.542 650.69 757.542 650.69H813.215L793.398 647.236C793.398 647.236 795.443 642.175 786.949 640.006C778.458 637.838 762.102 643.723 762.102 643.723C762.102 643.723 753.611 631.645 736.31 631.645C719.008 631.645 711.776 636.602 711.776 636.602C711.776 636.602 715.863 629.789 706.113 628.24C696.363 626.692 687.242 632.265 687.242 632.265C687.242 632.265 680.324 590.452 647.612 595.408C614.901 600.365 603.579 634.742 603.579 634.742C603.579 634.742 582.189 621.424 569.295 625.14C556.4 628.857 554.198 635.05 554.198 635.05C554.198 635.05 540.358 617.396 534.698 619.564C529.035 621.732 532.809 626.997 532.809 626.997C532.809 626.997 525.261 617.704 497.583 621.42C469.905 625.137 453.236 639.075 453.236 639.075C453.236 639.075 452.923 634.738 450.092 635.978C447.26 637.218 445.215 643.257 445.215 643.257V643.257Z" fill="url(#paint0_linear_796_12855)"/>
<path d="M813.211 650.69C813.211 650.69 699.824 642.602 616.477 647.236C616.477 647.236 693.378 652.28 813.211 650.69Z" fill="url(#paint1_linear_796_12855)"/>
<path d="M445.215 643.257C445.215 643.257 528.722 637.078 626.223 643.257C626.223 643.257 518.969 647.033 445.215 643.257Z" fill="url(#paint2_linear_796_12855)"/>
<defs>
<linearGradient id="paint0_linear_796_12855" x1="629.211" y1="650.69" x2="629.211" y2="594.995" gradientUnits="userSpaceOnUse">
<stop stop-color="#FC8E90"/>
<stop offset="1" stop-color="#FFEFA4"/>
</linearGradient>
<linearGradient id="paint1_linear_796_12855" x1="731.767" y1="686.394" x2="698.778" y2="611.148" gradientUnits="userSpaceOnUse">
<stop stop-color="#FC6A7C"/>
<stop offset="1" stop-color="#FFA693"/>
</linearGradient>
<linearGradient id="paint2_linear_796_12855" x1="550.691" y1="676.373" x2="521.508" y2="609.807" gradientUnits="userSpaceOnUse">
<stop stop-color="#FFA693"/>
<stop offset="1" stop-color="#FC6A7C"/>
</linearGradient>
</defs>
</svg>
