<svg width="1920" height="1080" viewBox="0 0 1920 1080" fill="none" xmlns="http://www.w3.org/2000/svg">
<path d="M1042 186.526C1042 186.526 1082.41 143.935 1101.27 140.916C1120.14 137.898 1132.43 153.929 1132.43 153.929C1136.45 151.425 1141.07 150.058 1145.81 149.972C1153.35 149.972 1166.18 160.055 1166.18 160.055C1166.18 160.055 1193.89 77.5328 1230.33 64.068C1276.69 46.9302 1302.77 141.94 1302.77 141.94L1289.54 145.144C1289.54 145.144 1298.83 125.979 1318.16 145.144C1337.49 164.309 1338 186.446 1338 186.446L1245.41 177.137L1042 186.526Z" fill="url(#paint0_linear_796_15935)"/>
<path style="mix-blend-mode:multiply" opacity="0.5" d="M1230.32 64.0665C1230.32 64.0665 1203.15 94.1287 1201.65 119.786C1200.14 145.443 1214.48 145.144 1214.48 145.144L1199.14 157.098L1224.29 173.328L1161.65 167.33L1042 186.526C1042 186.526 1109.14 173.742 1117.1 169.592C1125.05 165.442 1132.43 153.929 1132.43 153.929C1132.43 153.929 1127.69 163.177 1130.71 164.687C1133.73 166.197 1150.33 163.725 1154.1 160.055C1157.88 156.385 1155.23 152.992 1155.23 152.992L1166.18 160.055C1166.18 160.055 1194.1 76.2621 1230.32 64.0665Z" fill="url(#paint1_linear_796_15935)"/>
<path d="M1218.25 143.496C1218.25 143.496 1260.51 118.563 1302.77 141.94C1302.77 141.94 1306.07 153.79 1287.82 160.055C1269.57 166.32 1236.36 167.33 1236.36 167.33C1236.36 167.33 1290.69 171.344 1337.99 186.444C1337.99 186.444 1107.52 266.391 1042 186.524L1107.52 174.039C1107.52 174.039 1119.64 172.362 1140.77 167.329C1161.9 162.295 1224.27 173.327 1224.27 173.327L1197.61 160.628C1197.61 160.628 1198.82 151.31 1218.25 143.496Z" fill="url(#paint2_radial_796_15935)"/>
<defs>
<linearGradient id="paint0_linear_796_15935" x1="1216.05" y1="240.695" x2="1204.52" y2="94.4016" gradientUnits="userSpaceOnUse">
<stop offset="0.275" stop-color="#FC6A7C"/>
<stop offset="1" stop-color="#FFEFA4"/>
</linearGradient>
<linearGradient id="paint1_linear_796_15935" x1="1136.16" y1="186.526" x2="1136.16" y2="64.0665" gradientUnits="userSpaceOnUse">
<stop offset="0.008" stop-color="#D698C7"/>
<stop offset="1" stop-color="#FFDBFF"/>
</linearGradient>
<radialGradient id="paint2_radial_796_15935" cx="0" cy="0" r="1" gradientUnits="userSpaceOnUse" gradientTransform="translate(-513.292 176.969) scale(109.235 109.334)">
<stop stop-color="#D7586A"/>
<stop offset="1" stop-color="#A64A8E"/>
</radialGradient>
</defs>
</svg>
