<svg width="1920" height="1080" viewBox="0 0 1920 1080" fill="none" xmlns="http://www.w3.org/2000/svg">
<path d="M684 670.861L958.314 673L908.165 669.305C908.165 669.305 904.126 655.337 895.375 653.543C886.623 651.752 881.237 663.196 881.237 663.196C881.237 663.196 868.112 641.365 845.222 641.005C822.333 640.648 819.977 660.349 819.977 660.349C819.977 660.349 815.264 656.01 807.186 656.925C799.109 657.841 800.118 663.573 800.118 663.573L789.684 666.259C789.684 666.259 776.893 658.914 762.082 658.558C747.27 658.202 740.205 666.676 740.205 666.676L725.732 668.945C725.732 668.945 716.307 664.647 707.555 664.647C698.804 664.647 697.121 668.945 697.121 668.945L684 670.861Z" fill="url(#paint0_linear_796_12851)"/>
<path d="M684 670.861C684 670.861 817.963 666.559 859.025 666.676C900.087 666.798 960 672.996 960 672.996C960 672.996 721.697 672.773 684 670.857V670.861Z" fill="url(#paint1_linear_796_12851)"/>
<defs>
<linearGradient id="paint0_linear_796_12851" x1="821.157" y1="672.996" x2="821.157" y2="641.001" gradientUnits="userSpaceOnUse">
<stop stop-color="#FCAC90"/>
<stop offset="1" stop-color="#FFEFA4"/>
</linearGradient>
<linearGradient id="paint1_linear_796_12851" x1="845.203" y1="727.389" x2="793.774" y2="618.848" gradientUnits="userSpaceOnUse">
<stop stop-color="#FC6A7C"/>
<stop offset="1" stop-color="#FFA693"/>
</linearGradient>
</defs>
</svg>
