<svg width="1920" height="1080" viewBox="0 0 1920 1080" fill="none" xmlns="http://www.w3.org/2000/svg">
<path d="M1003.67 642.875C1003.67 642.875 1013.9 635.283 1023.2 634.335C1032.5 633.386 1043.04 638.606 1043.04 638.606C1043.04 638.606 1041.49 635.687 1045.52 634.22C1049.55 632.753 1068.46 636.868 1068.46 636.868C1068.46 636.868 1065.98 625.479 1079 618.521C1092.02 611.562 1104.42 625.165 1104.42 625.165C1104.42 625.165 1105.35 619.909 1110 616.539C1114.65 613.168 1116.51 618.836 1116.51 618.836C1116.51 618.836 1136.04 599.222 1160.84 603.651C1185.64 608.081 1170.76 631.175 1170.76 631.175C1170.76 631.175 1185.64 626.431 1192.46 628.327C1199.28 630.227 1187.81 637.186 1187.81 637.186H1214.78C1221.29 637.186 1220.05 641.297 1220.05 641.297L1260.97 640.664C1260.97 640.664 1270.28 622.317 1291.97 625.161C1313.67 628.009 1300.03 642.878 1300.03 642.878C1300.03 642.878 1306.85 639.082 1311.19 640.03C1315.53 640.979 1313.36 644.46 1313.36 644.46L1378 647.308H1062.72C1062.72 647.308 1064.12 648.256 1063.65 650.156C1063.19 652.055 976 650.156 976 650.156L1007.85 647.072C1007.85 647.072 1002.97 646.281 1003.67 642.878L1003.67 642.875Z" fill="url(#paint0_linear_796_12847)"/>
<path d="M1378 647.304C1378 647.304 1130.92 641.862 1095.43 642.449C1059.93 643.036 1062.72 647.304 1062.72 647.304H1378Z" fill="url(#paint1_linear_796_12847)"/>
<defs>
<linearGradient id="paint0_linear_796_12847" x1="1177" y1="650.996" x2="1177" y2="602.997" gradientUnits="userSpaceOnUse">
<stop stop-color="#FC8E90"/>
<stop offset="1" stop-color="#FFEFA4"/>
</linearGradient>
<linearGradient id="paint1_linear_796_12847" x1="1246.44" y1="707.079" x2="1192.13" y2="587.55" gradientUnits="userSpaceOnUse">
<stop stop-color="#FC6A7C"/>
<stop offset="1" stop-color="#FFA693"/>
</linearGradient>
</defs>
</svg>
