<svg width="1920" height="1080" viewBox="0 0 1920 1080" fill="none" xmlns="http://www.w3.org/2000/svg">
<path fill-rule="evenodd" clip-rule="evenodd" d="M674.415 766.632C674.415 766.632 677.503 766.856 679.354 766.179C681.206 765.498 681.413 767.085 683.057 767.994C684.704 768.899 687.585 770.033 689.644 770.938C691.702 771.844 693.761 771.844 697.26 772.072C700.759 772.296 703.847 771.844 705.494 771.844C707.142 771.844 707.756 773.43 711.463 773.43C715.169 773.43 721.96 773.883 723.811 773.43C725.662 772.977 728.131 773.659 729.161 773.883C730.19 774.111 731.219 776.603 731.219 777.284C731.219 777.965 731.535 779.111 731.726 779.111C731.917 779.111 732.971 778.953 733.066 779.373C733.162 779.796 733.116 782.222 733.403 782.429C733.689 782.641 734.025 782.799 734.025 782.799C734.025 782.799 737.138 783.43 738.861 783.642C740.583 783.854 744.414 783.011 744.991 783.854C745.564 784.697 750.162 784.908 750.162 784.908C750.162 784.908 758.397 784.908 759.738 785.332C761.078 785.751 765.868 785.12 773.912 785.332C781.955 785.544 775.688 783.741 788.277 788.073C800.865 792.404 729.069 822.964 710.894 822.234C705.179 822.005 669.115 827.728 639.8 820.107C599.328 809.584 563.393 785.241 562.837 785.12C561.878 784.908 583.523 783.854 586.972 783.011C590.421 782.168 592.72 779.215 594.443 779.427C596.165 779.639 600.187 781.744 601.723 781.744C603.259 781.744 606.513 781.956 608.426 781.744C610.344 781.532 618.192 776.47 619.728 775.208C621.259 773.941 620.878 773.31 622.027 773.31C623.177 773.31 622.218 774.996 625.09 773.098C627.963 771.2 628.539 769.302 630.644 769.722C632.752 770.145 636.384 767.703 637.534 768.335C638.683 768.966 643.668 774.784 644.05 775.627C644.432 776.47 647.856 776.644 650.346 776.221C652.837 775.801 658.706 773.866 660.046 772.6C661.387 771.333 662.37 770.527 663.329 770.527C664.288 770.527 663.91 768.007 664.678 767.375C665.446 766.744 667.417 763.185 668.185 763.397C668.953 763.609 674.411 766.628 674.411 766.628L674.415 766.632Z" fill="url(#paint0_linear_796_11813)"/>
<path fill-rule="evenodd" clip-rule="evenodd" d="M668.073 763.368C668.073 763.368 672.066 767.056 672.842 768.75C672.975 769.037 671.153 768.978 671.153 769.19C671.153 770.664 672.153 772.575 673.992 774.265C674.884 774.302 676.943 774.892 679.633 775.831C681.065 776.333 696.384 776.225 698.094 776.898C699.663 777.512 687.602 778.899 689.274 779.61C693.695 780.029 696.015 785.585 699.335 788.343C701.485 790.129 710.625 791.271 711.725 792.857C709.932 791.677 701.875 791.661 699.373 790.847C688.76 787.4 674.345 783.725 674.129 784.452C671.639 783.397 663.022 787.23 660.532 787.442C658.042 787.653 650.662 788.081 650.662 788.081C650.662 788.081 659.382 792.288 669.153 793.766C673.623 795.162 683.194 798.251 688.336 797.296C695.998 796.561 696.293 799.144 697.833 800.892C698.688 800.851 704.403 801.839 710.94 801.179C716.846 800.585 723.541 798.305 725.749 798.816C729.074 799.584 716.394 804.335 716.651 804.526C717.162 804.962 705.441 804.925 698.443 806.358C694.99 807.068 676.441 807.761 675.304 808.301C674.009 809.094 665.89 799.962 655.854 800.934C639.148 802.554 609.667 807.383 607.874 806.461C605.002 804.987 627.203 796.723 631.42 795.668C635.633 794.613 639.846 791.241 640.995 788.077C642.145 784.913 643.295 784.07 644.058 784.07C644.822 784.07 649.421 781.96 651.143 781.96C652.866 781.96 656.892 782.172 656.892 782.172C656.892 782.172 655.169 779.431 653.252 779.219C651.334 779.007 648.653 777.745 646.931 777.11C645.208 776.478 638.887 769.306 637.546 768.252C636.766 769.157 634.865 769.938 634.097 770.993C633.329 772.047 627.203 776.898 626.817 777.953C626.435 779.007 628.349 778.796 629.498 780.693C630.648 782.591 623.754 784.489 622.027 785.544C620.305 786.599 611.493 786.387 609.767 785.332C608.044 784.277 599.615 781.113 599.615 781.113C597.826 780.482 596.037 779.846 594.252 779.215C594.252 779.215 599.615 783.43 599.424 784.485C599.233 785.54 593.293 784.697 591.38 785.328C589.466 785.959 582.763 786.802 582.763 786.802C574.08 786.383 565.398 785.959 556.715 785.536C556.715 785.536 589.985 818.347 600.905 820.456C611.821 822.566 740.973 824.966 756.297 817.798C771.621 810.631 793.071 786.167 793.071 786.167C793.071 786.167 769.243 781.325 768.284 781.325C767.325 781.325 748.183 780.382 747.415 779.958C746.647 779.535 742.285 779.502 741.326 779.502C740.367 779.502 739.342 780.1 739.151 779.049C738.96 777.994 736.196 778.526 735.237 777.683C734.278 776.84 731.772 776.462 731.39 775.619C731.008 774.776 730.24 773.09 729.476 773.09C728.713 773.09 715.111 772.458 713.58 772.458C712.048 772.458 708.599 771.404 707.068 770.561C705.536 769.718 697.683 771.615 695.957 771.192C694.234 770.772 687.336 769.713 686.186 768.239C685.037 766.765 683.696 764.655 682.355 765.075C681.015 765.494 677.566 765.287 676.802 765.287C676.038 765.287 674.694 764.672 673.93 764.02C673.162 763.372 668.92 763.044 668.065 763.356L668.073 763.368Z" fill="url(#paint1_linear_796_11813)"/>
<path fill-rule="evenodd" clip-rule="evenodd" d="M1192.94 720.595C1192.94 720.595 1158.05 717.559 1154 716.546C1149.96 715.532 1143.39 712.497 1143.39 712.497C1143.39 712.497 1129.74 719.075 1126.2 718.568C1123.44 718.174 1114.52 717.887 1109.67 718.722C1108.3 718.958 1107.54 719.752 1106.98 720.084C1104.46 721.604 1086.25 722.11 1082.72 721.604C1079.17 721.097 1047.32 710.47 1047.32 710.47C1047.32 710.47 1032.16 701.359 1030.13 701.359C1028.11 701.359 1018.5 698.323 1014.46 699.332C1010.41 700.346 1005.86 701.359 1003.84 702.875C1001.82 704.395 992.574 712.688 990.553 711.674C988.531 710.661 980.583 708.946 980.583 708.946C979.309 709.299 978.724 709.88 978.113 710.454C977.985 710.325 977.694 710.42 977.346 710.599C975.756 711.45 974.175 712.326 972.494 712.999C970.904 713.481 969.63 713.863 968.04 714.345C967.525 714.602 966.866 714.992 966.571 715.296C965.222 715.429 964.413 715.773 963.392 716.039C963.392 716.039 940.136 713.003 936.089 711.99C932.043 710.977 928 705.412 924.966 704.399C921.932 703.385 914.855 702.879 912.83 702.372C910.808 701.866 905.753 703.892 903.728 705.408C901.706 706.928 889.57 710.47 889.57 710.47L877.941 725.653C877.941 725.653 864.796 732.737 862.774 735.773C860.753 738.809 827.885 751.462 824.855 753.991C821.821 756.52 809.183 760.063 809.183 760.063L793.51 767.147C793.51 767.147 783.4 775.245 780.366 776.761C777.332 778.281 755.591 783.846 755.591 783.846L726.774 788.908C726.774 788.908 719.191 794.472 714.638 795.992C710.089 797.512 695.931 802.064 692.391 802.57C688.851 803.077 651.774 814.157 646.312 812.637C643.49 811.852 617.756 809.123 599.083 808.692C581.651 808.289 566.173 812.72 566.634 812.72C566.634 812.72 682.239 852.553 817.737 849.518C953.239 846.482 1134.13 839.31 1182.67 818.052C1231.2 796.798 1275.35 738.298 1275.35 738.298C1275.35 738.298 1232.88 726.151 1226.31 723.622C1219.73 721.093 1192.94 720.586 1192.94 720.586V720.595Z" fill="url(#paint2_linear_796_11813)"/>
<path fill-rule="evenodd" clip-rule="evenodd" d="M831.297 788.808C831.297 788.808 843.242 777.965 846.019 777.13C848.796 776.296 848.796 773.796 849.908 774.352C851.021 774.909 857.13 775.743 858.242 776.578C859.355 777.413 861.853 775.187 860.463 776.578C859.073 777.969 856.574 779.639 852.963 782.139C849.352 784.643 847.41 785.473 848.796 785.473C850.182 785.473 857.13 783.526 863.518 778.8C869.905 774.074 877.63 764.145 882.627 761.919C887.628 759.693 886.346 755.984 888.57 755.706C890.795 755.428 898.702 750.245 903.981 749.689C909.261 749.132 910.801 746.794 913.855 745.964C916.91 745.129 923.8 742.654 923.8 742.654C923.8 742.654 924.12 741.495 926.896 738.713C929.673 735.931 930.283 734.61 934.446 731.828C938.613 729.049 945.777 724.647 948.002 724.647C949.193 724.647 919.396 747.122 903.658 758.613C900.819 760.685 896.855 765.664 890.318 769.738C882.079 774.875 867.693 779.68 868.287 779.298C868.474 779.178 881.294 777.134 890.438 772.409C901.773 766.549 914.121 756.744 921.198 752.317C934.11 744.244 947.578 733.937 952.783 730.424C956.979 727.592 962.508 719.772 962.682 719.573C965.181 716.795 967.127 715.125 967.127 715.125C967.127 715.125 963.238 716.238 961.296 715.96C959.353 715.682 938.796 712.625 936.853 712.069C934.907 711.512 929.632 708.178 927.685 706.508C925.742 704.839 923.518 703.452 920.185 702.895C916.852 702.339 911.851 702.061 911.851 702.061C911.851 702.061 907.596 704.677 904.264 706.342C900.931 708.011 897.029 708.344 895.917 709.178C895.232 709.693 891.924 709.843 890.376 710.308C889.417 710.599 890.052 711.193 889.629 711.512C888.516 712.347 893.24 711.791 897.963 712.625C902.686 713.46 910.738 713.46 910.738 713.46C910.738 713.46 904.907 718.186 905.459 720.69C906.015 723.194 904.625 726.807 904.625 726.807L897.959 732.089C897.959 732.089 894.904 735.98 894.07 737.65C893.236 739.319 886.014 742.654 882.959 743.767C879.904 744.88 868.793 750.44 867.959 750.997C867.125 751.553 871.848 750.162 873.79 750.719C875.733 751.275 872.678 756.001 869.067 759.062C865.456 762.122 860.181 764.066 859.068 764.9C857.956 765.735 865.456 764.9 864.622 767.126C863.788 769.352 856.288 770.183 854.623 770.183C852.959 770.183 845.455 772.965 843.79 774.909C842.122 776.856 832.679 782.695 836.568 778.8C840.457 774.909 845.733 772.126 846.845 767.4C847.957 762.674 849.622 758.501 849.622 758.501C849.622 758.501 846.289 766.009 844.62 767.957C842.952 769.904 837.398 775.743 835.452 777.13C833.505 778.521 834.34 780.187 832.953 782.691C831.563 785.195 829.342 787.417 827.952 788.53C826.561 789.643 825.237 791.486 820.174 791.59C815.11 791.694 800.467 793.808 800.816 794.277C800.816 794.277 819.618 793.538 824.059 792.425C828.504 791.312 829.616 790.756 834.057 791.868C838.503 792.981 852.544 798.617 852.544 798.617C852.544 798.617 835.726 789.921 831.281 788.812L831.297 788.808Z" fill="url(#paint3_linear_796_11813)"/>
<path fill-rule="evenodd" clip-rule="evenodd" d="M752.968 786.582C755.189 787.138 781.856 792.421 784.911 792.977C787.966 793.534 792.133 789.086 797.964 791.586C803.8 794.086 810.188 801.038 817.966 802.151C825.744 803.264 835.576 808.268 838.353 809.381C841.13 810.494 874.608 816.768 874.608 816.768C874.608 816.768 841.678 813.035 838.345 811.922C835.012 810.809 823.519 807.927 817.683 805.979C811.852 804.032 794.631 796.038 796.852 798.26C799.072 800.485 799.35 802.151 804.352 804.098C809.353 806.046 795.183 802.707 789.63 799.651C787.907 798.704 786.243 799.065 784.923 798.529C784.106 798.197 758.775 800.328 750.084 804.783C759.642 797.201 782.022 795.323 780.827 795.98C779.577 795.585 778.307 795.191 776.855 794.647C772.409 792.977 759.634 788.808 758.244 789.086C756.853 789.364 752.134 791.59 750.187 790.755C748.241 789.921 745.464 788.812 744.356 788.251C743.244 787.695 727.687 788.808 727.687 788.808C727.687 788.808 743.518 785.747 745.742 785.747C747.967 785.747 752.964 784.356 752.964 786.582H752.968Z" fill="url(#paint4_linear_796_11813)"/>
<path fill-rule="evenodd" clip-rule="evenodd" d="M780.465 777.13C780.465 777.13 781.856 776.296 787.131 774.352C792.411 772.405 789.912 772.404 797.134 771.017C804.356 769.626 812.412 769.07 812.964 767.957C813.52 766.844 808.797 765.731 814.911 765.731C821.024 765.731 824.353 761.562 824.075 761.283C823.797 761.005 827.13 759.057 828.798 757.945C830.467 756.832 844.907 750.715 843.798 752.106C842.686 753.497 829.355 760.723 827.408 764.34C825.466 767.953 813.798 774.626 813.798 774.626C813.798 774.626 825.187 768.787 828.798 766.84C832.409 764.892 839.909 755.719 842.13 755.44C843.558 755.262 845.098 755.768 847.418 754.834C848.709 754.311 840.922 766.4 842.811 764.61C843.985 763.497 854.59 749.128 855.881 747.766C860.38 743.024 864.908 737.646 864.908 737.646C864.908 737.646 867.685 734.589 867.133 735.698C866.577 736.811 871.856 732.085 872.964 732.085C874.072 732.085 873.798 731.25 879.352 732.085C884.905 732.92 892.405 734.589 890.463 733.755C888.52 732.92 883.241 729.307 880.742 728.751C878.244 728.194 876.853 728.472 879.356 726.803C881.855 725.133 882.133 726.525 885.188 726.803C888.242 727.081 888.242 724.577 890.189 721.799C892.131 719.016 896.02 716.516 894.078 716.516C892.135 716.516 891.857 716.238 890.745 714.569C889.633 712.899 889.077 710.956 889.077 710.956C889.077 710.956 879.074 724.025 877.409 725.694C875.741 727.363 871.022 728.198 868.519 730.142C866.02 732.089 861.575 736.259 859.35 737.093C857.13 737.928 841.018 745.71 839.905 746.267C838.793 746.823 822.963 753.775 821.85 754.61C820.738 755.445 812.13 757.945 812.13 757.945C812.13 757.945 794.353 764.896 794.075 766.009C793.797 767.122 781.852 774.074 781.852 774.074C781.852 774.074 774.605 776.657 772.683 777.691C771.758 778.189 766.337 778.443 761.908 779.95C757.177 781.561 751.723 785.345 751.578 785.382C751.578 785.382 777.685 779.356 780.183 779.082C782.682 778.804 788.517 777.969 785.741 777.413C782.964 776.856 780.461 777.135 780.461 777.135L780.465 777.13Z" fill="url(#paint5_linear_796_11813)"/>
<path fill-rule="evenodd" clip-rule="evenodd" d="M980.575 708.996C980.575 708.996 980.737 712.069 978.516 713.738C976.296 715.408 975.74 715.408 975.74 715.408C975.74 715.408 979.073 716.242 982.684 716.242C986.294 716.242 987.407 715.408 987.407 715.408C987.407 715.408 984.63 717.634 985.743 719.577C986.855 721.525 987.133 722.359 987.133 722.359C987.133 722.359 982.41 730.981 979.911 733.202C977.412 735.428 968.244 747.106 967.688 750.162C967.132 753.219 967.132 760.727 959.91 765.174C952.688 769.622 948.799 774.352 942.689 777.687C936.579 781.021 913.179 792.276 915.399 792.276C917.62 792.276 929.785 785.714 931.454 788.214C931.889 788.866 930.213 789.315 927.876 790.843C927.324 791.204 906.447 797.379 887.192 800.174C875.218 801.91 865.149 800.71 864.725 800.959C864.157 801.287 874.79 803.243 886.395 802.005C903.886 800.141 924.941 794.751 923.983 795.274C917.537 798.791 899.922 804.202 897.332 804.277C900.15 806.769 927.971 798.538 921.306 802.429C914.64 806.324 886.582 810.215 884.362 810.494C882.141 810.772 914.64 813.828 926.029 811.328C937.418 808.824 967.696 808.546 975.196 807.159C982.696 805.768 998.979 804.368 998.979 804.368C998.979 804.368 1017.29 809.75 1022.84 808.637C1028.4 807.525 1059.29 810.809 1069.84 804.971C1080.4 799.132 1088.46 789.9 1094.57 788.509C1100.67 787.118 1104.92 769.344 1104.92 769.344C1104.92 769.344 1175.47 750.993 1186.03 747.38C1196.58 743.763 1222.41 721.52 1222.41 721.52C1222.41 721.52 1165.47 717.908 1162.97 716.795C1160.47 715.682 1145.47 712.069 1144.08 712.069C1142.69 712.069 1141.68 713.805 1136.12 716.026C1130.57 718.252 1128.8 718.464 1127.69 718.464C1126.58 718.464 1111.3 718.186 1109.64 718.742C1112.38 719.789 1110.93 721.587 1113.7 721.587C1116.48 721.587 1118.25 722.355 1120.75 722.633C1123.25 722.912 1123.8 722.912 1123.8 722.912C1123.8 722.912 1118.24 724.025 1115.47 724.025C1112.69 724.025 1106.3 723.746 1103.52 723.468C1100.75 723.19 1084.63 723.468 1082.13 722.355C1079.64 721.242 1055.75 712.625 1054.35 712.069C1052.96 711.512 1036.3 704.282 1035.19 703.452C1034.08 702.617 1030.46 700.948 1029.36 700.669C1028.24 700.391 1014.91 699 1014.91 699C1014.91 699 1008.52 703.169 1007.97 704.561C1007.41 705.952 1005.19 707.065 1003.25 707.065C1001.3 707.065 997.692 710.125 996.58 710.404C995.467 710.682 992.379 711.255 991.661 711.662C992.774 711.94 984.078 709.291 984.078 709.291C982.617 709.311 982.352 709.133 980.583 708.996H980.575Z" fill="url(#paint6_linear_796_11813)"/>
<path fill-rule="evenodd" clip-rule="evenodd" d="M1030.18 708.178C1030.18 708.178 1026.01 710.404 1023.79 709.569C1021.57 708.734 1023.79 710.96 1024.35 713.46C1024.9 715.96 1022.4 718.186 1023.51 719.299C1024.62 720.412 1026.01 722.633 1028.79 725.138C1031.56 727.642 1030.73 727.085 1032.12 727.642C1033.51 728.198 1045.21 735.22 1047.98 736.612C1050.76 738.003 1052.06 740.042 1056.23 741.433C1060.39 742.824 1065.22 748.19 1072.16 749.581C1073.24 749.734 1072.3 749.257 1070.01 751.848C1062.85 754.784 1059.63 763.052 1059.63 763.052C1059.63 763.052 1093.27 765.897 1098.27 765.897C1103.26 765.897 1111.79 761.371 1118.18 762.758C1124.57 764.149 1134.48 761.877 1139.21 764.66C1143.93 767.438 1144.62 754.614 1144.62 754.614C1149.66 740.565 1171.78 753.015 1185.15 751.009C1186.37 750.827 1151.4 733.248 1193.76 733.248C1195.15 733.248 1164.88 732.206 1156.82 732.206C1153.59 732.206 1145.92 735.204 1143.2 735.233C1139.15 735.274 1140.48 730.619 1138.66 730.121C1135.6 729.286 1117.28 735.05 1117.28 735.05C1117.28 735.05 1126.57 727.372 1134.63 726.815C1142.68 726.259 1142.95 724.868 1142.95 724.868C1142.95 724.868 1127.15 722.92 1125.21 722.364C1124.45 722.148 1125.04 724.34 1122.95 724.689C1119.7 725.233 1112.87 724.349 1111.56 725.146C1094.88 735.279 1108.79 725.266 1106.4 725.262C1101.26 725.25 1094.19 725.059 1092.67 724.868C1090.45 724.589 1079.89 722.363 1077.39 720.976C1074.9 719.585 1049.34 709.299 1047.67 708.464C1046 707.629 1036.56 704.017 1035.17 702.904C1033.78 701.791 1027.39 700.956 1025.45 700.121C1023.51 699.287 1014.9 699.008 1014.9 699.008C1014.9 699.008 1024.06 702.065 1024.62 703.734C1025.17 705.404 1022.95 704.291 1024.34 705.125C1025.73 705.96 1032.12 707.629 1030.17 708.182L1030.18 708.178Z" fill="url(#paint7_linear_796_11813)"/>
<path fill-rule="evenodd" clip-rule="evenodd" d="M1143.51 712.347C1143.51 712.347 1143.23 714.573 1146.57 716.238C1149.9 717.908 1151.29 718.742 1151.29 718.742C1151.29 718.742 1144.35 718.464 1142.12 718.186C1139.9 717.908 1138.79 717.629 1138.79 717.629C1138.79 717.629 1142.12 719.299 1145.45 719.855C1148.79 720.412 1145.84 725.009 1156.42 724.452C1166.99 723.892 1174.33 731.417 1182.66 731.973C1191 732.529 1206.56 727.92 1209.9 728.476C1213.23 729.033 1222.96 721.803 1222.96 721.803C1222.96 721.803 1198.24 720.416 1185.18 719.859C1179.14 719.602 1172.5 716.894 1168.26 716.255C1163.34 715.511 1160.39 715.985 1159.35 715.686C1157.4 715.129 1151.29 713.738 1149.9 713.186C1148.51 712.629 1143.52 712.351 1143.52 712.351L1143.51 712.347Z" fill="url(#paint8_linear_796_11813)"/>
<path fill-rule="evenodd" clip-rule="evenodd" d="M991.98 711.953C991.98 711.953 991.018 713.734 994.072 713.734C997.127 713.734 996.849 712.899 999.074 712.899C1001.3 712.899 1002.41 711.23 1001.85 713.178C1001.29 715.125 1001.29 718.182 1002.96 719.573C1004.63 720.964 1008.24 724.855 1008.79 725.968C1009.35 727.081 1013.52 732.363 1013.52 736.255C1013.52 740.146 1011.3 738.759 1014.07 742.372C1016.85 745.985 1017.68 747.098 1017.68 747.098C1017.68 747.098 1017.13 749.045 1019.63 751.267C1022.13 753.489 1022.68 756.549 1026.29 758.775C1029.9 761.001 1036.85 767.396 1036.85 767.396C1036.85 767.396 1024.35 761.557 1022.68 759.888C1021.01 758.219 1021.85 758.219 1019.63 757.94C1017.41 757.662 1015.74 753.771 1014.35 752.102C1012.96 750.432 1012.41 750.154 1008.52 745.706C1004.63 741.259 1002.68 736.807 1002.68 736.807C1002.68 736.807 1000.46 745.15 1001.02 747.928C1001.58 750.706 1002.13 752.376 1002.13 752.376C1002.13 752.376 1000.19 758.215 999.634 759.606C999.078 760.997 999.078 755.158 999.078 752.932C999.078 750.706 996.301 751.819 996.579 747.372C996.857 742.924 999.356 736.529 997.97 732.359C996.579 728.19 996.857 727.077 994.637 724.016C992.416 720.956 991.582 722.625 991.86 725.408C992.138 728.19 990.748 731.246 988.527 732.638C986.307 734.029 984.916 733.472 984.916 733.472C984.916 733.472 983.526 737.085 982.14 737.92C980.749 738.755 980.749 737.085 977.694 739.589C974.639 742.093 969.916 745.985 969.36 747.654C968.804 749.323 967.418 750.989 967.418 750.989C967.418 750.989 971.029 741.537 972.975 740.146C974.918 738.755 973.253 738.476 977.142 735.142C981.031 731.807 980.882 726.13 981.99 724.187C983.102 722.239 987.419 720.686 987.971 719.295C988.527 717.904 988.917 717.758 987.809 717.758C986.796 717.758 988.589 716.23 987.353 715.516C987.473 715.636 984.397 716.45 984.053 716.222C984.393 715.844 985.887 714.739 985.58 714.681C985.02 714.577 984.705 714.585 983.808 713.688C984.053 712.036 980.637 708.946 980.637 708.946C980.637 708.946 989.494 709.453 991.993 711.957L991.98 711.953Z" fill="url(#paint9_linear_796_11813)"/>
<path fill-rule="evenodd" clip-rule="evenodd" d="M926.016 705.117C926.016 705.117 929.349 708.456 931.296 709.843C933.242 711.234 937.683 712.069 936.297 712.347C934.907 712.625 927.963 714.295 926.298 715.96C924.63 717.629 922.131 717.351 922.131 717.351C922.131 717.351 920.463 717.073 918.52 717.629C916.574 718.186 912.411 719.021 914.909 718.186C917.408 717.351 914.075 716.238 916.3 715.129C918.52 714.016 918.246 714.295 917.69 712.903C917.134 711.512 920.467 709.012 920.745 707.621C921.023 706.23 921.579 705.952 919.911 705.117C918.246 704.282 917.968 702.613 917.968 702.613C917.968 702.613 924.912 703.448 926.024 705.117H926.016Z" fill="url(#paint10_linear_796_11813)"/>
<path fill-rule="evenodd" clip-rule="evenodd" d="M1049.07 709.286C1049.07 709.286 1062.88 712.704 1075.72 718.933C1084.73 723.306 1092.64 730.644 1097.68 732.363C1109.91 736.533 1116.57 739.95 1120.46 740.229C1124.35 740.507 1130.18 742.65 1137.96 743.206C1145.74 743.763 1166.01 744.041 1162.68 745.71C1159.35 747.38 1153.79 751.271 1153.79 751.271C1153.79 751.271 1155.39 749.946 1144.28 749.668C1136.31 749.469 1111.56 751.865 1106.35 751.204C1104.3 750.943 1157.02 768.293 1153.96 768.293C1152.17 768.293 1124.47 759.091 1122.96 759.024C1115.26 758.684 1104.08 753.086 1102.68 754.713C1101.34 756.279 1100.27 755.311 1097.21 755.64C1096.47 755.718 1071.92 760.889 1070.72 761.271C1067.84 762.188 1089.73 754.884 1087 754.14C1083.92 753.302 1081.13 752.101 1079.07 752.101C1075.18 752.101 1074.34 750.71 1071.57 752.101C1068.79 753.493 1063.47 755.785 1063.47 755.785C1063.47 755.785 1068.79 750.154 1071.84 749.876C1074.9 749.597 1077.12 749.597 1083.23 747.65C1089.34 745.702 1091.85 746.537 1091.57 743.758C1091.29 740.98 1089.35 739.311 1088.24 739.311C1087.12 739.311 1095.18 737.92 1096.57 737.92C1097.96 737.92 1099.9 736.807 1097.13 736.528C1094.35 736.25 1064.91 725.407 1069.07 727.907C1073.24 730.411 1084.89 742.733 1081.41 742.521C1078.24 739.199 1065.18 731.803 1059.07 724.573C1052.96 717.343 1046.29 715.399 1041.02 713.452C1035.74 711.504 1035.19 712.617 1034.07 710.669C1032.96 708.721 1026.85 710.669 1025.19 710.113C1023.52 709.556 1022.97 709.278 1022.97 709.278C1022.97 709.278 1027.69 709.278 1030.19 707.887C1032.69 706.496 1032.69 706.217 1031.02 705.383C1029.36 704.548 1032.14 705.661 1028.8 703.157C1025.47 700.653 1023.81 699.822 1023.81 699.822C1023.81 699.822 1030.19 699.544 1033.53 701.492C1036.86 703.439 1048.53 709 1049.08 709.278L1049.07 709.286Z" fill="url(#paint11_linear_796_11813)"/>
<path fill-rule="evenodd" clip-rule="evenodd" d="M967.696 776.728C967.696 776.728 958.1 788.825 954.9 790.249C951.7 791.673 948.5 794.165 947.79 795.585C947.08 797.01 939.261 800.922 941.037 801.279C942.813 801.636 940.68 800.922 948.147 801.279C955.61 801.636 958.1 800.211 966.272 799.501C974.449 798.791 973.382 798.077 978.002 796.657C982.621 795.232 989.374 789.543 995.064 786.694C1000.75 783.85 1004.31 781.715 1012.13 780.291C1019.95 778.866 1024.32 777.446 1024.32 777.446C1024.32 777.446 1025.99 777.089 1032.74 776.736C1039.5 776.379 1045.9 773.891 1045.9 773.891C1045.9 773.891 1035.59 778.87 1030.26 779.585C1024.92 780.295 1022.79 781.719 1019.95 783.144C1017.11 784.564 1014.97 786.345 1007.51 789.904C1000.05 793.463 996.139 793.816 998.983 793.816C1001.83 793.816 1003.25 792.039 1011.78 790.967C1020.31 789.9 1028.48 787.766 1037.01 786.698C1045.54 785.631 1052.3 782.786 1057.99 780.652C1063.67 778.517 1079.08 780.378 1086.19 780.021C1093.3 779.664 1110.95 768.555 1110.95 768.555C1110.95 768.555 1096.23 785.054 1093.74 786.831C1092.35 787.824 1072.02 792.558 1053.37 796.599C1049.35 797.466 1040.93 801.108 1030.29 805.187C1022.84 808.044 1100.11 790.83 1095.97 803.679C1091.39 804.962 1000.07 819.082 995.533 820.137C975.308 824.833 886.848 836.307 885.748 836.374C884.42 836.457 968.26 817.703 984.734 812.034C997.381 807.682 1010.52 803.92 1007.72 804.252C998.559 805.34 988.336 806.706 985.834 807.333C982.061 808.276 957.436 814.414 938.995 815.452C937.355 815.544 887.736 828.33 846.488 835.979C827.562 839.493 792.241 842.703 781.653 839.219C788.962 840.14 821.024 838.288 835.012 834.962C872.74 825.996 922.659 813.093 917.993 814.601C902.537 815.66 886.653 818.006 884.175 818.006C880.975 818.006 874.222 818.077 870.312 818.43C866.402 818.787 847.438 824.335 847.438 824.335C847.438 824.335 845.077 824.767 830.147 826.187C811.989 830.149 740.355 834.447 742.131 834.447C743.908 834.447 825.171 824.41 830.5 823.342C835.834 822.275 856.802 818.363 852.892 817.296C851.037 816.789 843.255 816.146 836.66 814.144C835.622 813.828 824.461 811.794 814.454 812.487C807.693 812.956 801.754 814.887 801.11 814.688C800.732 814.572 808.042 811.449 813.74 810.664C822.216 809.493 830.293 810.523 829.795 810.365C826.08 809.198 823.577 808.355 824.042 808.355C825.466 808.355 853.623 814.734 858.956 814.024C864.285 813.313 897.681 811.603 905.5 811.603C913.32 811.603 912.61 809.468 916.163 810.178C919.716 810.888 952.816 805.697 951.04 805.697C949.263 805.697 936.426 805.552 933.583 804.838C930.74 804.128 932.873 803.455 926.473 804.169C920.073 804.879 922.248 804.211 917.628 804.925C915.686 805.224 910.713 806.947 904.994 807.994C897.116 809.439 888.292 810.261 888.292 810.261C888.222 810.261 898.411 808.035 906.945 805.29C913.544 803.168 918.653 800.481 920.43 799.858C924.339 798.434 928.959 798.081 931.449 796.3C933.935 794.522 915.038 798.372 919.301 796.947C922.318 795.942 901.607 804.011 890.214 801.121C904.147 800.693 919.222 790.76 926.124 787.803C935.064 783.97 944.22 777.11 944.22 777.11C944.22 777.11 934.4 784.427 932.89 787.384C931.628 789.85 938.493 787.986 939.622 788.472C942.108 789.539 946.375 786.337 946.375 786.337C946.375 786.337 950.994 785.98 954.194 782.425C957.394 778.866 958.814 778.156 961.657 773.177C964.5 768.198 963.79 765.349 965.567 761.08C967.343 756.811 968.41 746.848 968.41 748.626C968.41 750.403 969.477 762.5 966.986 767.126C964.496 771.752 963.433 776.732 961.653 779.223C959.876 781.715 954.543 787.761 954.543 787.761C954.543 787.761 966.625 778.509 967.696 776.732V776.728Z" fill="url(#paint12_linear_796_11813)"/>
<path fill-rule="evenodd" clip-rule="evenodd" d="M789.622 818.355C789.622 818.355 785.861 815.153 782.512 814.796C780.237 814.555 778.282 814.642 776.805 814.501C775.643 813.276 749.088 815.764 743.335 818.097C747.141 814.057 770.99 810.851 770.87 812.882C765.026 811.395 754.342 809.202 745.547 809.464C733.461 809.821 725.288 809.107 723.865 809.464C722.445 809.821 713.202 809.107 711.069 809.107C708.935 809.107 702.182 808.039 693.296 807.682C684.41 807.329 657.747 812.08 657.747 812.08C657.747 812.08 684.057 804.123 686.9 804.123C689.743 804.123 695.786 804.123 705.739 805.548C715.692 806.972 730.265 808.039 725.998 807.682C721.731 807.329 716.402 804.838 712.845 804.48C709.292 804.123 708.225 803.413 708.225 803.413C708.225 803.413 712.845 801.989 721.379 803.413C729.908 804.838 741.994 807.325 749.457 807.682C756.92 808.039 761.186 809.107 765.453 809.817C769.72 810.527 775.759 811.951 775.759 811.951C775.759 811.951 789.978 814.443 792.465 815.153C794.955 815.863 802.418 819.065 805.614 819.065C808.81 819.065 817.343 823.691 819.476 823.691C821.61 823.691 834.406 821.914 836.182 821.914C837.959 821.914 841.159 821.204 841.159 821.204C841.159 821.204 814.5 826.897 811.657 826.897C808.814 826.897 805.971 828.322 790.688 829.742C780.719 830.672 775.713 832.366 768.433 831.694C767.213 831.581 747.979 834.052 746.585 833.874C745.892 833.787 763.291 829.85 762.544 829.742C760.008 829.376 757.123 828.911 753.724 828.322C735.241 825.12 717.112 821.561 717.112 821.561C717.112 821.561 740.571 822.628 751.59 824.053C762.61 825.477 762.61 826.897 769.363 825.83C776.116 824.763 779.316 823.695 782.159 823.695C785.002 823.695 791.045 824.405 792.469 824.763C793.892 825.12 798.512 824.405 796.379 823.338C794.245 822.271 789.626 818.359 789.626 818.359L789.622 818.355Z" fill="url(#paint13_linear_796_11813)"/>
<path fill-rule="evenodd" clip-rule="evenodd" d="M1114.53 768.542C1114.53 768.542 1094.05 762.575 1080.31 762.575C1066.57 762.575 1062.42 761.018 1061.64 761.279C1060.87 761.537 1066.83 759.722 1066.57 758.165C1066.31 756.607 1066.05 755.312 1066.05 755.312C1066.05 755.312 1066.05 752.716 1068.13 752.197C1070.2 751.678 1071.5 750.121 1071.5 750.121C1071.5 750.121 1066.05 751.159 1064.24 753.493C1062.42 755.827 1055.73 758.638 1055.73 758.638C1055.73 758.638 1053.09 755.831 1052.57 754.531C1052.05 753.235 1059.57 757.126 1050.24 752.455C1040.91 747.783 1039.35 744.93 1033.39 741.039C1027.43 737.147 1027.43 729.88 1024.06 727.546C1020.69 725.212 1019.65 720.279 1018.88 719.245C1018.1 718.207 1019.65 717.168 1022.25 719.245C1024.84 721.321 1025.62 722.359 1028.73 724.693C1031.84 727.027 1038.32 729.103 1037.03 728.584C1035.73 728.065 1026.96 720.021 1026.19 717.688C1025.41 715.354 1023.81 710.424 1022.51 710.424C1021.22 710.424 1016.55 713.02 1015 712.239C1013.44 711.463 1012.41 710.163 1011.37 709.905C1010.33 709.648 1008.52 705.752 1007.48 705.752C1006.44 705.752 1003.85 709.386 1002.55 711.201C1001.26 713.016 1003.07 713.535 998.144 715.092C993.218 716.649 990.885 716.388 991.923 716.907C992.96 717.426 994.517 717.945 997.625 717.683C1000.73 717.426 1002.29 717.422 1003.33 717.683C1004.37 717.941 1011.11 724.947 1012.66 726.246C1014.22 727.542 1019.92 732.733 1020.44 734.029C1020.96 735.324 1022.51 736.882 1022.51 736.882C1022.51 736.882 1022.25 733.767 1020.7 731.433C1019.14 729.099 1018.62 728.061 1018.62 728.061C1018.62 728.061 1024.58 734.029 1025.62 736.624C1026.66 739.22 1026.66 743.892 1026.66 745.445C1026.66 746.998 1025.36 748.559 1028.21 750.374C1031.07 752.189 1032.36 752.708 1033.4 754.784C1034.44 756.861 1035.99 758.418 1035.99 758.418C1035.99 758.418 1035.73 755.046 1034.44 752.712C1033.14 750.378 1034.44 752.712 1032.36 749.34C1030.29 745.968 1030.03 745.187 1030.03 745.187C1030.03 745.187 1034.96 749.078 1037.55 750.636C1040.14 752.193 1040.65 750.378 1042.73 751.674C1044.8 752.969 1048.17 752.455 1046.36 753.493C1044.55 754.531 1039.86 757.87 1039.09 759.946C1038.31 762.023 1043.25 755.569 1045.84 756.088C1048.44 756.607 1046.88 755.831 1049.73 757.384C1052.58 758.941 1058.44 758.572 1058.34 759.452C1055.84 761.063 1054.08 762.637 1052.79 764.971C1051.49 767.305 1047.95 769.311 1045.1 771.387C1042.25 773.463 1045.07 773.729 1040.66 776.067C1036.25 778.401 1027.18 779.958 1028.21 779.958C1029.25 779.958 1036.51 779.958 1045.58 777.882C1054.65 775.806 1063.73 770.1 1068.91 770.619C1074.09 771.138 1079.48 774.091 1081.3 774.871C1083.11 775.652 1095.49 778.447 1100.68 778.708C1105.86 778.97 1114.53 768.547 1114.53 768.547L1114.53 768.542Z" fill="url(#paint14_linear_796_11813)"/>
<path fill-rule="evenodd" clip-rule="evenodd" d="M866.68 779.219C866.68 779.219 886.848 769.522 892.127 767.579C897.406 765.631 875.674 772.126 874.309 771.275C882.606 765.32 890.762 761.69 891.318 760.577C891.874 759.464 893.858 756.275 899.967 756.275C906.077 756.275 910.103 756.263 909.825 755.984C909.547 755.706 912.88 753.759 914.548 752.65C916.217 751.537 930.66 745.42 929.548 746.811C928.436 748.202 915.104 755.432 913.158 759.045C912.278 760.677 910.746 763.879 907.974 767.517C906.131 769.938 889.682 776.782 878.082 783.43C868.531 788.908 863.297 794.593 863.297 794.593C863.297 794.593 870.976 790.797 878.397 787.57C889.226 782.861 901.91 777.753 909.265 774.128C911.257 773.148 915.465 769.269 915.963 768.999C919.574 767.052 925.655 751.807 927.88 751.533C929.905 751.279 932.163 751.259 936.546 747.467C936.799 747.247 932.267 754.174 929.677 760.357C927.95 764.481 927.763 768.754 927.946 768.58C928.407 768.144 929.669 763.53 931.98 759.057C935.654 751.952 943.174 745.964 943.996 745.474C948.603 742.741 951.114 739.743 951.114 739.743C951.114 739.743 953.891 736.682 953.335 737.795C952.779 738.908 958.058 734.182 959.171 734.182C960.283 734.182 960.005 733.348 965.558 734.182C971.112 735.017 966.384 734.145 964.442 733.31C962.499 732.476 969.447 731.404 966.949 730.848C964.446 730.291 963.06 730.569 965.558 728.9C968.057 727.231 974.565 723.771 977.62 724.05C976.291 722.019 968.908 723.672 969.933 722.276C971.875 719.494 972.535 719.07 970.593 719.07C968.65 719.07 972.755 716.022 976.719 711.811C980.683 707.605 965.596 718.356 965.596 718.356C965.596 718.356 961.362 721.957 959.698 723.626C958.029 725.295 954.925 726.13 952.426 728.074C949.927 730.021 947.325 730.956 945.104 731.79C942.884 732.625 926.772 740.407 925.659 740.964C924.547 741.52 908.717 748.472 907.604 749.307C906.492 750.141 897.884 752.641 897.884 752.641C897.884 752.641 884.988 756.94 884.71 758.053C884.432 759.165 868.066 776.159 868.066 776.159C868.066 776.159 863.659 779.817 861.438 780.926C859.217 782.039 847.144 787.076 847.144 787.076C847.144 787.076 863.899 781.441 866.398 781.163C868.896 780.884 874.732 780.05 871.951 779.493C869.175 778.937 866.676 779.215 866.676 779.215L866.68 779.219Z" fill="url(#paint15_linear_796_11813)"/>
<path fill-rule="evenodd" clip-rule="evenodd" d="M578.279 788.261C578.997 789.341 593.927 792.925 617.224 797.377C618.203 796.845 623.4 796.143 634.535 795.786C636.847 795.711 608.806 808.726 611.359 808.672C613.775 808.618 649.909 797.061 652.478 797.024C679.851 796.637 713.889 795.94 719.829 799.341C726.225 798.469 652.279 801.347 667.69 806.106C732.33 816.247 817.483 825.885 871.726 820.678C935.648 814.544 986.422 809.154 1014.46 804.532C1028.74 802.177 1038.28 798.182 1038.28 798.182C1087.18 790.907 1123.49 811.475 1100.45 820.142C1039.09 843.219 817.931 877.808 752.108 874.921C661.564 870.951 496.999 757.165 496.999 757.165C496.999 757.165 563.752 785.612 578.292 788.257L578.279 788.261Z" fill="url(#paint16_linear_796_11813)"/>
<path fill-rule="evenodd" clip-rule="evenodd" d="M1030.66 811.023C1018.75 812.248 971.106 809.519 951.748 811.899C916.825 816.193 880.097 825.138 856.547 826.5C782.439 830.778 701.969 826.405 638.47 816.355C694.63 832.833 830.851 837.389 812.929 837.85C768.078 839.008 705.551 838.448 660.887 829.274C583.562 813.398 518.133 769.736 518.133 769.736C518.133 769.736 601.41 825.304 633.792 837.875C666.175 850.445 753.414 855.736 790.425 853.09C826.945 856.849 1010.79 834.669 1030.66 811.023H1030.66Z" fill="url(#paint17_linear_796_11813)"/>
<path fill-rule="evenodd" clip-rule="evenodd" d="M1081.89 814.062C1081.89 814.062 995.312 802.817 935.167 823.988C875.026 845.158 788.446 847.804 762.011 850.449C753.365 851.313 726.059 854.324 707.776 853.667C670.16 852.318 635.777 845.815 635.777 845.815C626.691 852.143 794.987 902.948 849.682 897.737C904.382 892.525 1127.49 832.584 1138.73 828.618C1149.96 824.648 1081.89 814.062 1081.89 814.062Z" fill="url(#paint18_linear_796_11813)"/>
<path fill-rule="evenodd" clip-rule="evenodd" d="M1075.94 812.738C1075.94 812.738 988.04 816.708 934.507 828.614C880.973 840.524 773.284 858.746 734.289 859.407C695.295 860.067 670.803 856.396 670.803 856.396C670.803 856.396 751.431 869.627 815.54 864.336C879.649 859.041 930.539 838.535 930.539 838.535C930.539 838.535 884.277 860.366 848.587 867.642C812.896 874.917 717.011 877.081 717.011 877.081C717.011 877.081 795.493 904.738 882.073 896.138C968.649 887.537 1130.8 819.349 1130.8 819.349L1075.94 812.734V812.738Z" fill="url(#paint19_linear_796_11813)"/>
<defs>
<linearGradient id="paint0_linear_796_11813" x1="678.329" y1="814.497" x2="674.253" y2="760.337" gradientUnits="userSpaceOnUse">
<stop stop-color="#E8BAA6"/>
<stop offset="0.68" stop-color="#FDC2A1"/>
<stop offset="1" stop-color="#F7D39E"/>
</linearGradient>
<linearGradient id="paint1_linear_796_11813" x1="670.435" y1="767.259" x2="681.42" y2="813.016" gradientUnits="userSpaceOnUse">
<stop offset="0.02" stop-color="#E3B8BF"/>
<stop offset="0.41" stop-color="#E0B8B0"/>
<stop offset="1" stop-color="#E8BAA6"/>
</linearGradient>
<linearGradient id="paint2_linear_796_11813" x1="944.2" y1="836.71" x2="892.003" y2="699.251" gradientUnits="userSpaceOnUse">
<stop stop-color="#96919C"/>
<stop offset="1" stop-color="#D6ABA8"/>
</linearGradient>
<linearGradient id="paint3_linear_796_11813" x1="898.71" y1="779.643" x2="877.347" y2="743.507" gradientUnits="userSpaceOnUse">
<stop stop-color="#A896C2"/>
<stop offset="1" stop-color="#C7A3B3"/>
</linearGradient>
<linearGradient id="paint4_linear_796_11813" x1="874.612" y1="801.042" x2="727.687" y2="801.042" gradientUnits="userSpaceOnUse">
<stop stop-color="#A891A6"/>
<stop offset="1" stop-color="#BFA399"/>
</linearGradient>
<linearGradient id="paint5_linear_796_11813" x1="832.061" y1="767.434" x2="820.218" y2="745.82" gradientUnits="userSpaceOnUse">
<stop stop-color="#D5A6B0"/>
<stop offset="0.68" stop-color="#FDBCA9"/>
<stop offset="1" stop-color="#FFD3A5"/>
</linearGradient>
<linearGradient id="paint6_linear_796_11813" x1="1056.38" y1="801.283" x2="1023.28" y2="698.126" gradientUnits="userSpaceOnUse">
<stop stop-color="#9C85A1"/>
<stop offset="1" stop-color="#BAA6A1"/>
</linearGradient>
<linearGradient id="paint7_linear_796_11813" x1="1193.81" y1="732.446" x2="1014.9" y2="732.446" gradientUnits="userSpaceOnUse">
<stop stop-color="#A891A6"/>
<stop offset="1" stop-color="#B3969E"/>
</linearGradient>
<linearGradient id="paint8_linear_796_11813" x1="1187" y1="732.571" x2="1172.81" y2="702.822" gradientUnits="userSpaceOnUse">
<stop stop-color="#857DA6"/>
<stop offset="1" stop-color="#B3949E"/>
</linearGradient>
<linearGradient id="paint9_linear_796_11813" x1="1026.32" y1="754.041" x2="993.234" y2="736.261" gradientUnits="userSpaceOnUse">
<stop stop-color="#A891A6"/>
<stop offset="1" stop-color="#BFA399"/>
</linearGradient>
<linearGradient id="paint10_linear_796_11813" x1="936.559" y1="710.578" x2="914.129" y2="710.578" gradientUnits="userSpaceOnUse">
<stop stop-color="#A891A6"/>
<stop offset="1" stop-color="#B8969E"/>
</linearGradient>
<linearGradient id="paint11_linear_796_11813" x1="1092.01" y1="752.724" x2="1093.4" y2="717.131" gradientUnits="userSpaceOnUse">
<stop stop-color="#A187A6"/>
<stop offset="1" stop-color="#B3949E"/>
</linearGradient>
<linearGradient id="paint12_linear_796_11813" x1="938.8" y1="838.907" x2="919.901" y2="781.41" gradientUnits="userSpaceOnUse">
<stop offset="0.01" stop-color="#9191A6"/>
<stop offset="0.16" stop-color="#A891A6"/>
<stop offset="1" stop-color="#BDAB99"/>
</linearGradient>
<linearGradient id="paint13_linear_796_11813" x1="756.235" y1="837.449" x2="743.908" y2="799.663" gradientUnits="userSpaceOnUse">
<stop stop-color="#A891A6"/>
<stop offset="1" stop-color="#BFA399"/>
</linearGradient>
<linearGradient id="paint14_linear_796_11813" x1="1097.51" y1="736.209" x2="1009.69" y2="748.434" gradientUnits="userSpaceOnUse">
<stop stop-color="#A88CA1"/>
<stop offset="1" stop-color="#C4A196"/>
</linearGradient>
<linearGradient id="paint15_linear_796_11813" x1="920.604" y1="763.767" x2="909.276" y2="743.697" gradientUnits="userSpaceOnUse">
<stop stop-color="#D5A6B0"/>
<stop offset="0.68" stop-color="#FDBCA9"/>
<stop offset="1" stop-color="#FFD3A5"/>
</linearGradient>
<linearGradient id="paint16_linear_796_11813" x1="822.737" y1="809.715" x2="774.485" y2="750.011" gradientUnits="userSpaceOnUse">
<stop stop-color="#9491A6"/>
<stop offset="1" stop-color="#C4B5A8"/>
</linearGradient>
<linearGradient id="paint17_linear_796_11813" x1="1030.66" y1="811.745" x2="518.138" y2="811.745" gradientUnits="userSpaceOnUse">
<stop stop-color="#8F8F96"/>
<stop offset="1" stop-color="#E3D1B3"/>
</linearGradient>
<linearGradient id="paint18_linear_796_11813" x1="1139.98" y1="854.594" x2="635.424" y2="854.594" gradientUnits="userSpaceOnUse">
<stop stop-color="#998C8A"/>
<stop offset="1" stop-color="#CCADA1"/>
</linearGradient>
<linearGradient id="paint19_linear_796_11813" x1="1130.8" y1="855.27" x2="670.807" y2="855.27" gradientUnits="userSpaceOnUse">
<stop stop-color="#7D8CB8"/>
<stop offset="1" stop-color="#BFA399"/>
</linearGradient>
</defs>
</svg>
