<svg width="1920" height="1080" viewBox="0 0 1920 1080" fill="none" xmlns="http://www.w3.org/2000/svg">
<g clip-path="url(#clip0_796_12057)">
<path fill-rule="evenodd" clip-rule="evenodd" d="M1543.13 645.234C1543.13 645.234 1543.78 650.442 1548.66 650.763C1553.54 651.091 1555.16 650.436 1553.54 651.091C1551.91 651.741 1547.03 653.367 1544.11 652.718C1541.19 652.068 1541.19 651.419 1541.19 651.419C1541.19 651.419 1543.46 654.023 1544.44 656.299C1545.42 658.575 1540.87 658.253 1544.44 661.179C1548.02 664.11 1549.32 665.737 1549.64 670.944C1549.97 676.152 1549.32 687.866 1550.94 689.493C1552.57 691.119 1555.82 700.557 1556.15 701.856C1556.47 703.161 1577.93 715.846 1575.33 716.823C1572.72 717.8 1556.47 711.943 1553.54 708.035C1550.62 704.132 1549.32 699.574 1548.99 700.873C1548.67 702.171 1551.6 712.914 1555.5 716.168C1559.4 719.421 1575.01 730.485 1574.68 732.44C1574.35 734.394 1576.95 741.228 1577.28 746.758C1577.61 752.293 1575.65 752.293 1571.11 752.615C1566.56 752.942 1561.68 752.942 1561.68 752.942C1561.68 752.942 1583.46 758.478 1588.99 757.822C1594.51 757.173 1606.87 747.407 1608.82 744.809C1610.77 742.206 1613.05 722.68 1606.54 713.57C1600.04 704.46 1570.13 650.436 1566.88 644.906C1563.63 639.371 1552.89 627.007 1550.95 627.985C1548.99 628.962 1538.92 629.939 1538.27 635.796C1537.62 641.653 1539.25 641.004 1535.99 644.257C1532.74 647.51 1528.84 649.464 1527.87 650.763C1526.89 652.062 1524.29 654.017 1524.29 654.017C1524.29 654.017 1529.81 651.413 1534.36 650.763C1538.91 650.114 1543.14 644.906 1543.14 645.234H1543.13Z" fill="#9B9B9B"/>
<path fill-rule="evenodd" clip-rule="evenodd" d="M1506.63 432.186C1506.63 432.186 1521.52 452.893 1526.07 457.031C1530.62 461.174 1543.03 472.765 1543.44 478.98C1543.86 485.19 1540.55 493.057 1542.62 495.543C1544.69 498.03 1552.13 506.725 1554.61 511.692C1557.1 516.658 1560.82 523.288 1560.82 523.288L1574.88 534.47C1574.88 534.47 1585.22 544.824 1584.81 546.896C1584.4 548.968 1582.74 566.774 1587.29 573.398C1591.84 580.022 1589.37 587.889 1591.43 589.132C1593.5 590.375 1602.19 597.413 1606.32 598.242C1610.46 599.071 1613.77 601.557 1622.46 601.971C1631.14 602.386 1634.45 601.971 1635.69 603.629C1636.93 605.286 1650.17 635.512 1654.72 641.313C1659.27 647.108 1662.17 657.047 1666.31 656.633C1670.44 656.218 1684.1 651.252 1687.4 651.666C1690.71 652.081 1697.33 649.594 1699.82 651.666C1702.3 653.738 1709.74 661.191 1715.95 662.02C1722.16 662.848 1722.16 675.682 1725.88 678.997C1729.6 682.312 1735.8 693.902 1739.94 693.074C1744.08 692.245 1749.04 706.328 1751.94 707.979C1754.84 709.636 1761.87 712.537 1765.18 713.78C1768.49 715.023 1780.9 714.195 1782.14 716.681C1783.38 719.167 1806.14 749.807 1809.03 753.122C1811.92 756.437 1828.88 769.685 1830.96 770.928C1833.03 772.171 1955.57 813.331 1962.19 814.988C1968.81 816.646 2065.99 865.617 2065.99 865.617C2065.99 865.617 1929 895.985 1857.84 891.018C1786.69 886.052 1516.96 804.889 1406.1 826.418C1295.23 847.947 1077.21 928.702 1020.96 941.95C964.692 955.198 718.961 989.981 680.901 991.639C642.842 993.296 583.271 1002.41 583.271 1002.41C583.271 1002.41 629.942 975.15 639.041 972.67C644.264 971.241 670.77 963.424 688.257 956.076C701.238 950.621 718.714 942.5 724.005 941.443C727.973 940.651 735.848 940.218 745.949 936.551C767.454 928.733 786.054 918.8 790.554 917.106C791.809 916.636 806.954 906.505 811.769 904.674C832.421 896.844 872.52 888.161 885.267 884.802C900.986 880.665 915.877 869.897 915.877 869.897C915.877 869.897 931.597 829.931 935.219 825.719C936.109 824.686 939.181 824.94 940.109 823.87C940.999 822.843 940.64 821.489 940.622 819.503C941.271 818.786 942.909 818.161 943.545 817.518C945.282 815.755 945.925 814.271 947.316 813.578C950.629 811.921 972.135 800.33 972.135 800.33C972.135 800.33 993.065 762.597 999.519 759.368C1004.68 758.936 1001.88 762.603 1012.64 760.123C1023.39 757.637 1030.88 755.608 1030.88 755.608C1030.88 755.608 1050.99 757.216 1057.29 750.908C1061.43 749.25 1087.96 720.002 1092.93 715.858C1097.89 711.721 1117.75 678.589 1117.75 678.589C1117.75 678.589 1116.92 665.341 1120.22 665.341C1123.53 665.341 1130.98 659.546 1130.98 659.546C1130.98 659.546 1139.26 650.436 1142.56 645.469C1145.87 640.503 1154.98 628.906 1157.45 625.591C1159.94 622.276 1175.66 613.166 1181.45 607.371C1187.24 601.576 1192.21 597.432 1197.17 599.089C1202.13 600.747 1221.17 607.371 1227.78 608.2C1234.4 609.028 1237.71 608.2 1237.71 608.2C1237.71 608.2 1244.33 610.389 1248.46 607.909C1252.6 605.423 1260.88 599.918 1264.18 600.747C1267.49 601.576 1275.77 604.891 1283.22 605.713C1290.67 606.542 1292.32 604.884 1292.32 604.884L1295.62 596.603C1295.62 596.603 1298.1 585.007 1302.24 585.007C1306.38 585.007 1316.31 584.178 1324.58 583.349C1332.85 582.52 1341.96 577.554 1341.96 577.554C1341.96 577.554 1351.89 558.505 1352.71 553.538C1353.54 548.572 1365.96 534.489 1365.96 534.489C1365.96 534.489 1380.85 512.125 1380.85 508.816C1380.85 505.507 1397.39 493.911 1397.39 493.911C1397.39 493.911 1407.32 490.602 1413.94 490.602C1420.56 490.602 1426.35 491.43 1426.35 491.43C1426.35 491.43 1426.97 484.807 1428 483.767C1429.04 482.735 1432.84 477.366 1433.05 476.537C1433.25 475.709 1433.38 475.9 1436.28 475.486C1439.18 475.072 1441.04 473.829 1441.86 473C1442.69 472.171 1453.24 463.271 1453.24 463.271C1453.24 463.271 1456.35 456.993 1456.14 455.336C1455.93 453.678 1468.96 444.018 1470.82 442.775C1472.68 441.531 1479.09 435.736 1480.13 435.94C1481.16 436.145 1487.37 430.145 1489.44 429.731C1491.51 429.316 1494.61 430.77 1496.67 430.974C1498.75 431.178 1499.98 431.803 1499.98 431.803C1499.98 431.803 1507.63 430.56 1506.6 432.217L1506.63 432.186Z" fill="url(#paint0_linear_796_12057)"/>
<path fill-rule="evenodd" clip-rule="evenodd" d="M1506.63 432.186C1506.63 432.186 1521.52 452.893 1526.07 457.031C1530.62 461.174 1543.03 472.765 1543.44 478.98C1543.86 485.19 1540.55 493.057 1542.62 495.543C1544.69 498.03 1552.13 506.725 1554.61 511.692C1557.1 516.658 1560.82 523.288 1560.82 523.288L1574.88 534.47C1574.88 534.47 1585.22 544.824 1584.81 546.896C1584.4 548.968 1582.74 566.774 1587.29 573.398C1591.84 580.022 1589.37 587.889 1591.43 589.132C1593.5 590.375 1602.19 597.413 1606.32 598.242C1610.46 599.071 1613.77 601.557 1622.46 601.971C1631.14 602.386 1634.45 601.971 1635.69 603.629C1636.93 605.286 1650.17 635.512 1654.72 641.313C1659.27 647.108 1662.17 657.047 1666.31 656.633C1670.44 656.218 1684.1 651.252 1687.4 651.666C1690.71 652.081 1697.14 648.555 1699.62 650.627C1702.1 652.699 1709.74 661.191 1715.95 662.02C1722.16 662.848 1722.16 675.682 1725.88 678.997C1729.6 682.312 1735.8 693.902 1739.94 693.074C1744.08 692.245 1749.04 706.328 1751.94 707.979C1754.84 709.636 1761.87 712.537 1765.18 713.78C1768.49 715.023 1780.9 714.195 1782.14 716.681C1783.38 719.167 1806.14 749.807 1809.03 753.122C1811.92 756.437 1828.88 769.685 1830.96 770.928C1833.03 772.171 1957.13 811.513 1963.75 813.164C1970.37 814.815 2087.01 867.949 2087.01 867.949C2087.01 867.949 1929 895.978 1857.85 891.012C1786.69 886.046 1516.96 804.882 1406.1 826.412C1365.37 834.322 1310.19 850.223 1253.88 867.831C1279.59 848.207 1295.65 833.908 1300.52 829.034C1305.39 824.154 1366.93 780.292 1372.77 769.58C1378.6 758.874 1410.05 741.068 1411.02 732.304C1411.99 723.546 1448.72 700.706 1449.69 696.815C1450.08 695.263 1451.59 691.02 1453.94 688.169C1455.76 685.961 1458.8 685.646 1457.7 681.298C1456.66 677.185 1448.71 664.085 1444.74 661.525C1431.12 652.767 1436.58 644.603 1432.1 636.217C1436.96 637.188 1445.39 638.177 1452.21 644.016C1459.01 649.854 1454.47 629.401 1446.69 617.718C1438.9 606.035 1471.97 567.095 1477.81 559.309C1483.64 551.522 1494.34 521.34 1490.45 516.473C1486.56 511.605 1482.45 514.073 1485.36 507.264C1486.61 504.357 1491 503.466 1494.43 497.312C1495.63 495.16 1495.4 487.546 1496.69 485.611C1500.33 480.1 1503.81 472.802 1503.81 471.15C1503.81 470.402 1501.91 471.719 1502.49 469.839L1503.56 466.326C1503.95 463.71 1491.33 472.573 1491 472.115C1489.54 470.081 1496.62 461.626 1494.97 459.467C1490.72 453.889 1486.43 448.675 1485.13 447.821C1486 442.7 1484.43 442.237 1484.43 439.268C1485.05 437.128 1485.68 433.689 1486.73 431.289C1487.85 430.473 1488.85 429.848 1489.47 429.718C1491.54 429.304 1494.64 430.758 1496.71 430.962C1498.78 431.166 1500.01 431.79 1500.01 431.79C1500.01 431.79 1507.67 430.547 1506.63 432.205L1506.63 432.186Z" fill="url(#paint1_linear_796_12057)"/>
<path fill-rule="evenodd" clip-rule="evenodd" d="M1636.56 604.519C1636.56 604.519 1634.47 609.139 1628.76 611.675C1616.34 617.198 1593.63 623.519 1586.26 626.073C1575.5 629.803 1576.74 636.427 1576.74 636.427C1576.74 636.427 1594.95 690.674 1601.15 695.64C1607.36 700.607 1614.89 727.721 1617.79 729.793C1620.69 731.865 1637.15 739.534 1645 740.777C1652.87 742.02 1657.21 750.159 1660.11 751.402C1663 752.645 1685.67 763.753 1685.67 763.753C1685.67 763.753 1648.84 756.097 1645.12 753.61C1641.4 751.124 1631.51 745.391 1632.34 747.877C1633.17 750.363 1649.14 762.727 1650.8 767.699C1652.45 772.672 1658.34 789.773 1658.34 789.773C1658.34 789.773 1640.46 772.666 1635.49 765.213C1630.53 757.76 1619.99 754.495 1619.99 754.495C1619.99 754.495 1608.85 758.688 1600.16 755.379C1591.47 752.064 1619.11 784.485 1619.11 784.485C1619.11 784.485 1583.41 765.825 1576.8 763.76C1570.18 761.688 1524.79 737.74 1524.79 737.74C1524.79 737.74 1581.61 756.437 1587.82 752.293C1594.03 748.149 1607.36 743.269 1607.36 743.269C1607.36 743.269 1606.12 734.159 1604.05 730.436C1601.98 726.706 1594.12 700.205 1587.09 695.653C1580.06 691.094 1560.2 681.162 1557.3 677.846C1554.4 674.531 1569.71 683.227 1574.26 681.57C1578.81 679.912 1573.44 666.25 1570.96 662.521C1568.47 658.791 1562.69 654.653 1560.62 648.444C1558.54 642.234 1554.41 635.604 1554.41 635.604C1554.41 635.604 1550.69 633.532 1544.48 636.433C1538.28 639.334 1541.59 648.03 1534.97 648.444C1528.35 648.858 1521.73 655.068 1522.14 657.969C1522.56 660.869 1520.9 665.836 1520.9 665.836C1520.9 665.836 1520.07 657.554 1516.76 654.653C1513.46 651.753 1512.63 650.924 1512.63 650.924C1512.63 650.924 1529.59 646.78 1531.25 641.814C1532.9 636.847 1533.73 631.875 1533.73 631.875C1533.73 631.875 1541.59 621.936 1544.49 622.765C1547.38 623.593 1555.66 621.521 1556.49 618.213C1557.31 614.898 1560.62 605.379 1563.11 603.722C1565.59 602.064 1570.14 594.611 1570.14 594.611L1575.52 581.778C1575.52 581.778 1572.21 569.353 1570.56 567.701C1568.9 566.044 1563.93 558.177 1566.83 556.105C1569.73 554.033 1578.83 549.067 1578.83 549.067L1584.62 545.751C1584.62 545.751 1585.87 561.486 1585.87 563.143C1585.87 564.801 1590 572.668 1590.83 576.805C1591.66 580.949 1597.31 588.532 1597.31 588.532C1597.31 588.532 1596.62 590.944 1598.69 592.601C1599.79 593.486 1606.04 595.675 1609.25 597.957C1610.93 599.145 1622 599.163 1627.31 600.45C1630.88 601.316 1636.58 604.532 1636.58 604.532L1636.56 604.519Z" fill="url(#paint2_linear_796_12057)"/>
<path fill-rule="evenodd" clip-rule="evenodd" d="M1481.18 513.442C1481.18 513.442 1493.6 510.541 1503.94 517.172C1514.28 523.796 1523.38 525.867 1528.35 531.669C1533.31 537.464 1541.17 539.95 1541.17 539.95C1541.17 539.95 1539.1 533.326 1539.1 530.426C1539.1 527.525 1552.75 528.354 1555.24 528.768C1557.72 529.182 1560.2 522.973 1560.2 522.973C1560.2 522.973 1554.41 507.653 1550.27 503.924C1546.14 500.194 1542 496.885 1542 493.57C1542 490.255 1543.25 476.593 1543.25 476.593C1543.25 476.593 1541.59 479.908 1532.49 475.35C1523.39 470.798 1520.91 469.14 1518.84 466.24C1516.77 463.339 1515.95 462.102 1515.95 462.102C1515.95 462.102 1514.71 476.179 1519.26 481.151C1523.8 486.118 1527.53 496.057 1525.88 503.095C1524.22 510.133 1524.63 512.62 1524.63 512.62C1524.63 512.62 1518.01 505.167 1515.95 503.924C1513.88 502.681 1508.5 508.89 1504.78 507.647C1501.06 506.404 1496.5 506.818 1494.85 505.575C1493.19 504.332 1491.13 503.089 1491.13 503.089L1485.75 504.332L1481.2 513.442H1481.18Z" fill="url(#paint3_linear_796_12057)"/>
<path fill-rule="evenodd" clip-rule="evenodd" d="M1465.05 568.932C1465.05 568.932 1472.5 564.788 1473.32 558.993C1474.15 553.198 1475.81 550.297 1475.81 550.297C1475.81 550.297 1480.35 555.264 1484.08 550.297C1487.8 545.331 1492.35 540.773 1492.35 540.773C1492.35 540.773 1493.18 549.883 1506 548.64C1518.83 547.397 1524.21 546.153 1526.27 546.568C1528.34 546.982 1537.44 547.397 1537.44 547.397L1550.68 549.883C1550.68 549.883 1527.51 551.54 1522.96 552.784C1518.41 554.027 1518 555.684 1506.42 556.507C1494.83 557.336 1487.8 560.236 1487.8 560.236C1487.8 560.236 1486.55 564.374 1494 564.788C1501.45 565.203 1519.24 562.302 1519.24 562.302C1519.24 562.302 1502.69 570.169 1494.83 570.169C1486.97 570.169 1478.7 569.755 1478.7 569.755C1478.7 569.755 1465.87 575.135 1463.39 578.036C1460.91 580.937 1451.39 595.842 1451.39 595.842C1451.39 595.842 1454.7 583.009 1456.36 580.522C1458.01 578.036 1460.49 577.207 1462.15 574.313C1463.81 571.412 1465.04 568.932 1465.04 568.932H1465.05Z" fill="url(#paint4_linear_796_12057)"/>
<path fill-rule="evenodd" clip-rule="evenodd" d="M1426.58 491.498C1426.58 491.498 1424.1 518 1422.44 520.901C1420.78 523.802 1418.31 530.84 1417.89 533.735C1417.48 536.635 1414.17 549.054 1414.17 554.027C1414.17 558.999 1410.45 574.734 1410.86 571.419C1411.28 568.103 1408.38 551.541 1410.45 542.016C1412.52 532.491 1411.69 529.591 1411.69 529.591C1411.69 529.591 1405.49 549.883 1405.49 555.264C1405.49 560.645 1404.24 575.142 1403.41 578.036C1402.59 580.937 1400.93 586.732 1398.87 590.047C1396.79 593.362 1385.62 611.168 1385.62 611.168C1385.62 611.168 1386.87 603.716 1389.76 597.914C1392.65 592.119 1401.76 575.556 1400.52 571.827C1399.27 568.097 1396.38 553.606 1397.62 546.982C1398.87 540.358 1402.17 532.491 1401.76 529.591C1401.34 526.69 1405.89 512.613 1404.24 510.127C1402.59 507.641 1402.59 503.089 1400.11 499.774C1397.63 496.459 1396.8 494.393 1396.8 494.393C1396.8 494.393 1406.31 490.664 1407.97 490.664H1422.86L1426.58 491.492L1426.58 491.498Z" fill="url(#paint5_linear_796_12057)"/>
<path fill-rule="evenodd" clip-rule="evenodd" d="M1362.86 603.716C1362.86 603.716 1358.31 626.074 1362.04 632.289C1365.76 638.499 1363.28 644.708 1359.96 647.609C1356.66 650.51 1355 664.172 1355 664.172C1355 664.172 1352.52 656.719 1352.52 650.504C1352.52 644.288 1352.93 642.222 1351.27 643.88C1349.62 645.537 1340.1 661.271 1334.73 664.586C1329.35 667.901 1328.11 667.487 1328.11 667.487C1328.11 667.487 1338.45 669.145 1340.1 669.559C1341.76 669.973 1340.1 672.045 1336.8 672.045C1333.49 672.045 1323.56 677.84 1323.56 677.84C1323.56 677.84 1315.29 689.437 1312.8 694.403C1310.32 699.37 1307.42 708.066 1310.32 709.309C1313.22 710.552 1316.94 718.005 1311.15 723.8C1305.36 729.595 1302.05 734.982 1299.98 736.633C1297.91 738.291 1293.36 746.158 1293.36 746.158C1293.36 746.158 1290.87 763.964 1288.4 770.173C1285.91 776.383 1281.36 787.151 1282.19 782.184C1283.02 777.218 1286.32 768.101 1283.02 763.549C1279.71 758.997 1280.53 754.439 1281.36 751.538C1282.19 748.638 1291.7 739.528 1291.29 733.318C1290.87 727.108 1290.05 724.622 1290.05 724.622C1290.05 724.622 1292.12 734.147 1295.84 732.489C1299.56 730.832 1302.87 725.037 1301.63 721.722C1300.39 718.406 1294.18 711.368 1292.53 705.159C1290.87 698.949 1292.12 697.292 1288.81 694.391C1285.5 691.49 1282.19 686.524 1282.19 686.524C1282.19 686.524 1293.36 692.733 1296.67 691.49C1299.97 690.247 1303.29 691.076 1306.59 684.038C1309.9 676.999 1314.04 667.475 1314.04 667.475C1314.04 667.475 1304.94 667.475 1297.91 663.745C1290.87 660.016 1284.67 658.779 1283.02 659.193C1281.36 659.608 1266.47 669.961 1266.47 669.961C1266.47 669.961 1273.06 660.727 1278.04 656.367C1279.29 655.266 1298.55 621.577 1299.47 621.33C1300.6 621.021 1284.72 654.041 1287.56 654.394C1296.2 655.47 1310.41 658.68 1315.7 658.364C1322.73 657.95 1325.63 661.679 1326.45 655.878C1327.28 650.083 1326.04 645.11 1329.76 639.315C1333.48 633.52 1334.73 632.277 1334.73 632.277C1334.73 632.277 1331.42 640.558 1331.83 644.696C1332.24 648.84 1330.17 659.601 1330.17 659.601C1330.17 659.601 1336.38 654.635 1341.34 645.939C1346.3 637.243 1353.75 632.691 1354.17 628.548C1354.58 624.404 1360.79 603.289 1362.85 603.703L1362.86 603.716Z" fill="url(#paint6_linear_796_12057)"/>
<path fill-rule="evenodd" clip-rule="evenodd" d="M1342.59 577.214C1342.59 577.214 1326.46 605.373 1322.74 616.141C1319.02 626.908 1311.57 643.886 1312.4 640.156C1313.23 636.427 1320.26 612.826 1321.5 608.274C1322.74 603.715 1327.7 596.677 1325.63 595.848C1323.56 595.02 1323.56 594.191 1323.56 594.191C1323.56 594.191 1311.56 617.792 1309.5 618.621C1307.43 619.45 1308.67 617.378 1307.02 618.621C1305.36 619.864 1307.43 612.411 1310.74 606.61C1314.05 600.815 1320.67 587.975 1320.67 587.975C1320.67 587.975 1313.63 592.942 1311.98 592.527C1310.32 592.113 1308.67 593.77 1304.94 604.946C1301.22 616.128 1284.26 647.182 1284.26 647.182C1284.26 647.182 1300.39 610.741 1300.81 606.189C1301.22 601.631 1309.08 592.107 1307.43 590.041C1305.77 587.969 1301.22 584.66 1301.22 584.66C1301.22 584.66 1312.39 583.003 1315.29 583.417C1318.18 583.831 1330.59 581.759 1332.66 581.345C1334.73 580.931 1342.59 577.207 1342.59 577.207L1342.59 577.214Z" fill="url(#paint7_linear_796_12057)"/>
<path fill-rule="evenodd" clip-rule="evenodd" d="M1291.72 605.781C1291.72 605.781 1277.65 636.421 1274.75 641.808C1271.85 647.188 1267.72 657.542 1266.06 659.614C1264.41 661.686 1261.93 670.796 1261.93 670.796C1261.93 670.796 1262.34 672.453 1264.83 670.381C1267.31 668.31 1277.97 658.989 1283.35 658.16C1288.72 657.332 1287.57 659.614 1292.95 660.857C1298.33 662.1 1329.09 670.091 1329.09 670.091C1329.09 670.091 1284.27 663.337 1281.78 664.166C1279.3 664.994 1268.13 673.69 1264.82 677.414C1261.51 681.143 1242.48 694.805 1242.48 694.805C1242.48 694.805 1226.35 720.064 1223.45 723.379C1220.56 726.694 1214.77 734.976 1212.7 737.87C1210.63 740.771 1205.66 750.289 1203.18 754.847C1200.71 759.399 1199.88 764.786 1199.88 761.886C1199.88 758.985 1204.01 743.405 1207.32 732.23C1210.63 721.047 1213.94 708.053 1217.25 703.915C1220.56 699.772 1216.84 696.877 1213.95 693.562C1211.05 690.247 1201.95 679.071 1203.61 679.894C1205.26 680.722 1217.67 688.175 1221.81 689.004C1225.95 689.833 1232.57 688.175 1233.81 685.689C1235.05 683.203 1246.63 662.916 1249.53 658.773C1252.42 654.629 1256.56 644.282 1256.56 644.282L1249.45 649.638C1249.45 649.638 1253.66 643.453 1255.32 639.309C1256.98 635.165 1254.91 638.48 1259.87 629.37C1264.83 620.26 1264 615.293 1263.59 610.735C1263.18 606.183 1263.18 600.382 1263.18 600.382C1263.18 600.382 1271.45 602.454 1274.35 602.868C1277.25 603.283 1291.72 605.769 1291.72 605.769L1291.72 605.781Z" fill="url(#paint8_linear_796_12057)"/>
<path fill-rule="evenodd" clip-rule="evenodd" d="M1247.45 608.268C1247.45 608.268 1240.42 619.864 1237.52 622.759C1234.63 625.659 1231.32 625.659 1231.32 625.659C1231.32 625.659 1230.07 621.936 1227.18 621.522C1224.29 621.107 1225.52 618.621 1221.8 618.621C1218.08 618.621 1209.39 625.245 1209.39 625.245C1209.39 625.245 1217.25 622.344 1220.15 624.002C1223.04 625.659 1228.42 626.074 1226.77 629.382C1225.11 632.697 1218.49 648.017 1220.56 651.74C1222.62 655.47 1225.94 660.022 1225.11 662.923C1224.28 665.823 1219.32 674.933 1220.15 676.999C1220.97 679.071 1227.77 690.185 1227.77 690.185C1227.77 690.185 1225.32 709.173 1219.94 705.029C1219.12 693.482 1204.01 680.722 1204.01 680.722C1204.01 680.722 1213.94 671.198 1215.18 665.403C1216.42 659.608 1215.18 657.121 1213.53 654.635C1211.87 652.149 1207.73 633.928 1207.73 633.928C1207.73 633.928 1198.63 635.586 1196.98 633.099C1195.32 630.613 1189.12 633.099 1189.12 633.099C1189.12 633.099 1188.29 634.343 1186.64 636C1184.99 637.658 1178.37 640.144 1178.37 640.144C1178.37 640.144 1182.5 635.178 1182.09 632.277C1181.67 629.376 1180.02 625.653 1182.92 623.167C1185.81 620.68 1186.23 620.266 1186.23 620.266C1186.23 620.266 1187.47 625.232 1190.36 625.647C1193.26 626.061 1197.4 623.161 1197.4 623.161C1197.4 623.161 1195.33 620.26 1194.51 615.708C1193.68 611.156 1187.89 609.498 1192.85 606.598C1197.81 603.697 1193.26 597.902 1193.26 597.902C1193.26 597.902 1198.64 597.902 1201.54 598.731C1204.44 599.559 1225.95 607.426 1230.91 607.426C1235.88 607.426 1247.46 608.255 1247.46 608.255L1247.45 608.268Z" fill="url(#paint9_linear_796_12057)"/>
<path fill-rule="evenodd" clip-rule="evenodd" d="M1465.05 598.328C1465.05 598.328 1488.97 626.135 1503.37 641.634C1504.78 643.15 1533.11 636.272 1534.36 637.59C1537.95 641.381 1514.3 651.505 1515.74 652.687C1522.77 658.482 1520.49 663.343 1520.49 663.343C1520.49 663.343 1534.96 691.917 1532.9 690.259C1530.83 688.602 1525.45 684.05 1525.03 686.116C1524.62 688.187 1525.03 688.187 1525.03 688.187C1525.03 688.187 1531.66 702.678 1529.17 704.336C1526.69 705.993 1523.38 705.993 1523.38 705.993C1523.38 705.993 1527.1 711.789 1525.45 716.347C1523.79 720.905 1525.05 721.604 1527.53 724.913C1530.01 728.228 1522.93 733.182 1537.13 736.404C1548.59 744.785 1588.94 766.351 1586.06 766.833C1583.18 767.316 1541.1 748.749 1532.48 743.671C1526.69 742.843 1523.38 739.119 1525.86 742.428C1528.34 745.743 1533.73 758.577 1533.73 758.577C1533.73 758.577 1527.11 759.82 1523.38 759.405C1519.66 758.991 1514.29 758.162 1513.04 761.892C1511.8 765.621 1504.36 772.659 1499.39 774.317C1494.43 775.975 1480.19 783.532 1480.19 783.532C1480.19 783.532 1464.36 784.361 1458.16 783.532C1451.95 782.704 1432.83 777.941 1432.28 777.941C1431.95 777.941 1447.79 774.237 1463.67 772.511C1473.65 771.423 1485.63 772.152 1487.4 771.831C1491.96 771.002 1503.94 759.405 1500.22 759.82C1496.5 760.234 1484.5 762.72 1484.5 762.72C1484.5 762.72 1474.5 769.951 1472.85 763.327C1476.52 760.574 1482.85 742.428 1481.2 740.362C1479.54 738.29 1474.16 732.91 1474.16 732.91C1474.16 732.91 1479.95 737.054 1476.65 740.362C1473.33 743.671 1470.44 745.743 1470.44 745.743C1470.44 745.743 1475.4 742.843 1473.33 737.876C1471.26 732.904 1472.09 730.423 1469.61 724.622C1467.13 718.827 1463.82 710.546 1463.82 710.546C1463.82 710.546 1473.33 723.385 1478.3 729.18C1483.26 734.975 1489.88 754.025 1492.36 755.682C1494.84 757.34 1506.42 754.853 1506.42 754.853C1506.42 754.853 1507.67 741.185 1504.35 737.462C1501.04 733.738 1488.22 723.799 1489.87 724.628C1491.53 725.457 1499.8 725.457 1499.8 725.457C1499.8 725.457 1437.96 657.907 1434.43 651.289C1436.64 647.764 1455.32 661.605 1451.19 656.948C1445.26 650.25 1437.88 642.104 1435.68 640.15C1431.96 636.835 1431.55 635.592 1431.55 635.592C1431.55 635.592 1441.06 635.592 1444.78 638.078C1448.5 640.564 1456.37 645.945 1458.02 648.017C1459.68 650.089 1508.49 710.545 1503.53 699.363C1498.57 688.181 1475.81 660.022 1473.33 656.713C1470.85 653.398 1461.33 640.564 1461.33 640.564C1461.33 640.564 1459.67 643.051 1459.67 637.664C1459.67 632.277 1458.43 629.382 1457.19 627.725C1449.59 617.588 1460.13 622.35 1460.91 629.382C1461.32 633.112 1462.57 634.349 1466.29 638.078C1470.01 641.808 1501.87 678.657 1500.62 676.177C1499.38 673.69 1461.74 620.686 1458.43 615.72C1455.12 610.754 1449.33 604.952 1449.33 604.952C1449.33 604.952 1445.2 611.991 1447.67 614.477C1450.16 616.963 1454.71 634.769 1454.71 636.421C1454.71 638.072 1456.37 641.387 1454.71 638.078C1453.05 634.763 1448.09 622.758 1445.61 620.272C1443.12 617.786 1437.75 627.31 1437.75 627.31C1437.75 627.31 1437.33 623.167 1440.23 617.786C1443.12 612.405 1445.61 602.466 1447.68 600.394C1449.75 598.322 1446.02 602.466 1453.47 593.77C1460.92 585.074 1460.9 577.411 1464.62 576.583C1468.35 575.754 1465.35 580.102 1476.52 575.544C1487.69 570.985 1493.18 570.583 1491.12 572.235C1489.05 573.892 1474.98 586.311 1472.5 586.311C1470.01 586.311 1470.01 583.825 1469.19 586.726C1468.36 589.626 1465.05 592.107 1470.01 597.079C1474.98 602.045 1485.32 612.813 1485.32 612.813C1485.32 612.813 1465.46 600.802 1465.05 598.322V598.328Z" fill="url(#paint10_linear_796_12057)"/>
<path fill-rule="evenodd" clip-rule="evenodd" d="M1635.08 603.715C1635.08 603.715 1633.9 609.857 1628.93 610.686C1627.57 610.915 1626.14 611.335 1624.82 611.886C1623.93 612.25 1619.76 613.642 1614 615.998C1607.2 618.782 1593.52 623.896 1593.01 624.521C1592.63 624.991 1617.29 619.765 1617.19 620.247C1617.1 620.73 1620.8 622.257 1621.08 622.727C1622.73 625.628 1622.68 626.488 1622.26 629.803C1621.91 632.611 1616.34 645.135 1614.84 647.436C1615.2 648.054 1620.43 642.494 1620.61 643.465C1621.52 648.555 1628.47 673.047 1630.01 675.558C1631.49 677.964 1632.11 664.877 1627.83 650.751C1627.54 649.78 1625.36 645.457 1626.37 645.822C1631.5 647.689 1636.75 656.571 1638.52 659.224C1641 662.953 1647.91 683.215 1651.64 698.949C1655.36 714.683 1656.6 724.622 1661.15 727.523C1665.7 730.423 1674.81 746.294 1674.81 746.294C1674.81 746.294 1670.66 726.286 1669.01 721.728C1667.36 717.176 1666.94 720.485 1665.71 715.104C1664.46 709.723 1664.46 704.336 1662.4 703.507C1660.33 702.678 1659.91 697.298 1659.91 697.298C1659.91 697.298 1661.16 696.469 1657.02 693.983C1652.89 691.496 1648.75 691.496 1652.89 691.082C1657.02 690.668 1664.88 689.01 1661.98 687.767C1659.09 686.524 1655.36 686.524 1655.78 684.452C1656.19 682.38 1661.16 680.729 1658.26 677.828C1655.36 674.927 1654.96 673.27 1651.64 669.546C1648.34 665.817 1645.44 665.403 1647.92 663.751C1650.41 662.094 1652.06 660.851 1648.75 656.713C1645.44 652.569 1644.2 647.188 1644.2 647.188C1644.2 647.188 1650.74 650.089 1652.47 650.918C1653.25 651.289 1654.54 648.32 1657.03 649.539C1660.06 651.029 1668.72 664.153 1668.88 664.153C1669.03 664.153 1664.36 649.384 1660.32 641.604C1657 635.202 1650.01 628.572 1648.33 624.83C1644.61 616.549 1635.09 603.709 1635.09 603.709L1635.08 603.715Z" fill="url(#paint11_linear_796_12057)"/>
<path fill-rule="evenodd" clip-rule="evenodd" d="M1698.37 662.1C1698.37 662.1 1707.05 675.762 1706.65 677.834C1706.23 679.906 1694.23 684.872 1694.23 684.872C1694.23 684.872 1700.03 685.701 1704.16 688.188C1708.3 690.674 1708.3 689.431 1708.3 691.911C1708.3 694.391 1709.54 693.983 1707.88 694.811C1706.23 695.64 1698.78 693.983 1695.88 697.712C1692.99 701.435 1691.72 698.541 1688.83 703.093C1685.94 707.645 1685.13 708.474 1687.61 707.645C1690.1 706.816 1689.27 699.363 1702.09 701.021C1714.92 702.679 1712.85 698.949 1721.53 701.021C1730.22 703.093 1733.94 706.816 1736.01 708.888C1738.08 710.96 1743.86 712.203 1745.52 712.618C1747.18 713.032 1754.21 710.131 1757.52 711.789C1760.83 713.446 1750.07 703.093 1748.83 701.021C1747.59 698.949 1743.46 692.74 1741.39 691.496C1739.32 690.253 1737.26 691.496 1734.36 686.944C1731.46 682.386 1727.32 679.906 1724.84 674.105C1722.37 668.31 1719.88 660.851 1716.16 659.614C1712.44 658.371 1706.65 656.713 1703.75 654.233C1700.85 651.747 1699.61 650.504 1699.61 650.504C1699.61 650.504 1699.61 659.199 1696.72 660.443C1693.83 661.686 1685.55 665.823 1685.55 668.724C1685.55 671.625 1685.13 673.69 1685.55 671.625C1685.96 669.553 1698.38 663.343 1698.38 662.1H1698.37Z" fill="url(#paint12_linear_796_12057)"/>
<path fill-rule="evenodd" clip-rule="evenodd" d="M1779.04 718.004C1779.04 718.004 1751.73 723.385 1748.01 723.8C1744.29 724.214 1748.43 725.457 1740.56 724.628C1732.71 723.8 1732.7 722.142 1730.22 721.728C1727.74 721.313 1737.26 718.413 1741.81 717.176C1746.36 715.933 1749.67 711.795 1749.67 711.795C1749.67 711.795 1737.67 715.524 1734.36 713.038C1731.06 710.552 1732.29 707.657 1730.23 709.723C1728.16 711.795 1712.44 725.043 1706.65 723.8C1700.85 722.557 1704.99 728.358 1699.2 730.424C1693.4 732.495 1691.33 729.18 1692.16 732.495C1692.99 735.811 1677 745.657 1672.04 748.143C1667.07 750.629 1689.27 747.821 1695.47 745.335C1701.68 742.849 1699.7 737.474 1704.66 741.204C1709.63 744.933 1706.64 749.065 1713.67 743.678C1720.71 738.297 1720.81 739.973 1723.29 743.702C1725.78 747.432 1731.46 746.993 1736.01 748.65C1740.56 750.308 1740.15 744.921 1745.11 746.164C1750.08 747.407 1746.77 744.921 1755.04 747.407C1763.32 749.893 1694.78 752.602 1693.32 756.128C1697.04 758.614 1775.31 756.103 1781.1 757.76C1786.89 759.418 1787.51 762.535 1793.72 762.535C1799.92 762.535 1807.17 763.988 1810.89 766.06C1814.61 768.132 1825.37 768.114 1825.37 768.114C1825.37 768.114 1806.75 749.893 1805.51 747.413C1804.28 744.933 1789.38 725.049 1787.72 722.154C1786.07 719.254 1781.93 715.531 1781.93 715.531C1781.93 715.531 1779.44 720.089 1779.03 718.017L1779.04 718.004Z" fill="url(#paint13_linear_796_12057)"/>
<path fill-rule="evenodd" clip-rule="evenodd" d="M1462.52 688.843C1462.52 688.843 1455.2 695.733 1463.38 703.489C1471.56 711.244 1462.52 714.689 1463.81 717.275C1465.11 719.86 1459.51 715.122 1459.51 719.86C1459.51 724.597 1462.19 747.741 1460.9 755.064C1459.61 762.387 1449.61 744.846 1450.47 748.724C1451.33 752.602 1436.81 767.607 1433.36 769.759C1429.92 771.911 1419.77 780.05 1422.79 772.728C1425.8 765.405 1444.01 743.121 1441.44 742.261C1438.85 741.402 1438.43 739.676 1435.84 737.95C1433.26 736.225 1429.39 735.365 1429.82 740.103C1430.25 744.84 1432.4 747.425 1430.25 751.303C1428.1 755.181 1425.95 753.456 1418.2 757.766C1410.46 762.077 1382.14 783.471 1384.3 780.891C1386.45 778.306 1413.9 756.48 1413.04 752.169C1412.18 747.865 1414.76 745.279 1413.04 746.572C1411.31 747.865 1407.87 755.187 1399.7 755.187C1391.53 755.187 1396.26 759.925 1392.81 761.651C1389.37 763.376 1381.62 763.803 1379.9 765.528C1378.18 767.254 1369.14 773.711 1369.14 773.711C1369.14 773.711 1372.58 763.376 1378.18 759.925C1383.77 756.48 1397.97 747.865 1398.4 743.554C1398.83 739.243 1399.69 733.646 1399.69 733.646C1399.69 733.646 1399.69 741.402 1404 737.95C1408.3 734.505 1407.01 735.365 1408.3 733.213C1409.59 731.061 1411.74 725.457 1413.89 724.164C1416.04 722.872 1421.21 715.982 1425.08 714.256C1428.96 712.531 1430.67 709.519 1430.67 709.519C1430.67 709.519 1436.27 703.922 1438.85 703.056C1441.44 702.196 1446.6 698.318 1449.18 694.44C1451.77 690.562 1453.05 685.392 1454.78 683.673C1456.49 681.947 1457.79 685.398 1456.07 679.795C1454.34 674.197 1450.91 666.875 1450.91 666.875C1450.91 666.875 1458.23 677.642 1462.95 681.953C1467.69 686.264 1471.13 697.465 1472.85 701.336C1474.57 705.214 1477.15 706.074 1474.57 705.214C1471.99 704.355 1469.41 700.477 1467.25 695.306C1465.1 690.136 1462.08 688.843 1462.52 688.843H1462.52Z" fill="url(#paint14_linear_796_12057)"/>
<path fill-rule="evenodd" clip-rule="evenodd" d="M2172.44 861.919C2173.7 846.939 2070.58 844.422 2030.39 837.73C1933.72 791.103 1924.99 802.656 1882.87 794.232C1878.79 793.416 1839.34 790.113 1807.58 800.708C1834.64 783.638 1854.27 784.875 1851.01 784.064C1750.45 759.103 1719.53 761.614 1707.09 759.74C1694.25 757.81 1676.91 748.168 1674.34 746.881C1671.77 745.595 1639.66 740.455 1639.66 740.455C1639.66 740.455 1657.07 754.192 1691.11 768.33C1718.17 765.974 1734.05 772.449 1786.41 797.757C1747.88 786.526 1711.12 775.981 1689.73 775.43C1673.68 768.361 1638.43 754.093 1638.43 754.093C1638.43 754.093 1654.55 783.124 1654.29 785.079C1650.15 784.176 1649 785.66 1644.51 781.801C1640.02 777.948 1619.76 759.096 1617.19 761.663C1614.62 764.23 1625.14 787.936 1620.65 785.363C1616.16 782.79 1544.64 750.066 1544.64 750.066C1544.64 750.066 1589.2 786 1580.03 786C1544.7 781.498 1523.91 781.454 1508.49 784.027C1480.92 782.011 1457.44 783.285 1457.44 783.285C1457.44 783.285 1485.87 787.386 1507.03 795.76C1514.1 796.193 1604.15 802.99 1641.17 809.162C1604.47 794.752 1553.06 791.597 1542.07 791.004C1585.72 785.654 1710.94 794.931 1733 799.025C1713.61 803.435 1679.52 806.682 1675.99 814.178C1691.85 811.092 1819.95 797.751 1864.07 807.171C1818.18 804.227 1768.39 824.581 1775.61 825.923C1807.89 831.91 1852.42 833.914 1866.42 837.247C1876.74 838.818 1891.83 844.41 1909.33 851.64C1915.3 854.107 1873.99 846.117 1852.63 861.381C1885.44 856.798 1935.02 853.074 1940.55 855.431C1961.26 864.263 1986.77 884.345 2006.81 890.746C2050.95 904.835 2029.37 873.676 2029.37 873.676C2030.18 866.693 1920.93 819.367 1835.25 822.472C1863.29 813.436 1940.96 808.173 1944.08 811.29C1944.08 811.29 2013.49 844.249 2030.78 862.58C2064.82 871.579 2194.27 859.568 2172.47 861.906L2172.44 861.919Z" fill="url(#paint15_linear_796_12057)"/>
<path fill-rule="evenodd" clip-rule="evenodd" d="M1864.42 872.235C1861.95 870.788 1825.74 857.119 1786.54 848.838C1778.33 847.106 1738.15 842.498 1703.45 848.38C1725.8 833.079 1760.73 838.973 1750.51 837.198C1729.65 833.58 1700.11 830.296 1669.43 824.29C1658 822.051 1535.96 805.322 1505.38 806.497C1512.54 799.254 1571.56 804.796 1580.46 803.311C1445.06 779.129 1421.64 792.414 1421.64 792.414C1421.64 792.414 1427.18 798.197 1422.68 797.553C1420.73 801.073 1383.43 824.934 1378.15 827.562C1374.94 827.562 1595.34 836.883 1610.75 838.169C1626.16 839.455 1734.7 863.879 1759.75 870.955C1784.79 878.024 1825.89 892.812 1891.4 895.385C1956.9 897.958 2025.13 913.036 2017.43 912.393C2014.25 912.127 1938.78 881.432 1906.02 872.093C1859.38 858.808 1768.67 840.791 1889.23 849.19C1866.77 843.358 1810.79 830.617 1748.77 818.155C1740.65 816.522 1789.59 814.76 1781.32 813.151C1778.44 812.595 1691.32 811.778 1688.44 811.228C1681.14 809.83 1623.58 803.367 1616.29 802.019C1611.83 797.56 1682.72 802.569 1672.7 800.831C1624.94 792.55 1596.83 795.933 1569.37 795.185C1569.37 795.185 1795.13 839.592 1821.42 852.289C1830.55 854.862 1868.11 872.241 1864.43 872.241L1864.42 872.235Z" fill="url(#paint16_linear_796_12057)"/>
<path fill-rule="evenodd" clip-rule="evenodd" d="M2005.23 827.785C1989.68 809.428 1846.44 771.546 1821.39 766.172C1796.35 757.816 1799.56 757.816 1778.36 756.53C1757.17 755.243 1707.45 757.896 1707.45 757.896C1707.45 757.896 1800.85 763.599 1809.19 767.458C1817.54 771.317 1835.52 777.1 1843.87 779.03C1845.03 778.906 1858.5 782.945 1877.02 788.839C1895.58 794.746 1919.22 802.514 1940.63 809.799C1947.05 811.989 1916.4 814.246 1906.99 825.428C1947.57 817.19 1970.79 817.345 1975.22 818.953C1985.2 822.571 2001.54 825.997 2005.22 827.779L2005.23 827.785Z" fill="url(#paint17_linear_796_12057)"/>
<path fill-rule="evenodd" clip-rule="evenodd" d="M1173.69 646.49C1173.69 646.49 1177.86 657.95 1180.46 661.073C1183.06 664.197 1186.7 658.47 1186.18 660.554C1185.66 662.638 1185.14 664.197 1187.74 667.326C1190.34 670.449 1200.22 677.741 1198.67 674.098C1197.1 670.456 1201.27 671.495 1198.67 665.761C1196.06 660.034 1197.1 659.509 1198.15 656.385C1199.19 653.262 1204.39 645.97 1202.31 645.451C1200.22 644.931 1203.87 645.97 1203.87 641.282C1203.87 636.594 1203.35 635.035 1201.27 633.99C1199.19 632.945 1196.58 630.341 1196.58 630.341C1196.58 630.341 1201.79 633.99 1205.43 633.99C1209.07 633.99 1215.31 631.386 1215.31 631.386C1215.31 631.386 1208.55 641.801 1211.15 645.97C1213.76 650.139 1217.92 660.034 1217.92 662.119C1217.92 664.203 1209.07 674.618 1208.03 677.222C1206.99 679.826 1205.84 682.949 1208.45 684.514C1212.41 691.391 1222.82 698.924 1221.78 701.528C1214.75 704.843 1204.73 743.071 1204.72 743.016C1204.2 740.932 1210.11 708.474 1208.56 705.344C1206.99 702.221 1204.92 707.428 1202.31 709.513C1199.71 711.597 1198.67 708.993 1199.71 712.117C1200.75 715.24 1181.62 750.809 1175.85 752.868C1179.97 747.098 1186.98 727.306 1186.98 727.306C1186.98 727.306 1151.43 746.207 1151.95 742.564C1152.47 738.915 1190.35 721.493 1190.35 717.85C1190.35 714.207 1182.44 710.403 1182.44 710.403C1183.48 708.839 1183.37 703.866 1189.86 699.685C1189.86 699.685 1196.59 695.974 1193.99 692.851C1189.86 697.211 1168.25 711.337 1165.13 710.818C1162.01 710.298 1159.36 700.508 1159.36 700.508C1159.36 700.508 1184.62 691.286 1185.66 684.514C1186.7 677.741 1188.26 675.657 1184.62 675.657C1180.98 675.657 1178.9 676.696 1175.78 670.969C1172.65 665.242 1174.21 667.846 1171.09 662.112C1167.97 656.385 1168.49 644.925 1169.53 640.756C1170.57 636.588 1170.05 634.51 1173.17 635.029C1179.82 636.136 1180.23 635.357 1181.5 627.737C1181.5 627.737 1187.22 632.945 1181.5 638.672C1175.78 644.399 1173.69 646.483 1173.69 646.483V646.49Z" fill="url(#paint18_linear_796_12057)"/>
<path fill-rule="evenodd" clip-rule="evenodd" d="M1165.37 717.324C1165.37 717.324 1164.85 703.26 1162.76 699.617C1160.68 695.968 1152.35 703.786 1151.32 705.864C1150.28 707.948 1145.07 713.156 1142.99 713.156C1140.91 713.156 1139.35 712.11 1141.95 705.864C1144.55 699.617 1151.94 679.888 1151.94 679.888C1151.94 679.888 1136.63 703.433 1132.98 709.16C1129.34 714.887 1122.7 741.797 1120.61 742.843C1118.53 743.882 1109.17 763.673 1105 763.154C1100.84 762.634 1096.68 762.108 1096.16 764.193C1095.64 766.277 1087.31 781.9 1084.19 780.341C1081.07 778.776 1072.74 791.276 1068.06 795.444C1063.38 799.613 1059.74 796.484 1058.18 798.568C1056.62 800.652 1052.98 806.899 1050.37 808.463C1047.77 810.028 1056.62 779.815 1060.26 770.439C1063.9 761.063 1078.99 739.713 1078.99 739.713C1078.99 739.713 1070.66 759.505 1068.06 766.796C1065.46 774.088 1064.42 776.692 1065.98 774.608C1067.54 772.524 1074.82 755.336 1079.51 749.089C1084.19 742.837 1082.11 735.025 1085.23 728.253C1088.35 721.48 1091.88 717.275 1091.88 717.275C1091.88 717.275 1073.78 734.506 1070.66 737.629C1067.54 740.752 1058.69 749.609 1056.09 752.732C1053.49 755.856 1054.01 763.667 1052.45 766.277C1050.89 768.881 1046.21 794.399 1040.48 799.087C1034.76 803.775 1031.64 810.028 1031.64 810.028C1032.16 814.197 1032.68 818.359 1033.19 822.528C1033.19 822.528 1032.68 848.046 1031.11 850.65C1029.55 853.254 1012.97 877.554 1012.97 877.554C1012.97 877.554 1014.87 887.221 1012.08 893.208C1010.56 896.467 988.491 898.52 980.09 909.529C986.018 907.328 1007.76 903.982 1016.05 895.855C1019.32 892.657 1085.98 876.923 1086.98 877.461C1087.14 877.245 1064.58 879.391 1046.56 882.409C1034.82 884.376 1024.72 888.13 1025.05 886.973C1028.02 876.366 1033.63 853.569 1034.76 851.689C1041 841.274 1037.88 829.294 1045.69 823.567C1053.49 817.84 1059.74 813.152 1069.1 805.86C1078.47 798.568 1087.83 792.841 1084.19 796.484C1080.55 800.133 1063.9 815.236 1061.82 817.314C1059.73 819.398 1074.3 807.418 1088.87 798.042C1103.44 788.666 1110.2 785.543 1123.22 770.959C1136.23 756.375 1133.63 755.856 1142.47 748.044C1151.32 740.233 1162.25 734.506 1162.25 734.506L1158.09 732.421C1158.09 732.421 1137.79 746.486 1134.15 750.128C1130.51 753.777 1109.7 772.004 1116.98 761.589C1124.27 751.174 1129.46 741.797 1133.63 733.986C1137.79 726.175 1135.2 723.571 1139.36 723.045C1143.52 722.526 1145.6 718.357 1148.72 715.753C1151.84 713.149 1158.09 703.773 1159.13 706.897C1160.17 710.02 1165.37 717.312 1165.37 717.312L1165.37 717.324Z" fill="url(#paint19_linear_796_12057)"/>
<path fill-rule="evenodd" clip-rule="evenodd" d="M1030.6 755.868C1030.6 755.868 1041.01 756.907 1045.69 754.823C1050.92 753.753 1058.45 750.097 1058.45 750.097C1058.45 750.097 1049.85 781.906 1048.3 786.074C1046.73 790.243 1040.49 802.742 1037.37 804.827C1034.25 806.911 1032.16 806.392 1032.16 810.034C1032.16 813.677 1032.68 839.721 1032.68 839.721C1032.68 839.721 1030.6 806.911 1025.4 810.554C1020.19 814.197 1010.31 818.885 1010.31 818.885C1010.31 818.885 1021.76 812.112 1026.44 802.217C1031.12 792.321 1035.8 787.113 1033.2 781.906C1030.6 776.698 1026.44 776.698 1023.32 772.01C1020.19 767.322 1018.63 764.199 1014.99 766.283C1011.35 768.367 1000.48 762.473 1000.48 762.473C1000.48 762.473 1010.3 761.075 1017.07 760.036C1023.83 758.997 1030.6 755.868 1030.6 755.868H1030.6Z" fill="url(#paint20_linear_796_12057)"/>
<path fill-rule="evenodd" clip-rule="evenodd" d="M999.518 759.35C995.537 764.298 994.14 764.193 990.703 773.983C988.62 778.152 987.94 799.093 987.94 799.093L969.211 804.821C969.211 804.821 970.768 810.548 968.166 814.197C965.563 817.846 963.48 820.969 961.923 826.177C960.359 831.384 959.839 838.157 959.839 833.469C959.839 828.781 959.32 825.138 956.718 821.489C954.115 817.84 953.077 816.801 950.994 816.281C948.911 815.762 943.193 817.32 943.193 817.32C943.193 817.32 953.077 807.944 957.762 805.86C962.448 803.775 969.73 800.652 972.332 797.003C974.935 793.36 985.857 770.959 987.94 768.881C990.024 766.796 993.504 761.174 999.524 759.344L999.518 759.35Z" fill="url(#paint21_linear_796_12057)"/>
<path fill-rule="evenodd" clip-rule="evenodd" d="M942.148 827.741C942.148 827.741 936.943 821.489 933.302 827.222C929.662 832.949 915.092 871.493 914.053 875.136C913.009 878.778 900.522 899.095 898.439 901.699C896.362 904.303 890.638 910.03 890.638 910.03C890.638 910.03 898.965 906.907 904.689 901.699C910.413 896.492 913.015 892.323 913.015 892.323C913.015 892.323 917.175 890.239 922.899 875.136C928.623 860.032 933.309 843.884 934.866 839.196C936.43 834.508 939.027 833.431 937.469 837.074C935.911 840.723 934.347 857.422 932.27 863.156C930.187 868.883 925.508 877.22 928.11 873.051C930.712 868.883 940.077 847.007 942.68 841.28C945.282 835.553 946.321 833.469 946.84 828.78C947.359 824.092 948.923 821.489 945.282 819.924C941.641 818.359 941.116 819.404 941.116 819.404C941.116 819.404 945.282 824.092 942.154 827.741H942.148Z" fill="url(#paint22_linear_796_12057)"/>
<path fill-rule="evenodd" clip-rule="evenodd" d="M1160.69 622.53C1160.69 622.53 1158.08 626.179 1148.2 639.198C1138.32 652.217 1128.95 669.404 1127.39 671.488C1125.83 673.573 1124.27 687.637 1124.27 687.637C1124.27 687.637 1115.94 690.241 1115.42 692.325C1114.9 694.409 1101.89 704.305 1099.81 706.909C1097.73 709.513 1088.88 741.804 1082.12 752.744C1075.36 763.679 1063.18 775.387 1061.31 786.081C1066.51 777.224 1071.19 774.62 1087.33 752.225C1103.45 729.83 1118.02 702.746 1121.14 698.578C1124.27 694.409 1119.06 710.038 1116.98 716.285C1114.89 722.538 1114.38 728.265 1114.38 728.265C1114.38 728.265 1108.13 741.81 1103.45 745.972C1098.76 750.134 1112.81 742.849 1119.57 726.7C1126.34 710.552 1125.82 698.052 1129.46 690.241C1133.1 682.429 1123.22 682.949 1136.75 666.281C1150.28 649.613 1164.84 626.179 1162.76 628.263C1160.68 630.347 1148.71 656.385 1144.03 666.281C1139.35 676.177 1137.79 678.261 1137.79 678.261C1137.79 678.261 1153.4 651.178 1158.6 642.847C1163.81 634.516 1165.37 626.179 1168.49 624.094C1171.61 622.01 1170.57 617.848 1175.78 614.718C1180.98 611.595 1184.1 604.823 1184.1 604.823C1184.1 604.823 1173.17 613.153 1170.57 614.199C1167.97 615.244 1160.69 622.53 1160.69 622.53Z" fill="url(#paint23_linear_796_12057)"/>
<path fill-rule="evenodd" clip-rule="evenodd" d="M1119.51 666.368C1119.51 666.368 1121.44 668.297 1121.44 671.062C1121.44 673.826 1119.51 680.45 1119.51 680.45C1119.51 680.45 1117.03 686.245 1114.55 689.561C1112.06 692.876 1100.21 708.331 1100.21 708.331L1091.38 718.821C1091.38 718.821 1099.38 705.573 1102.14 701.429C1104.89 697.285 1112.61 683.209 1113.72 681.551C1114.82 679.894 1115.93 678.236 1116.48 675.756C1117.03 673.27 1118.13 666.095 1119.51 666.368Z" fill="url(#paint24_linear_796_12057)"/>
<path fill-rule="evenodd" clip-rule="evenodd" d="M1396.69 494.671C1396.69 494.671 1394.91 507.134 1392.42 508.204C1389.93 509.274 1388.15 514.97 1388.15 514.97C1388.15 514.97 1384.23 527.791 1379.25 539.542C1374.27 551.293 1365.37 572.662 1360.75 580.139C1356.13 587.616 1347.23 601.86 1348.65 598.298C1350.07 594.735 1358.61 575.507 1361.46 568.74C1364.3 561.974 1360.04 566.607 1368.22 549.864C1376.4 533.128 1380.67 520.666 1380.67 520.666C1380.67 520.666 1373.91 533.84 1371.42 538.113C1368.93 542.387 1363.23 547.372 1360.39 549.153C1357.55 550.934 1353.63 553.786 1353.63 553.786C1353.63 553.786 1352.57 560.91 1350.43 564.467C1348.3 568.029 1340.47 591.173 1335.84 595.446C1331.22 599.72 1322.68 613.964 1322.68 613.964C1322.68 613.964 1336.56 582.984 1340.11 577.999C1343.67 573.014 1350.07 555.567 1352.21 551.646C1354.34 547.731 1363.23 536.691 1365.73 533.487C1368.22 530.283 1379.6 510.696 1380.67 508.562C1381.74 506.429 1386.71 500.726 1389.2 498.592C1391.69 496.452 1396.68 494.677 1396.68 494.677L1396.69 494.671Z" fill="url(#paint25_linear_796_12057)"/>
<path fill-rule="evenodd" clip-rule="evenodd" d="M1302.41 584.765C1302.41 584.765 1305.61 588.328 1304.9 589.75C1304.19 591.173 1292.8 608.979 1290.67 612.9C1288.54 616.815 1282.13 626.432 1282.13 626.432C1282.13 626.432 1290.32 605.064 1292.81 601.86C1295.3 598.656 1297.43 591.531 1298.14 589.039C1298.85 586.547 1302.42 584.765 1302.42 584.765H1302.41Z" fill="url(#paint26_linear_796_12057)"/>
<path fill-rule="evenodd" clip-rule="evenodd" d="M1247.26 608.274C1247.26 608.274 1230.36 636.736 1231.95 636.773C1232.4 636.786 1250.97 609.152 1251.42 609.208C1252.59 609.35 1253.87 608.694 1254.38 609.344C1254.94 610.049 1255.67 610.81 1256.35 611.471C1257.38 612.479 1258.29 613.265 1258.29 613.265C1259.84 618.745 1258.98 623.538 1257.93 628.269C1260.68 623.866 1262.75 618.516 1262.56 610.061C1262.56 610.061 1263.27 608.991 1263.27 607.569C1263.27 606.146 1262.56 600.802 1262.56 600.802C1262.56 600.802 1254.02 601.872 1247.26 608.28L1247.26 608.274Z" fill="url(#paint27_linear_796_12057)"/>
<path fill-rule="evenodd" clip-rule="evenodd" d="M1193.34 597.778C1193.34 597.778 1189.53 598.935 1187.96 600.512C1186.39 602.083 1184.07 604.816 1183.74 605.231C1183.41 605.645 1180.84 610.451 1180.26 611.026C1179.68 611.607 1184.32 605.392 1185.98 604.983C1187.63 604.569 1188.37 604.983 1189.12 604.322C1189.86 603.66 1189.2 602.664 1190.12 602.584C1191.03 602.503 1192.44 601.26 1192.85 600.097C1193.26 598.935 1193.34 597.778 1193.34 597.778H1193.34Z" fill="url(#paint28_linear_796_12057)"/>
<path fill-rule="evenodd" clip-rule="evenodd" d="M1453.17 479.883C1453.17 477.193 1455.83 466.945 1458.35 465.491C1456.88 465.98 1449.8 468.089 1442.46 472.53C1446.7 467.378 1455.99 461.292 1458.06 460.092C1457.12 458.02 1456.15 455.051 1456.37 454.383C1456.37 454.383 1469.84 441.253 1473.02 439.293C1476.19 437.332 1479.42 434.289 1481.38 433.559C1483.34 432.823 1486.73 431.456 1486.73 431.456C1486.73 431.456 1484.87 437.759 1485.43 442.026C1484.48 442.96 1478.07 451.105 1477.46 451.854C1475.26 454.544 1468.18 454.179 1466.71 454.915C1465.25 455.651 1461.53 454.229 1462.5 455.695C1463.48 457.16 1461.77 460.104 1461.77 460.104C1461.77 460.104 1480.35 452.72 1482.46 453.802C1480.24 454.402 1462.95 462.615 1463.92 462.863C1464.9 463.11 1456.53 471.893 1453.16 479.883H1453.17Z" fill="url(#paint29_linear_796_12057)"/>
<path fill-rule="evenodd" clip-rule="evenodd" d="M1433.28 475.968C1434.75 475.968 1436.83 474.793 1442.7 477.243C1448.57 479.692 1459.33 482.413 1458.59 483.39C1457.85 484.367 1450.44 481.615 1450.68 483.576C1450.93 485.536 1445.77 481.795 1441.86 479.834C1437.94 477.873 1441.99 483.848 1440.76 484.584C1439.54 485.32 1438.56 483.248 1436.6 482.512C1434.65 481.776 1435.11 487.033 1434.14 487.769C1433.16 488.505 1429.98 490.954 1428.51 493.156C1427.05 495.358 1425.33 501.512 1425.33 500.528C1425.33 499.545 1426.8 486.056 1427.53 484.095C1428.27 482.135 1433.28 475.968 1433.28 475.968Z" fill="url(#paint30_linear_796_12057)"/>
<path fill-rule="evenodd" clip-rule="evenodd" d="M1474.93 453.79C1476.34 454.216 1480.55 444.698 1485.25 439.892C1484.66 447.537 1492.98 456.727 1496.67 461.181C1493.5 458.169 1491.36 459.826 1489.45 457.569C1488.07 457.915 1485.29 456.715 1483.63 455.447C1481.97 454.173 1480.89 459.337 1479.74 459.758C1478.59 460.179 1473.62 461.261 1471.57 462.943C1469.52 464.625 1456.76 472.53 1457.04 471.596C1457.33 470.656 1463.33 462.925 1464.6 461.261C1465.87 459.597 1474.93 453.784 1474.93 453.784L1474.93 453.79Z" fill="url(#paint31_linear_796_12057)"/>
<path fill-rule="evenodd" clip-rule="evenodd" d="M1373.65 740.35C1373.65 740.35 1358.76 752.361 1358.35 756.084C1357.93 759.814 1362.48 760.228 1357.52 765.195C1351.69 771.027 1345.28 781.417 1337.86 786.495C1321.53 797.671 1307.24 807.474 1293.12 818.576C1293.12 818.576 1331.78 793.199 1342.66 789.965C1353.55 786.724 1369.13 773.711 1369.13 773.711C1369.05 773.637 1368.82 776.977 1362.79 782.679C1357.65 787.54 1346.78 794.795 1344.68 795.846C1336.49 799.966 1243.45 885.545 1226.37 883.992C1226.37 880.881 1250.05 864.009 1259.5 853.94C1261.27 852.066 1236.64 858.072 1235.45 857.466C1239.77 855.01 1267.3 843.439 1272.27 839.66C1292.28 824.414 1312.35 814.846 1311.68 815.193C1303.66 819.293 1301.01 818.198 1291.73 823.177C1288.21 825.063 1269.37 839.486 1254.4 845.207C1225.02 856.439 1188.47 869.959 1170.2 880.486C1168.83 880.152 1190.43 876.156 1208.87 870.819C1230.95 864.43 1250.6 856.655 1248.93 858.14C1232.22 869.811 1207.93 877.913 1179.39 884.623C1167.13 887.505 1146.75 892.156 1139.2 896.566C1112.84 904.118 1047.05 913.964 1037.42 916.11C1049.07 912.047 1089.43 900.184 1112.97 893.133C1123.82 889.886 1130.6 887.196 1138.11 884.586C1171.2 873.089 1193.02 854.157 1204.02 851.739C1222.96 847.589 1250.36 837.662 1255.32 836.004C1260.29 834.347 1287.59 819.027 1280.97 820.685C1274.35 822.342 1265.39 822.831 1258.22 827.723C1251.04 832.615 1243.47 832.25 1240.81 833.295C1238.16 834.341 1259.46 822.75 1273.11 817.784C1286.76 812.818 1298.76 807.016 1304.96 802.879C1311.17 798.735 1317.79 794.183 1309.93 796.255C1302.07 798.327 1295.96 796.768 1280.56 803.701C1284.69 798.469 1305.37 794.183 1311.99 791.696C1318.61 789.21 1324.4 789.625 1323.99 783.415C1323.57 777.205 1331.02 776.377 1333.09 773.476C1335.15 770.575 1329.78 769.747 1328.12 768.918C1326.47 768.089 1327.3 767.26 1334.33 763.951C1341.36 760.636 1347.98 755.67 1347.98 755.67C1347.98 755.67 1341.36 761.051 1339.3 767.266C1337.23 773.476 1333.51 780.929 1333.51 780.929C1333.51 780.929 1350.47 765.609 1352.53 764.366C1354.61 763.123 1358.74 762.294 1357.08 760.222C1355.43 758.15 1350.46 755.664 1373.63 740.344L1373.65 740.35Z" fill="url(#paint32_linear_796_12057)"/>
<path fill-rule="evenodd" clip-rule="evenodd" d="M1215.21 739.528C1215.21 739.528 1218.93 791.288 1216.04 792.531C1213.14 793.775 1213.56 765.201 1212.31 764.372C1211.07 763.543 1211.07 776.791 1207.76 776.383C1204.46 775.968 1201.97 775.554 1202.39 778.455C1202.8 781.355 1189.15 787.565 1184.6 790.88C1180.05 794.195 1178.8 808.686 1175.08 812.001C1171.36 815.316 1156.05 831.465 1151.5 834.78C1146.95 838.095 1141.98 843.061 1140.33 846.791C1139.62 848.392 1137.91 860.867 1133.94 865.574C1128.66 871.827 1075.99 892.62 1075.99 892.62C1075.99 892.62 1126.18 869.569 1131.26 861.95C1136.64 853.885 1141.91 838.862 1144.89 833.543C1150.68 823.189 1155.64 813.25 1158.95 811.593C1162.26 809.935 1167.63 804.555 1162.67 806.212C1157.71 807.87 1136.61 813.665 1134.13 814.494C1131.64 815.322 1147.37 819.466 1126.26 824.847C1105.16 830.228 1104.34 834.372 1100.62 837.272C1096.89 840.173 1096.07 840.173 1091.52 846.382C1086.97 852.592 1065.46 870.812 1067.11 870.398C1068.77 869.984 1082 847.211 1089.87 837.687C1097.73 828.162 1092.35 831.063 1106.41 822.781C1120.48 814.5 1126.68 807.461 1135.37 801.246C1144.06 795.036 1160.61 788.827 1156.06 785.926C1156.06 785.926 1147.37 791.721 1141.17 794.207C1134.96 796.694 1129.17 801.246 1129.17 801.246C1129.17 801.246 1133.72 794.207 1144.06 787.584C1154.4 780.96 1161.43 778.059 1159.78 776.401C1158.12 774.744 1152.33 776.401 1158.12 773.501C1163.91 770.6 1169.71 766.877 1167.63 765.634C1165.56 764.39 1157.71 762.733 1157.71 762.733C1157.71 762.733 1161.43 759.832 1165.98 759.418C1169.01 759.142 1171.22 758.313 1172.6 756.932C1174.67 754.86 1176.32 751.13 1176.32 751.13C1176.32 751.13 1176.32 749.473 1181.28 752.788C1186.25 756.097 1186.25 758.997 1187.9 756.511C1189.56 754.025 1189.15 754.854 1190.39 752.788C1191.63 750.716 1193.28 751.13 1194.52 747.815C1195.77 744.5 1199.07 741.606 1197.84 738.705C1196.59 735.804 1194.94 734.147 1194.94 734.147C1194.94 734.147 1202.8 734.976 1201.56 738.705C1200.32 742.434 1197.01 750.302 1197.01 751.953C1197.01 753.604 1197.42 755.682 1197.42 755.682C1197.42 755.682 1196.59 763.549 1195.77 766.45C1194.94 769.351 1194.11 774.731 1194.94 773.074C1195.77 771.416 1199.49 762.721 1200.73 758.997C1201.97 755.268 1206.78 741.933 1208.85 740.276C1213.37 736.658 1220.82 722.204 1225.06 718.493C1228.37 715.592 1232.65 709.315 1232.65 709.315C1232.65 709.315 1226.38 721.32 1225.14 727.121C1223.9 732.916 1223.9 741.197 1223.9 739.546C1223.9 737.895 1223.48 732.093 1222.66 729.607C1221.83 727.121 1215.21 739.546 1215.21 739.546V739.528Z" fill="url(#paint33_linear_796_12057)"/>
<path fill-rule="evenodd" clip-rule="evenodd" d="M968.919 804.542C971.404 804.542 972.98 815.724 973.809 820.283C974.637 824.841 976.09 827.315 974.853 829.801C973.611 832.287 962.311 856.303 962.311 858.375C962.311 860.447 979.168 834.545 977.511 838.274C975.855 842.004 953.676 900.759 954.09 899.102C954.504 897.444 952.928 890.115 953.453 882.972C951.339 877.288 948.298 872.303 948.298 874.375C948.298 876.447 948.372 898.953 947.964 900.611C947.55 902.268 947.55 900.611 951.685 901.854C955.821 903.097 977.258 903.926 994.065 897.599C999.029 899.671 960.191 914.187 963.084 914.595C965.983 915.009 976.918 918.417 993.466 913.03C1010.01 907.649 1036.9 905.992 1036.9 905.992C1036.9 905.992 993.144 919.889 982.389 923.204C971.633 926.513 962.762 931.485 940.837 935.629C918.911 939.773 899.563 944.64 885.643 946.521C892.875 946.205 920.642 936.34 932.096 926.97C940.33 924.861 937.221 921.72 935.156 919.233C933.085 916.747 928.523 910.136 933.487 911.793C938.451 913.451 952.514 918.831 945.071 913.451C937.622 908.07 935.972 909.313 938.037 905.169C940.101 901.025 939.625 891.006 941.696 882.316C943.767 873.62 945.609 852.722 946.851 855.208C948.094 857.695 951.691 875.358 953.348 872.049C955.005 868.734 955.419 864.597 955.827 862.939C956.241 861.282 957.891 857.973 957.069 855.487C956.241 853 951.147 862.568 952.798 860.502C954.455 858.431 955.604 837.984 958.083 838.812C960.562 839.641 958.72 854.243 960.376 849.691C962.033 845.133 959.072 848.906 960.729 844.762C962.385 840.618 959.672 836.165 959.672 836.165C959.672 836.165 960.791 825.707 962.447 822.806C964.104 819.912 967.603 816.634 967.603 812.49C967.603 808.346 968.925 804.555 968.925 804.555L968.919 804.542Z" fill="url(#paint34_linear_796_12057)"/>
<path fill-rule="evenodd" clip-rule="evenodd" d="M902.667 886.732C902.667 886.732 880.327 891.284 875.777 892.113C871.228 892.942 862.178 891.705 851.422 894.599C840.667 897.5 822.611 897.908 822.611 897.908C822.611 897.908 845.884 888.588 874.819 884.419C884.555 883.015 898.123 879.279 904.33 875.964C910.536 872.655 915.914 868.512 915.914 868.512C915.914 868.512 912.186 878.865 910.536 879.694C908.879 880.523 903.087 886.732 902.673 886.732H902.667Z" fill="url(#paint35_linear_796_12057)"/>
<path fill-rule="evenodd" clip-rule="evenodd" d="M888.598 902.052C888.598 902.052 880.735 904.124 879.913 905.781C879.084 907.439 876.606 907.439 876.606 907.439C876.606 907.439 866.678 904.124 864.193 907.024C861.715 909.925 847.646 920.687 846.403 922.344C845.161 924.002 834.355 925.301 828.563 926.129C822.771 926.958 824.063 935.592 815.372 936.421C806.687 937.25 798.41 933.52 790.553 934.763C782.691 936.007 787.698 945.55 783.97 946.787C780.249 948.03 768.214 945.117 763.664 943.045C759.115 940.973 762.558 948.092 759.659 950.572C756.766 953.058 734.704 966.646 732.633 966.646C730.562 966.646 711.536 969.961 718.156 965.403C724.777 960.845 737.214 945.5 737.214 945.5C737.214 945.5 722.292 956.707 720.227 955.464C718.162 954.221 714.021 956.293 716.506 952.563C718.991 948.834 705.225 960.542 701.089 962.613C696.954 964.685 693.338 968.297 690.445 967.054C687.546 965.811 687.546 965.397 687.546 965.397C687.546 965.397 677.204 970.777 673.897 972.435C670.59 974.092 672.24 970.363 669.347 972.021C666.454 973.678 649.907 979.473 643.694 980.302C637.488 981.131 619.29 986.097 614.32 988.169C609.356 990.241 602.322 992.727 602.322 992.727C602.322 992.727 699.538 973.678 733.876 970.777C768.208 967.877 806.681 963.325 809.58 963.739C812.473 964.154 727.663 972.738 711.116 975.218C694.568 977.704 606.637 993.105 595.467 995.999C584.297 998.9 576.656 1007.82 576.656 1007.82C576.656 1007.82 693.746 991.892 733.876 984.025C774.006 976.158 851.626 964.067 890.922 954.957C898.575 953.182 909.553 951.53 920.172 949.607C924.994 948.735 965.291 944.764 969.674 943.533C980.04 940.62 1219.61 884.135 1236.4 878.667C1240.63 877.288 1216.72 877.548 1161.98 887.982C1158.44 888.656 1201.47 881.215 1235.37 872.396C1255.33 867.207 1264.5 860.02 1272.1 853.594C1267.55 855.771 1260.39 860.137 1249.7 862.754C1245.69 863.737 1280.47 847.502 1290.62 838.002C1277.44 843.383 1245.98 857.905 1225.32 865.147C1159.01 888.383 1083.94 908.688 1082.5 911.008C1039.04 919.338 1002.95 926.352 1006.5 925.746C1040.14 917.124 1071.35 909.3 1071.35 909.3C1068.06 906.827 908.941 941.95 894.383 944.276C877.836 945.104 867.494 946.347 874.943 943.032C882.391 939.717 911.759 933.508 896.04 934.751C880.321 935.994 873.286 940.961 864.187 939.309C855.088 937.652 848.053 938.895 850.124 937.237C852.195 935.58 862.537 932.271 859.637 930.613C856.745 928.956 847.639 930.199 857.981 927.713C868.322 925.226 865.015 924.812 869.151 919.017C873.286 913.215 880.735 909.492 878.664 911.15C876.593 912.807 872.872 920.26 871.629 921.503C870.387 922.746 879.907 913.636 882.385 911.15C884.864 908.663 887.349 907.835 887.349 907.835C887.349 907.835 888.591 908.663 884.036 913.63C879.486 918.596 879.072 919.017 879.072 919.017C879.072 919.017 890.619 913.339 895.583 907.123C900.546 900.914 909.578 881.543 909.578 881.543C909.578 881.543 890.656 903.691 888.585 902.033L888.598 902.052Z" fill="url(#paint36_linear_796_12057)"/>
<path fill-rule="evenodd" clip-rule="evenodd" d="M1463.29 777.026C1463.29 777.026 1414.35 774.453 1404.5 776.265C1400.06 777.082 1393.01 778.597 1384.46 780.712C1382 781.318 1407.41 761.725 1405 762.368C1403.6 762.739 1388.26 768.541 1378.37 774.948C1372.66 778.647 1370.26 784.423 1369.52 784.64C1364.25 786.149 1359.73 787.615 1357.04 788.833C1353.81 790.299 1351.1 799.056 1346.59 801.679C1340.27 805.365 1333.2 807.356 1329.03 810.838C1321.88 816.801 1301.21 830.259 1297.64 833.834C1302.75 833.394 1336.73 811.08 1351.62 808.099C1366.51 805.118 1388.88 796.626 1406.75 793.639C1397.52 801.914 1387.84 804.499 1375.18 809.843C1364.53 814.333 1339.74 820.567 1326.26 826.412C1323.7 827.519 1375.41 821.278 1373.84 822.342C1371.33 824.043 1313.64 837.767 1308.12 841.175C1290.68 851.936 1263.34 864.665 1263.34 864.665C1263.34 864.665 1350.08 841.082 1361.99 835.12C1373.9 829.158 1444.99 815.508 1469.4 815.687C1493.82 815.873 1512.08 815.582 1525.79 817.37C1539.49 819.157 1711.9 849.246 1711.9 849.246C1711.9 849.246 1589.56 811.216 1488.31 807.653C1455.44 806.497 1390.06 822.491 1379.93 826.665C1379.93 826.665 1425.11 803.738 1427.86 797.312C1480.89 794.282 1604.57 818.433 1604.57 818.433C1604.57 818.433 1491.29 781.832 1445.3 789.043C1433.98 790.237 1386.1 789.724 1386.1 789.724C1385.74 790.07 1402.86 784.38 1420.37 780.663C1432.28 778.133 1461.25 777.843 1463.29 777.026Z" fill="url(#paint37_linear_796_12057)"/>
<path fill-rule="evenodd" clip-rule="evenodd" d="M1465.9 567.837C1465.19 570.565 1461.04 574.993 1460.53 576.44C1460.09 577.943 1456.45 579.613 1455.7 581.326C1453.06 587.35 1452.12 593.974 1450.89 596.349C1449.81 598.409 1447.38 599.405 1447.19 599.776C1446.83 600.493 1446.38 603.647 1445.41 608.224C1444.98 610.284 1445.27 613.246 1443.98 615.331C1442.43 617.848 1440.61 618.862 1440.03 619.926C1437.9 623.841 1430.68 630.186 1430.68 630.186C1430.68 630.186 1437.85 620.625 1441.21 613.29C1441.84 611.898 1442.64 610.073 1442.67 607.828C1442.37 604.705 1430.6 616.382 1431.22 617.934C1430.8 616.475 1434.33 612.059 1437.38 607.179C1441 601.359 1444.39 594.976 1445.61 593.616C1445.87 592.7 1446.93 590.282 1447.22 591.216C1447.55 592.267 1448.45 589.812 1449.59 588.383C1450.6 587.115 1451.16 585.947 1451.13 583.93C1451.12 583.009 1439.93 591.519 1440.77 590.152C1442.27 587.66 1454.33 578.519 1457.37 576.737C1460.24 575.055 1465.89 567.806 1465.89 567.85L1465.9 567.837Z" fill="url(#paint38_linear_796_12057)"/>
<path fill-rule="evenodd" clip-rule="evenodd" d="M1508.34 453.326C1508.56 456.288 1507.58 460.37 1507.07 461.811C1506.63 463.314 1506.23 465.98 1505.48 467.693C1502.85 473.717 1500.91 477.601 1499.68 479.97C1498.6 482.03 1496.17 483.025 1495.98 483.396C1495.62 484.108 1495.17 487.262 1494.2 491.839C1493.77 493.898 1494.06 496.861 1492.77 498.945C1491.22 501.462 1489.4 502.476 1488.82 503.54C1488.25 504.598 1487.3 505.835 1486.22 507.078C1484.87 508.63 1479.16 512.873 1476.1 517.499C1472.57 522.831 1469.15 528.521 1469.15 528.521C1469.15 528.521 1471.4 522.144 1474.54 516.64C1476.92 512.477 1483.04 507.888 1484.06 506.348C1486.2 503.126 1488.4 500.386 1490 496.904C1490.63 495.512 1491.43 493.688 1491.46 491.443C1492.45 490.249 1484.26 498.562 1481.5 501.549C1481.58 498.091 1484.61 496.923 1487.65 492.037C1491.28 486.217 1493.16 478.585 1494.39 477.23C1494.65 476.315 1495.72 473.897 1496.01 474.83C1496.33 475.882 1498.23 474.175 1499.37 472.746C1500.38 471.478 1500.19 470.056 1500.16 468.046C1500.15 467.124 1488.72 475.133 1489.55 473.767C1491.05 471.274 1499.12 464.625 1502.17 462.844C1505.04 461.162 1508.33 453.276 1508.33 453.32L1508.34 453.326Z" fill="url(#paint39_linear_796_12057)"/>
<path fill-rule="evenodd" clip-rule="evenodd" d="M902.667 886.732C902.667 886.732 878.485 890.604 867.167 893.752C856.287 896.782 815.96 907.117 806.613 911.1C797.848 914.836 789.021 918.813 788.372 920.124C796.828 918.67 813.487 922.239 813.487 922.239C794.72 924.224 781.442 927.267 772.411 930.774C772.411 930.774 766.217 931.133 763.615 934.776C761.013 938.418 753.564 937.961 752.006 943.175C750.442 948.382 734.42 951.573 721.303 962.403C721.303 957.715 750.003 943.323 747.401 939.68C745.961 937.664 721.488 944.814 707.024 949.916C701.133 951.994 678.676 963.826 659.538 970.276C651.774 972.892 645.772 972.354 636.487 975.719C623.333 980.481 610.748 986.474 610.482 986.406C609.901 986.307 631.74 968.347 646.773 967.172C658.184 966.281 671.017 962.02 676.086 959.595C696.824 949.662 726.953 936.711 727.317 936.711C727.317 936.711 752.111 930.916 756.797 928.832C761.483 926.748 772.937 926.605 775.539 922.963C778.141 919.314 798.608 910.055 800.691 907.971C801.866 906.796 818.661 897.463 835.264 894.618C848.06 892.428 901.085 885.829 902.667 886.732Z" fill="url(#paint40_linear_796_12057)"/>
<path fill-rule="evenodd" clip-rule="evenodd" d="M1939.86 884.57C1939.86 884.57 1690.51 831.5 1671.03 827.601C1651.56 823.702 1568.46 808.106 1528.22 805.507C1487.97 802.908 1379.88 832.537 1346.85 845.062C1309 859.41 1136.13 909.473 1123.14 915.971C1110.16 922.469 850.492 958.853 829.721 962.752C808.95 966.651 621.215 1000.45 621.215 1000.45C621.215 1000.45 968.638 1019.94 1180.27 1006.94C1391.89 993.944 2038.46 884.779 2038.46 884.779L1939.86 884.57Z" fill="url(#paint41_linear_796_12057)"/>
<path fill-rule="evenodd" clip-rule="evenodd" d="M1942.91 900.026C1942.91 900.026 1788.23 919.503 1611.97 942.552C1440.16 965.025 1243.4 978.4 1155.6 982.247C1088.77 985.178 1025.56 988.978 970.676 990.575C967.571 992.329 822.742 1009.62 819.708 1007.94C842.162 1001.29 944.109 987.556 938.371 987.714C861.769 989.806 814.139 992.644 814.139 992.644C814.139 992.644 887.188 983.686 979.681 986.047C1089.7 986.058 1223.12 965.969 1282.84 958.859C1335.75 952.553 1420.24 944.575 1487.18 930.745C1558.2 916.076 1609.81 895.451 1594.44 886.085C1564.58 867.89 1512.64 860.092 1532.12 857.493C1551.59 854.893 1610.02 850.995 1595.73 841.897C1581.45 832.8 1572.37 832.8 1582.75 826.301C1593.14 819.803 1525.63 805.507 1525.63 805.507C1525.63 805.507 1708.47 827.321 1809.75 850.715C1876.33 864.714 1953.67 854.555 1974.44 854.555C1995.22 854.555 2088.92 876.51 2088.92 876.51C2088.92 876.51 1961.1 896.127 1942.92 900.026H1942.91Z" fill="url(#paint42_linear_796_12057)"/>
<path fill-rule="evenodd" clip-rule="evenodd" d="M1531.93 810.093C1462.3 812.413 1370.36 846.606 1318.26 859.41C1327.04 853.553 1451.53 815.741 1440.91 818.416C1398.75 825.969 1292.72 861.356 1291.92 866.73C1258.4 875.402 1241.15 881.912 1226.47 887.373C1220.74 888.707 1107.31 913.762 1089.69 924.351C1098.42 921.723 1248.78 887.915 1251.65 887.996C1244.45 892.291 1155.24 916.629 1158.55 917.736C1161.34 918.663 1085.96 930.045 1006.88 938.775C999.878 939.551 929.671 956.09 922.67 956.831C914.684 957.67 1005.23 935.955 997.397 936.724C993.61 937.097 953.652 943.391 949.656 943.823C856.261 953.853 707.622 980.562 698.902 980.562C690.183 980.562 654.575 989.537 654.575 989.537C654.575 989.537 667.984 989.17 687.369 990.05C691.347 988.471 874.941 953.223 950.058 946.439C968.331 946.719 678.352 992.131 699.298 991.076C707.249 990.674 725.108 986.11 748.443 984.047C758.025 983.202 868.755 969.559 878.494 968.638C887.82 967.758 750.214 989.846 758.409 989.013C773.373 987.492 830.177 981.536 835.547 980.65C875.401 974.111 900.96 966.488 949.493 959.296C937.354 958.812 853.604 967.199 861.235 965.701C869.553 964.063 985.403 950.711 993.942 949.231C1013.88 945.763 1028.19 943.595 1050.5 941.468C1086.42 938.041 1113.79 935.558 1122.78 937.557C1106.42 937.709 1062.01 947.413 1027.06 951.061C964.737 957.559 901.083 973.481 901.083 973.481C901.083 973.481 1074.87 956.947 1113.82 950.455C1125.9 948.438 1394.05 891.656 1418.08 885.898C1367.48 889.698 1090.59 953.934 1100.85 949.662C1113.56 944.376 1222.2 907.217 1234.85 901.89C1248.44 896.167 1277.29 882.36 1303.63 875.035C1307.9 872.721 1239.22 888.748 1243.14 886.755C1249.78 883.375 1299.75 870.32 1305.09 868.688C1351.83 854.392 1472.04 813.876 1531.92 810.093H1531.93Z" fill="url(#paint43_linear_796_12057)"/>
<path fill-rule="evenodd" clip-rule="evenodd" d="M1583.18 832.735C1593.25 826.849 1507.89 817.28 1367.23 867.89C1226.56 918.5 1196.15 932.563 1118.25 945.56C1095.69 949.325 1073.25 955.316 1053.46 958.451C1004.93 966.15 968.527 967.957 949.159 967.957C921.893 967.957 796.775 990.47 796.775 990.47C796.775 990.47 980.881 979.111 1060.83 964.396C1059.72 964.6 1157.47 950.834 1266.02 935.5C1271.66 934.708 1289.31 932.965 1313.33 930.727C1324.01 929.731 982.984 978.494 952.38 989.794C975.173 984.642 1402.29 936.992 1416.17 935.745C1496.18 935.267 1570.26 907.141 1583.74 901.838C1520.69 917.929 1358.01 928.693 1383.34 924.363C1454.34 914.794 1536.2 898.563 1541.27 898.516C1507.7 898.411 1477.97 903.295 1401.92 912.812C1384.86 914.945 1327.63 924.585 1310.41 926.805C1196.3 941.521 1086.72 956.988 1090.17 957.909C1162.39 940.763 1262.93 914.491 1329.56 893.877C1400.97 871.783 1442.52 854.888 1484.06 852.288C1525.61 849.689 1437.32 867.884 1400.97 878.281C1364.62 888.678 1323.07 901.675 1323.07 901.675C1323.07 901.675 1429.53 878.281 1468.48 867.884C1500.67 859.294 1579.96 852.411 1590.34 848.634C1590.66 845.912 1512.09 845.277 1475.47 848.046C1480.57 843.675 1565.87 833.755 1583.16 832.73L1583.18 832.735Z" fill="url(#paint44_linear_796_12057)"/>
<path fill-rule="evenodd" clip-rule="evenodd" d="M1997.21 884.68C1995.27 884.68 1967.53 885.84 1912.19 886.423C1906.59 886.481 1707.23 927.056 1582.74 947.903C1530.18 956.703 1485.84 957.46 1483.34 957.484C1535.95 923.798 1694.25 897.688 1764.96 881.463C1656.88 881.994 1598.13 872.016 1592.83 870.425C1587.53 868.834 1546.21 859.288 1526.08 859.818C1505.94 860.348 1488.34 864.02 1488.34 864.02C1488.34 864.02 1530.32 851.863 1576.41 853.454C1622.51 855.045 1750.2 859.818 1741.72 857.166C1733.25 854.515 1655.36 851.333 1623.57 845.499C1591.77 839.665 1584.36 832.526 1571.11 831.995C1557.87 831.465 1548.33 828.528 1548.33 828.528C1548.33 828.528 1557.34 824.285 1598.67 829.588C1640 834.892 1679.65 841.192 1727.95 847.09C1750.93 847.09 1785.99 853.367 1830.25 861.094C1839.4 862.691 1894.32 852.644 1974.45 854.555C1985.18 856.374 1894.32 861.234 1892.3 871.497C1924.43 876.527 1959.64 881.306 1997.22 884.686L1997.21 884.68Z" fill="url(#paint45_linear_796_12057)"/>
<path fill-rule="evenodd" clip-rule="evenodd" d="M1811.42 850.995C1810.65 850.423 1695.02 827.543 1678.31 824.192C1660.66 820.654 1628.75 815.216 1608.84 812.361C1595.09 810.385 1584.3 809.412 1577.22 808.159C1550.2 803.386 1526.59 805.192 1526.59 805.192C1526.59 805.192 1634.68 821.103 1662.76 825.876C1690.84 830.649 1566.03 811.236 1544.77 810.117C1589.54 819.914 1582.54 828.032 1582.54 828.032C1582.54 828.032 1676.27 831.954 1811.42 850.989V850.995Z" fill="url(#paint46_linear_796_12057)"/>
<path fill-rule="evenodd" clip-rule="evenodd" d="M1813.24 883.153C1813.24 883.153 1697.08 888.865 1629.26 900.002C1561.44 911.139 1537.47 919.911 1537.47 919.911C1537.47 919.911 1608.72 890.048 1663.3 882.623C1717.87 875.198 1824.9 881.032 1817.48 878.38C1810.07 875.729 1703.03 871.486 1673.89 869.895C1644.75 868.304 1632.56 867.773 1632.56 867.773C1632.56 867.773 1596.53 863 1592.3 863C1588.06 863 1648.46 864.061 1673.36 864.591C1698.26 865.122 1768.6 869.452 1821.84 869.912C1875.08 870.378 1966.27 880.455 1959.41 882.168C1957.73 882.588 1954.93 886.405 1937.14 891.791C1926.42 895.037 1589.47 963.463 1538.68 967.036C1546.02 955.496 1719.49 909.444 1789.01 898.12C1841.52 889.564 1884.75 887.274 1881.83 887.28C1846.4 887.315 1816.75 883.148 1813.25 883.148L1813.24 883.153Z" fill="url(#paint47_linear_796_12057)"/>
<path d="M823.81 813.186H209.902L209.902 831.778V926.34H225.427V825.029H273.159V914.208H245.471L267.667 926.998H304.051C329.028 899.402 360.456 876.81 396.233 861.117C432.011 845.418 472.146 836.623 514.542 836.623C599.335 836.623 675.075 871.814 725.031 927H761.958L784.157 914.21H756.469V825.029H798.924V906.493H823.81V848.693V813.186ZM355.597 873.89C336.59 885.772 319.276 899.73 304.049 915.402V826.036H355.597V873.89ZM432.61 840.131C408.707 846.75 386.151 856.183 365.426 868.015V826.036H432.61V840.131ZM663.656 868.015C642.931 856.183 620.377 846.747 596.472 840.131V826.036H663.656V868.015ZM725.574 915.956C710.216 900.062 692.717 885.914 673.487 873.89V826.036H725.574V915.956Z" fill="url(#paint48_linear_796_12057)"/>
<path d="M825.269 807H206.502L206.501 825.994V921.625H220.715V819.097H269.217V910.186H241.084L263.637 923.25H300.608C325.988 895.064 357.922 871.986 394.276 855.955C430.63 839.921 471.415 830.934 514.49 830.934C600.649 830.934 677.608 866.881 728.372 923.25H765.894L788.45 910.186H760.316V819.097H803.456V902.307H825.269V843.268V807ZM352.985 869.006C333.671 881.142 316.078 895.403 300.606 911.41V820.127H352.985V869.006ZM431.242 834.523C406.956 841.283 384.034 850.92 362.975 863.007V820.127H431.242V834.523ZM666.011 863.007C644.951 850.92 622.035 841.283 597.744 834.523V820.127H666.011V863.007ZM728.925 911.976C713.319 895.741 695.54 881.289 675.998 869.006V820.127H728.925V911.976Z" fill="url(#paint49_linear_796_12057)"/>
<path d="M825.269 807H206.501V808.163H825.269V807Z" fill="#8FA1D4"/>
<path d="M804.19 813.186H1418.1L1418.1 831.778V926.34H1402.57V825.029H1354.84V914.208H1382.53L1360.33 926.998H1323.95C1298.97 899.402 1267.54 876.81 1231.77 861.117C1195.99 845.418 1155.85 836.623 1113.46 836.623C1028.67 836.623 952.925 871.814 902.969 927H866.042L843.843 914.21H871.531V825.029H829.076V906.493H804.19V848.693V813.186ZM1272.4 873.89C1291.41 885.772 1308.72 899.73 1323.95 915.402V826.036H1272.4V873.89ZM1195.39 840.131C1219.29 846.75 1241.85 856.183 1262.57 868.015V826.036H1195.39V840.131ZM964.344 868.015C985.069 856.183 1007.62 846.747 1031.53 840.131V826.036H964.344V868.015ZM902.426 915.956C917.784 900.062 935.283 885.914 954.513 873.89V826.036H902.426V915.956Z" fill="url(#paint50_linear_796_12057)"/>
<path d="M802.731 807H1421.5L1421.5 825.994V921.625H1407.28V819.097H1358.78V910.186H1386.92L1364.36 923.25H1327.39C1302.01 895.064 1270.08 871.986 1233.72 855.955C1197.37 839.921 1156.59 830.934 1113.51 830.934C1027.35 830.934 950.392 866.881 899.628 923.25H862.106L839.55 910.186H867.684V819.097H824.544V902.307H802.731V843.268V807ZM1275.01 869.006C1294.33 881.142 1311.92 895.403 1327.39 911.41V820.127H1275.01V869.006ZM1196.76 834.523C1221.04 841.283 1243.97 850.92 1265.03 863.007V820.127H1196.76V834.523ZM961.989 863.007C983.049 850.92 1005.97 841.283 1030.26 834.523V820.127H961.989V863.007ZM899.075 911.976C914.681 895.741 932.46 881.289 952.002 869.006V820.127H899.075V911.976Z" fill="url(#paint51_linear_796_12057)"/>
<path d="M802.731 807H1421.5V808.163H802.731V807Z" fill="#8FA1D4"/>
<path d="M2038.81 813.186H1424.9L1424.9 831.778V926.34H1440.43V825.029H1488.16V914.208H1460.47L1482.66 926.998H1519.05C1544.03 899.402 1575.45 876.81 1611.23 861.117C1647.01 845.418 1687.14 836.623 1729.54 836.623C1814.33 836.623 1890.07 871.814 1940.03 927H1976.96L1999.16 914.21H1971.47V825.029H2013.92V906.493H2038.81V848.693V813.186ZM1570.6 873.89C1551.59 885.772 1534.27 899.73 1519.05 915.402V826.036H1570.6V873.89ZM1647.61 840.131C1623.71 846.75 1601.15 856.183 1580.42 868.015V826.036H1647.61V840.131ZM1878.65 868.015C1857.93 856.183 1835.38 846.747 1811.47 840.131V826.036H1878.65V868.015ZM1940.57 915.956C1925.21 900.062 1907.72 885.914 1888.49 873.89V826.036H1940.57V915.956Z" fill="url(#paint52_linear_796_12057)"/>
<path d="M2040.27 807H1421.5L1421.5 825.994V921.625H1435.71V819.097H1484.21V910.186H1456.08L1478.63 923.25H1515.61C1540.99 895.064 1572.92 871.986 1609.27 855.955C1645.63 839.921 1686.41 830.934 1729.49 830.934C1815.65 830.934 1892.61 866.881 1943.37 923.25H1980.89L2003.45 910.186H1975.31V819.097H2018.45V902.307H2040.27V843.268V807ZM1567.98 869.006C1548.67 881.142 1531.08 895.403 1515.6 911.41V820.127H1567.98V869.006ZM1646.24 834.523C1621.95 841.282 1599.03 850.92 1577.97 863.006V820.127H1646.24V834.523ZM1881.01 863.006C1859.95 850.92 1837.03 841.282 1812.74 834.523V820.127H1881.01V863.006ZM1943.92 911.975C1928.32 895.741 1910.54 881.289 1891 869.006V820.127H1943.92V911.975Z" fill="url(#paint53_linear_796_12057)"/>
<path d="M2040.27 807H1421.5V808.163H2040.27V807Z" fill="#8FA1D4"/>
<path style="mix-blend-mode:multiply" d="M1505.17 818.25H1493.46C1492.03 818.25 1490.87 820.195 1490.87 822.595V922.655C1490.87 925.054 1492.03 927 1493.46 927H1505.17C1506.59 927 1507.75 925.054 1507.75 922.655V822.595C1507.75 820.195 1506.59 818.25 1505.17 818.25Z" fill="url(#paint54_linear_796_12057)"/>
<path d="M-410.807 813.186H203.1L203.1 831.778V926.34H187.575V825.029H139.844V914.208H167.532L145.336 926.998H108.951C83.9747 899.402 52.5467 876.81 16.7691 861.117C-19.0085 845.418 -59.1437 836.623 -101.54 836.623C-186.332 836.623 -262.073 871.814 -312.028 927H-348.956L-371.155 914.21H-343.467V825.029H-385.921V906.493H-410.807V848.693V813.186ZM57.4052 873.89C76.4125 885.772 93.7262 899.73 108.954 915.402V826.036H57.4052V873.89ZM-19.6075 840.131C4.29544 846.75 26.8519 856.183 47.5768 868.015V826.036H-19.6075V840.131ZM-250.654 868.015C-229.929 856.183 -207.375 846.747 -183.469 840.131V826.036H-250.654V868.015ZM-312.571 915.956C-297.214 900.062 -279.715 885.914 -260.485 873.89V826.036H-312.571V915.956Z" fill="url(#paint55_linear_796_12057)"/>
<path d="M-412.266 807H206.501L206.501 825.994V921.625H192.288V819.097H143.786V910.186H171.919L149.366 923.25H112.395C87.0152 895.064 55.0813 871.986 18.7272 855.955C-17.6268 839.921 -58.4116 830.934 -101.487 830.934C-187.646 830.934 -264.605 866.881 -315.369 923.25H-352.891L-375.447 910.186H-347.314V819.097H-390.453V902.307H-412.266V843.268V807ZM60.0179 869.006C79.3324 881.142 96.9254 895.403 112.397 911.41V820.127H60.0179V869.006ZM-18.2386 834.523C6.04684 841.283 28.9684 850.92 50.0282 863.007V820.127H-18.2386V834.523ZM-253.008 863.007C-231.948 850.92 -209.032 841.283 -184.741 834.523V820.127H-253.008V863.007ZM-315.922 911.976C-300.316 895.741 -282.537 881.289 -262.995 869.006V820.127H-315.922V911.976Z" fill="url(#paint56_linear_796_12057)"/>
<path d="M-412.266 807H206.501V808.163H-412.266V807Z" fill="#8FA1D4"/>
<path style="mix-blend-mode:multiply" d="M122.835 818.25H134.543C135.97 818.25 137.126 820.195 137.126 822.595V922.655C137.126 925.054 135.97 927 134.543 927H122.835C121.408 927 120.252 925.054 120.252 922.655V822.595C120.252 820.195 121.408 818.25 122.835 818.25Z" fill="url(#paint57_linear_796_12057)"/>
</g>
<defs>
<linearGradient id="paint0_linear_796_12057" x1="1369.05" y1="794.64" x2="1443.62" y2="560.971" gradientUnits="userSpaceOnUse">
<stop stop-color="#787A8F"/>
<stop offset="0.81" stop-color="#BA8A94"/>
<stop offset="0.99" stop-color="#C9858A"/>
</linearGradient>
<linearGradient id="paint1_linear_796_12057" x1="2087.01" y1="660.603" x2="1253.88" y2="660.603" gradientUnits="userSpaceOnUse">
<stop stop-color="#576199"/>
<stop offset="1" stop-color="#637880"/>
</linearGradient>
<linearGradient id="paint2_linear_796_12057" x1="1621.96" y1="748.805" x2="1565.32" y2="642.346" gradientUnits="userSpaceOnUse">
<stop stop-color="#6B6B7D"/>
<stop offset="1" stop-color="#5E6985"/>
</linearGradient>
<linearGradient id="paint3_linear_796_12057" x1="1557.92" y1="521.284" x2="1495.07" y2="485.201" gradientUnits="userSpaceOnUse">
<stop stop-color="#616E9E"/>
<stop offset="1" stop-color="#525770"/>
</linearGradient>
<linearGradient id="paint4_linear_796_12057" x1="1550.68" y1="568.307" x2="1451.39" y2="568.307" gradientUnits="userSpaceOnUse">
<stop stop-color="#73738A"/>
<stop offset="1" stop-color="#667085"/>
</linearGradient>
<linearGradient id="paint5_linear_796_12057" x1="1391.34" y1="491.22" x2="1409.1" y2="563.454" gradientUnits="userSpaceOnUse">
<stop stop-color="#70668F"/>
<stop offset="1" stop-color="#B88291"/>
</linearGradient>
<linearGradient id="paint6_linear_796_12057" x1="1363.9" y1="693.581" x2="1266.48" y2="693.581" gradientUnits="userSpaceOnUse">
<stop stop-color="#9E8299"/>
<stop offset="1" stop-color="#85758F"/>
</linearGradient>
<linearGradient id="paint7_linear_796_12057" x1="1342.59" y1="612.201" x2="1284.27" y2="612.201" gradientUnits="userSpaceOnUse">
<stop stop-color="#70668F"/>
<stop offset="1" stop-color="#B88291"/>
</linearGradient>
<linearGradient id="paint8_linear_796_12057" x1="1329.09" y1="681.557" x2="1199.87" y2="681.557" gradientUnits="userSpaceOnUse">
<stop stop-color="#736B80"/>
<stop offset="1" stop-color="#78738A"/>
</linearGradient>
<linearGradient id="paint9_linear_796_12057" x1="1247.45" y1="651.771" x2="1178.36" y2="651.771" gradientUnits="userSpaceOnUse">
<stop stop-color="#666185"/>
<stop offset="1" stop-color="#8A7582"/>
</linearGradient>
<linearGradient id="paint10_linear_796_12057" x1="1586.2" y1="677.63" x2="1431.54" y2="677.63" gradientUnits="userSpaceOnUse">
<stop stop-color="#736B9E"/>
<stop offset="1" stop-color="#455C6E"/>
</linearGradient>
<linearGradient id="paint11_linear_796_12057" x1="1674.8" y1="675.001" x2="1593" y2="675.001" gradientUnits="userSpaceOnUse">
<stop stop-color="#66698C"/>
<stop offset="1" stop-color="#525770"/>
</linearGradient>
<linearGradient id="paint12_linear_796_12057" x1="1758.16" y1="681.582" x2="1685.36" y2="681.582" gradientUnits="userSpaceOnUse">
<stop stop-color="#666EA6"/>
<stop offset="1" stop-color="#525770"/>
</linearGradient>
<linearGradient id="paint13_linear_796_12057" x1="1745.71" y1="754.656" x2="1712.72" y2="707.253" gradientUnits="userSpaceOnUse">
<stop stop-color="#666E99"/>
<stop offset="1" stop-color="#525770"/>
</linearGradient>
<linearGradient id="paint14_linear_796_12057" x1="1475.66" y1="723.991" x2="1369.14" y2="723.991" gradientUnits="userSpaceOnUse">
<stop stop-color="#666B87"/>
<stop offset="1" stop-color="#5E6985"/>
</linearGradient>
<linearGradient id="paint15_linear_796_12057" x1="2174.9" y1="817.438" x2="1457.42" y2="817.438" gradientUnits="userSpaceOnUse">
<stop stop-color="#69699E"/>
<stop offset="1" stop-color="#525E7A"/>
</linearGradient>
<linearGradient id="paint16_linear_796_12057" x1="2018.02" y1="850.588" x2="1378.11" y2="850.588" gradientUnits="userSpaceOnUse">
<stop stop-color="#666EA3"/>
<stop offset="1" stop-color="#525770"/>
</linearGradient>
<linearGradient id="paint17_linear_796_12057" x1="1856.42" y1="788.666" x2="1857.3" y2="742.434" gradientUnits="userSpaceOnUse">
<stop stop-color="#5E697D"/>
<stop offset="1" stop-color="#7A809E"/>
</linearGradient>
<linearGradient id="paint18_linear_796_12057" x1="1238.99" y1="672.175" x2="1161.81" y2="695.345" gradientUnits="userSpaceOnUse">
<stop stop-color="#666182"/>
<stop offset="1" stop-color="#707A82"/>
</linearGradient>
<linearGradient id="paint19_linear_796_12057" x1="1165.37" y1="794.708" x2="980.102" y2="794.708" gradientUnits="userSpaceOnUse">
<stop stop-color="#69738F"/>
<stop offset="1" stop-color="#787A87"/>
</linearGradient>
<linearGradient id="paint20_linear_796_12057" x1="1058.45" y1="794.906" x2="1000.49" y2="794.906" gradientUnits="userSpaceOnUse">
<stop stop-color="#666178"/>
<stop offset="1" stop-color="#7A7A9E"/>
</linearGradient>
<linearGradient id="paint21_linear_796_12057" x1="979.249" y1="802.31" x2="968.008" y2="782.431" gradientUnits="userSpaceOnUse">
<stop stop-color="#D5A6A6"/>
<stop offset="0.68" stop-color="#D19C94"/>
<stop offset="1" stop-color="#F7BF9C"/>
</linearGradient>
<linearGradient id="paint22_linear_796_12057" x1="936.603" y1="890.115" x2="905.761" y2="847.623" gradientUnits="userSpaceOnUse">
<stop stop-color="#D5A6A6"/>
<stop offset="0.68" stop-color="#D19C94"/>
<stop offset="1" stop-color="#F7BF9C"/>
</linearGradient>
<linearGradient id="paint23_linear_796_12057" x1="1132.9" y1="707.138" x2="1098.72" y2="667.988" gradientUnits="userSpaceOnUse">
<stop stop-color="#A38FA6"/>
<stop offset="0.68" stop-color="#D19C94"/>
<stop offset="0.74" stop-color="#D9A596"/>
<stop offset="1" stop-color="#FFD3A5"/>
</linearGradient>
<linearGradient id="paint24_linear_796_12057" x1="1121.44" y1="692.585" x2="1091.38" y2="692.585" gradientUnits="userSpaceOnUse">
<stop stop-color="#D5A6A6"/>
<stop offset="0.68" stop-color="#D19C94"/>
<stop offset="1" stop-color="#F7BF9C"/>
</linearGradient>
<linearGradient id="paint25_linear_796_12057" x1="1356.32" y1="550.223" x2="1338.21" y2="528.172" gradientUnits="userSpaceOnUse">
<stop stop-color="#D59494"/>
<stop offset="0.68" stop-color="#FDBCA9"/>
<stop offset="1" stop-color="#FFB5A5"/>
</linearGradient>
<linearGradient id="paint26_linear_796_12057" x1="1305.01" y1="605.602" x2="1282.13" y2="605.602" gradientUnits="userSpaceOnUse">
<stop stop-color="#D5A6B0"/>
<stop offset="0.68" stop-color="#FDBCA9"/>
<stop offset="1" stop-color="#FFD3A5"/>
</linearGradient>
<linearGradient id="paint27_linear_796_12057" x1="1263.27" y1="618.782" x2="1231.84" y2="618.782" gradientUnits="userSpaceOnUse">
<stop stop-color="#D5A6A6"/>
<stop offset="0.68" stop-color="#D1B394"/>
<stop offset="0.69" stop-color="#D1B394"/>
<stop offset="1" stop-color="#FFD3A5"/>
</linearGradient>
<linearGradient id="paint28_linear_796_12057" x1="1193.34" y1="604.421" x2="1180.21" y2="604.421" gradientUnits="userSpaceOnUse">
<stop stop-color="#D5A6B0"/>
<stop offset="0.68" stop-color="#FDBCA9"/>
<stop offset="1" stop-color="#FFD3A5"/>
</linearGradient>
<linearGradient id="paint29_linear_796_12057" x1="1465.59" y1="455.608" x2="1461.49" y2="440.704" gradientUnits="userSpaceOnUse">
<stop stop-color="#D59494"/>
<stop offset="0.68" stop-color="#FDBCA9"/>
<stop offset="1" stop-color="#FFB5A5"/>
</linearGradient>
<linearGradient id="paint30_linear_796_12057" x1="1440.21" y1="487.75" x2="1435.13" y2="475.779" gradientUnits="userSpaceOnUse">
<stop stop-color="#D59494"/>
<stop offset="0.68" stop-color="#FDBCA9"/>
<stop offset="1" stop-color="#FFB5A5"/>
</linearGradient>
<linearGradient id="paint31_linear_796_12057" x1="1476.28" y1="460.717" x2="1474.26" y2="441.852" gradientUnits="userSpaceOnUse">
<stop stop-color="#D59494"/>
<stop offset="0.68" stop-color="#FDBCA9"/>
<stop offset="1" stop-color="#FFB5A5"/>
</linearGradient>
<linearGradient id="paint32_linear_796_12057" x1="1373.65" y1="828.23" x2="1037.43" y2="828.23" gradientUnits="userSpaceOnUse">
<stop stop-color="#61707A"/>
<stop offset="0.99" stop-color="#8A9C87"/>
</linearGradient>
<linearGradient id="paint33_linear_796_12057" x1="1232.65" y1="800.949" x2="1067.01" y2="800.949" gradientUnits="userSpaceOnUse">
<stop stop-color="#756E99"/>
<stop offset="1" stop-color="#787A87"/>
</linearGradient>
<linearGradient id="paint34_linear_796_12057" x1="1036.91" y1="875.525" x2="885.643" y2="875.525" gradientUnits="userSpaceOnUse">
<stop stop-color="#8C7A9E"/>
<stop offset="0.81" stop-color="#828069"/>
<stop offset="0.99" stop-color="#968F69"/>
</linearGradient>
<linearGradient id="paint35_linear_796_12057" x1="915.901" y1="883.213" x2="822.605" y2="883.213" gradientUnits="userSpaceOnUse">
<stop stop-color="#D5A6B0"/>
<stop offset="0.68" stop-color="#FDBCA9"/>
<stop offset="1" stop-color="#FFD3A5"/>
</linearGradient>
<linearGradient id="paint36_linear_796_12057" x1="1290.63" y1="922.938" x2="576.657" y2="922.938" gradientUnits="userSpaceOnUse">
<stop stop-color="#808082"/>
<stop offset="1" stop-color="#75877A"/>
</linearGradient>
<linearGradient id="paint37_linear_796_12057" x1="1711.89" y1="813.504" x2="1263.33" y2="813.504" gradientUnits="userSpaceOnUse">
<stop stop-color="#3B5966"/>
<stop offset="1" stop-color="#667085"/>
</linearGradient>
<linearGradient id="paint38_linear_796_12057" x1="1447.4" y1="598.26" x2="1434.31" y2="587.327" gradientUnits="userSpaceOnUse">
<stop stop-color="#D59494"/>
<stop offset="0.68" stop-color="#FDBCA9"/>
<stop offset="1" stop-color="#FFB5A5"/>
</linearGradient>
<linearGradient id="paint39_linear_796_12057" x1="1490.84" y1="493.75" x2="1478.29" y2="476.896" gradientUnits="userSpaceOnUse">
<stop stop-color="#D59494"/>
<stop offset="0.68" stop-color="#EDA1A9"/>
<stop offset="0.76" stop-color="#DD9DA7"/>
<stop offset="1" stop-color="#B094A5"/>
</linearGradient>
<linearGradient id="paint40_linear_796_12057" x1="902.667" y1="936.526" x2="610.469" y2="936.526" gradientUnits="userSpaceOnUse">
<stop stop-color="#D5A6A6"/>
<stop offset="0.68" stop-color="#D1B394"/>
<stop offset="1" stop-color="#C79EA1"/>
</linearGradient>
<linearGradient id="paint41_linear_796_12057" x1="1383.78" y1="1028.2" x2="1286.76" y2="874.441" gradientUnits="userSpaceOnUse">
<stop stop-color="#51804D"/>
<stop offset="1" stop-color="#919E59"/>
</linearGradient>
<linearGradient id="paint42_linear_796_12057" x1="1502.83" y1="1007.74" x2="1401.84" y2="871.538" gradientUnits="userSpaceOnUse">
<stop stop-color="#305436"/>
<stop offset="0.64" stop-color="#4F7857"/>
<stop offset="1" stop-color="#739957"/>
</linearGradient>
<linearGradient id="paint43_linear_796_12057" x1="1131.23" y1="985.324" x2="1088.13" y2="888.386" gradientUnits="userSpaceOnUse">
<stop stop-color="#7DA682"/>
<stop offset="1" stop-color="#ADA163"/>
</linearGradient>
<linearGradient id="paint44_linear_796_12057" x1="1252.96" y1="1041.8" x2="1206.58" y2="944.985" gradientUnits="userSpaceOnUse">
<stop stop-color="#578C61"/>
<stop offset="1" stop-color="#87AB59"/>
</linearGradient>
<linearGradient id="paint45_linear_796_12057" x1="1676.8" y1="822.519" x2="1760.19" y2="951.877" gradientUnits="userSpaceOnUse">
<stop stop-color="#4A593D"/>
<stop offset="1" stop-color="#2E614E"/>
</linearGradient>
<linearGradient id="paint46_linear_796_12057" x1="1669.01" y1="878.491" x2="1669.01" y2="806.993" gradientUnits="userSpaceOnUse">
<stop stop-color="#3D573D"/>
<stop offset="1" stop-color="#4A694E"/>
</linearGradient>
<linearGradient id="paint47_linear_796_12057" x1="1741.08" y1="903.895" x2="1718.92" y2="847.955" gradientUnits="userSpaceOnUse">
<stop stop-color="#305C42"/>
<stop offset="1" stop-color="#3B594E"/>
</linearGradient>
<linearGradient id="paint48_linear_796_12057" x1="532.921" y1="926.998" x2="532.921" y2="813.186" gradientUnits="userSpaceOnUse">
<stop stop-color="#80A1AD"/>
<stop offset="0.17" stop-color="#7896A5"/>
<stop offset="0.47" stop-color="#627B92"/>
<stop offset="0.86" stop-color="#404E72"/>
<stop offset="1" stop-color="#333D66"/>
</linearGradient>
<linearGradient id="paint49_linear_796_12057" x1="533.166" y1="923.252" x2="533.166" y2="807" gradientUnits="userSpaceOnUse">
<stop stop-color="#80A1AD"/>
<stop offset="0.25" stop-color="#7696A6"/>
<stop offset="0.68" stop-color="#5C7B95"/>
<stop offset="1" stop-color="#456387"/>
</linearGradient>
<linearGradient id="paint50_linear_796_12057" x1="1095.08" y1="926.998" x2="1095.08" y2="813.186" gradientUnits="userSpaceOnUse">
<stop stop-color="#80A1AD"/>
<stop offset="0.17" stop-color="#7896A5"/>
<stop offset="0.47" stop-color="#627B92"/>
<stop offset="0.86" stop-color="#404E72"/>
<stop offset="1" stop-color="#333D66"/>
</linearGradient>
<linearGradient id="paint51_linear_796_12057" x1="1094.83" y1="923.252" x2="1094.83" y2="807" gradientUnits="userSpaceOnUse">
<stop stop-color="#80A1AD"/>
<stop offset="0.25" stop-color="#7696A6"/>
<stop offset="0.68" stop-color="#5C7B95"/>
<stop offset="1" stop-color="#456387"/>
</linearGradient>
<linearGradient id="paint52_linear_796_12057" x1="1747.92" y1="926.998" x2="1747.92" y2="813.186" gradientUnits="userSpaceOnUse">
<stop stop-color="#80A1AD"/>
<stop offset="0.17" stop-color="#7896A5"/>
<stop offset="0.47" stop-color="#627B92"/>
<stop offset="0.86" stop-color="#404E72"/>
<stop offset="1" stop-color="#333D66"/>
</linearGradient>
<linearGradient id="paint53_linear_796_12057" x1="1748.16" y1="923.252" x2="1748.16" y2="807" gradientUnits="userSpaceOnUse">
<stop stop-color="#80A1AD"/>
<stop offset="0.25" stop-color="#7696A6"/>
<stop offset="0.68" stop-color="#5C7B95"/>
<stop offset="1" stop-color="#456387"/>
</linearGradient>
<linearGradient id="paint54_linear_796_12057" x1="1499.31" y1="927.005" x2="1499.31" y2="818.25" gradientUnits="userSpaceOnUse">
<stop stop-color="white"/>
<stop offset="0.23" stop-color="#F5F6F7"/>
<stop offset="0.62" stop-color="#DCE0E3"/>
<stop offset="0.98" stop-color="#BFC7CC"/>
</linearGradient>
<linearGradient id="paint55_linear_796_12057" x1="-119.919" y1="926.998" x2="-119.919" y2="813.186" gradientUnits="userSpaceOnUse">
<stop stop-color="#80A1AD"/>
<stop offset="0.17" stop-color="#7896A5"/>
<stop offset="0.47" stop-color="#627B92"/>
<stop offset="0.86" stop-color="#404E72"/>
<stop offset="1" stop-color="#333D66"/>
</linearGradient>
<linearGradient id="paint56_linear_796_12057" x1="-120.163" y1="923.252" x2="-120.163" y2="807" gradientUnits="userSpaceOnUse">
<stop stop-color="#80A1AD"/>
<stop offset="0.25" stop-color="#7696A6"/>
<stop offset="0.68" stop-color="#5C7B95"/>
<stop offset="1" stop-color="#456387"/>
</linearGradient>
<linearGradient id="paint57_linear_796_12057" x1="128.69" y1="927.005" x2="128.69" y2="818.25" gradientUnits="userSpaceOnUse">
<stop stop-color="white"/>
<stop offset="0.23" stop-color="#F5F6F7"/>
<stop offset="0.62" stop-color="#DCE0E3"/>
<stop offset="0.98" stop-color="#BFC7CC"/>
</linearGradient>
<clipPath id="clip0_796_12057">
<rect width="1920" height="1080" fill="white"/>
</clipPath>
</defs>
</svg>
