<svg width="1920" height="1080" viewBox="0 0 1920 1080" fill="none" xmlns="http://www.w3.org/2000/svg">
<g clip-path="url(#clip0_796_11957)">
<path fill-rule="evenodd" clip-rule="evenodd" d="M996.08 844.283C996.08 844.283 987.658 840.072 981.149 841.599C978.094 841.985 971.199 838.544 971.199 838.544C971.199 838.544 966.575 832.957 962.75 831.045C954.947 828.636 956.048 820.779 951.796 820.779C947.543 820.779 946.704 819.788 940.154 820.063C935.048 818.329 933.645 814.503 926.833 814.503C920.021 814.503 889.443 821.756 889.443 821.756C889.443 821.756 877.526 829.545 865.609 834.733C853.691 839.921 848.586 838.2 839.228 839.054C829.871 839.921 829.018 834.733 823.059 832.999C817.1 831.265 817.1 833.866 811.142 825.21C805.183 816.554 806.036 820.022 800.931 816.554C795.825 813.1 801.784 817.421 794.119 808.765C786.454 800.109 784.761 803.577 779.656 800.109C774.55 796.641 777.949 794.054 772.844 792.32C767.739 790.586 760.073 787.999 753.275 790.586C746.477 793.173 750.743 789.926 742.321 787.242C732.634 789.678 730.253 799.022 720.895 796.421C711.537 793.82 717.592 792.816 704.822 787.614C692.96 778.435 680.712 772.022 673.061 771.155C665.396 770.288 666.469 774.114 654.566 778.449C642.648 782.784 643.502 783.637 634.144 786.238C624.786 788.839 599.424 794.247 584.273 787.229C578.81 784.697 577.379 784.174 569.727 779.963C557.81 779.963 554.136 782.784 536.26 778.449C525.306 775.793 521.453 770.949 512.164 768.197C506.357 767.729 495.568 772.366 488.77 773.701C472.6 771.1 465.1 762.541 455.743 759.94C446.798 761.316 441.871 760.807 435.073 761.674C428.261 762.541 422.22 756.802 417.968 755.935C413.716 755.068 393.294 740.358 389.028 735.156C384.776 729.968 380.523 725.633 376.257 725.633C371.991 725.633 368.592 726.5 364.34 728.234C360.088 729.968 347.318 729.968 342.212 733.422C337.107 736.89 341.359 736.89 334.547 739.477C327.735 742.078 321.776 736.876 319.231 740.344C316.671 743.812 309.02 747.266 299.648 749C290.291 750.734 291.144 749 286.038 754.188C280.933 759.376 263.91 768.899 257.952 773.233C251.993 777.554 247.906 787.875 247.906 787.875C247.906 787.875 243.612 784.655 238.507 784.655C233.401 784.655 222.2 772.366 222.2 772.366C222.2 772.366 219.489 770.632 218.98 768.376C217.604 767.344 216.613 768.087 214.549 769.766C210.296 773.233 206.044 770.632 206.044 770.632C206.044 770.632 202.645 765.444 197.526 765.444C192.407 765.444 189.875 764.578 183.063 764.578C176.251 764.578 180.503 765.444 171.999 760.256C167.306 757.394 165.944 754.105 162.902 751.16C160.439 748.766 155.829 746.399 155.829 746.399C155.829 746.399 149.871 748.133 148.164 751.587C146.458 755.055 141.352 751.587 136.247 751.587C131.141 751.587 131.995 757.642 126.889 760.243C121.784 762.844 116.678 757.642 114.119 761.977C111.559 766.298 110.72 767.165 107.307 768.032C103.908 768.899 88.5778 783.609 80.9265 786.21C75.8165 787.944 70.1423 789.1 63.9038 789.678C54.5461 790.545 51.1332 791.412 43.4819 794.866C35.8169 798.334 39.2297 796.6 25.6061 798.334C11.9823 800.068 -7.58618 796.6 -7.58618 796.6C-7.58618 796.6 139.646 894.402 169.439 904.791C199.232 915.167 413.95 958.405 430.959 962.74C447.981 967.061 632.176 968.699 645.8 970.433C659.41 972.167 735.138 958.075 741.097 958.075C747.055 958.075 813.041 932.988 830.903 930.387C848.779 927.786 903.741 902.631 941.186 901.778C978.63 900.911 1055.87 869.672 1069.5 864.484C1083.11 859.296 1089.42 850.365 1089.42 850.365C1089.42 850.365 1047.2 836.866 1036.99 837.733C1026.78 838.599 1001.14 842.508 996.038 844.242L996.08 844.283Z" fill="url(#paint0_linear_796_11957)"/>
<path fill-rule="evenodd" clip-rule="evenodd" d="M156.668 747.995C157.48 749.247 159.944 752.578 159.944 754.243C159.944 755.908 156.462 758.412 157.288 758.825C158.1 759.238 158.925 757.16 161.389 759.651C163.852 762.155 166.301 765.486 166.301 765.486C166.301 765.486 164.251 761.536 161.801 762.362C159.338 763.188 160.37 761.536 157.508 762.775C154.646 764.027 165.902 779.632 157.962 775.986C156.228 775.187 151.412 774.527 148.081 771.733C149.513 774.238 151.563 776.522 152.375 779.44C153.187 782.357 172.508 794.907 178.687 796.738C172.136 796.38 164.953 796.476 170.677 798.554C176.416 800.632 211.562 809.563 216.888 813.114C209.608 814.201 195.833 812.852 198.695 813.471C201.558 814.104 227.443 822.21 243.447 824.026C242.222 822.568 222.764 818.343 227.801 814.93C224.732 813.884 207.668 805.022 205.012 802.724C202.356 800.439 226.493 807.196 230.993 806.15C235.493 805.104 237.076 803.577 239.333 805.655C241.589 807.733 247.245 806.288 252.571 807.127C257.896 807.967 268.52 800.687 276.103 800.26C283.671 799.848 267.034 812.549 275.222 810.045C283.41 807.54 286.685 806.095 288.736 805.256C290.786 804.416 298.355 801.086 298.355 801.086C298.355 801.086 287.291 809.205 285.859 809.838C284.428 810.458 282.171 811.71 283.204 811.916C284.222 812.123 289.341 814.201 291.804 813.169C294.268 812.123 290.979 815.04 287.304 816.292C283.616 817.545 282.598 816.912 281.979 819.829C281.359 822.746 281.772 823.159 279.116 824.824C276.46 826.489 266.373 828.182 258.681 834.622C269.098 830.398 275.236 829.187 274.616 831.278C273.997 833.356 285.901 819.361 286.713 819.98C287.525 820.613 313.121 804.664 311.277 807.581C309.432 810.499 307.038 821.164 304.575 823.462C302.111 825.746 321.088 816.485 322.932 815.026C324.776 813.568 319.464 822.223 319.464 822.223C319.464 822.223 292.988 843.953 287.456 847.283C281.924 850.613 280.038 850.861 279.02 852.746C278.002 854.618 285.722 855.718 285.722 855.718C285.722 855.718 285.447 876.787 270.873 876.237C267.185 878.727 235.424 864.457 229.7 864.03C223.961 863.617 212.47 852.127 209.608 851.494C206.746 850.875 196.246 845.37 190.934 845.164C185.608 844.957 176.333 843.98 169.783 844.806C163.233 845.645 159.338 845.439 157.907 843.966C156.476 842.508 135.999 829.187 133.137 826.682C130.274 824.178 114.71 818.563 110.609 817.311C106.509 816.058 101.389 813.141 98.527 810.857C95.6646 808.572 93.6142 805.448 93.6142 805.448C93.6142 805.448 97.5087 816.072 103.44 818.357C109.385 820.641 106.096 815.852 112.247 821.687C118.384 827.522 125.554 829.393 126.985 830.012C128.417 830.645 124.329 827.934 124.329 830.645C124.329 833.356 125.554 833.976 125.554 833.976C125.554 833.976 126.38 838.558 132.93 842.301C139.481 846.044 142.756 847.297 142.756 847.297C142.756 847.297 141.118 848.549 135.187 846.884C129.242 845.219 124.123 844.806 124.123 844.806C124.123 844.806 137.017 855.003 140.1 859.173C143.169 863.342 147.476 864.801 150.751 865.833C154.026 866.879 162.008 871.035 162.008 871.035L213.172 897.8C213.172 897.8 185.237 876.649 178.893 867.76C172.535 858.884 166.7 844.283 169.095 847.517C171.476 850.751 182.058 849.732 190.604 855.113C200.127 855.113 218.759 879.154 230.14 881.686C228.874 879.154 209.883 861.925 209.883 861.925C209.883 861.925 227.938 871.558 231.956 874.544C240.695 885.842 254.236 904.544 265.355 911.011C267.681 912.36 254.305 896.397 253.438 891.181C262.218 894.319 274.561 904.034 276.13 904.626C284.869 903.511 270.529 907.268 303.859 911.314C309.68 912.03 325.547 909.14 331.024 910.021C335.785 909.112 373.161 899.025 393.652 905.768C385.519 905.066 360.776 906.938 351.005 909.965C360.129 909.965 364.23 909.126 369.941 909.773C387.211 911.754 402.239 914.094 402.239 914.094C402.239 914.094 451.848 932.039 440.11 931.584C421.573 930.883 334.217 921.539 307.781 918.786C294.213 917.369 288.502 916.158 276.846 915.112C256.713 913.323 217.177 900.539 193.714 895.475C218.869 917.878 340.905 938.548 335.166 937.956C328.671 937.282 194.636 924.374 182.141 917.809C167.361 910.048 160.508 894.704 150.985 893.094C141.462 891.484 80.3208 847.063 69.9998 840.609C59.6788 834.155 22.3583 816.375 16.7988 812.343C11.2392 808.311 -38.7831 806.687 -38.7831 806.687C-38.7831 806.687 -10.2422 792.458 -6.67807 790.641C-2.09555 790.641 22.7299 787.999 24.5188 788.811C26.3078 789.623 42.4084 791.343 45.3808 791.15C48.367 790.944 55.3028 789.54 56.2936 788.921C57.2844 788.316 66.0229 787.71 68.2109 786.293C70.399 784.875 73.9631 781.242 76.7429 781.449C79.5226 781.655 91.6326 777.609 94.0133 775.793C96.394 773.976 105.132 769.738 108.903 766.311C112.674 762.885 115.054 759.844 116.444 759.844C117.834 759.844 121.013 759.844 122.995 759.444C124.976 759.045 128.554 757.834 129.352 757.229C130.15 756.623 133.123 752.591 133.123 752.591L136.095 750.981C136.095 750.981 142.054 752.192 143.636 751.587C145.219 750.981 146.224 748.958 147.999 748.559C149.788 748.16 151.577 747.142 152.76 746.743C153.957 746.344 156.132 746.137 156.132 746.137L156.696 747.954L156.668 747.995Z" fill="#759EA2"/>
<path fill-rule="evenodd" clip-rule="evenodd" d="M219.103 769.49C219.103 769.49 217.411 772.174 215.718 773.522C214.025 774.857 212.512 774.857 212.512 774.857C212.512 774.857 215.333 775.05 219.103 777.926C222.874 780.802 224.567 780.802 224.567 780.802C224.567 780.802 221.746 781.765 217.975 780.417C214.204 779.068 210.062 777.926 206.677 777.733C203.292 777.541 204.599 777.926 201.214 776.963C197.828 775.999 197.264 774.857 197.264 774.857L198.021 773.522L196.328 771.609C196.328 771.609 195.393 774.293 196.521 776.784C197.65 779.274 198.778 778.311 199.342 780.609C199.906 782.907 207.626 785.976 209.333 787.311C211.026 788.646 209.333 787.311 209.525 788.839C209.718 790.366 211.975 790.751 214.232 791.522C216.489 792.293 218.759 790.944 219.695 793.242C220.645 795.54 223.273 796.311 225.158 797.838C227.044 799.366 228.929 800.907 234.585 803.205C240.241 805.504 242.869 805.889 242.869 805.889C242.869 805.889 238.342 806.467 234.007 805.311C229.672 804.155 231.929 805.311 224.016 802.435C216.103 799.559 216.296 796.118 211.576 796.297C206.87 796.49 204.984 795.527 204.984 795.527C204.984 795.527 206.87 798.21 211.012 801.279C215.154 804.348 220.617 805.297 219.874 805.875C219.117 806.453 215.47 806.687 213.599 806.426C207.379 803.935 208.342 804.389 204.2 802.669C200.058 800.949 202.356 798.788 198.957 797.646C195.572 796.49 181.108 792.733 181.108 792.733C181.108 792.733 191.306 791.935 196.948 791.66C192.118 787.628 189.159 787.628 184.865 789.513C180.971 791.219 181.686 789.816 177.352 789.251C173.017 788.673 172.673 791.66 167.774 790.903C161.182 789.871 164.333 789.293 161.223 787.628C157.645 785.715 147.036 770.894 147.036 770.894C147.036 770.894 160.494 779.99 168.613 776.77C170.058 776.192 173.512 776.963 173.512 775.435C173.512 773.908 171.063 770.839 171.999 771.417C172.934 771.995 174.82 773.908 176.526 772.765C178.219 771.609 175.769 770.275 179.168 770.853C182.553 771.431 183.118 770.275 183.875 769.889C184.631 769.504 184.81 767.013 180.489 767.013C176.168 767.013 178.04 767.399 175.398 766.628C172.755 765.857 168.985 764.522 171.255 764.908C173.512 765.293 175.398 764.33 177.847 764.715C180.297 765.1 187.081 764.522 189.902 764.908C192.723 765.293 200.636 766.064 200.636 766.064C200.636 766.064 199.122 766.834 201.2 769.132C203.278 771.431 206.471 771.623 208.356 771.238C210.241 770.853 212.883 770.467 213.819 769.71C214.755 768.94 215.704 768.376 217.025 768.183C218.346 767.99 219.103 769.518 219.103 769.518V769.49Z" fill="url(#paint1_linear_796_11957)"/>
<path fill-rule="evenodd" clip-rule="evenodd" d="M242.566 784.71C242.566 784.71 246.626 785.481 253.039 787.394C259.451 789.307 262.823 787.325 268.286 787.325C273.749 787.325 272.236 810.705 271.107 811.283C269.979 811.861 257.745 825.086 261.708 823.93C265.672 822.788 285.708 810.031 284.015 812.522C283.327 818.577 274.08 827.302 276.722 825.774C279.364 824.247 291.268 816.485 295.795 815.329C300.323 814.187 313.327 804.568 313.327 804.568C313.327 804.568 310.795 810.582 306.845 812.687C302.896 814.793 303.777 816.21 301.148 819.086C298.506 821.962 299.015 819.127 296.001 823.159C292.988 827.178 289.589 833.315 288.846 834.843C288.089 836.37 266.91 852.787 266.91 852.787C266.91 852.787 242.993 863.686 249.805 864.374C255.02 864.897 280.974 876.154 285.681 874.434C290.387 872.714 307.85 882.319 309.556 883.269C311.249 884.232 376.133 882.058 377.909 882.87C379.698 883.682 387.019 880.571 390.789 886.42C394.56 892.269 402.583 889.282 402.775 889.09C402.968 888.897 418.615 901.571 424.972 904.805C431.33 908.039 514.173 926.314 514.173 926.314C514.173 926.314 536.205 937.543 560.631 933.952C571.97 932.286 594.043 935.851 612.318 936.071C628.612 936.25 655.309 932.121 659.877 930.897C597.828 919.764 540.127 893.438 534.953 891.016C529.792 888.594 530.246 888.594 522.306 882.539C514.366 876.484 512.934 875.576 502.49 867.306C493.352 855.595 503.549 844.407 510.334 854.425C500.907 842.7 475.793 821.054 475.793 821.054L448.394 791.632C448.394 791.632 438.555 779.371 433.793 776.949C423.238 771.582 420.459 768.954 418.904 768.211C412.161 764.977 415.931 763.449 409.573 761.027C403.216 758.605 401.193 758.963 401.193 758.963C401.193 758.963 398.413 755.729 394.051 756.142C389.688 756.541 383.73 753.72 383.73 749.275C383.73 744.83 381.349 746.454 382.932 742.807C384.514 739.174 388.821 736.174 386.441 735.376C384.06 734.564 379.354 725.454 379.354 725.454C379.354 725.454 371.413 725.853 365.455 726.665C359.496 727.477 353.936 729.087 350.771 729.486C347.593 729.885 341.84 731.702 340.643 733.326C339.446 734.936 338.854 735.541 338.07 736.147C337.272 736.752 336.363 739.56 335.373 740.165C334.382 740.771 327.955 739.986 327.955 739.986C327.955 739.986 325.148 738.128 324.143 737.922C323.153 737.716 321.006 737.757 321.006 737.757C321.006 737.757 320.607 739.367 318.226 740.592C315.845 741.803 312.859 744.431 309.295 745.229C305.717 746.041 307.176 746.936 303.997 747.142C300.818 747.348 298.602 743.66 295.437 746.192C294.598 746.867 293.772 747.459 292.589 747.459C291.405 747.459 290.235 749.137 289.258 749.881C287.483 751.229 289.258 751.091 286.671 752.509C284.084 753.926 280.121 759.568 277.341 760.38C274.561 761.192 267.419 765.623 265.424 767.44C263.442 769.256 260.456 770.261 257.484 772.683C254.511 775.105 253.121 775.917 250.342 777.128C247.562 778.339 242.594 784.71 242.594 784.71H242.566Z" fill="#6E9994"/>
<path fill-rule="evenodd" clip-rule="evenodd" d="M354.363 834.044C352.381 836.067 339.804 864.127 339.804 864.127C339.804 864.127 341.634 869.315 340.436 871.737C339.253 874.159 374.276 898.42 374.276 898.42C374.276 898.42 346.478 902.713 329.083 908.245C315.955 912.415 304.162 914.053 296.029 918.676C284.249 918.621 275.194 914.878 264.502 909.663C267.419 906.47 249.419 874.448 249.419 874.448C249.419 874.448 272.566 871.613 274.947 869.59C277.327 867.567 277.726 867.168 277.726 867.168C277.726 867.168 278.525 865.145 272.965 866.356C267.405 867.567 255.103 864.746 259.066 864.746C263.029 864.746 278.125 865.558 280.905 861.113C283.685 856.668 283.286 853.434 286.066 855.058C288.845 856.682 287.648 859.902 295.589 855.87C303.529 851.838 298.767 851.026 306.708 849.003C314.648 846.98 316.629 844.159 319.808 842.136C322.987 840.113 330.927 835.668 327.749 836.48C324.57 837.292 317.827 839.714 314.249 842.136C310.671 844.558 322.987 836.081 328.932 832.448C334.891 828.815 331.712 830.026 337.67 825.581C343.629 821.136 340.849 822.76 346.01 819.127C351.17 815.494 349.987 817.517 349.987 814.682C349.987 811.848 346.01 813.471 350.785 811.049C355.546 808.627 350.386 809.026 356.345 807.416C362.303 805.806 358.725 805.806 363.101 803.371C367.464 800.949 365.881 801.348 369.844 800.137C373.808 798.926 384.927 795.293 384.927 795.293C384.927 795.293 383.729 797.316 378.184 800.536C372.624 803.77 369.844 806.99 364.684 812.646C361.161 816.513 356.358 832.008 354.377 834.031L354.363 834.044Z" fill="url(#paint2_linear_796_11957)"/>
<path fill-rule="evenodd" clip-rule="evenodd" d="M344.414 834.856C344.414 834.856 343.616 842.535 345.212 844.544C346.795 846.567 347.194 846.567 347.194 846.567C347.194 846.567 345.212 844.957 339.652 849.388C334.093 853.833 333.308 854.232 335.29 853.42C337.272 852.608 341.648 850.599 340.451 853.021C339.253 855.443 338.469 855.443 338.469 855.443C338.469 855.443 314.538 865.544 309.378 869.177C304.217 872.81 330.529 862.296 324.185 867.952C317.841 873.608 322.602 870.374 317.827 873.608C313.066 876.842 316.63 877.64 313.066 877.241C309.488 876.842 303.612 881.37 302.029 882.581C300.447 883.792 286.754 895.681 286.754 895.681C286.754 895.681 308.153 884.975 313.313 887.397C318.474 889.819 328.946 888.952 334.107 889.365C339.267 889.764 354.349 887.755 361.505 892.186C365.152 894.457 301.616 901.158 307.121 902.961C312.419 904.695 386.881 905.122 390.762 905.122C423.018 912.401 436.202 928.185 440.564 930.607C444.926 933.029 451.587 929.328 457.944 932.149C464.302 934.97 490.517 936.002 495.678 938.025C500.838 940.048 499.256 935.906 504.815 936.318C510.375 936.717 476.784 927.25 483.54 928.461C490.283 929.672 520.104 931.461 520.104 931.461C520.104 931.461 485.233 923.782 470.151 920.149C455.068 916.516 491.329 921.36 498.87 920.149C506.412 918.938 479.797 909.566 494.082 911.988C508.366 914.41 527.04 913.199 525.044 913.599C523.063 913.998 507.967 911.177 499.242 909.966C490.504 908.755 477.403 905.122 465.499 905.122C453.596 905.122 447.128 907.502 436.009 905.892C424.89 904.282 418.161 899.438 422.922 900.25C427.683 901.062 448.49 897.952 452.055 898.764C455.633 899.576 463.944 897.567 463.944 897.567C463.944 897.567 446.922 895.227 435.403 892.805C426.651 890.961 416.041 890.865 434.688 880.654C428.729 878.232 410.289 885.732 402.349 883.31C394.409 880.888 396.39 876.856 396.39 876.856C396.39 876.856 397.973 872.012 391.23 871.613C384.487 871.214 405.693 850.076 411.046 847.998C402.72 849.182 346.905 864.072 342.845 870.952C341.648 872.975 364.684 849.113 365.868 844.269C367.065 839.425 379.106 838.145 380.29 836.136C381.487 834.113 402.996 814.779 400.23 816.802C397.45 818.825 368.496 831.347 371.675 829.338C374.854 827.315 391.175 805.215 391.175 805.215C391.175 805.215 377.881 814.407 375.501 817.641C373.12 820.875 393.211 792.059 391.629 793.669C390.046 795.279 372.514 809.082 376.092 803.439C379.67 797.784 362.262 814.71 362.262 814.71C362.262 814.71 359.083 817.132 361.464 811.077C363.845 805.022 365.427 802.999 365.427 802.999C365.427 802.999 360.666 806.632 358.285 812.288C355.905 817.944 353.923 816.334 351.542 823.6C349.161 830.866 350.345 832.077 347.964 832.476C345.584 832.875 344.386 834.898 344.386 834.898L344.414 834.856Z" fill="url(#paint3_linear_796_11957)"/>
<path fill-rule="evenodd" clip-rule="evenodd" d="M391.436 764.619C391.436 764.619 385.312 778.752 382.533 780.761C379.753 782.784 378.514 788.247 372.569 789.045C366.611 789.857 368.345 784.036 360.404 788.068C352.464 792.1 351.57 788.013 344.029 791.247C336.487 794.481 326.166 795.692 324.185 798.114C322.203 800.536 316.245 802.559 313.066 805.38C309.887 808.201 300.447 813.375 300.447 813.375C300.447 813.375 309.777 804.554 315.446 799.325C321.804 796.091 324.584 794.481 329.744 791.247C334.905 788.013 325.382 785.591 328.162 785.591C330.942 785.591 336.102 783.981 338.882 782.357C341.662 780.747 345.239 780.334 345.239 780.334C345.239 780.334 338.882 777.912 341.662 777.912C344.441 777.912 346.822 774.678 349.203 773.88C351.583 773.068 351.184 769.435 354.762 767.825C358.34 766.215 361.519 765.004 363.102 765.004C364.684 765.004 366.281 765.004 370.244 762.981C374.207 760.958 386.083 747.431 386.083 747.431C386.083 747.431 375.404 766.614 369.845 767.839C364.285 769.05 359.524 773.082 359.524 773.082C359.524 773.082 367.863 769.848 369.845 771.871C371.826 773.894 378.184 771.871 378.184 771.871C378.184 771.871 391.849 764.605 391.45 764.605L391.436 764.619Z" fill="#74948D"/>
<path fill-rule="evenodd" clip-rule="evenodd" d="M378.556 725.44C378.556 725.44 374.73 725.688 373.546 730.119C376.092 729.693 379.12 729.238 379.918 731.248C380.716 733.271 380.689 731.936 377.51 734.358C374.331 736.78 369.487 743.88 372.267 741.858C375.046 739.835 380.84 735.899 384.019 733.078C387.198 730.257 385.698 735.913 385.698 735.913C385.698 735.913 387.514 751.078 381.955 754.711C376.395 758.344 374.991 760.133 368.634 762.954C362.276 765.775 344.152 776.866 338.194 782.921C332.235 788.976 354.707 757.298 355.106 753.266C355.505 749.234 357.487 746.812 357.487 746.812C357.487 746.812 330.432 777.417 323.29 779.44C327.088 770.564 330.267 765.486 335.964 759.156C329.607 760.766 327.721 763.972 326.139 765.183C324.556 766.394 324.542 756.114 323.345 759.334C322.148 762.568 306.887 787.366 301.726 791.811C296.566 796.256 287.855 801.719 284.291 805.765C280.713 809.797 263.057 820.448 253.011 820.655C262.672 814.214 261.997 814.022 263.332 809.357C246.819 809.659 250.452 796.16 243.709 795.348C242.278 791.398 236.635 784.146 236.635 784.146C236.635 784.146 246.874 778.187 250.287 777.1C252.571 777.554 267.763 781.944 270.529 781.944C273.295 781.944 251.14 774.692 255.103 774.692C254.786 772.476 268.094 776.853 274.438 775.642C280.795 774.431 266.043 774.293 263.663 770.247C261.282 766.215 281.965 759.844 282.364 756.61C282.763 753.376 296.827 743.179 297.901 745.202C300.281 746.013 292.892 747.376 300.433 750.211C307.974 753.032 303.515 751.862 308.676 751.862C313.836 751.862 315.969 763.504 315.969 759.472C315.969 755.44 311.841 745.835 309.226 745.202C313.121 743.303 320.937 735.913 321.336 738.335C321.735 740.757 322.533 743.991 329.276 745.601C336.033 747.211 336.033 746 336.033 746C336.033 746 338.249 738.101 336.267 740.124C334.286 742.133 334.685 737.592 336.267 734.413C336.267 734.413 343.973 731.055 346.753 729.844C349.533 728.633 359.455 727.821 361.836 726.61C364.216 725.399 366.597 725 368.193 725C369.79 725 378.514 725.399 378.514 725.399L378.556 725.44Z" fill="url(#paint4_linear_796_11957)"/>
<path fill-rule="evenodd" clip-rule="evenodd" d="M391.959 742.298C391.959 742.298 395.124 753.899 401.867 756.321C408.624 758.743 408.734 762.582 413.496 763.793C418.257 765.004 422.688 768.541 426.665 775.27C429.046 779.302 432.156 783.169 435.335 786.802C438.514 790.435 441.692 796.091 443.674 798.114C445.656 800.137 452.013 803.77 447.637 801.348C443.275 798.926 436.917 792.059 430.959 790.05C425 788.027 427.78 791.261 423.018 787.229C418.257 783.196 419.839 777.94 416.661 782.385C413.482 786.829 415.862 783.995 410.303 786.829C404.743 789.65 407.523 790.861 404.344 792.072C401.165 793.283 402.363 791.673 397.601 793.683C392.84 795.705 389.661 798.127 389.661 798.127C389.661 798.127 394.821 792.072 396.418 790.449C398 788.839 402.775 783.995 398 786.004C393.239 788.027 395.62 782.77 391.643 784.793C387.679 786.816 390.06 782.77 386.482 784.793C382.904 786.816 381.322 787.215 378.941 788.027C376.56 788.839 369.019 793.683 371.001 790.449C372.982 787.215 380.923 785.206 384.101 779.949C387.28 774.706 387.28 770.261 387.28 770.261C387.28 770.261 390.06 765.816 386.482 768.651C382.904 771.472 387.679 771.073 380.923 772.284C374.166 773.495 371.001 772.683 371.001 772.683C371.001 772.683 378.941 771.871 381.322 767.839C383.702 763.807 386.482 762.596 383.702 762.995C380.923 763.394 380.923 760.972 382.904 759.362C384.886 757.752 384.487 756.541 384.487 756.541C384.487 756.541 380.51 756.541 377.73 759.362C374.95 762.183 375.748 762.995 371.771 763.807C367.794 764.619 358.271 765.83 358.271 765.83C358.271 765.83 370.574 762.596 372.955 758.165C375.335 753.72 372.955 753.72 376.533 752.509C380.111 751.298 377.331 752.908 378.129 749.688C378.927 746.454 376.147 748.876 380.111 745.656C384.088 742.422 386.111 734.261 386.111 734.261C386.111 734.261 391.629 737.371 391.918 742.325L391.959 742.298Z" fill="url(#paint5_linear_796_11957)"/>
<path fill-rule="evenodd" clip-rule="evenodd" d="M438.363 769.697C443.771 778.146 442.298 773.577 445.876 779.233C449.454 784.889 448.436 780.761 455.179 786.004C461.936 791.247 476.275 808.93 476.275 808.93C476.275 808.93 445.656 784.793 441.28 781.16C436.918 777.527 437.881 776.247 434.303 775.435C430.725 774.623 426.982 767.839 423.019 766.215C419.042 764.605 418.766 763.903 423.528 768.348C428.289 772.793 433.326 779.674 434.578 781.229C438.817 786.527 455.427 810.114 455.702 811.38C456.527 815.178 430.546 781.724 424.078 780.43C418.12 775.986 411.115 763.779 405.556 760.545C399.996 757.311 397.216 758.522 395.634 754.49C394.051 750.458 392.854 750.045 392.455 746.013C392.056 741.981 392.455 743.591 390.473 739.559C388.492 735.527 388.492 738.747 384.116 733.504C380.593 727.202 380.304 727.326 378.157 725.027C386.427 727.147 394.423 737.894 395.235 738.761C399.17 743.013 404.097 744.665 407.675 746.688C411.253 748.711 415.023 754.091 419.799 754.49C425.207 757.862 423.074 760.105 428.248 760.903C432.308 763.6 434.661 766.986 438.376 769.683L438.363 769.697Z" fill="url(#paint6_linear_796_11957)"/>
<path fill-rule="evenodd" clip-rule="evenodd" d="M479.164 774.073C480.761 774.472 501.045 770.866 509.783 769.256C518.522 767.646 502.215 774.417 494.646 778.889C501.389 781.71 506.398 777.114 512.756 777.114C519.114 777.114 527.439 775.903 530.618 776.715C533.797 777.527 540.141 779.949 540.141 779.949C540.141 779.949 548.164 780.651 552.127 782.66C559.393 780.747 569.728 779.976 569.728 779.976C569.728 779.976 555.443 784.614 556.558 789.21C546.636 787.187 535.366 784.793 530.205 784.394C525.045 783.995 546.017 786.664 547.613 792.306C538.668 787.834 531.444 789.898 522.664 788.825C523.462 793.669 539.7 795.568 544.476 797.577C549.237 799.6 563.177 798.981 570.319 802.614C577.461 806.247 574.283 815.054 576.663 816.279C579.044 817.49 594.126 817.889 601.681 821.934C609.222 825.967 618.759 828.389 618.759 828.389C618.759 828.389 619.158 824.756 614.397 821.522C609.635 818.288 612.016 819.1 604.076 813.444C596.135 807.788 589.392 803.343 593.356 804.554C597.333 805.765 605.273 805.765 606.456 804.953C607.654 804.141 598.915 804.141 589.778 799.71C580.64 795.265 579.457 786.389 579.457 786.389C579.457 786.389 605.658 790.421 608.837 790.022C612.016 789.623 635.837 785.99 640.997 783.554C651.373 778.683 656.726 776.371 670.405 771.155C670.405 771.155 672.359 783.155 683.079 785.577C691.116 787.394 672.923 787.806 675.318 790.256C676.116 791.068 698.808 794.109 699.4 795.224C701.781 799.669 701.024 793.779 709.363 799.834C717.703 805.889 706.666 796.572 717.386 801.004C728.106 805.448 744.221 822.719 753.743 827.976C763.266 833.219 764.064 833.219 764.064 833.219C764.064 833.219 752.161 832.407 739.06 827.976C725.959 823.531 727.941 824.343 715.638 822.32C703.336 820.297 698.561 811.421 698.162 816.664C697.763 821.921 701.34 824.742 702.538 827.976C703.735 831.21 705.703 832.82 704.12 831.21C702.538 829.6 695.382 823.545 682.68 820.71C669.979 817.889 671.96 819.499 665.602 815.054C659.245 810.609 652.103 809.398 652.103 809.398C652.103 809.398 646.832 812.178 636.91 810.155C626.988 808.132 640.117 807.224 630.181 806.426C620.259 805.614 622.241 805.517 617.479 802.682C612.718 799.861 607.241 796.875 610.021 798.485C612.8 800.109 618.759 806.563 620.741 808.173C622.722 809.783 630.263 816.65 632.259 817.462C634.24 818.274 647.341 819.485 649.337 821.494C651.318 823.517 663.621 828.361 666.015 830.384C668.396 832.407 666.813 831.595 668.396 832.407C669.979 833.219 667.997 829.985 672.373 835.641C676.735 841.297 681.111 842.907 681.111 842.907C681.111 842.907 666.057 835.159 660.098 835.572C654.139 835.971 658.474 833.219 648.951 830.797C639.428 828.375 641.809 829.586 637.832 827.976C633.855 826.366 621.979 825.856 621.979 825.856C621.979 825.856 626.341 827.439 634.681 836.315C643.02 845.191 640.612 845.329 650.534 848.962C660.456 852.595 617.617 842.398 621.979 846.031C626.341 849.663 665.699 859.929 672.043 863.961C682.501 864.705 698.561 873.993 702.538 875.204C706.501 876.415 698.96 876.415 687.841 872.782C676.722 869.149 677.919 867.938 667.199 866.727C656.479 865.517 638.217 863.906 626.699 855.829C615.181 847.751 609.236 844.118 602.878 841.297C610.75 854.26 624.511 866.783 625.708 869.205C626.906 871.626 592.461 851.975 580.117 835.572C580.86 853.503 598.117 854.92 603.278 860.975C608.438 867.03 608.438 863.094 611.204 867.127C613.984 871.159 620.727 870.76 630.663 883.269C640.584 895.791 665.135 902.011 669.112 904.034C673.075 906.057 687.166 912.277 687.166 912.277C687.166 912.277 661.859 906.167 651.208 903.484C648.717 902.851 623.507 908.41 621.071 907.681C616.516 906.332 644.782 902.947 641.658 901.365C639.662 900.346 628.213 895.131 626.851 894.388C620.053 890.7 580.227 899.039 572.631 895.351C563.507 890.906 595.268 884.658 584.548 882.236C573.828 879.814 580.296 869.205 574.737 872.425C569.177 875.659 553.888 879.374 553.888 879.374C553.888 879.374 567.127 868.338 568.723 865.916C570.305 863.494 566.741 864.305 563.163 861.072C559.585 857.838 564.361 858.251 555.223 855.017C546.086 851.783 536.852 855.677 541.228 855.264C545.59 854.865 558.402 845.329 561.98 843.705C565.558 842.095 542.742 851.136 538.778 848.315C534.815 845.494 539.356 841.324 531.017 838.503C522.678 835.682 522.279 834.416 515.935 831.994C509.577 829.572 514.737 825.939 509.192 821.907C503.632 817.875 497.921 816.127 497.921 816.127C497.921 816.127 505.655 816.65 507.637 814.627C509.618 812.604 538.696 830.109 524.081 818.37C522.678 817.242 559.53 820.944 524.935 809.467C521.893 808.462 522.609 808.737 519.43 806.714C516.251 804.692 512.37 802.517 508.793 803.329C505.215 804.141 497.673 805.352 499.27 803.329C500.852 801.306 506.412 797.673 501.251 798.884C496.091 800.095 476.192 806.549 478.972 802.104C481.752 797.66 469.27 797.178 461.192 790.861C464.123 794.508 488.054 822.292 490.559 827.398C491.357 829.008 472.339 803.921 469.958 805.531C465.403 799.806 460.325 790.586 460.325 790.586C460.325 790.586 449.151 782.674 445.876 779.178C443.495 775.146 443.702 775.875 441.004 773.509C438.541 771.348 439.133 771.94 435.156 768.307C431.193 764.674 426.073 761.055 425.399 759.926C426.995 759.926 449.564 760.944 455.757 759.912C451.972 766.105 455.069 766.793 455.069 766.793C455.069 766.793 450.803 771.816 455.578 775.05C460.339 778.284 469.174 774.362 469.174 774.362C469.174 774.362 479.151 776.44 479.151 774.018L479.164 774.073Z" fill="#6E9C8C"/>
<path fill-rule="evenodd" clip-rule="evenodd" d="M525.402 860.673C525.402 860.673 536.838 862.847 540.388 869.383C544.751 871.214 547.682 875.177 547.682 875.177C547.682 875.177 547.283 872.438 549.664 876.553C552.044 880.668 551.645 882.044 556.406 883.42C561.168 884.796 574.035 881.273 577.998 883.103C581.975 884.934 576.402 885.677 577.585 888.415C578.782 891.154 576.856 889.709 579.636 892.915C582.415 896.122 593.81 888.801 589.447 892.915C585.085 897.03 589.172 897.112 593.535 899.865C597.897 902.617 606.965 895.599 618.869 901.089C602.521 907.626 611.369 908.397 614.782 908.452C616.736 908.479 637.309 904.2 638.892 904.365C623.369 908.177 601.654 918.883 600.071 919.516C596.218 921.057 644.493 912.718 649.047 913.076C654.456 913.488 659.424 913.543 661.612 914.548C665.644 916.392 662.134 917.644 679.474 919.585C696.813 921.525 716.877 935.341 716.877 935.341C717.097 935.341 702.565 931.034 687.139 929.218C679.969 928.364 675.854 932.162 669.373 932.685C661.942 931.199 640.956 934.832 639.58 934.695C638.093 934.543 654.304 930.222 653.327 930.002C648.208 928.887 646.983 928.64 639.649 929.41C630.91 930.332 632.63 924.952 623.892 924.952C614.534 924.952 605.975 924.016 598.489 924.635C592.929 925.089 593.328 921.883 585.388 924.635C577.448 927.374 552.43 931.502 552.43 931.502C552.43 931.502 567.113 923.727 569.108 921.897C571.09 920.066 567.127 919.612 561.567 919.612C556.007 919.612 557.989 913.199 555.209 915.03C552.429 916.86 556.007 914.121 548.852 915.03C541.709 915.952 525.031 907.709 525.031 907.709C525.031 907.709 526.228 911.823 516.292 906.333C506.37 900.842 490.889 888.952 493.27 890.314C495.65 891.691 516.292 902.672 518.673 900.842C521.054 899.012 513.402 894.484 513.402 894.484C513.402 894.484 551.053 910.543 553.434 911.92C555.815 913.296 530.549 898.296 530.549 898.296C530.549 898.296 518.701 890.328 513.939 887.122C509.178 883.915 508.214 877.86 501.953 868.599C506.315 869.975 523.187 888.938 527.563 888.484C531.925 888.03 541.448 896.383 546.086 893.934C542.109 892.557 505.504 866.7 501.416 865.338C497.839 862.131 489.898 854.535 491.88 854.989C493.862 855.443 540.113 885.746 542.095 884.369C544.076 882.993 546.856 883.915 543.292 882.085C539.714 880.255 544.09 881.163 538.132 878.425C532.173 875.672 538.531 876.14 532.173 873.842C521.494 870.003 496.517 858.361 491.88 854.989C484.339 849.498 477.169 822.843 477.169 822.843C477.169 822.843 511.407 854.411 513.389 857.163C515.37 859.916 520.655 862.861 523.434 864.691C526.214 866.521 537.361 870.787 537.361 870.787C537.361 870.787 531.911 865.613 525.375 860.714L525.402 860.673Z" fill="#759E82"/>
<path fill-rule="evenodd" clip-rule="evenodd" d="M429.528 789.279C382.684 747.348 461.124 820.737 461.096 820.655C458.715 815.412 461.096 825.499 466.257 829.944C471.417 834.388 471.018 828.333 477.376 838.421C483.733 848.508 512.054 873.581 513.637 876.003C515.219 878.425 493.807 852.429 492.224 847.998C483.623 835.544 498.224 853.296 496.848 849.485C494.839 843.939 477.885 825.182 477.885 825.182C477.885 825.182 487.821 842.783 485.839 840.361C483.857 837.939 469.036 822.843 470.619 822.843C472.201 822.843 451.064 795.43 447.885 795.43C452.44 802.187 463.491 816.65 460.711 813.416C457.931 810.182 456.747 809.384 453.954 807.361C451.174 805.338 429.541 789.32 429.541 789.32L429.528 789.279Z" fill="#729D96"/>
<path fill-rule="evenodd" clip-rule="evenodd" d="M670.391 771.183C670.391 771.183 670.391 779.605 664.653 780.362C666.634 786.816 663.442 796.903 665.038 802.559C671.547 805.614 673.006 810.87 674.987 812.893C676.969 814.916 701.065 828.623 701.065 828.623C701.065 828.623 671.162 815.192 661.983 818.632C663.125 811.366 650.919 809.825 649.336 809.825C647.754 809.825 651.277 807.981 651.277 806.77C651.277 805.559 646.295 800.261 637.887 800.261C640.57 797.206 628.543 801.114 622.199 799.49C615.841 797.88 635.217 794.137 627.552 794.508C626.025 793.366 629.671 791.825 624.112 791.825C618.552 791.825 609.58 790.903 609.58 790.903C609.58 790.903 633.47 780.32 638.63 780.733C643.79 781.132 643.391 779.123 649.749 777.1C656.107 775.077 670.033 770.357 670.419 771.155L670.391 771.183Z" fill="url(#paint7_linear_796_11957)"/>
<path fill-rule="evenodd" clip-rule="evenodd" d="M661.997 828.127C661.997 828.127 684.07 838.544 689.492 838.187C694.914 837.815 694.198 837.086 698.161 837.815C702.138 838.544 715.514 838.544 715.514 838.544C715.514 838.544 709.363 836.714 705.758 834.127C702.138 831.554 701.065 828.609 701.065 828.609C701.065 828.609 716.973 836.329 722.023 836.329C727.074 836.329 728.89 831.182 733.225 834.127C737.56 837.072 740.821 839.274 744.798 839.274C748.775 839.274 755.642 841.847 759.619 843.319C763.596 844.792 763.596 848.095 767.216 850.668C770.835 853.241 773.353 853.241 779.862 858.388C786.371 863.535 794.325 867.952 802.995 869.782C811.664 871.626 817.086 871.626 817.086 871.626C817.086 871.626 801.908 865.379 797.201 862.062C792.509 858.76 792.509 862.805 788.174 855.443C783.839 848.095 787.087 848.452 781.665 847.352C776.243 846.251 772.995 845.521 768.647 841.833C764.312 838.159 766.472 837.416 761.78 835.957C757.087 834.485 737.037 816.141 737.037 816.141C737.037 816.141 754.968 823.613 766.472 829.696C774.426 829.696 801.495 841.021 782.614 825.1C799.802 833.315 817.843 835.393 821.82 835.021C825.797 834.65 817.375 830.109 824.242 834.141C831.109 838.187 806.958 836.535 809.49 837.636C812.022 838.737 824.297 844.379 829.362 846.223C834.426 848.067 844.182 847.696 845.985 847.696C847.1 847.902 817.348 854.356 818.82 856.076C819.467 856.847 828.866 854.865 835.898 854.755C848.256 854.562 861.288 855.636 863.214 856.214C877.554 860.439 896.379 864.581 898.636 864.87C903.549 865.503 862.609 847.324 864.467 847.943C867.714 849.044 855.893 844.751 855.893 844.751C855.893 844.751 861.205 850.64 855.054 848.796C848.916 846.952 850.279 845.384 843.412 845.012C836.545 844.641 838.458 843.209 834.839 843.209C831.219 843.209 826.472 838.875 826.472 838.875C826.472 838.875 834.426 839.246 841.65 838.503C848.875 837.774 860.806 835.93 865.512 832.627C870.219 829.324 877.086 825.636 880.691 823.434C884.31 821.233 886.842 820.861 889.732 820.861C892.622 820.861 902.021 825.278 905.269 825.278C908.516 825.278 911.682 825.843 911.682 825.843C911.682 825.843 913.347 829.778 929.64 833.576C931.085 834.127 936.245 836.852 937.374 837.209C938.874 837.691 921.466 833.301 912.59 834.154C908.049 835.971 901.209 837.664 898.484 839.934C911.902 835.847 956.708 840.664 958.552 841.654C955.03 841.544 962.488 844.186 963.396 846.663C951.892 843.044 933.947 843.581 934.677 845.865C941.461 844.255 945.741 845.48 954.424 847.324C943.966 848.122 923.406 848.012 932.805 848.755C937.608 849.127 909.879 846.127 912.934 846.884C915.851 847.599 938.378 853.104 943.222 854.232C924.865 853.599 919.787 856.682 919.787 856.682C919.787 856.682 913.759 863.108 903.645 861.636C914.475 864.87 934.209 871.42 932.255 872.301C921.466 872.934 922.429 867.704 918.782 868.241C911.282 866.645 891.7 863.177 877.636 862.723C866.82 862.379 854.393 860.452 842.779 864.952C844.169 865.888 865.113 867.911 873.15 868.998C874.911 869.232 900.384 875.273 897.81 876.085C889.127 875.659 886.333 875.755 882.824 876.649C869.833 873.594 862.65 874.805 859.017 878.438C863.558 879.347 883.223 887.259 880.196 889.117C850.925 887.012 878.09 891.429 872.792 894.057C862.058 899.383 841.471 896.823 840.921 896.989C826.926 901.131 841.843 886.957 837.357 887.232C834.109 887.424 817.898 888.677 822.618 886.09C828.729 882.732 856.636 875.314 855.109 875.59C848.971 876.691 839.476 869.383 830.806 866.81C822.137 864.237 826.829 864.98 816.343 862.035C805.857 859.09 798.99 855.787 798.99 855.787C798.99 855.787 817.1 866.507 821.793 870.553C826.499 874.599 845.93 875.411 845.93 875.411C845.93 875.411 810.082 875.961 801.399 876.691C792.729 877.42 774.963 872.287 764.105 870.085C753.262 867.883 788.133 874.172 777.647 867.567C767.161 860.948 778.004 864.264 765.358 859.117C752.697 853.971 744.386 845.15 746.918 849.553C749.45 853.971 752.34 856.902 754.142 860.218C755.945 863.521 748.005 854.7 742.941 852.498C737.876 850.296 734.987 845.879 729.207 847.352C723.427 848.824 724.872 847.352 720.166 848.095C715.473 848.824 713.299 847.352 715.831 849.567C718.363 851.769 725.588 858.017 725.588 858.017C725.271 858.842 719.037 853.709 714.744 852.498C710.45 851.287 707.148 853.599 702.813 851.769C698.478 849.925 691.969 844.42 695.216 848.452C698.464 852.498 702.441 855.443 700.996 854.7C699.551 853.971 693.4 852.87 689.423 848.452C685.446 844.035 683.643 843.677 683.643 843.677C683.643 843.677 681.73 845.521 678.469 842.205C675.221 838.902 661.199 829.944 661.928 828.113L661.997 828.127Z" fill="url(#paint8_linear_796_11957)"/>
<path fill-rule="evenodd" clip-rule="evenodd" d="M889.127 814.118C889.127 814.118 898.416 816.127 894.81 816.857C891.191 817.586 891.191 815.026 890.104 816.485C889.017 817.957 885.576 817.71 885.576 817.71L871.334 824.26C871.168 824.356 878.875 822.678 883.127 821.315C887.324 819.967 897.769 820.572 900.563 822.237C894.879 825.416 892.829 825.65 890.104 829.737C894.164 827.7 912.383 825.87 912.383 825.87C912.383 825.87 935.833 831.416 939.149 837.87C934.03 839.907 923.75 836.164 914.861 844.035C929.227 839.934 954.562 841.709 957.878 842.934C964.14 840.966 972.837 853.833 976.456 855.677C977.351 856.131 974.351 849.058 993.217 848.15C992.474 847.682 970.91 836.508 958.993 837.884C957.741 838.021 941.048 834.554 939.906 833.838C938.778 831.567 933.136 828.856 927.934 826.723C922.704 824.59 917.888 823.035 918.535 823.145C919.567 823.324 923.654 823.82 928.044 824.329C930.053 824.563 932.145 824.797 934.016 825.003C935.227 825.141 941.612 830.012 942.576 829.861C945.424 829.407 964.236 832.696 964.828 832.751C964.374 830.948 947.64 826.627 944.64 826.93C943.154 825.829 940.195 822.444 941.901 822.829C945.163 823.558 945.328 823.517 953.874 821.123C947.034 818.728 939.012 818.838 934.002 820.655C926.723 817.696 914.957 816.113 918.576 816.843C922.168 814.806 931.691 816.127 932.778 815.756C933.865 815.384 920.489 811.71 914.709 812.081C909.397 810.857 907.457 808.847 905.296 808.118C903.122 807.389 900.948 805.792 897.7 806.164C894.453 806.536 888.466 809.811 888.466 809.811L889.168 814.132L889.127 814.118Z" fill="url(#paint9_linear_796_11957)"/>
<path fill-rule="evenodd" clip-rule="evenodd" d="M756.358 790.022C756.358 790.022 732.771 799.889 742.335 787.256C734.299 787.256 726.07 794.398 719.175 796.366C720.455 797.852 725.423 801.691 715.817 799.778C723.152 804.966 717.606 808.806 715.074 808.434C712.542 808.063 722.092 815.411 722.092 815.411C722.092 815.411 693.786 816.622 687.799 811.393C689.244 815.439 710.987 820.09 718.212 824.136C725.436 828.182 758.147 834.017 760.321 835.475C762.496 836.948 724.542 808.407 732.496 809.879C740.45 811.352 752.519 816.526 759.386 816.168C766.252 815.797 754.968 812.205 760.376 808.09C754.597 807.347 774.028 813.65 779.45 813.292C779.45 812.15 792.468 821.714 801.646 826.31C800.504 818.274 793.995 809.852 784.087 804.898C779.821 800.48 774.427 793.352 774.427 793.352C774.427 793.352 768.275 786.733 756.358 790.049V790.022Z" fill="url(#paint10_linear_796_11957)"/>
<path fill-rule="evenodd" clip-rule="evenodd" d="M217.603 808.325C217.603 808.325 222.874 811.586 225.117 812.893C227.36 814.201 238.603 818.921 241.493 821.219C244.383 823.503 244.41 826.668 245.043 827.976C245.69 829.283 243.433 829.613 241.507 829.283C239.58 828.953 240.86 827.315 237.654 827.645C234.447 827.976 224.814 828.292 226.411 828.623C228.021 828.953 244.397 832.861 241.176 837.443C237.97 842.012 236.677 842.673 238.603 844.957C240.53 847.242 240.846 844.627 238.92 850.186C236.993 855.746 246.42 863.7 244.507 867.939C240.213 864.471 238.383 863.108 236.14 863.108C233.897 863.108 213.915 852.044 209.594 851.535C214.026 854.452 233.429 874.131 232.135 875.108C230.856 876.085 212.429 866.645 212.429 866.645C212.429 866.645 225.379 880.764 230.429 882.869C233.002 886.791 238.92 894.759 240.777 899.232C245.566 902.383 256.878 911.754 256.837 911.741C263.318 915.442 264.144 912.14 268.713 914.08C278.896 918.401 291.832 917.383 296.001 918.69C272.635 904.667 258.447 888.47 269.965 893.768C274.864 896.025 253.121 873.471 257.607 874.448C262.107 875.425 260.442 873.044 263.016 873.704C265.589 874.351 275.318 874.448 275.318 874.448C275.318 874.448 259.163 869.783 257.236 867.498C255.309 865.214 250.809 864.553 254.346 864.553C257.883 864.553 258.846 862.599 258.846 862.599C258.846 862.599 251.786 860.645 254.03 859.338C256.273 858.03 256.603 858.03 258.846 856.393C261.089 854.755 265.589 853.448 266.869 852.801C268.149 852.154 264.942 853.131 262.052 852.801C259.163 852.471 261.887 851.191 264.461 850.214C267.034 849.237 266.552 848.563 269.126 846.925C271.699 845.287 278.291 838.806 278.291 838.806C278.291 838.806 261.763 850.008 259.273 848.838C256.383 850.145 252.419 851.824 252.419 851.824C252.419 851.824 243.736 857.741 244.066 856.434C244.383 855.127 246.64 850.517 249.53 847.572C252.419 844.627 254.993 842.012 256.589 840.719C258.199 839.411 261.089 838.434 259.796 836.797C258.516 835.159 257.222 837.443 255.296 837.443C253.369 837.443 261.722 832.544 264.612 830.907C267.502 829.269 279.089 824.838 279.089 824.838C279.089 824.838 267.502 827.315 260.126 828.292C252.736 829.269 245.676 827.645 247.603 827.645C249.53 827.645 266.869 825.031 270.722 821.769C274.575 818.508 277.148 815.563 278.428 814.586C279.708 813.609 270.516 818.742 269.47 819.086C270.749 817.448 281.635 807.719 281.635 807.719C281.635 807.719 269.47 815.646 262.41 818.26C255.351 820.875 258.268 819.87 254.085 819.87C249.901 819.87 245.016 820.132 242.456 817.847C239.883 815.563 240.172 817.091 238.245 816.113C236.319 815.136 233.622 814.352 232.342 813.692C231.062 813.031 228.585 812.136 226.975 811.806C225.365 811.476 222.145 810.471 217.576 808.311L217.603 808.325Z" fill="url(#paint11_linear_796_11957)"/>
<path fill-rule="evenodd" clip-rule="evenodd" d="M115 762.004C115 762.004 111.463 775.394 113.389 777.348C115.316 779.302 118.206 774.086 119.486 780.609C120.766 787.146 122.376 788.453 124.619 789.747C126.862 791.054 163.329 809.687 165.256 816.54C158.609 815.274 148.701 810.967 152.238 814.889C155.774 818.811 157.701 817.503 161.554 824.026C165.407 830.563 169.013 833.824 172.219 837.099C175.425 840.361 186.916 841.998 197.196 847.214C207.475 852.443 229.37 870.058 229.37 870.058C229.37 870.058 197.512 852.113 188.196 850.475C178.879 848.838 174.077 849.87 176.65 850.517C186.6 853.049 192.558 868.489 197.815 884.92C186.159 876.787 166.907 857.397 163.054 855.429C159.201 853.475 158.017 846.884 155.458 843.609C152.884 840.347 135.875 833.81 132.986 828.265C130.096 822.705 129.779 822.389 127.853 820.751C125.926 819.113 123.999 817.49 119.499 816.513C115 815.536 108.903 815.536 105.05 811.283C101.197 807.045 98.3071 803.123 97.0273 803.123C95.7475 803.123 95.4173 805.077 90.9311 802.462C86.4312 799.848 79.9908 795.265 63.0094 797.095C75.3946 796.641 92.9126 820.035 90.9861 820.035C89.0595 820.035 55.1654 808.036 49.7022 806.728C44.0876 813.306 17.4046 804.705 4.74417 798.472C24.698 799.545 53.3627 787.008 53.3627 787.008C53.3627 787.008 86.7339 779.275 90.5871 776.674C94.4402 774.059 94.4402 771.775 102.463 767.853C110.486 763.931 114.986 761.977 114.986 761.977L115 762.004Z" fill="url(#paint12_linear_796_11957)"/>
<path fill-rule="evenodd" clip-rule="evenodd" d="M155.141 746.977C155.141 746.977 150.091 753.623 150.091 763.738C144.71 765.321 144.861 765.265 144.861 770.495C144.861 775.724 146.595 776.949 147.242 779.563C147.889 782.178 154.205 793.793 154.205 793.793C154.205 793.793 145.825 782.577 141.655 780.293C137.485 778.008 135.559 777.348 134.912 773.44C134.265 769.518 131.059 771.486 133.949 768.21C136.838 764.949 137.802 764.288 139.728 760.05C141.655 755.798 142.302 757.435 142.302 755.151C142.302 752.867 141.985 751.89 141.985 751.89C141.985 751.89 145.522 748.945 147.765 748.298C150.008 747.637 155.155 746.99 155.155 746.99L155.141 746.977Z" fill="url(#paint13_linear_796_11957)"/>
<path fill-rule="evenodd" clip-rule="evenodd" d="M135.545 752.206C135.545 752.206 135.875 761.784 134.595 763.738C133.316 765.692 133.646 770.068 133.646 770.068C133.646 770.068 131.747 773.811 131.43 775.449C131.114 777.086 130.453 777.802 132.696 783.362C138.077 786.21 146.953 802.999 145.659 802.022C144.38 801.045 127.316 785.577 121.935 786.843C121.288 782.274 114.077 780.238 111.187 778.93C108.298 777.623 117.518 765.967 117.518 765.967C117.518 765.967 117.256 760.05 118.536 760.05C119.816 760.05 125.926 759.389 127.522 757.766C129.132 756.128 130.412 753.527 130.412 753.527L135.545 752.22V752.206Z" fill="url(#paint14_linear_796_11957)"/>
<path fill-rule="evenodd" clip-rule="evenodd" d="M492.581 939.057C492.581 939.057 619.653 951.318 638.671 956.988C657.689 962.644 785.215 951.332 793.568 951.332C801.921 951.332 911.365 919.254 921.108 915.016C930.837 910.777 924.534 869.122 924.534 869.122C924.534 869.122 917.502 869.136 916.773 869.439C916.016 869.755 900.122 862.971 882.163 866.205C900.108 865.228 915.08 873.925 914.021 873.966C903.356 874.448 913.883 877.159 912.039 877.076C878.131 875.576 901.966 877.049 897.535 878.975C896.613 879.374 881.585 880.475 880.787 880.833C879.755 881.287 868.609 879.608 867.783 879.746C872.792 882.677 872.847 886.64 872.076 886.819C866.352 884.824 858.893 892.998 852.026 893.424C844.609 893.892 844.526 902.631 831.081 904.516C817.637 906.401 780.591 907.447 773.174 908.865C765.757 910.282 743.491 912.635 740.243 912.635C736.996 912.635 717.317 915.787 714.537 917.672C711.757 919.557 700.363 913.571 695.725 914.52C691.198 915.442 664.542 916.172 649.832 915.759C639.483 915.456 627.758 918.635 625.625 918.828C624.593 918.924 658.198 922.364 681.565 932.837C685.762 934.722 704.67 930.442 700.776 931.309C684.07 935.052 709.377 940.02 700.968 940.708C689.01 941.685 580.64 942.538 570.484 937.089C562.846 932.988 546.305 928.915 538.888 928.915C531.471 928.915 519.361 930.25 517.049 930.25C514.737 930.25 511.021 940.983 471.43 935.603C454.958 933.36 424.408 934.805 424.408 934.805C424.408 934.805 489.801 943.295 492.581 939.043V939.057Z" fill="url(#paint15_linear_796_11957)"/>
<path fill-rule="evenodd" clip-rule="evenodd" d="M764.202 789.1C764.202 789.1 770.903 788.261 774.674 793.077C783.715 797.618 802.348 803.453 805.128 806.274C808.94 810.155 826.568 816.444 834.192 818.384C841.815 820.325 852.535 827.646 854.93 827.164C857.311 826.682 871.361 816.444 874.691 814.999C878.021 813.54 881.434 811.586 883.333 811.104C885.232 810.623 896.461 803.783 898.842 806.205C889.939 811.407 891.026 814.407 891.026 814.407C891.026 814.407 899.461 813.554 901.842 815.013C904.223 816.471 910.443 816.21 910.443 816.21C910.443 816.21 898.526 817.407 894.714 819.347C890.902 821.288 890.64 825.76 888.356 829.847C879.618 834.925 882.122 835.6 880.251 836.549C876.439 838.489 896.984 840.457 896.984 840.457C896.984 840.457 863.407 844.008 866.654 846.237C870.164 848.645 886.003 858.374 886.994 859.131C888.893 860.59 846.852 845.398 838.76 844.916C830.669 844.434 832.774 843.113 825.15 837.788C817.527 832.462 813.715 832.944 809.421 828.581C805.128 824.219 806.559 819.857 804.178 821.797C801.797 823.737 798.935 824.701 798.935 824.701C798.935 824.701 797.82 824.123 796.183 818.549C794.545 812.99 791.311 813.554 789.88 810.637C788.449 807.733 790.83 809.178 786.068 806.274C781.307 803.371 776.339 803.811 774.633 800.453C770.518 792.375 764.202 789.086 764.202 789.086V789.1Z" fill="url(#paint16_linear_796_11957)"/>
<path fill-rule="evenodd" clip-rule="evenodd" d="M701.176 884.177C703.708 891.635 728.629 889.53 732.813 891.897C736.982 894.25 739.308 894.25 739.308 894.25C739.308 894.25 728.423 893.892 722.85 893.892C717.276 893.892 723.538 897.085 718.9 897.553C714.263 898.021 710.093 898.021 707.313 898.502C704.533 898.97 690.758 895.778 688.446 896.259C686.121 896.727 697.116 900.401 698.96 901.805C700.818 903.222 705.813 908.906 703.501 909.387C701.176 909.855 699.965 904.97 688.832 905.906C677.699 906.855 678.731 899.644 667.598 900.112C654.594 893.259 643.832 892.502 643.832 892.502C643.832 892.502 662.974 903.594 669.428 909.979C656.025 910.158 646.447 911.231 625.64 918.841C652.873 920.149 662.823 922.282 664.543 921.773C666.415 921.236 688.859 925.158 692.478 924.58C694.556 924.25 677.355 927.8 674.685 931.695C677.795 931.034 727.68 921.952 728.189 922.034C725.877 924.195 706.653 933.896 710.643 933.607C713.643 933.387 731.973 924.814 735.29 924.401C738.606 923.988 738.455 926.451 739.349 926.768C745.088 928.791 735.84 918.167 738.331 918.993C744.125 920.919 770.918 925.144 773.188 926.796C776.436 929.149 783.853 929.63 786.633 932.933C789.413 936.236 795.44 939.538 795.44 939.538C795.44 939.538 792.193 932.465 786.165 928.213C780.138 923.974 776.89 919.722 776.89 919.722C776.89 919.722 772.253 914.066 775.5 914.066C778.748 914.066 783.853 912.649 785.697 911.713C787.555 910.777 793.583 915.484 797.752 917.369C801.922 919.254 809.807 922.557 809.807 922.557L797.752 914.066C797.752 914.066 793.583 909.814 799.61 909.814C805.637 909.814 805.17 906.979 810.275 908.865C813.991 910.241 813.839 913.392 816.261 914.094C817.156 914.355 819.798 914.52 820.555 915.03C823.335 916.915 828.371 916.887 828.371 916.887C828.371 916.887 820.954 912.167 824.201 909.346C827.449 906.511 826.059 905.576 831.151 905.576C836.243 905.576 832.541 902.273 839.49 905.108C846.453 907.943 853.719 907.543 855.219 907.034C856.719 906.525 856.045 906.057 858.894 905.988C861.756 905.933 856.238 902.933 861.811 903.401C867.371 903.869 866.655 902.273 866.655 902.273C866.655 902.273 875.655 903.222 872.407 902.273C869.16 901.323 870.55 898.021 873.343 898.021C876.137 898.021 875.875 895.791 875.875 895.791L863.421 893.369C863.421 893.369 883.416 890.768 878.779 890.301C874.141 889.833 872.834 891.388 870.054 889.984C867.274 888.567 868.238 887.658 858.508 891.429C848.765 895.2 858.082 888.938 861.784 886.103C865.499 883.269 844.128 890.479 847.375 888.594C850.623 886.709 854.531 885.195 847.568 884.246C840.619 883.31 836.339 885.223 836.339 885.223C836.339 885.223 828.825 886.241 839.958 882.002C851.091 877.764 854.531 882.388 858.412 881.906C852.908 878.507 839.49 878.672 839.49 878.672C839.49 878.672 845.587 877.241 833.986 878.191C822.385 879.14 827.89 874.461 825.096 874.943C822.316 875.411 820.046 873.374 808.913 874.31C797.78 875.259 791.931 868.971 791.931 868.971L777.537 863.466C777.537 863.466 795.399 876.814 800.05 878.232C804.688 879.649 808.858 880.585 808.858 880.585C808.858 880.585 810.248 882.47 800.505 882.938C790.762 883.406 785.67 883.406 788.45 883.406C791.229 883.406 798.151 888.512 803.243 888.512C808.335 888.512 813.592 892.557 812.945 895.31C808.899 893.204 796.775 891.429 788.051 892.557C779.739 893.631 771.757 892.365 769.445 892.365C767.133 892.365 757.845 891.429 757.845 891.429C757.845 891.429 771.124 897.071 775.762 896.603C780.399 896.135 787.569 903.883 787.569 903.883C787.569 903.883 767.588 897.553 759.702 897.553C751.817 897.553 751.817 896.603 748.115 897.553C744.4 898.502 731.877 900.855 731.877 900.855C731.877 900.855 742.074 895.2 746.712 894.25C751.349 893.314 754.129 892.833 751.817 892.833C749.505 892.833 733.267 888.113 737.437 888.113C741.606 888.113 746.244 890.947 755.519 888.113C764.794 885.278 778.886 885.663 778.886 885.663C778.886 885.663 749.491 883.874 742.542 882.925C735.593 881.975 748.666 880.434 754.225 880.434C759.785 880.434 744.386 879.154 744.386 879.154C744.386 879.154 721.336 881.177 722.079 875.204C712.804 877.558 710.065 871.585 702.648 869.232C695.231 866.879 687.882 864.374 681.855 863.425C669.552 853.654 636.676 847.985 636.676 847.985C636.676 847.985 695.217 873.856 691.501 873.856C687.786 873.856 679.625 870.98 672.194 871.929C653.795 867.842 646.241 867.98 646.241 867.98C646.241 867.98 672.07 877.117 680.974 884.191C685.612 885.608 701.148 884.191 701.148 884.191L701.176 884.177Z" fill="url(#paint17_linear_796_11957)"/>
<path fill-rule="evenodd" clip-rule="evenodd" d="M505.145 958.378C505.145 958.378 628.103 959.396 635.024 959.795C641.946 960.194 614.011 952.02 623.795 952.24C633.566 952.46 677.781 956.713 688.776 956.85C699.771 956.988 740.601 956.781 740.601 956.781C740.601 956.781 718.211 952.708 708.854 951.222C699.496 949.736 682.68 949.378 664.763 949.667C646.845 949.956 644.809 949.254 626.492 948.332C608.176 947.41 601.653 944.094 589.447 943.612C577.227 943.13 567.057 939.208 557.287 940.24C547.516 941.272 532.861 940.529 532.861 940.529C532.861 940.529 555.663 936.621 567.057 935.906C578.452 935.19 595.158 937.461 604.103 937.323C613.061 937.185 664.295 941.259 677.327 942.511C669.868 937.97 651.923 932.507 659.877 933.69C677.285 932.589 676.033 935.3 686.161 937.653C697.748 933.401 720.413 925.185 724.542 924.635C728.051 924.167 716.436 929.52 716.904 931.488C717.166 932.575 698.726 938.548 703.088 937.901C706.721 937.35 729.757 933.084 730.363 933.195C737.519 934.516 734.89 934.956 737.642 934.791C740.904 934.584 764.133 927.773 750.674 932.74C720.441 943.901 758.849 933.401 761.931 933.47C764.862 933.539 776.229 934.75 779.298 935.121C780.77 935.3 767.188 939.167 768.481 939.951C769.981 940.86 777.743 937.433 782.435 936.566C798.288 933.607 835.361 943.612 835.361 943.612C835.361 943.612 775.101 958.144 762.482 960.58C749.862 963.029 693.262 970.708 682.267 970.969C671.272 971.245 651.731 969.566 642.359 970.144C633.002 970.735 583.722 966.346 571.516 965.878C559.296 965.396 514.517 959.905 510.444 960.167C506.37 960.414 487.242 960.373 487.242 960.373C487.242 960.373 503.934 958.089 505.159 958.419L505.145 958.378Z" fill="url(#paint18_linear_796_11957)"/>
<path fill-rule="evenodd" clip-rule="evenodd" d="M647.162 953.809C647.162 953.809 647.974 953.699 648.428 953.644C648.896 953.589 648.896 953.547 649.24 953.451C649.584 953.355 648.717 952.983 650.162 952.736C651.607 952.488 654.194 952.075 654.194 952.075C654.194 952.075 657.538 952.488 658.061 952.392C658.584 952.295 658.35 952.901 658.061 953.08C657.772 953.245 656.671 953.891 656.671 953.891C656.671 953.891 660.772 953.272 661.694 953.162C662.616 953.052 662.327 952.694 663.015 952.68C663.703 952.653 667.116 952.584 667.749 952.57C668.382 952.543 668.148 952.35 668.148 952.35C668.148 952.35 670.625 952.557 672.125 952.584C673.625 952.625 675.524 952.722 675.524 952.722C675.524 952.722 679.501 952.873 679.845 952.859C680.189 952.859 680.822 952.46 680.657 952.749C680.492 953.038 679.969 953.093 680.547 954.167C681.125 955.24 680.836 954.841 681.235 955.144C681.634 955.46 682.625 955.667 682.68 954.827C682.735 953.974 681.813 954.208 682.735 953.699C683.657 953.19 684.689 952.268 685.68 952.24C686.657 952.213 686.547 954.098 687.235 954.07C687.923 954.043 690.592 951.277 690.592 951.277C690.592 951.277 690.001 952.254 690.689 953.245C691.377 954.222 691.652 953.355 692.065 953.74C692.464 954.125 692.134 955.295 692.946 954.786C693.744 954.277 693.345 953.96 694.033 953.74C694.721 953.52 694.9 953.437 695.533 953.217C696.166 952.997 695.849 954.291 696.606 953.988C697.363 953.685 698.478 951.869 698.478 951.869C698.478 951.869 697.776 953.341 698.491 953.492C698.822 953.561 700.556 952.405 700.845 952.405C701.712 952.378 700.817 954.841 700.817 954.841C700.817 954.841 702.276 953.492 702.799 954.208C702.881 954.332 703.955 953.891 704.56 953.699C705.386 953.451 708.84 953.052 707.189 954.469C706.611 954.979 707.711 956.547 707.822 956.644C707.987 956.795 716.422 957.18 716.422 957.18C716.422 957.18 715.941 957.648 709.9 958.075C706.803 958.295 699.413 957.552 698.574 957.662C698.106 957.717 706.927 959.768 706.225 959.781C703.143 959.85 686.271 958.557 684.593 958.502C682.515 958.446 655.969 957.951 654.469 957.8C652.969 957.648 671.795 956.534 671.795 956.534L672.895 956.176C672.895 956.176 670.873 956.203 666.207 956.231C661.542 956.258 649.46 955.956 648.07 956.011C646.694 956.052 646.653 956.382 643.887 956.341C641.121 956.313 630.249 954.841 630.249 954.841C630.249 954.841 626.616 952.02 626.905 952.02C627.194 952.02 638.038 951.992 638.382 951.979C638.726 951.979 647.189 953.823 647.189 953.823L647.162 953.809Z" fill="url(#paint19_linear_796_11957)"/>
</g>
<defs>
<linearGradient id="paint0_linear_796_11957" x1="-7.54486" y1="848.15" x2="1089.48" y2="848.15" gradientUnits="userSpaceOnUse">
<stop offset="0.03" stop-color="#6BADB0"/>
<stop offset="0.46" stop-color="#7BA390"/>
<stop offset="0.7" stop-color="#859E7D"/>
<stop offset="0.99" stop-color="#CCAB7D"/>
</linearGradient>
<linearGradient id="paint1_linear_796_11957" x1="147.036" y1="785.591" x2="242.855" y2="785.591" gradientUnits="userSpaceOnUse">
<stop offset="0.03" stop-color="#6BA6A1"/>
<stop offset="1" stop-color="#6B9C91"/>
</linearGradient>
<linearGradient id="paint2_linear_796_11957" x1="321.818" y1="847.145" x2="349.34" y2="898.062" gradientUnits="userSpaceOnUse">
<stop offset="0.02" stop-color="#63969C"/>
<stop offset="1" stop-color="#5C968A"/>
</linearGradient>
<linearGradient id="paint3_linear_796_11957" x1="286.74" y1="866.081" x2="525.21" y2="866.081" gradientUnits="userSpaceOnUse">
<stop offset="0.03" stop-color="#6BA3B0"/>
<stop offset="0.65" stop-color="#6B9A90"/>
<stop offset="1" stop-color="#6B967D"/>
</linearGradient>
<linearGradient id="paint4_linear_796_11957" x1="236.663" y1="772.862" x2="386.069" y2="772.862" gradientUnits="userSpaceOnUse">
<stop offset="0.02" stop-color="#63969C"/>
<stop offset="1" stop-color="#7A8C7D"/>
</linearGradient>
<linearGradient id="paint5_linear_796_11957" x1="358.313" y1="768.197" x2="449.151" y2="768.197" gradientUnits="userSpaceOnUse">
<stop offset="0.03" stop-color="#6B8A99"/>
<stop offset="1" stop-color="#7A8C7D"/>
</linearGradient>
<linearGradient id="paint6_linear_796_11957" x1="378.171" y1="768.362" x2="476.289" y2="768.362" gradientUnits="userSpaceOnUse">
<stop offset="0.02" stop-color="#B3AD80"/>
<stop offset="0.57" stop-color="#939E89"/>
<stop offset="1" stop-color="#789191"/>
</linearGradient>
<linearGradient id="paint7_linear_796_11957" x1="609.552" y1="799.861" x2="701.065" y2="799.861" gradientUnits="userSpaceOnUse">
<stop offset="0.02" stop-color="#6B9CB0"/>
<stop offset="0.65" stop-color="#749290"/>
<stop offset="1" stop-color="#7A8C7D"/>
</linearGradient>
<linearGradient id="paint8_linear_796_11957" x1="661.983" y1="856.984" x2="963.438" y2="856.984" gradientUnits="userSpaceOnUse">
<stop offset="0.04" stop-color="#A1AD94"/>
<stop offset="1" stop-color="#B8A87D"/>
</linearGradient>
<linearGradient id="paint9_linear_796_11957" x1="930.934" y1="846.87" x2="935.392" y2="811.641" gradientUnits="userSpaceOnUse">
<stop offset="0.03" stop-color="#BFA680"/>
<stop offset="1" stop-color="#D1C27D"/>
</linearGradient>
<linearGradient id="paint10_linear_796_11957" x1="687.813" y1="811.393" x2="801.674" y2="811.393" gradientUnits="userSpaceOnUse">
<stop offset="0.04" stop-color="#6B96B0"/>
<stop offset="0.66" stop-color="#748F90"/>
<stop offset="1" stop-color="#7A8C7D"/>
</linearGradient>
<linearGradient id="paint11_linear_796_11957" x1="209.608" y1="863.205" x2="296.015" y2="863.205" gradientUnits="userSpaceOnUse">
<stop offset="0.03" stop-color="#6BADB0"/>
<stop offset="0.65" stop-color="#6E9D90"/>
<stop offset="1" stop-color="#70947D"/>
</linearGradient>
<linearGradient id="paint12_linear_796_11957" x1="4.74417" y1="823.476" x2="229.383" y2="823.476" gradientUnits="userSpaceOnUse">
<stop offset="0.03" stop-color="#6B9CA8"/>
<stop offset="1" stop-color="#7A999E"/>
</linearGradient>
<linearGradient id="paint13_linear_796_11957" x1="136.192" y1="779.715" x2="152.279" y2="770.123" gradientUnits="userSpaceOnUse">
<stop offset="0.03" stop-color="#6B99A6"/>
<stop offset="1" stop-color="#69919C"/>
</linearGradient>
<linearGradient id="paint14_linear_796_11957" x1="120.614" y1="791.178" x2="140.086" y2="773.949" gradientUnits="userSpaceOnUse">
<stop offset="0.03" stop-color="#6B99A6"/>
<stop offset="1" stop-color="#69919C"/>
</linearGradient>
<linearGradient id="paint15_linear_796_11957" x1="424.408" y1="911.947" x2="926.544" y2="911.947" gradientUnits="userSpaceOnUse">
<stop offset="0.03" stop-color="#6BAD94"/>
<stop offset="0.41" stop-color="#8AB18B"/>
<stop offset="1" stop-color="#C2BA7D"/>
</linearGradient>
<linearGradient id="paint16_linear_796_11957" x1="764.215" y1="824.136" x2="910.47" y2="824.136" gradientUnits="userSpaceOnUse">
<stop offset="0.02" stop-color="#B3AD80"/>
<stop offset="0.57" stop-color="#939B7E"/>
<stop offset="1" stop-color="#788C7D"/>
</linearGradient>
<linearGradient id="paint17_linear_796_11957" x1="773.106" y1="932.231" x2="697.405" y2="830.742" gradientUnits="userSpaceOnUse">
<stop offset="0.03" stop-color="#94A680"/>
<stop offset="1" stop-color="#A3A887"/>
</linearGradient>
<linearGradient id="paint18_linear_796_11957" x1="661.942" y1="908.534" x2="660.786" y2="987.565" gradientUnits="userSpaceOnUse">
<stop offset="0.04" stop-color="#9EC98F"/>
<stop offset="0.66" stop-color="#7EB783"/>
<stop offset="1" stop-color="#6BAD7D"/>
</linearGradient>
<linearGradient id="paint19_linear_796_11957" x1="626.864" y1="955.529" x2="716.436" y2="955.529" gradientUnits="userSpaceOnUse">
<stop stop-color="#5E9678"/>
<stop offset="0.54" stop-color="#74B57A"/>
<stop offset="1" stop-color="#8AD47D"/>
</linearGradient>
<clipPath id="clip0_796_11957">
<rect width="1920" height="1080" fill="white"/>
</clipPath>
</defs>
</svg>
