<svg width="1920" height="1080" viewBox="0 0 1920 1080" fill="none" xmlns="http://www.w3.org/2000/svg">
<path d="M1773.95 376.196C1773.66 377.484 1773.39 378.618 1773.17 379.545C1773.15 379.545 1773.15 379.556 1773.15 379.571C1772.75 381.282 1772.47 382.291 1772.47 382.291C1772.47 382.291 1771.81 382.703 1770.47 383.399C1761.87 387.845 1725.6 404.125 1664.67 397.919C1648.9 396.322 1640.54 395.008 1637.05 393.937C1624.95 390.238 1671.24 389.454 1671.24 389.454L1568.69 390.753C1568.69 390.753 1593.01 393.355 1596.97 398.571C1600.91 403.775 1469.01 418.089 1386.72 404.419C1386.72 404.419 1382.66 400.514 1389.57 398.891L1364.59 395.633C1364.59 395.633 1373.95 406.532 1333.02 406.532C1292.09 406.532 1300.98 398.725 1300.98 398.725L1102.33 400.786H1102.3L1088.98 400.926C1088.98 400.926 1111.43 402.137 1109.44 406.3C1108.13 409.072 996.296 408.49 996.296 408.49L997.077 406.311C997.077 406.311 1019.64 386.866 1039.36 388.151C1054.33 389.126 1063.85 401.894 1063.85 401.894L1081.84 400.234C1081.84 400.234 1081.59 393.602 1088.98 388.228C1096.39 382.869 1100.58 390.676 1100.58 390.676C1100.58 390.676 1114.46 368.297 1141.09 363.416C1167.71 358.536 1185.78 383.59 1185.78 383.59C1185.78 383.59 1198.61 378.386 1206.81 390.433C1206.81 390.433 1226.21 358.863 1257.76 363.582C1270.49 365.485 1283.01 376.762 1292.59 377.535C1296.76 377.87 1299.83 378.18 1301.12 378.308C1299.81 378.117 1296.79 377.664 1294.18 376.932H1294.16C1291.97 376.313 1290.04 375.5 1289.65 374.484C1288.66 371.882 1301.8 357.891 1301.8 357.891C1301.8 357.891 1253.33 371.061 1260.67 343.191C1270.26 306.792 1342.24 281.086 1342.24 281.086C1342.24 281.086 1369.52 236.167 1398.11 212.242C1426.29 188.678 1414.25 217.241 1413.9 218.091C1414.56 217.344 1435.76 193.537 1448.87 181.505C1448.31 181.593 1439.47 183.091 1437.55 171.725C1435.58 160.013 1472.07 131.211 1487.34 130.722C1502.63 130.232 1480.45 161.96 1480.45 161.96C1480.45 161.96 1515.45 144.709 1525.97 166.844C1525.97 166.844 1579.21 128.44 1622.6 144.712C1665.52 160.804 1616.46 271.141 1615.38 273.552C1615.83 272.856 1622.18 263.154 1628.52 262.535C1634.96 261.891 1630.03 276.912 1629.84 277.494C1630.42 276.89 1668.12 237.161 1689.65 239.104C1711.34 241.047 1715.29 304.186 1705.42 332.822C1705.42 332.822 1729.75 312.648 1746.19 315.906C1762.62 319.152 1746.19 337.383 1746.19 337.383C1746.19 337.383 1761.97 336.738 1772.48 339.985C1780.39 342.432 1776.41 365.08 1773.95 376.199V376.196Z" fill="url(#paint0_linear_796_15833)"/>
<path d="M996.296 408.494C996.296 408.494 991.467 402.619 1027.68 402.748C1066.79 402.884 1109.45 406.304 1109.45 406.304C1109.45 406.304 1109.45 412.075 1060.56 412.889C1039.53 413.238 1050.04 408.453 1050.04 408.453L996.3 408.494H996.296Z" fill="url(#paint1_linear_796_15833)"/>
<path style="mix-blend-mode:multiply" opacity="0.5" d="M1491.54 335.196C1491.54 335.196 1498.69 339.009 1518.74 314.275C1538.79 289.541 1522.35 250.161 1522.35 250.161C1522.35 250.161 1539.77 265.782 1541.75 284.984C1541.75 284.984 1544.05 238.445 1523.34 214.686C1523.34 214.686 1518.74 229.332 1509.53 243.326C1509.53 243.326 1518.41 209.478 1513.8 184.744C1509.2 160.009 1500.68 155.909 1500.68 155.909C1500.68 155.909 1520.38 152.191 1525.97 166.841C1525.97 166.841 1531.55 185.395 1527.94 206.221C1527.94 206.221 1536.16 251.784 1574.61 257.154C1613.07 262.524 1641.26 173.975 1629.5 148.695C1629.5 148.695 1643.95 158.246 1639.34 192.005C1634.74 231.903 1615.37 273.548 1615.37 273.548C1615.37 273.548 1607.15 288.4 1610.11 299.63L1629.84 277.49C1629.84 277.49 1632.79 281.079 1658.42 284.494C1684.06 287.91 1706.31 260.353 1706.31 260.353C1706.31 260.353 1716.42 307.039 1705.42 332.822L1713.64 332.174C1713.64 332.174 1705.75 349.371 1709.2 359.647L1681.3 363.578L1624.4 347.957C1624.4 347.957 1651.03 345.027 1659.9 325.012C1668.78 304.996 1663.35 287.91 1636.73 293.77C1610.11 299.63 1593.84 330.577 1589.65 349.518L1566.72 353.817L1556.37 348.933C1556.37 348.933 1565.24 331.847 1555.87 325.012C1546.5 318.177 1533.7 336.231 1532.7 351.369C1531.71 366.508 1491.53 335.193 1491.53 335.193L1491.54 335.196Z" fill="url(#paint2_linear_796_15833)"/>
<path style="mix-blend-mode:multiply" opacity="0.5" d="M1413.94 349.717C1413.94 349.717 1402.05 343.566 1407.97 326.97C1413.89 310.374 1470.09 256.142 1470.09 256.142C1470.09 256.142 1450.2 273.478 1438.21 270.445C1426.22 267.412 1438.14 233.38 1438.14 233.38C1438.14 233.38 1413.89 295.235 1383.81 313.3C1353.74 331.361 1363.1 298.165 1371 279.128C1378.88 260.088 1413.9 218.091 1413.9 218.091C1413.9 218.091 1372.04 263.507 1363.14 277.174C1354.23 290.844 1342.24 281.086 1342.24 281.086C1342.24 281.086 1354.23 286.449 1350.78 305.979C1347.33 325.505 1322.84 348.785 1301.8 357.891L1296.73 363.582C1296.73 363.582 1321.25 338.27 1343.88 343.213C1361.13 346.982 1354.73 368.956 1354.73 368.956C1354.73 368.956 1384.01 356.279 1413.94 349.717Z" fill="url(#paint3_linear_796_15833)"/>
<path style="mix-blend-mode:multiply" opacity="0.5" d="M1147.15 362.798C1147.15 362.798 1157.03 364.314 1162.2 372.371C1167.38 380.425 1160.1 384.054 1150.29 387.506C1140.47 390.959 1102.3 399.222 1102.3 399.222C1102.3 399.222 1100.49 396.134 1100.57 390.679C1100.57 390.679 1098.35 395.641 1093.75 399.222C1089.15 402.803 1081.84 400.238 1081.84 400.238L1109.44 406.304L1102.3 400.79C1102.3 400.79 1134.27 387.333 1179.25 391.161L1170.01 387.179L1185.78 383.594C1185.78 383.594 1173.27 363.803 1147.16 362.798H1147.15Z" fill="url(#paint4_linear_796_15833)"/>
<path style="mix-blend-mode:multiply" opacity="0.5" d="M1444.94 345.524C1444.94 345.524 1435.91 341.604 1445.76 323.539C1455.63 305.478 1461.22 298.327 1461.22 298.327C1461.22 298.327 1441.82 324.022 1430.98 336.403C1424.61 343.669 1413.94 349.713 1413.94 349.713L1444.94 345.521L1444.94 345.524Z" fill="url(#paint5_linear_796_15833)"/>
<path style="mix-blend-mode:screen" d="M1507.56 253.742C1507.56 253.742 1485.87 260.25 1467.13 289.445C1453.59 310.539 1444.13 326.315 1446.75 328.593C1449.38 330.871 1484.22 333.312 1505.59 312.81C1526.95 292.305 1521.36 258.623 1507.56 253.742Z" fill="url(#paint6_linear_796_15833)"/>
<path d="M1596.97 398.574C1596.97 398.574 1602.88 386.527 1591.7 363.582C1580.53 340.636 1446.31 358.76 1446.31 358.76C1446.31 358.76 1382.89 374.48 1386.72 404.423L1596.97 398.574Z" fill="url(#paint7_linear_796_15833)"/>
<path style="mix-blend-mode:screen" opacity="0.5" d="M1642.32 292.839C1642.32 292.839 1616.19 294.451 1596.72 330.073C1596.72 330.073 1596.72 339.657 1619.52 335.752C1642.32 331.847 1654.67 293.969 1654.67 293.969C1654.67 293.969 1651.86 292.228 1642.32 292.835V292.839Z" fill="url(#paint8_linear_796_15833)"/>
<path style="mix-blend-mode:screen" opacity="0.5" d="M1480.45 161.96C1480.45 161.96 1437.06 187.35 1418.32 222.007C1418.32 222.007 1457.61 233.675 1486.36 218.087C1515.11 202.499 1507.47 164.448 1507.47 164.448C1507.47 164.448 1515.45 153.17 1480.45 161.96Z" fill="url(#paint9_linear_796_15833)"/>
<path style="mix-blend-mode:screen" opacity="0.5" d="M1529.48 164.485C1529.48 164.485 1545.03 178.564 1579.54 174.169C1614.05 169.774 1629.5 148.698 1629.5 148.698C1629.5 148.698 1597.74 125.51 1529.48 164.485Z" fill="url(#paint10_linear_796_15833)"/>
<path style="mix-blend-mode:screen" opacity="0.5" d="M1400.11 235.328C1400.11 235.328 1359.16 284.009 1364.09 310.37C1364.09 310.37 1395.75 305.21 1413.94 270.445C1432.13 235.681 1400.11 235.328 1400.11 235.328Z" fill="url(#paint11_linear_796_15833)"/>
<path style="mix-blend-mode:screen" opacity="0.5" d="M1377.07 233.38C1377.07 233.38 1365.57 247.397 1366.56 253.742C1367.54 260.088 1413.5 220.546 1413.94 210.295C1414.38 200.044 1391.66 215.201 1377.07 233.38Z" fill="url(#paint12_linear_796_15833)"/>
<path style="mix-blend-mode:screen" opacity="0.5" d="M1275.35 322.086C1275.35 322.086 1266.61 333.315 1274.68 340.147C1282.75 346.982 1332.05 328.921 1343.88 310.37C1355.71 291.819 1345.31 279.724 1338.71 282.426C1332.11 285.128 1291.44 302.103 1275.35 322.086H1275.35Z" fill="url(#paint13_linear_796_15833)"/>
<path style="mix-blend-mode:screen" opacity="0.5" d="M1206.81 390.433C1206.81 390.433 1216.68 392.873 1239.36 386.77C1262.04 380.668 1261.18 364.307 1261.18 364.307C1261.18 364.307 1230.73 357.479 1206.82 390.433H1206.81Z" fill="url(#paint14_linear_796_15833)"/>
<path style="mix-blend-mode:multiply" opacity="0.5" d="M1364.1 314.702C1364.1 314.702 1367.54 322.052 1381.68 324.022C1395.81 325.991 1409.61 319.362 1409.61 319.362C1409.61 319.362 1394.51 342.009 1400.75 352.389L1354.73 368.956C1354.73 368.956 1360.97 357.181 1357.03 343.213C1353.08 329.244 1338.95 336.691 1338.95 336.691C1338.95 336.691 1352.1 323.061 1354.4 307.44C1356.7 291.819 1349.27 284.237 1349.27 284.237C1349.27 284.237 1356.54 284.377 1368.09 270.441C1379.63 256.506 1385.24 250.025 1385.24 250.025C1385.24 250.025 1360.01 286.81 1364.11 314.698L1364.1 314.702Z" fill="url(#paint15_linear_796_15833)"/>
<path style="mix-blend-mode:screen" opacity="0.5" d="M1100.57 390.676C1100.57 390.676 1096.97 398.508 1119.95 394.091C1142.92 389.674 1155.05 377.02 1155.05 368.956C1155.05 357.722 1123.25 360.899 1100.57 390.676Z" fill="url(#paint16_linear_796_15833)"/>
<path d="M1773.17 379.549C1773.17 379.549 1773.15 379.56 1773.15 379.575C1772.55 380.745 1771.66 382.033 1770.47 383.402C1761.87 387.849 1725.6 404.129 1664.67 397.923C1648.9 396.325 1640.54 395.011 1637.05 393.94C1624.95 390.241 1671.24 389.457 1671.24 389.457L1568.69 390.757C1568.69 390.757 1593.01 393.359 1596.97 398.574C1600.91 403.779 1469.01 418.093 1386.72 404.423C1386.72 404.423 1382.66 400.518 1389.57 398.895L1364.59 395.637C1364.59 395.637 1373.95 406.536 1333.02 406.536C1292.09 406.536 1300.98 398.729 1300.98 398.729L1102.33 400.79H1102.3C1134.36 382.342 1202.87 393.845 1202.87 393.845C1262.1 384.146 1303.66 385.383 1308.01 385.523C1304.52 385.291 1278.34 383.307 1292.59 377.535C1293.07 377.34 1293.59 377.138 1294.16 376.928H1294.18C1313 370.266 1354.73 368.952 1354.73 368.952C1386.77 349.912 1444.94 345.517 1444.94 345.517C1444.94 345.517 1482.52 324.04 1510.14 324.014C1550.57 323.981 1532.71 351.366 1532.71 351.366C1532.71 351.366 1539.11 343.069 1553.4 343.209C1567.7 343.338 1566.72 353.813 1566.72 353.813L1582.99 351.366C1656.45 330.378 1681.59 341.122 1687.51 346.971C1693.42 352.831 1686.52 358.204 1686.52 358.204C1732.37 360.148 1772.79 367.48 1773.94 376.188C1774.06 377.131 1773.79 378.264 1773.16 379.538L1773.17 379.549Z" fill="url(#paint17_radial_796_15833)"/>
<path style="mix-blend-mode:multiply" opacity="0.5" d="M1565.99 349.717C1565.99 349.717 1569.86 335.432 1565.99 319.807C1562.12 304.186 1547.66 291.907 1547.66 291.907C1547.66 291.907 1562.78 304.186 1575.27 306.788C1587.76 309.391 1610.84 285.032 1610.84 285.032L1610.11 299.629C1610.11 299.629 1592.2 327.161 1589.65 349.521L1566.72 353.821L1565.99 349.717Z" fill="url(#paint18_linear_796_15833)"/>
<path style="mix-blend-mode:screen" opacity="0.5" d="M1434.48 199.614C1434.48 199.614 1422.27 209.32 1424.24 221.035C1426.22 232.751 1433.39 229.795 1446.32 218.091C1459.25 206.39 1457.12 183.901 1434.48 199.614Z" fill="url(#paint19_linear_796_15833)"/>
<path style="mix-blend-mode:screen" opacity="0.5" d="M1681.3 240.068C1681.3 240.068 1654.67 250.032 1652.42 265.9C1650.75 277.663 1658.84 276.78 1674.48 268.966C1690.12 261.155 1707.38 230.988 1681.3 240.065V240.068Z" fill="url(#paint20_linear_796_15833)"/>
<path style="mix-blend-mode:screen" opacity="0.5" d="M1599.16 141.539C1599.16 141.539 1573.08 141.315 1547.64 154.44C1522.2 167.569 1532.97 182.171 1563.76 181.004C1594.55 179.837 1642.4 144.204 1599.16 141.539Z" fill="url(#paint21_linear_796_15833)"/>
<path style="mix-blend-mode:screen" opacity="0.5" d="M1391.6 402.745C1391.6 402.745 1447.08 385.224 1501.65 386.851C1556.21 388.478 1582.99 402.745 1582.99 402.745C1582.99 402.745 1534.33 407.824 1483.06 407.824C1431.78 407.824 1393.9 407.301 1391.6 402.745Z" fill="url(#paint22_linear_796_15833)"/>
<path d="M1536.34 342.127C1536.34 342.127 1521.03 357.888 1470.09 366.674C1470.09 366.674 1510.2 363.085 1532.71 351.373L1535.81 346.68L1536.34 342.127Z" fill="url(#paint23_linear_796_15833)"/>
<path d="M1686.53 358.215C1686.53 358.215 1683.4 360.166 1662.7 365.047C1662.7 365.047 1699.84 356.158 1748.85 365.047C1748.85 365.047 1731.73 358.539 1686.53 358.215Z" fill="url(#paint24_linear_796_15833)"/>
<path d="M1206.81 390.433C1206.81 390.433 1221.96 368.455 1240.22 364.601C1258.47 360.748 1265.73 365.842 1265.73 365.842C1265.73 365.842 1252.39 362.099 1242.7 367.067C1234.4 371.319 1234.78 387.657 1206.82 390.433H1206.81Z" fill="#FFE58B"/>
<path d="M1260.67 343.191C1260.67 343.191 1258.85 355.665 1274.24 351.966C1301.03 345.532 1331.74 285.286 1331.74 285.286C1331.74 285.286 1267.8 309.604 1260.67 343.191H1260.67Z" fill="#FFE58B"/>
<path d="M1349.26 270.202C1349.26 270.202 1356.74 264.493 1376.47 244.967C1396.19 225.441 1400.27 210.472 1400.27 210.472C1400.27 210.472 1365.77 243.69 1349.26 270.202Z" fill="#FFE58B"/>
<path d="M1100.57 390.675C1100.57 390.675 1099.96 393.988 1104.4 390.911C1108.84 387.834 1127.67 365.934 1151.65 362.971C1151.65 362.971 1121.89 360.07 1100.57 390.672V390.675Z" fill="#FFE58B"/>
<path d="M1005.6 399.999C1005.6 399.999 1042.55 381.86 1058.07 396.075C1058.07 396.075 1040.91 375.058 1005.6 399.999Z" fill="#FFE58B"/>
<path d="M1363.69 306.431L1374.28 282.05C1374.28 282.05 1373.98 278.108 1375.96 270.202C1377.93 262.292 1391.61 246.274 1391.61 246.274C1391.61 246.274 1364.07 272.863 1363.7 306.431H1363.69Z" fill="#FFE58B"/>
<path d="M1438.14 175.019C1438.14 175.019 1437.93 160.024 1453.7 156.443C1469.48 152.861 1489.27 145.364 1492.69 136.258C1496.11 127.152 1480.66 130.578 1480.66 130.578C1480.66 130.578 1422.6 154.83 1439.14 176.628L1438.14 175.015V175.019Z" fill="#FFFFA2"/>
<path d="M1525.97 166.844C1525.97 166.844 1527.54 171.107 1528.25 178.258C1528.25 178.258 1545.08 149.744 1590.77 141.539C1590.77 141.539 1553.86 143.074 1525.97 166.844H1525.97Z" fill="#FFE58B"/>
<path d="M1497.75 122.271C1497.59 122.396 1495.54 123.647 1495.37 124.288C1495.26 124.696 1495.69 125.414 1495.92 125.679C1497.31 127.214 1499.52 125.885 1500.99 125.278C1503.36 124.295 1505.33 122.543 1507.34 120.986C1510.15 118.807 1512.97 116.606 1515.52 114.122C1516.05 113.599 1517.16 112.738 1516.78 111.851C1516.24 110.585 1513.76 110.552 1512.68 110.54C1509.06 110.507 1505.44 110.618 1501.99 111.777C1500.92 112.138 1500.17 112.631 1499.39 113.47C1498.44 114.497 1497.36 115.55 1496.62 116.739C1495.7 118.222 1495.02 120.276 1494.53 121.951C1494.34 122.591 1494.44 122.959 1495.11 123.18C1495.89 123.434 1496.36 122.771 1497.75 122.271H1497.75Z" fill="#FFFFA2"/>
<path d="M1490.19 113.481C1489.72 113.93 1489.59 114.402 1489.8 114.902C1490.47 114.633 1491.36 113.908 1491.95 113.47C1492.25 113.242 1493.1 112.719 1492.78 112.234C1492.63 112.02 1491.58 112.138 1491.37 112.204C1490.63 112.443 1489.69 113.235 1489.2 113.805L1490.19 113.481Z" fill="#FFFFA2"/>
<path d="M1523.06 107.298C1523.92 106.639 1524.7 105.505 1525.7 106.238C1525.97 106.436 1526.18 106.654 1526.43 106.893C1527 107.445 1527.12 107.581 1526.61 108.258C1525.9 109.193 1524.99 109.941 1523.79 109.915C1522.55 109.889 1522.07 109.079 1522.07 107.949L1523.06 107.298H1523.06Z" fill="#FFFFA2"/>
<path d="M1495.78 129.754C1496.13 128.624 1496.28 128.359 1497.43 128.153C1497.89 128.068 1498.4 128.046 1498.67 128.517C1499.04 129.161 1498.27 130.427 1498.09 131.046C1497.79 132.062 1496.98 132.478 1495.94 132.658C1494.84 132.849 1494.24 131.443 1495.13 130.729L1495.78 129.754H1495.78Z" fill="#FFFFA2"/>
<path d="M1433.33 160.999C1432.6 161.879 1431.68 162.692 1431.43 163.845C1431.34 164.26 1431.16 165.217 1431.41 165.597C1432.02 166.513 1433.89 165.457 1434.49 165.044C1435.95 164.025 1437.41 162.479 1438.11 160.852C1438.85 159.118 1440.02 156.818 1439.6 154.864C1439.31 153.539 1437.65 153.719 1436.55 153.91C1434.93 154.194 1434 155.246 1432.99 156.446C1431.61 158.092 1432.68 160.447 1432.68 162.306L1433.33 161.003L1433.33 160.999Z" fill="#FFFFA2"/>
<path d="M1428.4 163.278C1428.2 163.432 1425.78 164.746 1426.47 165.582C1426.91 166.108 1427.25 165.714 1427.74 165.471C1428.7 164.989 1428.98 164.43 1428.67 163.333C1428.58 163.314 1428.48 163.296 1428.39 163.278H1428.4Z" fill="#FFFFA2"/>
<path d="M1389.62 213.398C1388.3 213.99 1386.56 214.465 1385.47 215.466C1384.88 216.011 1384.41 216.979 1383.87 217.631C1383.14 218.51 1381.5 220.461 1381.73 221.757C1383.14 222.692 1385.66 220.564 1386.83 219.902C1388.83 218.775 1390.89 217.609 1392.52 215.989C1393.27 215.246 1394.75 214.222 1393.74 213.262C1392.67 212.242 1390.15 212.629 1388.95 213.074L1389.61 213.398H1389.62Z" fill="#FFFFA2"/>
<path d="M1376.79 226.417C1376.48 227.109 1376.46 227.778 1376.75 228.426C1377.43 228.592 1379.17 227.355 1379.38 226.744C1379.58 226.188 1379.34 225.846 1378.78 225.739C1378.02 225.599 1377.58 226.277 1377.13 226.744L1376.8 226.42L1376.79 226.417Z" fill="#FFFFA2"/>
<path d="M1261.68 327.548C1260.86 328.07 1260.38 328.63 1259.49 328.49C1258.91 328.398 1258.02 327.765 1257.7 327.279C1256.38 325.225 1257.56 321.57 1258.8 319.778C1260.55 317.227 1263.53 315.32 1266.12 313.69C1267.52 312.803 1269.28 311.603 1271.01 312.317C1272.8 313.049 1272.88 315.063 1272.72 316.679C1272.5 318.769 1271.83 320.768 1270.5 322.424C1269.76 323.344 1268.88 323.779 1267.88 324.382C1267.11 324.85 1266.4 325.413 1265.63 325.899C1264.29 326.76 1262.89 326.988 1261.68 327.548Z" fill="#FFFFA2"/>
<path d="M1258.72 331.21C1258.59 331.556 1257.29 333.82 1258.46 333.93C1259.08 333.989 1261.22 332.708 1261.07 332.071C1260.95 331.563 1260.41 331.696 1259.97 331.7C1258.96 331.703 1258.72 331.7 1257.98 332.432L1258.72 331.21H1258.72Z" fill="#FFFFA2"/>
<path d="M1277.95 313.392C1278.54 312.659 1279.47 311.739 1279.42 313.149C1279.4 313.767 1279.35 314.098 1278.85 314.522C1278.42 314.875 1277.79 315.39 1277.2 315.357C1276.69 315.328 1276.07 314.864 1276.71 314.371L1277.95 313.395V313.392Z" fill="#FFFFA2"/>
<path d="M1150.25 358.547C1151.48 359.29 1152.34 359.879 1153.72 360.122C1155.01 360.35 1156.45 360.38 1157.76 360.218C1158.79 360.089 1160.35 359.739 1160.58 358.528C1160.77 357.509 1160.15 356.647 1159.67 355.838C1159.39 355.378 1159.33 354.862 1158.97 354.446C1158.57 353.964 1158 353.703 1157.48 353.368C1156.65 352.838 1156.01 352.33 1155.04 352.087C1153.22 351.627 1151.44 351.671 1149.61 351.899C1148.57 352.028 1147.54 351.98 1146.91 352.923C1146.25 353.916 1146.67 355.477 1147.03 356.548C1147.48 357.906 1148.51 359.286 1150.25 358.55V358.547Z" fill="#FFFFA2"/>
<path d="M1164.06 362.698C1164.81 361.767 1164.92 361.484 1165.91 361.962C1166.15 362.08 1167.07 362.356 1167.05 362.698C1167.03 362.997 1166.28 363.309 1166.03 363.383C1165.4 363.563 1164.91 363.085 1164.3 363.188L1164.06 362.698Z" fill="#FFFFA2"/>
<defs>
<linearGradient id="paint0_linear_796_15833" x1="1452.51" y1="523.741" x2="1312.5" y2="206.161" gradientUnits="userSpaceOnUse">
<stop offset="0.27" stop-color="#FC6A7C"/>
<stop offset="1" stop-color="#FFEFA4"/>
</linearGradient>
<linearGradient id="paint1_linear_796_15833" x1="996.08" y1="407.828" x2="1109.44" y2="407.828" gradientUnits="userSpaceOnUse">
<stop stop-color="#E8626A"/>
<stop offset="1" stop-color="#D14581"/>
</linearGradient>
<linearGradient id="paint2_linear_796_15833" x1="1602.59" y1="363.582" x2="1602.59" y2="148.698" gradientUnits="userSpaceOnUse">
<stop stop-color="#D698C7"/>
<stop offset="1" stop-color="#FFDBFF"/>
</linearGradient>
<linearGradient id="paint3_linear_796_15833" x1="1383.41" y1="368.956" x2="1383.41" y2="218.091" gradientUnits="userSpaceOnUse">
<stop stop-color="#D698C7"/>
<stop offset="1" stop-color="#FFDBFF"/>
</linearGradient>
<linearGradient id="paint4_linear_796_15833" x1="1133.81" y1="406.304" x2="1133.81" y2="362.798" gradientUnits="userSpaceOnUse">
<stop stop-color="#D698C7"/>
<stop offset="1" stop-color="#FFDBFF"/>
</linearGradient>
<linearGradient id="paint5_linear_796_15833" x1="1437.58" y1="349.717" x2="1437.58" y2="298.33" gradientUnits="userSpaceOnUse">
<stop stop-color="#D698C7"/>
<stop offset="1" stop-color="#FFDBFF"/>
</linearGradient>
<linearGradient id="paint6_linear_796_15833" x1="1483.06" y1="330.076" x2="1483.06" y2="253.742" gradientUnits="userSpaceOnUse">
<stop/>
<stop offset="1" stop-color="#FFCF00"/>
</linearGradient>
<linearGradient id="paint7_linear_796_15833" x1="1512.53" y1="435.801" x2="1472.46" y2="344.906" gradientUnits="userSpaceOnUse">
<stop offset="0.47" stop-color="#FC6A7C"/>
<stop offset="1" stop-color="#FFE286"/>
</linearGradient>
<linearGradient id="paint8_linear_796_15833" x1="1625.69" y1="336.691" x2="1625.69" y2="292.713" gradientUnits="userSpaceOnUse">
<stop/>
<stop offset="1" stop-color="#FFCF00"/>
</linearGradient>
<linearGradient id="paint9_linear_796_15833" x1="1463.36" y1="226.203" x2="1463.36" y2="158.611" gradientUnits="userSpaceOnUse">
<stop/>
<stop offset="1" stop-color="#FFCF00"/>
</linearGradient>
<linearGradient id="paint10_linear_796_15833" x1="1579.49" y1="175.019" x2="1579.49" y2="141.852" gradientUnits="userSpaceOnUse">
<stop/>
<stop offset="1" stop-color="#FFCF00"/>
</linearGradient>
<linearGradient id="paint11_linear_796_15833" x1="1391.6" y1="310.37" x2="1391.6" y2="235.328" gradientUnits="userSpaceOnUse">
<stop/>
<stop offset="1" stop-color="#FFCF00"/>
</linearGradient>
<linearGradient id="paint12_linear_796_15833" x1="1390.22" y1="254.427" x2="1390.22" y2="206.979" gradientUnits="userSpaceOnUse">
<stop/>
<stop offset="1" stop-color="#FFCF00"/>
</linearGradient>
<linearGradient id="paint13_linear_796_15833" x1="1310.26" y1="341.626" x2="1310.26" y2="282.05" gradientUnits="userSpaceOnUse">
<stop/>
<stop offset="1" stop-color="#FFCF00"/>
</linearGradient>
<linearGradient id="paint14_linear_796_15833" x1="1234" y1="390.915" x2="1234" y2="363.722" gradientUnits="userSpaceOnUse">
<stop/>
<stop offset="1" stop-color="#FFCF00"/>
</linearGradient>
<linearGradient id="paint15_linear_796_15833" x1="1374.28" y1="368.956" x2="1374.28" y2="250.028" gradientUnits="userSpaceOnUse">
<stop stop-color="#D698C7"/>
<stop offset="1" stop-color="#FFDBFF"/>
</linearGradient>
<linearGradient id="paint16_linear_796_15833" x1="1127.71" y1="395.442" x2="1127.71" y2="362.975" gradientUnits="userSpaceOnUse">
<stop/>
<stop offset="1" stop-color="#FFCF00"/>
</linearGradient>
<radialGradient id="paint17_radial_796_15833" cx="0" cy="0" r="1" gradientUnits="userSpaceOnUse" gradientTransform="translate(1485.47 376.781) scale(239.151 101.825)">
<stop stop-color="#D7586A"/>
<stop offset="1" stop-color="#A64A8E"/>
</radialGradient>
<linearGradient id="paint18_linear_796_15833" x1="1579.25" y1="353.821" x2="1579.25" y2="285.032" gradientUnits="userSpaceOnUse">
<stop stop-color="#D698C7"/>
<stop offset="1" stop-color="#FFDBFF"/>
</linearGradient>
<linearGradient id="paint19_linear_796_15833" x1="1439.14" y1="228.481" x2="1439.14" y2="194.221" gradientUnits="userSpaceOnUse">
<stop/>
<stop offset="1" stop-color="#FFCF00"/>
</linearGradient>
<linearGradient id="paint20_linear_796_15833" x1="1667.08" y1="277.692" x2="1678.9" y2="235.109" gradientUnits="userSpaceOnUse">
<stop/>
<stop offset="1" stop-color="#FFCF00"/>
</linearGradient>
<linearGradient id="paint21_linear_796_15833" x1="1536.58" y1="177.84" x2="1613.68" y2="143.124" gradientUnits="userSpaceOnUse">
<stop/>
<stop offset="1" stop-color="#FFCF00"/>
</linearGradient>
<linearGradient id="paint22_linear_796_15833" x1="1391.6" y1="397.286" x2="1582.99" y2="397.286" gradientUnits="userSpaceOnUse">
<stop/>
<stop offset="1" stop-color="#FF3345"/>
</linearGradient>
<linearGradient id="paint23_linear_796_15833" x1="1507.02" y1="362.857" x2="1502.42" y2="352.421" gradientUnits="userSpaceOnUse">
<stop offset="0.47" stop-color="#FC6A7C"/>
<stop offset="1" stop-color="#E47D70"/>
</linearGradient>
<linearGradient id="paint24_linear_796_15833" x1="1712.9" y1="380.896" x2="1698.88" y2="349.095" gradientUnits="userSpaceOnUse">
<stop offset="0.47" stop-color="#FC6A7C"/>
<stop offset="1" stop-color="#E47D70"/>
</linearGradient>
</defs>
</svg>
