<svg width="1920" height="1080" viewBox="0 0 1920 1080" fill="none" xmlns="http://www.w3.org/2000/svg">
<g clip-path="url(#clip0_796_15940)">
<path d="M428.432 644.863L411.637 642.672L403.239 641.576L399.04 641.025L394.854 640.361L378.122 637.713L369.756 636.39L361.422 634.857C350.327 632.755 339.193 630.817 328.174 628.328L311.607 624.775C306.084 623.591 300.613 622.172 295.116 620.88C251.171 610.374 207.783 597.575 165.023 582.971C122.294 568.272 80.1987 551.762 38.7302 533.839C28.3694 529.337 17.9833 524.903 7.74277 520.135L-7.67176 513.105L-15.3727 509.578L-23.0166 505.923C-33.1811 501.003 -43.4153 496.221 -53.5227 491.18L-83.8262 476L-53.4404 490.99C-43.3013 495.962 -33.0355 500.68 -22.8393 505.531L-15.1891 509.16L-7.48178 512.668L7.94543 519.66C18.1922 524.403 28.591 528.817 38.9582 533.288C80.4584 551.116 122.573 567.518 165.308 582.122C208.011 596.815 251.348 609.696 295.249 620.298C300.739 621.602 306.205 623.027 311.721 624.224L328.275 627.809C339.282 630.329 350.409 632.273 361.498 634.42L369.82 636.01L378.173 637.39L394.886 640.145L399.066 640.835L403.258 641.412L411.649 642.564L428.432 644.863Z" fill="#7A5263"/>
<path d="M429.515 706.173C414.487 704.698 399.439 703.412 384.424 701.784L361.923 699.188C354.418 698.333 346.92 697.484 339.44 696.414L316.996 693.349C313.26 692.823 309.511 692.355 305.78 691.785L294.59 690.037C279.669 687.687 264.73 685.477 249.873 682.754C190.349 672.456 131.224 659.866 72.5865 645.364C13.9681 630.766 -44.1689 614.256 -101.806 596.169C-130.64 587.176 -159.303 577.651 -187.884 567.886C-202.127 562.87 -216.414 557.981 -230.619 552.857L-273.17 537.31L-230.543 552.648C-216.313 557.702 -202 562.522 -187.738 567.468C-159.145 577.176 -130.469 586.657 -101.622 595.599C-43.9662 613.585 14.1834 629.993 72.8018 644.496C131.401 659.094 190.482 671.779 249.974 682.171C264.819 684.92 279.758 687.155 294.666 689.53L305.85 691.297C309.58 691.873 313.323 692.348 317.066 692.88L339.497 695.99C346.964 697.098 354.462 697.978 361.961 698.871L384.449 701.575C399.452 703.273 414.493 704.634 429.515 706.179V706.173Z" fill="#7A5263"/>
<path d="M441.313 686.921C438.33 686.921 435.259 685.312 433.099 682.564C430.921 679.796 429.888 676.364 429.167 673.368C428.996 672.659 428.837 671.943 428.673 671.228C428.141 668.853 427.583 666.395 426.64 664.16L428.236 663.482C429.243 665.87 429.812 668.397 430.363 670.848C430.522 671.557 430.68 672.26 430.851 672.963C431.529 675.775 432.485 678.986 434.461 681.493C436.481 684.065 439.401 685.47 442.067 685.148C444.353 684.869 446.557 683.431 449.014 680.607C452.383 676.744 455.03 672.14 456.671 667.288L458.317 667.846C456.601 672.912 453.84 677.719 450.325 681.747C448.59 683.735 445.873 686.433 442.282 686.87C441.965 686.908 441.636 686.927 441.32 686.927L441.313 686.921Z" fill="#7A5263"/>
<path d="M475.593 832.016C469.039 827.197 463.694 819.882 460.122 810.864C456.702 802.207 455.252 793.087 454.283 785.304C451.87 765.849 451.648 746.09 453.612 726.578L455.34 726.755C453.384 746.134 453.612 765.76 456.005 785.089C456.955 792.758 458.38 801.745 461.73 810.224C465.176 818.945 470.324 825.994 476.619 830.617L475.587 832.01L475.593 832.016Z" fill="#7A5263"/>
<path d="M509.475 771.967C508.088 771.967 506.644 771.162 505.504 769.712C504.358 768.268 503.611 766.406 503.003 764.779C499.501 755.387 497.601 744.855 497.512 734.317L499.247 734.304C499.336 744.646 501.198 754.975 504.631 764.171C505.194 765.678 505.878 767.388 506.872 768.636C507.797 769.807 508.924 770.39 509.83 770.193C511.337 769.883 512.654 767.793 513.737 763.981C516.15 755.52 517.404 746.242 517.36 737.167H519.095C519.139 746.4 517.86 755.837 515.403 764.456C514.573 767.356 513.136 771.283 510.178 771.897C509.944 771.941 509.71 771.967 509.475 771.967Z" fill="#7A5263"/>
<path d="M436.608 657.859H427.748L426.342 639.265H438.013L436.608 657.859Z" fill="#FFE8CC"/>
<path d="M522.211 675.097H513.351L511.945 656.497H523.617L522.211 675.097Z" fill="#FFE8CC"/>
<path d="M437.786 716.281H428.926L427.52 697.681H439.192L437.786 716.281Z" fill="#FFE8CC"/>
<path d="M523.389 733.513H514.529L513.123 714.919H524.801L523.389 733.513Z" fill="#FFE8CC"/>
<path d="M419.699 712.791L421.618 720.156L531.73 741.125H524.352L417.488 722.956L414.829 714.26L419.699 712.791Z" fill="#6D3B28"/>
<path d="M424.942 654.629H419.699L422.321 665.256L524.352 684.692L527.303 682.969L424.942 654.629Z" fill="#6D3B28"/>
<path d="M479.482 1109.82H470.623L471.535 635.775H478.564L479.482 1109.82Z" fill="#6D3B28"/>
<path d="M483.909 1109.82H475.049L475.967 635.775H482.99L483.909 1109.82Z" fill="#A4613F"/>
<path d="M419.699 712.791L421.618 720.156L531.73 741.125L532.616 731.676L419.699 712.791Z" fill="#A4613F"/>
<path d="M424.942 654.629L427.229 663.9L527.303 682.969L529.665 675.813L424.942 654.629Z" fill="#A4613F"/>
<path d="M489.222 795.355L488.038 851.535H508.411L511.945 849.514L493.947 848.362L494.536 794.405L489.222 795.355Z" fill="#704356"/>
<path d="M494.536 794.405L493.947 848.362L511.945 849.514L513.123 795.355L494.536 794.405Z" fill="#A07281"/>
<path d="M510.356 846.012L496.537 845.189V797.603L510.356 798.312V846.012ZM497.405 844.366L509.488 845.088V799.135L497.405 798.515V844.366Z" fill="#704356"/>
<path d="M489.811 805.183H483.32L483.333 811.827H489.811V805.183Z" fill="#704356"/>
<path d="M489.811 833.327H483.32L483.333 839.971H489.811V833.327Z" fill="#704356"/>
<path fill-rule="evenodd" clip-rule="evenodd" d="M577.923 971.407C577.923 971.407 548.897 955.569 530.425 973.696L529.757 995.423C529.757 995.423 555.92 988.792 577.593 996.073L577.923 971.407Z" fill="url(#paint0_linear_796_15940)"/>
<path fill-rule="evenodd" clip-rule="evenodd" d="M577.593 996.073C577.593 996.073 556.912 1012.63 529.757 995.423C529.757 995.423 554.027 977.282 577.593 996.073Z" fill="url(#paint1_linear_796_15940)"/>
<g style="mix-blend-mode:multiply" opacity="0.3">
<path d="M569.341 967.74L568.636 967.726L568.19 990.198H562.391L562.384 990.539L550.038 1491.7H553.555V1521.43H554.259V1491H550.761L563.077 990.899H568.88L569.341 967.74Z" fill="#60157A"/>
</g>
<path fill-rule="evenodd" clip-rule="evenodd" d="M530.567 1491.36L534.982 993.581C534.982 993.581 555.15 982.91 573.39 995.481L558.606 1491.36H530.567Z" fill="url(#paint2_linear_796_15940)"/>
<g clip-path="url(#clip1_796_15940)">
<path fill-rule="evenodd" clip-rule="evenodd" d="M1111.73 958H1168.81C1168.81 958 1194.68 958.601 1193.79 984.822L1200.93 1259.93C1200.93 1259.93 1200.93 1278.01 1218.77 1282.3L2284.7 1278.92C2284.7 1278.92 2291.54 1286.01 2284.7 1296.39L1214.31 1298.18C1214.31 1298.18 1186.06 1295.33 1184.27 1260.79L1176.19 985.49C1176.19 985.49 1175.95 974.59 1163.46 974.396L1114.11 976.867C1114.11 976.867 1106.97 966.18 1111.73 958Z" fill="url(#paint3_linear_796_15940)"/>
<path fill-rule="evenodd" clip-rule="evenodd" d="M1111.73 985.581H1140.57C1140.57 985.581 1166.43 986.182 1165.55 1012.4L1172.68 1287.51C1172.68 1287.51 1172.68 1305.59 1190.52 1309.88L2284.7 1306.5C2284.7 1306.5 2294.59 1317.54 2284.7 1331.99L1186.06 1325.75C1186.06 1325.75 1157.81 1322.9 1156.03 1288.36L1147.95 1013.06C1147.95 1013.06 1147.7 1002.16 1135.21 1001.97L1114.1 1004.45C1114.1 1004.45 1106.96 993.76 1111.72 985.581H1111.73Z" fill="url(#paint4_linear_796_15940)"/>
<path fill-rule="evenodd" clip-rule="evenodd" d="M1195.2 1039.15L1189.63 1044.76V1077.34L1196.39 1084.85L1195.2 1039.15Z" fill="#462547"/>
<path fill-rule="evenodd" clip-rule="evenodd" d="M1185.12 1042.36V1034.88L1188.41 1032.75L1191.11 1034.88L1186.36 1042.36H1185.12Z" fill="#462547"/>
<path fill-rule="evenodd" clip-rule="evenodd" d="M1160.21 1078.23V1071.39L1167.68 1066.34V1088.03L1164.84 1085.2L1163.94 1078.82L1160.21 1078.23Z" fill="#462547"/>
<path fill-rule="evenodd" clip-rule="evenodd" d="M1168.81 958H1111.73C1106.97 966.18 1114.11 976.867 1114.11 976.867L1163.46 974.396C1175.95 974.59 1176.19 985.49 1176.19 985.49L1184.27 1260.79C1186.06 1295.33 1214.31 1298.18 1214.31 1298.18L2284.7 1296.39C2291.54 1286.01 2284.7 1278.92 2284.7 1278.92L1218.77 1282.3C1200.93 1278.01 1200.93 1259.93 1200.93 1259.93L1195.2 1039.15L1193.79 984.822C1194.68 958.601 1168.81 958 1168.81 958ZM1140.57 985.581H1111.73H1111.72C1106.96 993.76 1114.1 1004.45 1114.1 1004.45L1135.21 1001.97C1147.7 1002.16 1147.95 1013.06 1147.95 1013.06L1156.03 1288.36C1157.26 1312.2 1171.09 1320.94 1179.55 1324.07L1176.26 1326.09L1187.44 1325.76L1223.64 1325.97L1231.59 1326.09L1231.45 1326.01L2284.7 1331.99C2294.59 1317.54 2284.7 1306.5 2284.7 1306.5L1190.52 1309.88C1172.68 1305.59 1172.68 1287.51 1172.68 1287.51L1167.5 1087.86L1167.68 1088.03V1066.34L1166.96 1066.83L1165.55 1012.4C1166.43 986.182 1140.57 985.581 1140.57 985.581Z" fill="url(#paint5_linear_796_15940)"/>
</g>
</g>
<defs>
<linearGradient id="paint0_linear_796_15940" x1="530.045" y1="979.339" x2="578.561" y2="982.808" gradientUnits="userSpaceOnUse">
<stop offset="0.02" stop-color="#434280"/>
<stop offset="1" stop-color="#5778C7"/>
</linearGradient>
<linearGradient id="paint1_linear_796_15940" x1="529.905" y1="993.634" x2="577.543" y2="997.04" gradientUnits="userSpaceOnUse">
<stop stop-color="#352E7A"/>
<stop offset="0.98" stop-color="#573163"/>
</linearGradient>
<linearGradient id="paint2_linear_796_15940" x1="573.386" y1="1240.35" x2="530.564" y2="1240.35" gradientUnits="userSpaceOnUse">
<stop stop-color="#716CA1"/>
<stop offset="0.98" stop-color="#825780"/>
</linearGradient>
<linearGradient id="paint3_linear_796_15940" x1="1698.91" y1="1298.18" x2="1698.91" y2="958" gradientUnits="userSpaceOnUse">
<stop offset="0.02" stop-color="#634A6A"/>
<stop offset="0.13" stop-color="#69516F"/>
<stop offset="0.36" stop-color="#705875"/>
<stop offset="1" stop-color="#725A77"/>
</linearGradient>
<linearGradient id="paint4_linear_796_15940" x1="1699.59" y1="1332" x2="1699.59" y2="985.581" gradientUnits="userSpaceOnUse">
<stop offset="0.02" stop-color="#634A6A"/>
<stop offset="0.13" stop-color="#69516F"/>
<stop offset="0.36" stop-color="#705875"/>
<stop offset="1" stop-color="#725A77"/>
</linearGradient>
<linearGradient id="paint5_linear_796_15940" x1="1184" y1="1210.5" x2="1160.5" y2="958" gradientUnits="userSpaceOnUse">
<stop stop-color="#180919"/>
<stop offset="1" stop-color="#180919" stop-opacity="0"/>
</linearGradient>
<clipPath id="clip0_796_15940">
<rect width="1920" height="1080" fill="white"/>
</clipPath>
<clipPath id="clip1_796_15940">
<rect width="1179" height="374" fill="white" transform="translate(1110.09 958)"/>
</clipPath>
</defs>
</svg>
