<svg width="1920" height="1080" viewBox="0 0 1920 1080" fill="none" xmlns="http://www.w3.org/2000/svg">
<path fill-rule="evenodd" clip-rule="evenodd" d="M1583.9 972.853C1583.9 972.853 1515.91 926.551 1490.83 926.551C1473.69 926.551 1449.28 926.581 1434.4 931.504C1427.49 933.787 1413.27 952.901 1409.04 954.34C1397.97 958.114 1378.5 952.442 1363.62 961.079C1360.52 962.881 1362.99 973.528 1359.81 975.893C1358.43 976.924 1358.55 977.183 1357.53 978.236C1351.68 984.323 1372.87 1009.01 1376.72 1014.42C1381.08 1020.54 1369.24 1007.06 1381.55 1007.8C1406.63 1009.32 1583.91 972.861 1583.91 972.861L1583.9 972.853Z" fill="url(#paint0_linear_796_16726)"/>
<path fill-rule="evenodd" clip-rule="evenodd" d="M1330.47 1035.56L1334.28 1055.12H1525.54C1525.54 1055.12 1569.02 1032.43 1597.45 1017.24C1625.89 1002.04 1672 961.925 1672 961.925C1672 961.925 1450.11 977.406 1425.02 984.998C1399.94 992.59 1384.28 992.064 1374.24 985.991C1364.21 979.912 1359.8 975.886 1359.8 975.886C1359.8 975.886 1354.54 981.039 1352.17 986.051C1347.01 996.95 1338.57 1019.3 1336.22 1023.57C1332.88 1029.65 1330.47 1035.56 1330.47 1035.56H1330.47Z" fill="#312130"/>
<path fill-rule="evenodd" clip-rule="evenodd" d="M1426.4 984.382C1426.4 984.382 1445.25 1004.65 1468.68 1009.71C1482.07 1012.6 1496.6 999.248 1510.88 1002.76C1538.41 1009.55 1563 1016.81 1566.95 1021.88C1573.26 1029.97 1540.21 1037.85 1506.71 1037.81C1498.5 1037.81 1452.61 1053.16 1445.48 1053.13C1437.48 1053.1 1492.97 1025.61 1488.17 1025.79C1482.7 1026.01 1450.32 1031.49 1447.27 1031.91C1435.52 1033.5 1436.72 1041.6 1434.92 1039.16C1432.67 1036.08 1416.69 1031.5 1404.84 1027.4C1393 1023.3 1375.19 1007.03 1378.57 1007.96C1407.61 1015.97 1409.14 1023.95 1422.68 1024.46C1436.21 1024.98 1461.41 1013.8 1464.23 1013.8C1467.05 1013.8 1406.46 1000.24 1389.07 990.447C1377.73 991.011 1373.7 980.653 1367.24 991.137C1360.25 986.896 1347.31 991.789 1350.66 987.215C1345.66 986.807 1365.92 987.674 1359.8 975.886C1362.23 975.878 1360.58 961.554 1363.62 961.072C1365.88 968.457 1399.47 979.637 1412.38 978.718C1432.12 977.309 1454.35 979.83 1460.8 977.509C1462.41 976.931 1538.34 970.681 1527.77 971.563C1524.88 971.8 1428.7 967.774 1431.52 966.781C1411.6 963.682 1400.46 957.839 1409.03 954.34C1416.33 951.359 1419.19 943.263 1428.11 935.826C1419.23 947.659 1470.21 945.88 1477 944.946C1488.73 943.33 1498.14 942.277 1500.7 942.069C1532.29 939.511 1556.19 971.533 1556.19 971.533C1556.19 971.533 1471.52 983.352 1453.47 983.863C1435.42 984.375 1426.4 984.375 1426.4 984.375V984.382Z" fill="#3E2B3D"/>
<path fill-rule="evenodd" clip-rule="evenodd" d="M1644.24 881.468C1644.24 881.468 1627.39 874.929 1620.55 874.929C1613.71 874.929 1603.88 873.683 1594.39 877.999C1585.19 882.18 1584.98 873.898 1574.53 878.747C1569.51 883.574 1566.5 889.283 1568.82 891.307C1556.35 893.116 1549.93 902.999 1535.56 905.817C1527.27 913.958 1522.75 926.977 1522.75 926.977C1522.75 926.977 1553.82 941.057 1553.11 944.601C1552.41 948.152 1515.98 944.942 1505.75 950.873C1503.96 951.911 1492.37 960.482 1491.66 963.322C1490.96 966.162 1489.19 988.931 1489.19 988.931L1700.72 969.179C1700.72 969.179 1676.24 919.066 1663.95 903.392C1663.78 903.177 1666.89 891.567 1666.72 891.359C1661.39 884.864 1654.12 880.571 1644.24 881.468Z" fill="url(#paint1_linear_796_16726)"/>
<path fill-rule="evenodd" clip-rule="evenodd" d="M1634.07 877.88C1635.05 877.88 1650.32 891.24 1663.49 901.606C1674.79 900.093 1675.8 905.632 1679.61 907.537C1679.33 911.252 1676.86 914.595 1679.61 915.478C1684.87 912.668 1699.57 913.417 1700.98 915.478C1703.04 918.51 1700.59 956.353 1700.59 956.353C1700.59 956.353 1697.27 945.817 1658.21 939.567C1649.36 940.634 1610.71 944.505 1603.63 941.309C1596.55 938.113 1573.72 955.011 1566.29 956.783C1531.51 949.383 1520.18 934.34 1520.18 934.34C1520.18 934.34 1521.06 923.974 1530.55 914.358C1531.58 913.313 1537.87 917.265 1538.88 916.264C1544.72 910.473 1561.67 901.087 1563.76 900.212C1560.62 905.461 1548.91 917.724 1549.71 920.03C1550.04 921.001 1549.56 922.721 1559.6 918.903C1560.35 917.635 1574.59 914.217 1582.17 913.231C1595.78 911.444 1607.03 912.801 1615.67 915.307C1609.02 918.288 1595.48 927.607 1592.63 933.643C1591.44 929.061 1640.27 911.86 1654.42 916.278C1655.1 916.612 1639.5 909.835 1636.12 910.421C1629.74 909.005 1628.76 913.72 1623.81 910.525C1618.85 907.329 1591.2 906.151 1591.2 906.151C1591.2 906.151 1595.13 889.565 1622.26 886.955C1644.43 884.827 1638.97 880.631 1634.07 877.872V877.88Z" fill="url(#paint2_linear_796_16726)"/>
<path fill-rule="evenodd" clip-rule="evenodd" d="M1492.08 970.499C1490.67 974.755 1475.3 987.685 1475.3 987.685L1543.02 1005.86H1608.62C1608.62 1005.86 1677.47 977.906 1664.72 978.796C1661.91 978.988 1688.09 965.457 1700.58 956.345C1695.23 948.501 1708.48 934.117 1704.09 924.797C1703.29 923.1 1702.28 916.241 1700.96 915.47C1691.65 922.01 1685.45 918.191 1683.32 917.324C1680.81 916.293 1682.47 908.175 1679.6 907.53C1673.75 906.217 1662.43 908.204 1653.75 910.651C1651.27 910.34 1653.35 906.818 1664.68 902.644C1667.85 899.292 1667.01 894.532 1666.7 891.352C1655.42 893.732 1649.2 882.299 1635.53 878.265C1643.9 883.248 1637.56 892.627 1627.65 893.101C1626.78 894.688 1636.51 902.525 1635.36 903.993C1616.65 898.788 1592.69 904.683 1591.18 906.158C1611.7 904.942 1625.76 911.429 1625.56 911.489C1652.17 910.955 1669.09 920.519 1667.51 923.203C1660.75 921.973 1638.68 921.609 1640.38 925.643C1626.49 949.25 1569.07 964.797 1555.63 972.938C1554.33 963.893 1602.32 922.588 1601.16 922.692C1593.02 924.694 1583.96 926.354 1573.63 927.192C1570.14 927.474 1569.47 925.079 1565.68 925.146C1539.74 928.438 1544.32 923.366 1543.27 919.904C1538.12 922.454 1531.24 929.72 1525.49 929.253C1517.05 936.104 1560.28 955.522 1552.6 958.006C1541.84 955.782 1512.03 959.274 1507.09 951.667C1495.01 955.04 1494.86 965.598 1492.06 970.514L1492.08 970.499Z" fill="url(#paint3_linear_796_16726)"/>
<path fill-rule="evenodd" clip-rule="evenodd" d="M1597.25 883.396C1597.25 883.396 1574.66 886.881 1566.51 889.721C1558.37 892.56 1556.66 891.189 1549.93 898.64C1540.38 904.927 1533.98 899.455 1528.5 915.485C1540.95 897.09 1547.11 908.516 1553.84 902.206C1557.64 901.005 1574.43 888.438 1574.11 891.7C1569.32 895.496 1562.6 899.9 1562.09 906.766C1569.21 901.139 1576.56 896.571 1583.72 892.894C1588.64 890.366 1606.55 886.473 1611.18 884.723C1615.26 883.174 1606.11 883.693 1609.77 882.677C1618.64 880.201 1625.97 879.148 1630.49 878.948C1635.1 877.887 1620.58 875.092 1620.58 875.092C1620.58 875.092 1588.36 874.002 1584.47 875.774C1578.66 877.554 1573.52 879.303 1573.52 879.303C1573.52 879.303 1585.91 879.148 1597.24 883.396H1597.25Z" fill="url(#paint4_linear_796_16726)"/>
<defs>
<linearGradient id="paint0_linear_796_16726" x1="1583.9" y1="971.281" x2="1356.51" y2="971.281" gradientUnits="userSpaceOnUse">
<stop stop-color="#747492"/>
<stop offset="1" stop-color="#6F747E"/>
</linearGradient>
<linearGradient id="paint1_linear_796_16726" x1="1689.01" y1="864.097" x2="1587.44" y2="969.486" gradientUnits="userSpaceOnUse">
<stop stop-color="#747492"/>
<stop offset="1" stop-color="#6F747E"/>
</linearGradient>
<linearGradient id="paint2_linear_796_16726" x1="1636.9" y1="844.256" x2="1600.19" y2="983.899" gradientUnits="userSpaceOnUse">
<stop stop-color="#6D6A74"/>
<stop offset="1" stop-color="#4C626A"/>
</linearGradient>
<linearGradient id="paint3_linear_796_16726" x1="1577.43" y1="878.499" x2="1606.83" y2="995.061" gradientUnits="userSpaceOnUse">
<stop stop-color="#4D454C"/>
<stop offset="1" stop-color="#2F122E"/>
</linearGradient>
<linearGradient id="paint4_linear_796_16726" x1="1574.42" y1="882.277" x2="1582.52" y2="903.739" gradientUnits="userSpaceOnUse">
<stop stop-color="#958D92"/>
<stop offset="1" stop-color="#6F747E"/>
</linearGradient>
</defs>
</svg>
